%FSLAX36Y36*%
G04 Gerber Fmt 3.6, Leading zero omitted, Abs format (unit inch)*
G04 Created by KiCad (PCBNEW (2014-jul-16 BZR unknown)-product) date Tue 13 Jan 2015 02:04:58 PM PST*
%MOIN*%
G01*
G04 APERTURE LIST*
%ADD10C,0.003937*%
%ADD11C,0.008000*%
%ADD12C,0.015748*%
%ADD13C,0.007874*%
%ADD14C,0.005906*%
%ADD15C,0.010000*%
G04 APERTURE END LIST*
D10*
D11*
X5187952Y-4692619D02*
X5159381Y-4692619D01*
X5173667Y-4692619D02*
X5173667Y-4642619D01*
X5168905Y-4649762D01*
X5164143Y-4654524D01*
X5159381Y-4656905D01*
X5204619Y-4642619D02*
X5235571Y-4642619D01*
X5218905Y-4661667D01*
X5226048Y-4661667D01*
X5230810Y-4664048D01*
X5233190Y-4666429D01*
X5235571Y-4671190D01*
X5235571Y-4683095D01*
X5233190Y-4687857D01*
X5230810Y-4690238D01*
X5226048Y-4692619D01*
X5211762Y-4692619D01*
X5207000Y-4690238D01*
X5204619Y-4687857D01*
X5271286Y-4642619D02*
X5271286Y-4678333D01*
X5268905Y-4685476D01*
X5264143Y-4690238D01*
X5257000Y-4692619D01*
X5252238Y-4692619D01*
X5316524Y-4692619D02*
X5316524Y-4666429D01*
X5314143Y-4661667D01*
X5309381Y-4659286D01*
X5299857Y-4659286D01*
X5295095Y-4661667D01*
X5316524Y-4690238D02*
X5311762Y-4692619D01*
X5299857Y-4692619D01*
X5295095Y-4690238D01*
X5292714Y-4685476D01*
X5292714Y-4680714D01*
X5295095Y-4675952D01*
X5299857Y-4673571D01*
X5311762Y-4673571D01*
X5316524Y-4671190D01*
X5340333Y-4659286D02*
X5340333Y-4692619D01*
X5340333Y-4664048D02*
X5342714Y-4661667D01*
X5347476Y-4659286D01*
X5354619Y-4659286D01*
X5359381Y-4661667D01*
X5361762Y-4666429D01*
X5361762Y-4692619D01*
X5383191Y-4647381D02*
X5385571Y-4645000D01*
X5390333Y-4642619D01*
X5402238Y-4642619D01*
X5407000Y-4645000D01*
X5409381Y-4647381D01*
X5411762Y-4652143D01*
X5411762Y-4656905D01*
X5409381Y-4664048D01*
X5380810Y-4692619D01*
X5411762Y-4692619D01*
X5442714Y-4642619D02*
X5447476Y-4642619D01*
X5452238Y-4645000D01*
X5454619Y-4647381D01*
X5457000Y-4652143D01*
X5459381Y-4661667D01*
X5459381Y-4673571D01*
X5457000Y-4683095D01*
X5454619Y-4687857D01*
X5452238Y-4690238D01*
X5447476Y-4692619D01*
X5442714Y-4692619D01*
X5437952Y-4690238D01*
X5435571Y-4687857D01*
X5433191Y-4683095D01*
X5430810Y-4673571D01*
X5430810Y-4661667D01*
X5433191Y-4652143D01*
X5435571Y-4647381D01*
X5437952Y-4645000D01*
X5442714Y-4642619D01*
X5507000Y-4692619D02*
X5478429Y-4692619D01*
X5492714Y-4692619D02*
X5492714Y-4642619D01*
X5487952Y-4649762D01*
X5483191Y-4654524D01*
X5478429Y-4656905D01*
X5552238Y-4642619D02*
X5528429Y-4642619D01*
X5526048Y-4666429D01*
X5528429Y-4664048D01*
X5533191Y-4661667D01*
X5545095Y-4661667D01*
X5549857Y-4664048D01*
X5552238Y-4666429D01*
X5554619Y-4671190D01*
X5554619Y-4683095D01*
X5552238Y-4687857D01*
X5549857Y-4690238D01*
X5545095Y-4692619D01*
X5533191Y-4692619D01*
X5528429Y-4690238D01*
X5526048Y-4687857D01*
X5075000Y-4425000D02*
X4800000Y-4425000D01*
X5494048Y-4553571D02*
X5455952Y-4553571D01*
X5494048Y-4353571D02*
X5455952Y-4353571D01*
X5475000Y-4372619D02*
X5475000Y-4334524D01*
X4246190Y-3983095D02*
X4227143Y-3983095D01*
X4225238Y-4002143D01*
X4227143Y-4000238D01*
X4230952Y-3998333D01*
X4240476Y-3998333D01*
X4244286Y-4000238D01*
X4246190Y-4002143D01*
X4248095Y-4005952D01*
X4248095Y-4015476D01*
X4246190Y-4019286D01*
X4244286Y-4021190D01*
X4240476Y-4023095D01*
X4230952Y-4023095D01*
X4227143Y-4021190D01*
X4225238Y-4019286D01*
X4259524Y-3983095D02*
X4272857Y-4023095D01*
X4286190Y-3983095D01*
X4183571Y-4505000D02*
X4179762Y-4503095D01*
X4174048Y-4503095D01*
X4168333Y-4505000D01*
X4164524Y-4508810D01*
X4162619Y-4512619D01*
X4160714Y-4520238D01*
X4160714Y-4525952D01*
X4162619Y-4533571D01*
X4164524Y-4537381D01*
X4168333Y-4541190D01*
X4174048Y-4543095D01*
X4177857Y-4543095D01*
X4183571Y-4541190D01*
X4185476Y-4539286D01*
X4185476Y-4525952D01*
X4177857Y-4525952D01*
X4202619Y-4543095D02*
X4202619Y-4503095D01*
X4225476Y-4543095D01*
X4225476Y-4503095D01*
X4244524Y-4543095D02*
X4244524Y-4503095D01*
X4254048Y-4503095D01*
X4259762Y-4505000D01*
X4263571Y-4508810D01*
X4265476Y-4512619D01*
X4267381Y-4520238D01*
X4267381Y-4525952D01*
X4265476Y-4533571D01*
X4263571Y-4537381D01*
X4259762Y-4541190D01*
X4254048Y-4543095D01*
X4244524Y-4543095D01*
X4786429Y-4768095D02*
X4763571Y-4768095D01*
X4775000Y-4768095D02*
X4775000Y-4728095D01*
X4771191Y-4733810D01*
X4767381Y-4737619D01*
X4763571Y-4739524D01*
D12*
X4793307Y-4311024D02*
X5088583Y-4311024D01*
D11*
X5564286Y-4389857D02*
X5561905Y-4392238D01*
X5554762Y-4394619D01*
X5550000Y-4394619D01*
X5542857Y-4392238D01*
X5538095Y-4387476D01*
X5535714Y-4382714D01*
X5533333Y-4373190D01*
X5533333Y-4366048D01*
X5535714Y-4356524D01*
X5538095Y-4351762D01*
X5542857Y-4347000D01*
X5550000Y-4344619D01*
X5554762Y-4344619D01*
X5561905Y-4347000D01*
X5564286Y-4349381D01*
X5592857Y-4394619D02*
X5588095Y-4392238D01*
X5585714Y-4389857D01*
X5583333Y-4385095D01*
X5583333Y-4370810D01*
X5585714Y-4366048D01*
X5588095Y-4363667D01*
X5592857Y-4361286D01*
X5600000Y-4361286D01*
X5604762Y-4363667D01*
X5607143Y-4366048D01*
X5609524Y-4370810D01*
X5609524Y-4385095D01*
X5607143Y-4389857D01*
X5604762Y-4392238D01*
X5600000Y-4394619D01*
X5592857Y-4394619D01*
X5630952Y-4361286D02*
X5630952Y-4411286D01*
X5630952Y-4363667D02*
X5635714Y-4361286D01*
X5645238Y-4361286D01*
X5650000Y-4363667D01*
X5652381Y-4366048D01*
X5654762Y-4370810D01*
X5654762Y-4385095D01*
X5652381Y-4389857D01*
X5650000Y-4392238D01*
X5645238Y-4394619D01*
X5635714Y-4394619D01*
X5630952Y-4392238D01*
X5671429Y-4361286D02*
X5683333Y-4394619D01*
X5695238Y-4361286D02*
X5683333Y-4394619D01*
X5678571Y-4406524D01*
X5676191Y-4408905D01*
X5671429Y-4411286D01*
X5714286Y-4394619D02*
X5714286Y-4361286D01*
X5714286Y-4370810D02*
X5716667Y-4366048D01*
X5719048Y-4363667D01*
X5723810Y-4361286D01*
X5728571Y-4361286D01*
X5745238Y-4394619D02*
X5745238Y-4361286D01*
X5745238Y-4344619D02*
X5742857Y-4347000D01*
X5745238Y-4349381D01*
X5747619Y-4347000D01*
X5745238Y-4344619D01*
X5745238Y-4349381D01*
X5790476Y-4361286D02*
X5790476Y-4401762D01*
X5788095Y-4406524D01*
X5785714Y-4408905D01*
X5780952Y-4411286D01*
X5773810Y-4411286D01*
X5769048Y-4408905D01*
X5790476Y-4392238D02*
X5785714Y-4394619D01*
X5776191Y-4394619D01*
X5771429Y-4392238D01*
X5769048Y-4389857D01*
X5766667Y-4385095D01*
X5766667Y-4370810D01*
X5769048Y-4366048D01*
X5771429Y-4363667D01*
X5776191Y-4361286D01*
X5785714Y-4361286D01*
X5790476Y-4363667D01*
X5814286Y-4394619D02*
X5814286Y-4344619D01*
X5835714Y-4394619D02*
X5835714Y-4368429D01*
X5833333Y-4363667D01*
X5828571Y-4361286D01*
X5821429Y-4361286D01*
X5816667Y-4363667D01*
X5814286Y-4366048D01*
X5852381Y-4361286D02*
X5871429Y-4361286D01*
X5859524Y-4344619D02*
X5859524Y-4387476D01*
X5861905Y-4392238D01*
X5866667Y-4394619D01*
X5871429Y-4394619D01*
X5553571Y-4427381D02*
X5555952Y-4425000D01*
X5560714Y-4422619D01*
X5572619Y-4422619D01*
X5577381Y-4425000D01*
X5579762Y-4427381D01*
X5582143Y-4432143D01*
X5582143Y-4436905D01*
X5579762Y-4444048D01*
X5551190Y-4472619D01*
X5582143Y-4472619D01*
X5613095Y-4422619D02*
X5617857Y-4422619D01*
X5622619Y-4425000D01*
X5625000Y-4427381D01*
X5627381Y-4432143D01*
X5629762Y-4441667D01*
X5629762Y-4453571D01*
X5627381Y-4463095D01*
X5625000Y-4467857D01*
X5622619Y-4470238D01*
X5617857Y-4472619D01*
X5613095Y-4472619D01*
X5608333Y-4470238D01*
X5605952Y-4467857D01*
X5603571Y-4463095D01*
X5601190Y-4453571D01*
X5601190Y-4441667D01*
X5603571Y-4432143D01*
X5605952Y-4427381D01*
X5608333Y-4425000D01*
X5613095Y-4422619D01*
X5677381Y-4472619D02*
X5648810Y-4472619D01*
X5663095Y-4472619D02*
X5663095Y-4422619D01*
X5658333Y-4429762D01*
X5653571Y-4434524D01*
X5648810Y-4436905D01*
X5722619Y-4422619D02*
X5698810Y-4422619D01*
X5696429Y-4446429D01*
X5698810Y-4444048D01*
X5703571Y-4441667D01*
X5715476Y-4441667D01*
X5720238Y-4444048D01*
X5722619Y-4446429D01*
X5725000Y-4451190D01*
X5725000Y-4463095D01*
X5722619Y-4467857D01*
X5720238Y-4470238D01*
X5715476Y-4472619D01*
X5703571Y-4472619D01*
X5698810Y-4470238D01*
X5696429Y-4467857D01*
X5784524Y-4472619D02*
X5784524Y-4422619D01*
X5784524Y-4441667D02*
X5789286Y-4439286D01*
X5798810Y-4439286D01*
X5803571Y-4441667D01*
X5805952Y-4444048D01*
X5808333Y-4448810D01*
X5808333Y-4463095D01*
X5805952Y-4467857D01*
X5803571Y-4470238D01*
X5798810Y-4472619D01*
X5789286Y-4472619D01*
X5784524Y-4470238D01*
X5825000Y-4439286D02*
X5836905Y-4472619D01*
X5848810Y-4439286D02*
X5836905Y-4472619D01*
X5832143Y-4484524D01*
X5829762Y-4486905D01*
X5825000Y-4489286D01*
X5572619Y-4503000D02*
X5567857Y-4500619D01*
X5560714Y-4500619D01*
X5553571Y-4503000D01*
X5548810Y-4507762D01*
X5546429Y-4512524D01*
X5544048Y-4522048D01*
X5544048Y-4529190D01*
X5546429Y-4538714D01*
X5548810Y-4543476D01*
X5553571Y-4548238D01*
X5560714Y-4550619D01*
X5565476Y-4550619D01*
X5572619Y-4548238D01*
X5575000Y-4545857D01*
X5575000Y-4529190D01*
X5565476Y-4529190D01*
X5596429Y-4550619D02*
X5596429Y-4517286D01*
X5596429Y-4526810D02*
X5598810Y-4522048D01*
X5601190Y-4519667D01*
X5605952Y-4517286D01*
X5610714Y-4517286D01*
X5648810Y-4550619D02*
X5648810Y-4524429D01*
X5646429Y-4519667D01*
X5641667Y-4517286D01*
X5632143Y-4517286D01*
X5627381Y-4519667D01*
X5648810Y-4548238D02*
X5644048Y-4550619D01*
X5632143Y-4550619D01*
X5627381Y-4548238D01*
X5625000Y-4543476D01*
X5625000Y-4538714D01*
X5627381Y-4533952D01*
X5632143Y-4531571D01*
X5644048Y-4531571D01*
X5648810Y-4529190D01*
X5672619Y-4550619D02*
X5672619Y-4517286D01*
X5672619Y-4522048D02*
X5675000Y-4519667D01*
X5679762Y-4517286D01*
X5686905Y-4517286D01*
X5691667Y-4519667D01*
X5694048Y-4524429D01*
X5694048Y-4550619D01*
X5694048Y-4524429D02*
X5696429Y-4519667D01*
X5701190Y-4517286D01*
X5708333Y-4517286D01*
X5713095Y-4519667D01*
X5715476Y-4524429D01*
X5715476Y-4550619D01*
X5746429Y-4550619D02*
X5741667Y-4548238D01*
X5739286Y-4543476D01*
X5739286Y-4500619D01*
X5765476Y-4550619D02*
X5765476Y-4517286D01*
X5765476Y-4500619D02*
X5763095Y-4503000D01*
X5765476Y-4505381D01*
X5767857Y-4503000D01*
X5765476Y-4500619D01*
X5765476Y-4505381D01*
X5810714Y-4548238D02*
X5805952Y-4550619D01*
X5796429Y-4550619D01*
X5791667Y-4548238D01*
X5789286Y-4545857D01*
X5786905Y-4541095D01*
X5786905Y-4526810D01*
X5789286Y-4522048D01*
X5791667Y-4519667D01*
X5796429Y-4517286D01*
X5805952Y-4517286D01*
X5810714Y-4519667D01*
X5832143Y-4550619D02*
X5832143Y-4500619D01*
X5853571Y-4550619D02*
X5853571Y-4524429D01*
X5851190Y-4519667D01*
X5846429Y-4517286D01*
X5839286Y-4517286D01*
X5834524Y-4519667D01*
X5832143Y-4522048D01*
X5337619Y-4120619D02*
X5320952Y-4096810D01*
X5309048Y-4120619D02*
X5309048Y-4070619D01*
X5328095Y-4070619D01*
X5332857Y-4073000D01*
X5335238Y-4075381D01*
X5337619Y-4080143D01*
X5337619Y-4087286D01*
X5335238Y-4092048D01*
X5332857Y-4094429D01*
X5328095Y-4096810D01*
X5309048Y-4096810D01*
X5378095Y-4118238D02*
X5373333Y-4120619D01*
X5363810Y-4120619D01*
X5359048Y-4118238D01*
X5356667Y-4113476D01*
X5356667Y-4094429D01*
X5359048Y-4089667D01*
X5363810Y-4087286D01*
X5373333Y-4087286D01*
X5378095Y-4089667D01*
X5380476Y-4094429D01*
X5380476Y-4099190D01*
X5356667Y-4103952D01*
X5397143Y-4087286D02*
X5409048Y-4120619D01*
X5420952Y-4087286D01*
X5440000Y-4115857D02*
X5442381Y-4118238D01*
X5440000Y-4120619D01*
X5437619Y-4118238D01*
X5440000Y-4115857D01*
X5440000Y-4120619D01*
X5518571Y-4094429D02*
X5501905Y-4094429D01*
X5501905Y-4120619D02*
X5501905Y-4070619D01*
X5525714Y-4070619D01*
X4737119Y-4056119D02*
X4737119Y-4006119D01*
X4749024Y-4006119D01*
X4756167Y-4008500D01*
X4760929Y-4013262D01*
X4763310Y-4018024D01*
X4765690Y-4027548D01*
X4765690Y-4034690D01*
X4763310Y-4044214D01*
X4760929Y-4048976D01*
X4756167Y-4053738D01*
X4749024Y-4056119D01*
X4737119Y-4056119D01*
X4808548Y-4022786D02*
X4808548Y-4056119D01*
X4787119Y-4022786D02*
X4787119Y-4048976D01*
X4789500Y-4053738D01*
X4794262Y-4056119D01*
X4801405Y-4056119D01*
X4806167Y-4053738D01*
X4808548Y-4051357D01*
X4853786Y-4056119D02*
X4853786Y-4029929D01*
X4851405Y-4025167D01*
X4846643Y-4022786D01*
X4837119Y-4022786D01*
X4832357Y-4025167D01*
X4853786Y-4053738D02*
X4849024Y-4056119D01*
X4837119Y-4056119D01*
X4832357Y-4053738D01*
X4829976Y-4048976D01*
X4829976Y-4044214D01*
X4832357Y-4039452D01*
X4837119Y-4037071D01*
X4849024Y-4037071D01*
X4853786Y-4034690D01*
X4884738Y-4056119D02*
X4879976Y-4053738D01*
X4877595Y-4048976D01*
X4877595Y-4006119D01*
X4939500Y-4053738D02*
X4946643Y-4056119D01*
X4958548Y-4056119D01*
X4963310Y-4053738D01*
X4965691Y-4051357D01*
X4968071Y-4046595D01*
X4968071Y-4041833D01*
X4965691Y-4037071D01*
X4963310Y-4034690D01*
X4958548Y-4032310D01*
X4949024Y-4029929D01*
X4944262Y-4027548D01*
X4941881Y-4025167D01*
X4939500Y-4020405D01*
X4939500Y-4015643D01*
X4941881Y-4010881D01*
X4944262Y-4008500D01*
X4949024Y-4006119D01*
X4960929Y-4006119D01*
X4968071Y-4008500D01*
X4996643Y-4056119D02*
X4991881Y-4053738D01*
X4989500Y-4048976D01*
X4989500Y-4006119D01*
X5022833Y-4056119D02*
X5018071Y-4053738D01*
X5015691Y-4051357D01*
X5013310Y-4046595D01*
X5013310Y-4032310D01*
X5015691Y-4027548D01*
X5018071Y-4025167D01*
X5022833Y-4022786D01*
X5029976Y-4022786D01*
X5034738Y-4025167D01*
X5037119Y-4027548D01*
X5039500Y-4032310D01*
X5039500Y-4046595D01*
X5037119Y-4051357D01*
X5034738Y-4053738D01*
X5029976Y-4056119D01*
X5022833Y-4056119D01*
X5053786Y-4022786D02*
X5072833Y-4022786D01*
X5060929Y-4006119D02*
X5060929Y-4048976D01*
X5063310Y-4053738D01*
X5068071Y-4056119D01*
X5072833Y-4056119D01*
X5127595Y-4029929D02*
X5144262Y-4029929D01*
X5151405Y-4056119D02*
X5127595Y-4056119D01*
X5127595Y-4006119D01*
X5151405Y-4006119D01*
X5172833Y-4022786D02*
X5172833Y-4056119D01*
X5172833Y-4027548D02*
X5175214Y-4025167D01*
X5179976Y-4022786D01*
X5187119Y-4022786D01*
X5191881Y-4025167D01*
X5194262Y-4029929D01*
X5194262Y-4056119D01*
X5239500Y-4053738D02*
X5234738Y-4056119D01*
X5225214Y-4056119D01*
X5220452Y-4053738D01*
X5218071Y-4051357D01*
X5215691Y-4046595D01*
X5215691Y-4032310D01*
X5218071Y-4027548D01*
X5220452Y-4025167D01*
X5225214Y-4022786D01*
X5234738Y-4022786D01*
X5239500Y-4025167D01*
X5268071Y-4056119D02*
X5263310Y-4053738D01*
X5260929Y-4051357D01*
X5258548Y-4046595D01*
X5258548Y-4032310D01*
X5260929Y-4027548D01*
X5263310Y-4025167D01*
X5268071Y-4022786D01*
X5275214Y-4022786D01*
X5279976Y-4025167D01*
X5282357Y-4027548D01*
X5284738Y-4032310D01*
X5284738Y-4046595D01*
X5282357Y-4051357D01*
X5279976Y-4053738D01*
X5275214Y-4056119D01*
X5268071Y-4056119D01*
X5327595Y-4056119D02*
X5327595Y-4006119D01*
X5327595Y-4053738D02*
X5322833Y-4056119D01*
X5313310Y-4056119D01*
X5308548Y-4053738D01*
X5306167Y-4051357D01*
X5303786Y-4046595D01*
X5303786Y-4032310D01*
X5306167Y-4027548D01*
X5308548Y-4025167D01*
X5313310Y-4022786D01*
X5322833Y-4022786D01*
X5327595Y-4025167D01*
X5370452Y-4053738D02*
X5365691Y-4056119D01*
X5356167Y-4056119D01*
X5351405Y-4053738D01*
X5349024Y-4048976D01*
X5349024Y-4029929D01*
X5351405Y-4025167D01*
X5356167Y-4022786D01*
X5365691Y-4022786D01*
X5370452Y-4025167D01*
X5372833Y-4029929D01*
X5372833Y-4034690D01*
X5349024Y-4039452D01*
X5394262Y-4056119D02*
X5394262Y-4022786D01*
X5394262Y-4032310D02*
X5396643Y-4027548D01*
X5399024Y-4025167D01*
X5403786Y-4022786D01*
X5408548Y-4022786D01*
X5422833Y-4053738D02*
X5427595Y-4056119D01*
X5437119Y-4056119D01*
X5441881Y-4053738D01*
X5444262Y-4048976D01*
X5444262Y-4046595D01*
X5441881Y-4041833D01*
X5437119Y-4039452D01*
X5429976Y-4039452D01*
X5425214Y-4037071D01*
X5422833Y-4032310D01*
X5422833Y-4029929D01*
X5425214Y-4025167D01*
X5429976Y-4022786D01*
X5437119Y-4022786D01*
X5441881Y-4025167D01*
D12*
X4793307Y-4547244D02*
X5088583Y-4547244D01*
X4940945Y-4232283D02*
X4940945Y-4665354D01*
D11*
X3937008Y-4921260D02*
X3937008Y-3937008D01*
X5905512Y-4921260D02*
X3937008Y-4921260D01*
X5905512Y-3937008D02*
X5905512Y-4921260D01*
X3937008Y-3937008D02*
X5905512Y-3937008D01*
D13*
X3937008Y-3937008D02*
X5905512Y-3937008D01*
D14*
X4960000Y-4770000D02*
X4910000Y-4770000D01*
X5160000Y-4770000D02*
X5210000Y-4770000D01*
X5160000Y-4820000D02*
X5160000Y-4720000D01*
X5160000Y-4720000D02*
X4960000Y-4720000D01*
X4960000Y-4720000D02*
X4960000Y-4820000D01*
X4960000Y-4820000D02*
X5160000Y-4820000D01*
X4925000Y-4120000D02*
X4875000Y-4120000D01*
X5125000Y-4120000D02*
X5175000Y-4120000D01*
X5125000Y-4170000D02*
X5125000Y-4070000D01*
X5125000Y-4070000D02*
X4925000Y-4070000D01*
X4925000Y-4070000D02*
X4925000Y-4170000D01*
X4925000Y-4170000D02*
X5125000Y-4170000D01*
D15*
X4175000Y-4375000D02*
X4175000Y-4475000D01*
X4175000Y-4475000D02*
X4275000Y-4475000D01*
X4275000Y-4475000D02*
X4275000Y-4375000D01*
X4275000Y-4375000D02*
X4175000Y-4375000D01*
D11*
X5134646Y-4621850D02*
X5429921Y-4621850D01*
X5429921Y-4621850D02*
X5429921Y-4228150D01*
X5429921Y-4228150D02*
X5134646Y-4228150D01*
X5134646Y-4228150D02*
X5134646Y-4621850D01*
D14*
X4745000Y-4625000D02*
X4715000Y-4645000D01*
X4745000Y-4625000D02*
X4715000Y-4605000D01*
D15*
X4715000Y-4335000D02*
X4695000Y-4335000D01*
X4695000Y-4335000D02*
X4695000Y-4515000D01*
X4695000Y-4515000D02*
X4715000Y-4515000D01*
X4335000Y-4825000D02*
X4335000Y-4025000D01*
X4335000Y-4025000D02*
X4715000Y-4025000D01*
X4715000Y-4025000D02*
X4715000Y-4825000D01*
X4715000Y-4825000D02*
X4335000Y-4825000D01*
D11*
X5353333Y-4788095D02*
X5340000Y-4769048D01*
X5330476Y-4788095D02*
X5330476Y-4748095D01*
X5345714Y-4748095D01*
X5349524Y-4750000D01*
X5351429Y-4751905D01*
X5353333Y-4755714D01*
X5353333Y-4761429D01*
X5351429Y-4765238D01*
X5349524Y-4767143D01*
X5345714Y-4769048D01*
X5330476Y-4769048D01*
X5391429Y-4788095D02*
X5368571Y-4788095D01*
X5380000Y-4788095D02*
X5380000Y-4748095D01*
X5376191Y-4753810D01*
X5372381Y-4757619D01*
X5368571Y-4759524D01*
X5306333Y-4195895D02*
X5293000Y-4176848D01*
X5283476Y-4195895D02*
X5283476Y-4155895D01*
X5298714Y-4155895D01*
X5302524Y-4157800D01*
X5304429Y-4159705D01*
X5306333Y-4163514D01*
X5306333Y-4169229D01*
X5304429Y-4173038D01*
X5302524Y-4174943D01*
X5298714Y-4176848D01*
X5283476Y-4176848D01*
X5321571Y-4159705D02*
X5323476Y-4157800D01*
X5327286Y-4155895D01*
X5336810Y-4155895D01*
X5340619Y-4157800D01*
X5342524Y-4159705D01*
X5344429Y-4163514D01*
X5344429Y-4167324D01*
X5342524Y-4173038D01*
X5319667Y-4195895D01*
X5344429Y-4195895D01*
X4049524Y-4403095D02*
X4072381Y-4403095D01*
X4060952Y-4443095D02*
X4060952Y-4403095D01*
X4085714Y-4443095D02*
X4085714Y-4403095D01*
X4100952Y-4403095D01*
X4104762Y-4405000D01*
X4106667Y-4406905D01*
X4108571Y-4410714D01*
X4108571Y-4416429D01*
X4106667Y-4420238D01*
X4104762Y-4422143D01*
X4100952Y-4424048D01*
X4085714Y-4424048D01*
X4146667Y-4443095D02*
X4123810Y-4443095D01*
X4135238Y-4443095D02*
X4135238Y-4403095D01*
X4131429Y-4408810D01*
X4127619Y-4412619D01*
X4123810Y-4414524D01*
X5444524Y-4268095D02*
X5444524Y-4228095D01*
X5467381Y-4268095D01*
X5467381Y-4228095D01*
X5484524Y-4231905D02*
X5486429Y-4230000D01*
X5490238Y-4228095D01*
X5499762Y-4228095D01*
X5503571Y-4230000D01*
X5505476Y-4231905D01*
X5507381Y-4235714D01*
X5507381Y-4239524D01*
X5505476Y-4245238D01*
X5482619Y-4268095D01*
X5507381Y-4268095D01*
X4244524Y-4318095D02*
X4244524Y-4278095D01*
X4267381Y-4318095D01*
X4267381Y-4278095D01*
X4307381Y-4318095D02*
X4284524Y-4318095D01*
X4295952Y-4318095D02*
X4295952Y-4278095D01*
X4292143Y-4283810D01*
X4288333Y-4287619D01*
X4284524Y-4289524D01*
X5678185Y-4742505D02*
X5678185Y-4702505D01*
X5678185Y-4721552D02*
X5701042Y-4721552D01*
X5701042Y-4742505D02*
X5701042Y-4702505D01*
X5737233Y-4715838D02*
X5737233Y-4742505D01*
X5727709Y-4700600D02*
X5718185Y-4729171D01*
X5742947Y-4729171D01*
X4103382Y-4742505D02*
X4103382Y-4702505D01*
X4103382Y-4721552D02*
X4126239Y-4721552D01*
X4126239Y-4742505D02*
X4126239Y-4702505D01*
X4141477Y-4702505D02*
X4166239Y-4702505D01*
X4152906Y-4717743D01*
X4158620Y-4717743D01*
X4162430Y-4719648D01*
X4164334Y-4721552D01*
X4166239Y-4725362D01*
X4166239Y-4734886D01*
X4164334Y-4738695D01*
X4162430Y-4740600D01*
X4158620Y-4742505D01*
X4147192Y-4742505D01*
X4143382Y-4740600D01*
X4141477Y-4738695D01*
X5678185Y-4151954D02*
X5678185Y-4111954D01*
X5678185Y-4131001D02*
X5701042Y-4131001D01*
X5701042Y-4151954D02*
X5701042Y-4111954D01*
X5718185Y-4115763D02*
X5720090Y-4113858D01*
X5723900Y-4111954D01*
X5733423Y-4111954D01*
X5737233Y-4113858D01*
X5739138Y-4115763D01*
X5741042Y-4119573D01*
X5741042Y-4123382D01*
X5739138Y-4129096D01*
X5716280Y-4151954D01*
X5741042Y-4151954D01*
X4103382Y-4151954D02*
X4103382Y-4111954D01*
X4103382Y-4131001D02*
X4126239Y-4131001D01*
X4126239Y-4151954D02*
X4126239Y-4111954D01*
X4166239Y-4151954D02*
X4143382Y-4151954D01*
X4154811Y-4151954D02*
X4154811Y-4111954D01*
X4151001Y-4117668D01*
X4147192Y-4121477D01*
X4143382Y-4123382D01*
M02*
