%FSLAX36Y36*%
G04 Gerber Fmt 3.6, Leading zero omitted, Abs format (unit inch)*
G04 Created by KiCad (PCBNEW (2014-jul-16 BZR unknown)-product) date Tue 13 Jan 2015 02:04:58 PM PST*
%MOIN*%
G01*
G04 APERTURE LIST*
%ADD10C,0.003937*%
%ADD11C,0.008000*%
%ADD12C,0.015748*%
%ADD13C,0.006000*%
%ADD14C,0.000100*%
%ADD15C,0.005906*%
G04 APERTURE END LIST*
D10*
D11*
X5827214Y-4385957D02*
X5829595Y-4388338D01*
X5836738Y-4390719D01*
X5841500Y-4390719D01*
X5848643Y-4388338D01*
X5853405Y-4383576D01*
X5855786Y-4378814D01*
X5858167Y-4369290D01*
X5858167Y-4362148D01*
X5855786Y-4352624D01*
X5853405Y-4347862D01*
X5848643Y-4343100D01*
X5841500Y-4340719D01*
X5836738Y-4340719D01*
X5829595Y-4343100D01*
X5827214Y-4345481D01*
X5798643Y-4390719D02*
X5803405Y-4388338D01*
X5805786Y-4385957D01*
X5808167Y-4381195D01*
X5808167Y-4366910D01*
X5805786Y-4362148D01*
X5803405Y-4359767D01*
X5798643Y-4357386D01*
X5791500Y-4357386D01*
X5786738Y-4359767D01*
X5784357Y-4362148D01*
X5781976Y-4366910D01*
X5781976Y-4381195D01*
X5784357Y-4385957D01*
X5786738Y-4388338D01*
X5791500Y-4390719D01*
X5798643Y-4390719D01*
X5760548Y-4357386D02*
X5760548Y-4407386D01*
X5760548Y-4359767D02*
X5755786Y-4357386D01*
X5746262Y-4357386D01*
X5741500Y-4359767D01*
X5739119Y-4362148D01*
X5736738Y-4366910D01*
X5736738Y-4381195D01*
X5739119Y-4385957D01*
X5741500Y-4388338D01*
X5746262Y-4390719D01*
X5755786Y-4390719D01*
X5760548Y-4388338D01*
X5720071Y-4357386D02*
X5708167Y-4390719D01*
X5696262Y-4357386D02*
X5708167Y-4390719D01*
X5712929Y-4402624D01*
X5715309Y-4405005D01*
X5720071Y-4407386D01*
X5677214Y-4390719D02*
X5677214Y-4357386D01*
X5677214Y-4366910D02*
X5674833Y-4362148D01*
X5672452Y-4359767D01*
X5667690Y-4357386D01*
X5662929Y-4357386D01*
X5646262Y-4390719D02*
X5646262Y-4357386D01*
X5646262Y-4340719D02*
X5648643Y-4343100D01*
X5646262Y-4345481D01*
X5643881Y-4343100D01*
X5646262Y-4340719D01*
X5646262Y-4345481D01*
X5601024Y-4357386D02*
X5601024Y-4397862D01*
X5603405Y-4402624D01*
X5605786Y-4405005D01*
X5610548Y-4407386D01*
X5617690Y-4407386D01*
X5622452Y-4405005D01*
X5601024Y-4388338D02*
X5605786Y-4390719D01*
X5615309Y-4390719D01*
X5620071Y-4388338D01*
X5622452Y-4385957D01*
X5624833Y-4381195D01*
X5624833Y-4366910D01*
X5622452Y-4362148D01*
X5620071Y-4359767D01*
X5615309Y-4357386D01*
X5605786Y-4357386D01*
X5601024Y-4359767D01*
X5577214Y-4390719D02*
X5577214Y-4340719D01*
X5555786Y-4390719D02*
X5555786Y-4364529D01*
X5558167Y-4359767D01*
X5562929Y-4357386D01*
X5570071Y-4357386D01*
X5574833Y-4359767D01*
X5577214Y-4362148D01*
X5539119Y-4357386D02*
X5520071Y-4357386D01*
X5531976Y-4340719D02*
X5531976Y-4383576D01*
X5529595Y-4388338D01*
X5524833Y-4390719D01*
X5520071Y-4390719D01*
X5837929Y-4423481D02*
X5835548Y-4421100D01*
X5830786Y-4418719D01*
X5818881Y-4418719D01*
X5814119Y-4421100D01*
X5811738Y-4423481D01*
X5809357Y-4428243D01*
X5809357Y-4433005D01*
X5811738Y-4440148D01*
X5840310Y-4468719D01*
X5809357Y-4468719D01*
X5778405Y-4418719D02*
X5773643Y-4418719D01*
X5768881Y-4421100D01*
X5766500Y-4423481D01*
X5764119Y-4428243D01*
X5761738Y-4437767D01*
X5761738Y-4449671D01*
X5764119Y-4459195D01*
X5766500Y-4463957D01*
X5768881Y-4466338D01*
X5773643Y-4468719D01*
X5778405Y-4468719D01*
X5783167Y-4466338D01*
X5785548Y-4463957D01*
X5787929Y-4459195D01*
X5790310Y-4449671D01*
X5790310Y-4437767D01*
X5787929Y-4428243D01*
X5785548Y-4423481D01*
X5783167Y-4421100D01*
X5778405Y-4418719D01*
X5714119Y-4468719D02*
X5742690Y-4468719D01*
X5728405Y-4468719D02*
X5728405Y-4418719D01*
X5733167Y-4425862D01*
X5737929Y-4430624D01*
X5742690Y-4433005D01*
X5668881Y-4418719D02*
X5692690Y-4418719D01*
X5695071Y-4442529D01*
X5692690Y-4440148D01*
X5687929Y-4437767D01*
X5676024Y-4437767D01*
X5671262Y-4440148D01*
X5668881Y-4442529D01*
X5666500Y-4447290D01*
X5666500Y-4459195D01*
X5668881Y-4463957D01*
X5671262Y-4466338D01*
X5676024Y-4468719D01*
X5687929Y-4468719D01*
X5692690Y-4466338D01*
X5695071Y-4463957D01*
X5606976Y-4468719D02*
X5606976Y-4418719D01*
X5606976Y-4437767D02*
X5602214Y-4435386D01*
X5592690Y-4435386D01*
X5587929Y-4437767D01*
X5585548Y-4440148D01*
X5583167Y-4444910D01*
X5583167Y-4459195D01*
X5585548Y-4463957D01*
X5587929Y-4466338D01*
X5592690Y-4468719D01*
X5602214Y-4468719D01*
X5606976Y-4466338D01*
X5566500Y-4435386D02*
X5554595Y-4468719D01*
X5542690Y-4435386D02*
X5554595Y-4468719D01*
X5559357Y-4480624D01*
X5561738Y-4483005D01*
X5566500Y-4485386D01*
X5818881Y-4499100D02*
X5823643Y-4496719D01*
X5830786Y-4496719D01*
X5837929Y-4499100D01*
X5842690Y-4503862D01*
X5845071Y-4508624D01*
X5847452Y-4518148D01*
X5847452Y-4525290D01*
X5845071Y-4534814D01*
X5842690Y-4539576D01*
X5837929Y-4544338D01*
X5830786Y-4546719D01*
X5826024Y-4546719D01*
X5818881Y-4544338D01*
X5816500Y-4541957D01*
X5816500Y-4525290D01*
X5826024Y-4525290D01*
X5795071Y-4546719D02*
X5795071Y-4513386D01*
X5795071Y-4522910D02*
X5792690Y-4518148D01*
X5790310Y-4515767D01*
X5785548Y-4513386D01*
X5780786Y-4513386D01*
X5742690Y-4546719D02*
X5742690Y-4520529D01*
X5745071Y-4515767D01*
X5749833Y-4513386D01*
X5759357Y-4513386D01*
X5764119Y-4515767D01*
X5742690Y-4544338D02*
X5747452Y-4546719D01*
X5759357Y-4546719D01*
X5764119Y-4544338D01*
X5766500Y-4539576D01*
X5766500Y-4534814D01*
X5764119Y-4530052D01*
X5759357Y-4527671D01*
X5747452Y-4527671D01*
X5742690Y-4525290D01*
X5718881Y-4546719D02*
X5718881Y-4513386D01*
X5718881Y-4518148D02*
X5716500Y-4515767D01*
X5711738Y-4513386D01*
X5704595Y-4513386D01*
X5699833Y-4515767D01*
X5697452Y-4520529D01*
X5697452Y-4546719D01*
X5697452Y-4520529D02*
X5695071Y-4515767D01*
X5690310Y-4513386D01*
X5683167Y-4513386D01*
X5678405Y-4515767D01*
X5676024Y-4520529D01*
X5676024Y-4546719D01*
X5645071Y-4546719D02*
X5649833Y-4544338D01*
X5652214Y-4539576D01*
X5652214Y-4496719D01*
X5626024Y-4546719D02*
X5626024Y-4513386D01*
X5626024Y-4496719D02*
X5628405Y-4499100D01*
X5626024Y-4501481D01*
X5623643Y-4499100D01*
X5626024Y-4496719D01*
X5626024Y-4501481D01*
X5580786Y-4544338D02*
X5585548Y-4546719D01*
X5595071Y-4546719D01*
X5599833Y-4544338D01*
X5602214Y-4541957D01*
X5604595Y-4537195D01*
X5604595Y-4522910D01*
X5602214Y-4518148D01*
X5599833Y-4515767D01*
X5595071Y-4513386D01*
X5585548Y-4513386D01*
X5580786Y-4515767D01*
X5559357Y-4546719D02*
X5559357Y-4496719D01*
X5537929Y-4546719D02*
X5537929Y-4520529D01*
X5540310Y-4515767D01*
X5545071Y-4513386D01*
X5552214Y-4513386D01*
X5556976Y-4515767D01*
X5559357Y-4518148D01*
X5378571Y-4017619D02*
X5395238Y-3993810D01*
X5407143Y-4017619D02*
X5407143Y-3967619D01*
X5388095Y-3967619D01*
X5383333Y-3970000D01*
X5380952Y-3972381D01*
X5378571Y-3977143D01*
X5378571Y-3984286D01*
X5380952Y-3989048D01*
X5383333Y-3991429D01*
X5388095Y-3993810D01*
X5407143Y-3993810D01*
X5338095Y-4015238D02*
X5342857Y-4017619D01*
X5352381Y-4017619D01*
X5357143Y-4015238D01*
X5359524Y-4010476D01*
X5359524Y-3991429D01*
X5357143Y-3986667D01*
X5352381Y-3984286D01*
X5342857Y-3984286D01*
X5338095Y-3986667D01*
X5335714Y-3991429D01*
X5335714Y-3996190D01*
X5359524Y-4000952D01*
X5319048Y-3984286D02*
X5307143Y-4017619D01*
X5295238Y-3984286D01*
X5276191Y-4012857D02*
X5273810Y-4015238D01*
X5276191Y-4017619D01*
X5278571Y-4015238D01*
X5276191Y-4012857D01*
X5276191Y-4017619D01*
X5197619Y-3991429D02*
X5214286Y-3991429D01*
X5214286Y-4017619D02*
X5214286Y-3967619D01*
X5190476Y-3967619D01*
X5107143Y-4017619D02*
X5135714Y-4017619D01*
X5121429Y-4017619D02*
X5121429Y-3967619D01*
X5126191Y-3974762D01*
X5130952Y-3979524D01*
X5135714Y-3981905D01*
X5090476Y-3967619D02*
X5059524Y-3967619D01*
X5076191Y-3986667D01*
X5069048Y-3986667D01*
X5064286Y-3989048D01*
X5061905Y-3991429D01*
X5059524Y-3996190D01*
X5059524Y-4008095D01*
X5061905Y-4012857D01*
X5064286Y-4015238D01*
X5069048Y-4017619D01*
X5083333Y-4017619D01*
X5088095Y-4015238D01*
X5090476Y-4012857D01*
X5023810Y-3967619D02*
X5023810Y-4003333D01*
X5026191Y-4010476D01*
X5030952Y-4015238D01*
X5038095Y-4017619D01*
X5042857Y-4017619D01*
X4978571Y-4017619D02*
X4978571Y-3991429D01*
X4980952Y-3986667D01*
X4985714Y-3984286D01*
X4995238Y-3984286D01*
X5000000Y-3986667D01*
X4978571Y-4015238D02*
X4983333Y-4017619D01*
X4995238Y-4017619D01*
X5000000Y-4015238D01*
X5002381Y-4010476D01*
X5002381Y-4005714D01*
X5000000Y-4000952D01*
X4995238Y-3998571D01*
X4983333Y-3998571D01*
X4978571Y-3996190D01*
X4954762Y-3984286D02*
X4954762Y-4017619D01*
X4954762Y-3989048D02*
X4952381Y-3986667D01*
X4947619Y-3984286D01*
X4940476Y-3984286D01*
X4935714Y-3986667D01*
X4933333Y-3991429D01*
X4933333Y-4017619D01*
X4911905Y-3972381D02*
X4909524Y-3970000D01*
X4904762Y-3967619D01*
X4892857Y-3967619D01*
X4888095Y-3970000D01*
X4885714Y-3972381D01*
X4883333Y-3977143D01*
X4883333Y-3981905D01*
X4885714Y-3989048D01*
X4914286Y-4017619D01*
X4883333Y-4017619D01*
X4852381Y-3967619D02*
X4847619Y-3967619D01*
X4842857Y-3970000D01*
X4840476Y-3972381D01*
X4838095Y-3977143D01*
X4835714Y-3986667D01*
X4835714Y-3998571D01*
X4838095Y-4008095D01*
X4840476Y-4012857D01*
X4842857Y-4015238D01*
X4847619Y-4017619D01*
X4852381Y-4017619D01*
X4857143Y-4015238D01*
X4859524Y-4012857D01*
X4861905Y-4008095D01*
X4864286Y-3998571D01*
X4864286Y-3986667D01*
X4861905Y-3977143D01*
X4859524Y-3972381D01*
X4857143Y-3970000D01*
X4852381Y-3967619D01*
X4788095Y-4017619D02*
X4816667Y-4017619D01*
X4802381Y-4017619D02*
X4802381Y-3967619D01*
X4807143Y-3974762D01*
X4811905Y-3979524D01*
X4816667Y-3981905D01*
X4742857Y-3967619D02*
X4766667Y-3967619D01*
X4769048Y-3991429D01*
X4766667Y-3989048D01*
X4761905Y-3986667D01*
X4750000Y-3986667D01*
X4745238Y-3989048D01*
X4742857Y-3991429D01*
X4740476Y-3996190D01*
X4740476Y-4008095D01*
X4742857Y-4012857D01*
X4745238Y-4015238D01*
X4750000Y-4017619D01*
X4761905Y-4017619D01*
X4766667Y-4015238D01*
X4769048Y-4012857D01*
X5227381Y-4887619D02*
X5227381Y-4837619D01*
X5215476Y-4837619D01*
X5208333Y-4840000D01*
X5203571Y-4844762D01*
X5201190Y-4849524D01*
X5198810Y-4859048D01*
X5198810Y-4866190D01*
X5201190Y-4875714D01*
X5203571Y-4880476D01*
X5208333Y-4885238D01*
X5215476Y-4887619D01*
X5227381Y-4887619D01*
X5155952Y-4854286D02*
X5155952Y-4887619D01*
X5177381Y-4854286D02*
X5177381Y-4880476D01*
X5175000Y-4885238D01*
X5170238Y-4887619D01*
X5163095Y-4887619D01*
X5158333Y-4885238D01*
X5155952Y-4882857D01*
X5110714Y-4887619D02*
X5110714Y-4861429D01*
X5113095Y-4856667D01*
X5117857Y-4854286D01*
X5127381Y-4854286D01*
X5132143Y-4856667D01*
X5110714Y-4885238D02*
X5115476Y-4887619D01*
X5127381Y-4887619D01*
X5132143Y-4885238D01*
X5134524Y-4880476D01*
X5134524Y-4875714D01*
X5132143Y-4870952D01*
X5127381Y-4868571D01*
X5115476Y-4868571D01*
X5110714Y-4866190D01*
X5079762Y-4887619D02*
X5084524Y-4885238D01*
X5086905Y-4880476D01*
X5086905Y-4837619D01*
X5025000Y-4885238D02*
X5017857Y-4887619D01*
X5005952Y-4887619D01*
X5001190Y-4885238D01*
X4998809Y-4882857D01*
X4996429Y-4878095D01*
X4996429Y-4873333D01*
X4998809Y-4868571D01*
X5001190Y-4866190D01*
X5005952Y-4863810D01*
X5015476Y-4861429D01*
X5020238Y-4859048D01*
X5022619Y-4856667D01*
X5025000Y-4851905D01*
X5025000Y-4847143D01*
X5022619Y-4842381D01*
X5020238Y-4840000D01*
X5015476Y-4837619D01*
X5003571Y-4837619D01*
X4996429Y-4840000D01*
X4967857Y-4887619D02*
X4972619Y-4885238D01*
X4975000Y-4880476D01*
X4975000Y-4837619D01*
X4941667Y-4887619D02*
X4946429Y-4885238D01*
X4948809Y-4882857D01*
X4951190Y-4878095D01*
X4951190Y-4863810D01*
X4948809Y-4859048D01*
X4946429Y-4856667D01*
X4941667Y-4854286D01*
X4934524Y-4854286D01*
X4929762Y-4856667D01*
X4927381Y-4859048D01*
X4925000Y-4863810D01*
X4925000Y-4878095D01*
X4927381Y-4882857D01*
X4929762Y-4885238D01*
X4934524Y-4887619D01*
X4941667Y-4887619D01*
X4910714Y-4854286D02*
X4891667Y-4854286D01*
X4903571Y-4837619D02*
X4903571Y-4880476D01*
X4901190Y-4885238D01*
X4896429Y-4887619D01*
X4891667Y-4887619D01*
X4836905Y-4861429D02*
X4820238Y-4861429D01*
X4813095Y-4887619D02*
X4836905Y-4887619D01*
X4836905Y-4837619D01*
X4813095Y-4837619D01*
X4791667Y-4854286D02*
X4791667Y-4887619D01*
X4791667Y-4859048D02*
X4789286Y-4856667D01*
X4784524Y-4854286D01*
X4777381Y-4854286D01*
X4772619Y-4856667D01*
X4770238Y-4861429D01*
X4770238Y-4887619D01*
X4725000Y-4885238D02*
X4729762Y-4887619D01*
X4739286Y-4887619D01*
X4744048Y-4885238D01*
X4746429Y-4882857D01*
X4748809Y-4878095D01*
X4748809Y-4863810D01*
X4746429Y-4859048D01*
X4744048Y-4856667D01*
X4739286Y-4854286D01*
X4729762Y-4854286D01*
X4725000Y-4856667D01*
X4696429Y-4887619D02*
X4701190Y-4885238D01*
X4703571Y-4882857D01*
X4705952Y-4878095D01*
X4705952Y-4863810D01*
X4703571Y-4859048D01*
X4701190Y-4856667D01*
X4696429Y-4854286D01*
X4689286Y-4854286D01*
X4684524Y-4856667D01*
X4682143Y-4859048D01*
X4679762Y-4863810D01*
X4679762Y-4878095D01*
X4682143Y-4882857D01*
X4684524Y-4885238D01*
X4689286Y-4887619D01*
X4696429Y-4887619D01*
X4636905Y-4887619D02*
X4636905Y-4837619D01*
X4636905Y-4885238D02*
X4641667Y-4887619D01*
X4651190Y-4887619D01*
X4655952Y-4885238D01*
X4658333Y-4882857D01*
X4660714Y-4878095D01*
X4660714Y-4863810D01*
X4658333Y-4859048D01*
X4655952Y-4856667D01*
X4651190Y-4854286D01*
X4641667Y-4854286D01*
X4636905Y-4856667D01*
X4594048Y-4885238D02*
X4598809Y-4887619D01*
X4608333Y-4887619D01*
X4613095Y-4885238D01*
X4615476Y-4880476D01*
X4615476Y-4861429D01*
X4613095Y-4856667D01*
X4608333Y-4854286D01*
X4598809Y-4854286D01*
X4594048Y-4856667D01*
X4591667Y-4861429D01*
X4591667Y-4866190D01*
X4615476Y-4870952D01*
X4570238Y-4887619D02*
X4570238Y-4854286D01*
X4570238Y-4863810D02*
X4567857Y-4859048D01*
X4565476Y-4856667D01*
X4560714Y-4854286D01*
X4555952Y-4854286D01*
X4541667Y-4885238D02*
X4536905Y-4887619D01*
X4527381Y-4887619D01*
X4522619Y-4885238D01*
X4520238Y-4880476D01*
X4520238Y-4878095D01*
X4522619Y-4873333D01*
X4527381Y-4870952D01*
X4534524Y-4870952D01*
X4539286Y-4868571D01*
X4541667Y-4863810D01*
X4541667Y-4861429D01*
X4539286Y-4856667D01*
X4534524Y-4854286D01*
X4527381Y-4854286D01*
X4522619Y-4856667D01*
D12*
X5088583Y-4311024D02*
X5059055Y-4311024D01*
X4793307Y-4311024D02*
X4822835Y-4311024D01*
X5059055Y-4547244D02*
X5088583Y-4547244D01*
X4822835Y-4547244D02*
X4793307Y-4547244D01*
D13*
X5545086Y-4303171D02*
X5545086Y-4273171D01*
X5532229Y-4303171D02*
X5532229Y-4287457D01*
X5533657Y-4284600D01*
X5536514Y-4283171D01*
X5540800Y-4283171D01*
X5543657Y-4284600D01*
X5545086Y-4286029D01*
X5505086Y-4303171D02*
X5505086Y-4287457D01*
X5506514Y-4284600D01*
X5509371Y-4283171D01*
X5515086Y-4283171D01*
X5517943Y-4284600D01*
X5505086Y-4301743D02*
X5507943Y-4303171D01*
X5515086Y-4303171D01*
X5517943Y-4301743D01*
X5519371Y-4298886D01*
X5519371Y-4296029D01*
X5517943Y-4293171D01*
X5515086Y-4291743D01*
X5507943Y-4291743D01*
X5505086Y-4290314D01*
X5490800Y-4303171D02*
X5490800Y-4283171D01*
X5490800Y-4288886D02*
X5489371Y-4286029D01*
X5487943Y-4284600D01*
X5485086Y-4283171D01*
X5482229Y-4283171D01*
X5459371Y-4303171D02*
X5459371Y-4273171D01*
X5459371Y-4301743D02*
X5462229Y-4303171D01*
X5467943Y-4303171D01*
X5470800Y-4301743D01*
X5472229Y-4300314D01*
X5473657Y-4297457D01*
X5473657Y-4288886D01*
X5472229Y-4286029D01*
X5470800Y-4284600D01*
X5467943Y-4283171D01*
X5462229Y-4283171D01*
X5459371Y-4284600D01*
X5447943Y-4283171D02*
X5442229Y-4303171D01*
X5436514Y-4288886D01*
X5430800Y-4303171D01*
X5425086Y-4283171D01*
X5400800Y-4303171D02*
X5400800Y-4287457D01*
X5402229Y-4284600D01*
X5405086Y-4283171D01*
X5410800Y-4283171D01*
X5413657Y-4284600D01*
X5400800Y-4301743D02*
X5403657Y-4303171D01*
X5410800Y-4303171D01*
X5413657Y-4301743D01*
X5415086Y-4298886D01*
X5415086Y-4296029D01*
X5413657Y-4293171D01*
X5410800Y-4291743D01*
X5403657Y-4291743D01*
X5400800Y-4290314D01*
X5386514Y-4303171D02*
X5386514Y-4283171D01*
X5386514Y-4288886D02*
X5385086Y-4286029D01*
X5383657Y-4284600D01*
X5380800Y-4283171D01*
X5377943Y-4283171D01*
X5356514Y-4301743D02*
X5359371Y-4303171D01*
X5365086Y-4303171D01*
X5367943Y-4301743D01*
X5369371Y-4298886D01*
X5369371Y-4287457D01*
X5367943Y-4284600D01*
X5365086Y-4283171D01*
X5359371Y-4283171D01*
X5356514Y-4284600D01*
X5355086Y-4287457D01*
X5355086Y-4290314D01*
X5369371Y-4293171D01*
X5567857Y-4263571D02*
X5570714Y-4262143D01*
X5572143Y-4260714D01*
X5573571Y-4257857D01*
X5573571Y-4249286D01*
X5572143Y-4246429D01*
X5570714Y-4245000D01*
X5567857Y-4243571D01*
X5563571Y-4243571D01*
X5560714Y-4245000D01*
X5559286Y-4246429D01*
X5557857Y-4249286D01*
X5557857Y-4257857D01*
X5559286Y-4260714D01*
X5560714Y-4262143D01*
X5563571Y-4263571D01*
X5567857Y-4263571D01*
X5545000Y-4243571D02*
X5545000Y-4273571D01*
X5545000Y-4245000D02*
X5542143Y-4243571D01*
X5536429Y-4243571D01*
X5533571Y-4245000D01*
X5532143Y-4246429D01*
X5530714Y-4249286D01*
X5530714Y-4257857D01*
X5532143Y-4260714D01*
X5533571Y-4262143D01*
X5536429Y-4263571D01*
X5542143Y-4263571D01*
X5545000Y-4262143D01*
X5506429Y-4262143D02*
X5509286Y-4263571D01*
X5515000Y-4263571D01*
X5517857Y-4262143D01*
X5519286Y-4259286D01*
X5519286Y-4247857D01*
X5517857Y-4245000D01*
X5515000Y-4243571D01*
X5509286Y-4243571D01*
X5506429Y-4245000D01*
X5505000Y-4247857D01*
X5505000Y-4250714D01*
X5519286Y-4253571D01*
X5492143Y-4243571D02*
X5492143Y-4263571D01*
X5492143Y-4246429D02*
X5490714Y-4245000D01*
X5487857Y-4243571D01*
X5483571Y-4243571D01*
X5480714Y-4245000D01*
X5479286Y-4247857D01*
X5479286Y-4263571D01*
X5443571Y-4262143D02*
X5440714Y-4263571D01*
X5435000Y-4263571D01*
X5432143Y-4262143D01*
X5430714Y-4259286D01*
X5430714Y-4257857D01*
X5432143Y-4255000D01*
X5435000Y-4253571D01*
X5439286Y-4253571D01*
X5442143Y-4252143D01*
X5443571Y-4249286D01*
X5443571Y-4247857D01*
X5442143Y-4245000D01*
X5439286Y-4243571D01*
X5435000Y-4243571D01*
X5432143Y-4245000D01*
X5413571Y-4263571D02*
X5416429Y-4262143D01*
X5417857Y-4260714D01*
X5419286Y-4257857D01*
X5419286Y-4249286D01*
X5417857Y-4246429D01*
X5416429Y-4245000D01*
X5413571Y-4243571D01*
X5409286Y-4243571D01*
X5406429Y-4245000D01*
X5405000Y-4246429D01*
X5403571Y-4249286D01*
X5403571Y-4257857D01*
X5405000Y-4260714D01*
X5406429Y-4262143D01*
X5409286Y-4263571D01*
X5413571Y-4263571D01*
X5377857Y-4243571D02*
X5377857Y-4263571D01*
X5390714Y-4243571D02*
X5390714Y-4259286D01*
X5389286Y-4262143D01*
X5386429Y-4263571D01*
X5382143Y-4263571D01*
X5379286Y-4262143D01*
X5377857Y-4260714D01*
X5363571Y-4263571D02*
X5363571Y-4243571D01*
X5363571Y-4249286D02*
X5362143Y-4246429D01*
X5360714Y-4245000D01*
X5357857Y-4243571D01*
X5355000Y-4243571D01*
X5332143Y-4262143D02*
X5335000Y-4263571D01*
X5340714Y-4263571D01*
X5343571Y-4262143D01*
X5345000Y-4260714D01*
X5346429Y-4257857D01*
X5346429Y-4249286D01*
X5345000Y-4246429D01*
X5343571Y-4245000D01*
X5340714Y-4243571D01*
X5335000Y-4243571D01*
X5332143Y-4245000D01*
X5307857Y-4262143D02*
X5310714Y-4263571D01*
X5316429Y-4263571D01*
X5319286Y-4262143D01*
X5320714Y-4259286D01*
X5320714Y-4247857D01*
X5319286Y-4245000D01*
X5316429Y-4243571D01*
X5310714Y-4243571D01*
X5307857Y-4245000D01*
X5306429Y-4247857D01*
X5306429Y-4250714D01*
X5320714Y-4253571D01*
D14*
G36*
X5384400Y-4234800D02*
X5385500Y-4234300D01*
X5387800Y-4232800D01*
X5391100Y-4230600D01*
X5395100Y-4227900D01*
X5399000Y-4225300D01*
X5402300Y-4223100D01*
X5404600Y-4221600D01*
X5405500Y-4221100D01*
X5406000Y-4221300D01*
X5407900Y-4222200D01*
X5410700Y-4223600D01*
X5412200Y-4224400D01*
X5414800Y-4225500D01*
X5416000Y-4225700D01*
X5416200Y-4225400D01*
X5417100Y-4223500D01*
X5418600Y-4220200D01*
X5420500Y-4215900D01*
X5422600Y-4210800D01*
X5424900Y-4205300D01*
X5427300Y-4199700D01*
X5429500Y-4194400D01*
X5431400Y-4189600D01*
X5433000Y-4185700D01*
X5434000Y-4183000D01*
X5434400Y-4181800D01*
X5434300Y-4181600D01*
X5433000Y-4180400D01*
X5430800Y-4178700D01*
X5426100Y-4174900D01*
X5421400Y-4169100D01*
X5418600Y-4162400D01*
X5417700Y-4155100D01*
X5418500Y-4148300D01*
X5421100Y-4141800D01*
X5425700Y-4135900D01*
X5431300Y-4131500D01*
X5437700Y-4128700D01*
X5445000Y-4127800D01*
X5451900Y-4128600D01*
X5458600Y-4131200D01*
X5464500Y-4135700D01*
X5467000Y-4138600D01*
X5470500Y-4144600D01*
X5472400Y-4150900D01*
X5472600Y-4152600D01*
X5472300Y-4159600D01*
X5470300Y-4166300D01*
X5466500Y-4172300D01*
X5461400Y-4177300D01*
X5460800Y-4177700D01*
X5458400Y-4179500D01*
X5456800Y-4180700D01*
X5455500Y-4181800D01*
X5464500Y-4203300D01*
X5465900Y-4206700D01*
X5468300Y-4212600D01*
X5470500Y-4217700D01*
X5472200Y-4221700D01*
X5473400Y-4224400D01*
X5473900Y-4225500D01*
X5474000Y-4225500D01*
X5474800Y-4225700D01*
X5476400Y-4225100D01*
X5479400Y-4223600D01*
X5481400Y-4222600D01*
X5483700Y-4221500D01*
X5484700Y-4221100D01*
X5485600Y-4221600D01*
X5487800Y-4223000D01*
X5491000Y-4225100D01*
X5494900Y-4227700D01*
X5498500Y-4230200D01*
X5501900Y-4232500D01*
X5504400Y-4234000D01*
X5505500Y-4234700D01*
X5505700Y-4234700D01*
X5506800Y-4234100D01*
X5508700Y-4232500D01*
X5511700Y-4229700D01*
X5515800Y-4225600D01*
X5516400Y-4225000D01*
X5519800Y-4221500D01*
X5522600Y-4218600D01*
X5524500Y-4216500D01*
X5525100Y-4215600D01*
X5525100Y-4215600D01*
X5524500Y-4214400D01*
X5523000Y-4212000D01*
X5520700Y-4208500D01*
X5518000Y-4204500D01*
X5510900Y-4194200D01*
X5514800Y-4184400D01*
X5516000Y-4181400D01*
X5517500Y-4177800D01*
X5518700Y-4175200D01*
X5519300Y-4174100D01*
X5520300Y-4173700D01*
X5523000Y-4173000D01*
X5526900Y-4172200D01*
X5531500Y-4171400D01*
X5535900Y-4170600D01*
X5539900Y-4169800D01*
X5542800Y-4169300D01*
X5544100Y-4169000D01*
X5544400Y-4168800D01*
X5544600Y-4168200D01*
X5544800Y-4166800D01*
X5544900Y-4164400D01*
X5544900Y-4160600D01*
X5544900Y-4155100D01*
X5544900Y-4154500D01*
X5544900Y-4149200D01*
X5544800Y-4145000D01*
X5544700Y-4142400D01*
X5544500Y-4141300D01*
X5544500Y-4141300D01*
X5543200Y-4141000D01*
X5540400Y-4140400D01*
X5536400Y-4139600D01*
X5531700Y-4138700D01*
X5531400Y-4138600D01*
X5526700Y-4137700D01*
X5522700Y-4136900D01*
X5519900Y-4136200D01*
X5518700Y-4135900D01*
X5518500Y-4135500D01*
X5517500Y-4133700D01*
X5516200Y-4130800D01*
X5514600Y-4127200D01*
X5513100Y-4123500D01*
X5511700Y-4120100D01*
X5510800Y-4117600D01*
X5510600Y-4116500D01*
X5510600Y-4116500D01*
X5511300Y-4115300D01*
X5512900Y-4112900D01*
X5515200Y-4109500D01*
X5518000Y-4105500D01*
X5518200Y-4105200D01*
X5520900Y-4101200D01*
X5523100Y-4097800D01*
X5524600Y-4095400D01*
X5525100Y-4094300D01*
X5525100Y-4094200D01*
X5524200Y-4093000D01*
X5522200Y-4090800D01*
X5519300Y-4087700D01*
X5515800Y-4084200D01*
X5514700Y-4083100D01*
X5510800Y-4079300D01*
X5508100Y-4076800D01*
X5506400Y-4075500D01*
X5505600Y-4075200D01*
X5505600Y-4075200D01*
X5504400Y-4075900D01*
X5501800Y-4077600D01*
X5498400Y-4079900D01*
X5494400Y-4082700D01*
X5494100Y-4082900D01*
X5490100Y-4085600D01*
X5486700Y-4087800D01*
X5484400Y-4089400D01*
X5483300Y-4090000D01*
X5483200Y-4090000D01*
X5481500Y-4089500D01*
X5478700Y-4088500D01*
X5475200Y-4087200D01*
X5471500Y-4085700D01*
X5468100Y-4084300D01*
X5465600Y-4083100D01*
X5464400Y-4082500D01*
X5464400Y-4082400D01*
X5464000Y-4081000D01*
X5463300Y-4078000D01*
X5462400Y-4073900D01*
X5461500Y-4069000D01*
X5461400Y-4068200D01*
X5460500Y-4063400D01*
X5459700Y-4059500D01*
X5459100Y-4056800D01*
X5458900Y-4055600D01*
X5458200Y-4055500D01*
X5455800Y-4055300D01*
X5452300Y-4055200D01*
X5448000Y-4055200D01*
X5443500Y-4055200D01*
X5439100Y-4055300D01*
X5435300Y-4055400D01*
X5432600Y-4055600D01*
X5431500Y-4055800D01*
X5431500Y-4055900D01*
X5431000Y-4057400D01*
X5430400Y-4060400D01*
X5429500Y-4064500D01*
X5428600Y-4069400D01*
X5428400Y-4070300D01*
X5427500Y-4075000D01*
X5426700Y-4078900D01*
X5426200Y-4081600D01*
X5425900Y-4082700D01*
X5425400Y-4082900D01*
X5423500Y-4083800D01*
X5420300Y-4085100D01*
X5416300Y-4086700D01*
X5407200Y-4090400D01*
X5396000Y-4082700D01*
X5394900Y-4082000D01*
X5390900Y-4079200D01*
X5387600Y-4077000D01*
X5385300Y-4075500D01*
X5384300Y-4075000D01*
X5384200Y-4075000D01*
X5383100Y-4076000D01*
X5380900Y-4078100D01*
X5377900Y-4081100D01*
X5374300Y-4084600D01*
X5371700Y-4087200D01*
X5368600Y-4090300D01*
X5366700Y-4092500D01*
X5365600Y-4093800D01*
X5365200Y-4094600D01*
X5365300Y-4095200D01*
X5366000Y-4096300D01*
X5367700Y-4098800D01*
X5370000Y-4102200D01*
X5372700Y-4106200D01*
X5375000Y-4109500D01*
X5377400Y-4113300D01*
X5379000Y-4116000D01*
X5379500Y-4117300D01*
X5379400Y-4117800D01*
X5378600Y-4120000D01*
X5377300Y-4123300D01*
X5375600Y-4127300D01*
X5371700Y-4136200D01*
X5365900Y-4137300D01*
X5362300Y-4138000D01*
X5357400Y-4138900D01*
X5352700Y-4139800D01*
X5345300Y-4141300D01*
X5345000Y-4168300D01*
X5346200Y-4168800D01*
X5347300Y-4169100D01*
X5350000Y-4169700D01*
X5353900Y-4170500D01*
X5358500Y-4171300D01*
X5362400Y-4172100D01*
X5366400Y-4172800D01*
X5369200Y-4173400D01*
X5370500Y-4173600D01*
X5370800Y-4174100D01*
X5371800Y-4176000D01*
X5373200Y-4179000D01*
X5374800Y-4182700D01*
X5376300Y-4186500D01*
X5377700Y-4190000D01*
X5378700Y-4192600D01*
X5379100Y-4194000D01*
X5378500Y-4195100D01*
X5377000Y-4197400D01*
X5374800Y-4200700D01*
X5372200Y-4204600D01*
X5369500Y-4208500D01*
X5367200Y-4211900D01*
X5365600Y-4214300D01*
X5365000Y-4215400D01*
X5365300Y-4216200D01*
X5366900Y-4218100D01*
X5369800Y-4221100D01*
X5374200Y-4225500D01*
X5375000Y-4226200D01*
X5378500Y-4229600D01*
X5381400Y-4232300D01*
X5383500Y-4234100D01*
X5384400Y-4234800D01*
X5384400Y-4234800D01*
G37*
X5384400Y-4234800D02*
X5385500Y-4234300D01*
X5387800Y-4232800D01*
X5391100Y-4230600D01*
X5395100Y-4227900D01*
X5399000Y-4225300D01*
X5402300Y-4223100D01*
X5404600Y-4221600D01*
X5405500Y-4221100D01*
X5406000Y-4221300D01*
X5407900Y-4222200D01*
X5410700Y-4223600D01*
X5412200Y-4224400D01*
X5414800Y-4225500D01*
X5416000Y-4225700D01*
X5416200Y-4225400D01*
X5417100Y-4223500D01*
X5418600Y-4220200D01*
X5420500Y-4215900D01*
X5422600Y-4210800D01*
X5424900Y-4205300D01*
X5427300Y-4199700D01*
X5429500Y-4194400D01*
X5431400Y-4189600D01*
X5433000Y-4185700D01*
X5434000Y-4183000D01*
X5434400Y-4181800D01*
X5434300Y-4181600D01*
X5433000Y-4180400D01*
X5430800Y-4178700D01*
X5426100Y-4174900D01*
X5421400Y-4169100D01*
X5418600Y-4162400D01*
X5417700Y-4155100D01*
X5418500Y-4148300D01*
X5421100Y-4141800D01*
X5425700Y-4135900D01*
X5431300Y-4131500D01*
X5437700Y-4128700D01*
X5445000Y-4127800D01*
X5451900Y-4128600D01*
X5458600Y-4131200D01*
X5464500Y-4135700D01*
X5467000Y-4138600D01*
X5470500Y-4144600D01*
X5472400Y-4150900D01*
X5472600Y-4152600D01*
X5472300Y-4159600D01*
X5470300Y-4166300D01*
X5466500Y-4172300D01*
X5461400Y-4177300D01*
X5460800Y-4177700D01*
X5458400Y-4179500D01*
X5456800Y-4180700D01*
X5455500Y-4181800D01*
X5464500Y-4203300D01*
X5465900Y-4206700D01*
X5468300Y-4212600D01*
X5470500Y-4217700D01*
X5472200Y-4221700D01*
X5473400Y-4224400D01*
X5473900Y-4225500D01*
X5474000Y-4225500D01*
X5474800Y-4225700D01*
X5476400Y-4225100D01*
X5479400Y-4223600D01*
X5481400Y-4222600D01*
X5483700Y-4221500D01*
X5484700Y-4221100D01*
X5485600Y-4221600D01*
X5487800Y-4223000D01*
X5491000Y-4225100D01*
X5494900Y-4227700D01*
X5498500Y-4230200D01*
X5501900Y-4232500D01*
X5504400Y-4234000D01*
X5505500Y-4234700D01*
X5505700Y-4234700D01*
X5506800Y-4234100D01*
X5508700Y-4232500D01*
X5511700Y-4229700D01*
X5515800Y-4225600D01*
X5516400Y-4225000D01*
X5519800Y-4221500D01*
X5522600Y-4218600D01*
X5524500Y-4216500D01*
X5525100Y-4215600D01*
X5525100Y-4215600D01*
X5524500Y-4214400D01*
X5523000Y-4212000D01*
X5520700Y-4208500D01*
X5518000Y-4204500D01*
X5510900Y-4194200D01*
X5514800Y-4184400D01*
X5516000Y-4181400D01*
X5517500Y-4177800D01*
X5518700Y-4175200D01*
X5519300Y-4174100D01*
X5520300Y-4173700D01*
X5523000Y-4173000D01*
X5526900Y-4172200D01*
X5531500Y-4171400D01*
X5535900Y-4170600D01*
X5539900Y-4169800D01*
X5542800Y-4169300D01*
X5544100Y-4169000D01*
X5544400Y-4168800D01*
X5544600Y-4168200D01*
X5544800Y-4166800D01*
X5544900Y-4164400D01*
X5544900Y-4160600D01*
X5544900Y-4155100D01*
X5544900Y-4154500D01*
X5544900Y-4149200D01*
X5544800Y-4145000D01*
X5544700Y-4142400D01*
X5544500Y-4141300D01*
X5544500Y-4141300D01*
X5543200Y-4141000D01*
X5540400Y-4140400D01*
X5536400Y-4139600D01*
X5531700Y-4138700D01*
X5531400Y-4138600D01*
X5526700Y-4137700D01*
X5522700Y-4136900D01*
X5519900Y-4136200D01*
X5518700Y-4135900D01*
X5518500Y-4135500D01*
X5517500Y-4133700D01*
X5516200Y-4130800D01*
X5514600Y-4127200D01*
X5513100Y-4123500D01*
X5511700Y-4120100D01*
X5510800Y-4117600D01*
X5510600Y-4116500D01*
X5510600Y-4116500D01*
X5511300Y-4115300D01*
X5512900Y-4112900D01*
X5515200Y-4109500D01*
X5518000Y-4105500D01*
X5518200Y-4105200D01*
X5520900Y-4101200D01*
X5523100Y-4097800D01*
X5524600Y-4095400D01*
X5525100Y-4094300D01*
X5525100Y-4094200D01*
X5524200Y-4093000D01*
X5522200Y-4090800D01*
X5519300Y-4087700D01*
X5515800Y-4084200D01*
X5514700Y-4083100D01*
X5510800Y-4079300D01*
X5508100Y-4076800D01*
X5506400Y-4075500D01*
X5505600Y-4075200D01*
X5505600Y-4075200D01*
X5504400Y-4075900D01*
X5501800Y-4077600D01*
X5498400Y-4079900D01*
X5494400Y-4082700D01*
X5494100Y-4082900D01*
X5490100Y-4085600D01*
X5486700Y-4087800D01*
X5484400Y-4089400D01*
X5483300Y-4090000D01*
X5483200Y-4090000D01*
X5481500Y-4089500D01*
X5478700Y-4088500D01*
X5475200Y-4087200D01*
X5471500Y-4085700D01*
X5468100Y-4084300D01*
X5465600Y-4083100D01*
X5464400Y-4082500D01*
X5464400Y-4082400D01*
X5464000Y-4081000D01*
X5463300Y-4078000D01*
X5462400Y-4073900D01*
X5461500Y-4069000D01*
X5461400Y-4068200D01*
X5460500Y-4063400D01*
X5459700Y-4059500D01*
X5459100Y-4056800D01*
X5458900Y-4055600D01*
X5458200Y-4055500D01*
X5455800Y-4055300D01*
X5452300Y-4055200D01*
X5448000Y-4055200D01*
X5443500Y-4055200D01*
X5439100Y-4055300D01*
X5435300Y-4055400D01*
X5432600Y-4055600D01*
X5431500Y-4055800D01*
X5431500Y-4055900D01*
X5431000Y-4057400D01*
X5430400Y-4060400D01*
X5429500Y-4064500D01*
X5428600Y-4069400D01*
X5428400Y-4070300D01*
X5427500Y-4075000D01*
X5426700Y-4078900D01*
X5426200Y-4081600D01*
X5425900Y-4082700D01*
X5425400Y-4082900D01*
X5423500Y-4083800D01*
X5420300Y-4085100D01*
X5416300Y-4086700D01*
X5407200Y-4090400D01*
X5396000Y-4082700D01*
X5394900Y-4082000D01*
X5390900Y-4079200D01*
X5387600Y-4077000D01*
X5385300Y-4075500D01*
X5384300Y-4075000D01*
X5384200Y-4075000D01*
X5383100Y-4076000D01*
X5380900Y-4078100D01*
X5377900Y-4081100D01*
X5374300Y-4084600D01*
X5371700Y-4087200D01*
X5368600Y-4090300D01*
X5366700Y-4092500D01*
X5365600Y-4093800D01*
X5365200Y-4094600D01*
X5365300Y-4095200D01*
X5366000Y-4096300D01*
X5367700Y-4098800D01*
X5370000Y-4102200D01*
X5372700Y-4106200D01*
X5375000Y-4109500D01*
X5377400Y-4113300D01*
X5379000Y-4116000D01*
X5379500Y-4117300D01*
X5379400Y-4117800D01*
X5378600Y-4120000D01*
X5377300Y-4123300D01*
X5375600Y-4127300D01*
X5371700Y-4136200D01*
X5365900Y-4137300D01*
X5362300Y-4138000D01*
X5357400Y-4138900D01*
X5352700Y-4139800D01*
X5345300Y-4141300D01*
X5345000Y-4168300D01*
X5346200Y-4168800D01*
X5347300Y-4169100D01*
X5350000Y-4169700D01*
X5353900Y-4170500D01*
X5358500Y-4171300D01*
X5362400Y-4172100D01*
X5366400Y-4172800D01*
X5369200Y-4173400D01*
X5370500Y-4173600D01*
X5370800Y-4174100D01*
X5371800Y-4176000D01*
X5373200Y-4179000D01*
X5374800Y-4182700D01*
X5376300Y-4186500D01*
X5377700Y-4190000D01*
X5378700Y-4192600D01*
X5379100Y-4194000D01*
X5378500Y-4195100D01*
X5377000Y-4197400D01*
X5374800Y-4200700D01*
X5372200Y-4204600D01*
X5369500Y-4208500D01*
X5367200Y-4211900D01*
X5365600Y-4214300D01*
X5365000Y-4215400D01*
X5365300Y-4216200D01*
X5366900Y-4218100D01*
X5369800Y-4221100D01*
X5374200Y-4225500D01*
X5375000Y-4226200D01*
X5378500Y-4229600D01*
X5381400Y-4232300D01*
X5383500Y-4234100D01*
X5384400Y-4234800D01*
D15*
X4820866Y-4437008D02*
X4820866Y-4657480D01*
X4820866Y-4657480D02*
X4923228Y-4657480D01*
X4923228Y-4657480D02*
X4923228Y-4437008D01*
X4923228Y-4437008D02*
X4820866Y-4437008D01*
X4958661Y-4437008D02*
X4958661Y-4657480D01*
X4958661Y-4657480D02*
X5061024Y-4657480D01*
X5061024Y-4657480D02*
X5061024Y-4437008D01*
X5061024Y-4437008D02*
X4958661Y-4437008D01*
X4923228Y-4401575D02*
X4923228Y-4220472D01*
X4923228Y-4220472D02*
X4820866Y-4220472D01*
X4820866Y-4220472D02*
X4820866Y-4401575D01*
X4820866Y-4401575D02*
X4923228Y-4401575D01*
X5061024Y-4401575D02*
X5061024Y-4220472D01*
X5061024Y-4220472D02*
X4958661Y-4220472D01*
X4958661Y-4220472D02*
X4958661Y-4401575D01*
X4958661Y-4401575D02*
X5061024Y-4401575D01*
D11*
X4760476Y-4523095D02*
X4760476Y-4555476D01*
X4758571Y-4559286D01*
X4756667Y-4561190D01*
X4752857Y-4563095D01*
X4745238Y-4563095D01*
X4741429Y-4561190D01*
X4739524Y-4559286D01*
X4737619Y-4555476D01*
X4737619Y-4523095D01*
X4697619Y-4563095D02*
X4720476Y-4563095D01*
X4709048Y-4563095D02*
X4709048Y-4523095D01*
X4712857Y-4528810D01*
X4716667Y-4532619D01*
X4720476Y-4534524D01*
X4818571Y-4718095D02*
X4841429Y-4718095D01*
X4830000Y-4718095D02*
X4830000Y-4678095D01*
X4833809Y-4683810D01*
X4837619Y-4687619D01*
X4841429Y-4689524D01*
X5175476Y-4523095D02*
X5175476Y-4555476D01*
X5173571Y-4559286D01*
X5171667Y-4561190D01*
X5167857Y-4563095D01*
X5160238Y-4563095D01*
X5156429Y-4561190D01*
X5154524Y-4559286D01*
X5152619Y-4555476D01*
X5152619Y-4523095D01*
X5135476Y-4526905D02*
X5133571Y-4525000D01*
X5129762Y-4523095D01*
X5120238Y-4523095D01*
X5116429Y-4525000D01*
X5114524Y-4526905D01*
X5112619Y-4530714D01*
X5112619Y-4534524D01*
X5114524Y-4540238D01*
X5137381Y-4563095D01*
X5112619Y-4563095D01*
X4958571Y-4718095D02*
X4981429Y-4718095D01*
X4970000Y-4718095D02*
X4970000Y-4678095D01*
X4973809Y-4683810D01*
X4977619Y-4687619D01*
X4981429Y-4689524D01*
X4760476Y-4293095D02*
X4760476Y-4325476D01*
X4758571Y-4329286D01*
X4756667Y-4331190D01*
X4752857Y-4333095D01*
X4745238Y-4333095D01*
X4741429Y-4331190D01*
X4739524Y-4329286D01*
X4737619Y-4325476D01*
X4737619Y-4293095D01*
X4722381Y-4293095D02*
X4697619Y-4293095D01*
X4710952Y-4308333D01*
X4705238Y-4308333D01*
X4701429Y-4310238D01*
X4699524Y-4312143D01*
X4697619Y-4315952D01*
X4697619Y-4325476D01*
X4699524Y-4329286D01*
X4701429Y-4331190D01*
X4705238Y-4333095D01*
X4716667Y-4333095D01*
X4720476Y-4331190D01*
X4722381Y-4329286D01*
X4903571Y-4198095D02*
X4926429Y-4198095D01*
X4915000Y-4198095D02*
X4915000Y-4158095D01*
X4918809Y-4163810D01*
X4922619Y-4167619D01*
X4926429Y-4169524D01*
X5175476Y-4288095D02*
X5175476Y-4320476D01*
X5173571Y-4324286D01*
X5171667Y-4326190D01*
X5167857Y-4328095D01*
X5160238Y-4328095D01*
X5156429Y-4326190D01*
X5154524Y-4324286D01*
X5152619Y-4320476D01*
X5152619Y-4288095D01*
X5116429Y-4301429D02*
X5116429Y-4328095D01*
X5125952Y-4286190D02*
X5135476Y-4314762D01*
X5110714Y-4314762D01*
X5038571Y-4198095D02*
X5061429Y-4198095D01*
X5050000Y-4198095D02*
X5050000Y-4158095D01*
X5053809Y-4163810D01*
X5057619Y-4167619D01*
X5061429Y-4169524D01*
M02*
