M48
;DRILL file {kicad (2014-jul-16 BZR unknown)-product} date Thu 30 Oct 2014 11:00:59 AM PDT
;FORMAT={2:4/ absolute / inch / suppress leading zeros}
FMAT,2
INCH,TZ
T1C0.020
T2C0.025
T3C0.039
T4C0.040
T5C0.041
T6C0.125
%
G90
G05
M72
T1
X48327Y-42411
X48327Y-43809
X48327Y-44577
X48327Y-46368
X49114Y-42411
X49114Y-43809
X49114Y-44577
X49114Y-46368
X49705Y-42411
X49705Y-43809
X49705Y-44577
X49705Y-46368
X50492Y-42411
X50492Y-43809
X50492Y-44577
X50492Y-46368
T2
X47750Y-43750
X51100Y-46600
T3
X48250Y-40500
X48250Y-48350
X52250Y-40500
X52250Y-48350
T4
X42250Y-44250
X44750Y-42250
X44750Y-43250
X44750Y-44250
X44750Y-45250
X44750Y-46250
X45750Y-42250
X45750Y-43250
X45750Y-44250
X45750Y-45250
X45750Y-46250
X53000Y-43266
X53000Y-45234
T5
X49016Y-45472
X50394Y-45472
T6
X41339Y-41339
X41339Y-47244
X57087Y-41339
X57087Y-47244
T0
M30
