%FSLAX36Y36*%
G04 Gerber Fmt 3.6, Leading zero omitted, Abs format (unit inch)*
G04 Created by KiCad (PCBNEW (2014-jul-16 BZR unknown)-product) date Thu 30 Oct 2014 11:01:01 AM PDT*
%MOIN*%
G01*
G04 APERTURE LIST*
%ADD10C,0.003937*%
%ADD11C,0.236220*%
%ADD12C,0.078700*%
%ADD13R,0.088000X0.088000*%
%ADD14C,0.039370*%
%ADD15C,0.041339*%
%ADD16C,0.080000*%
%ADD17R,0.060000X0.060000*%
%ADD18C,0.060000*%
%ADD19C,0.035000*%
%ADD20C,0.040000*%
%ADD21C,0.010000*%
G04 APERTURE END LIST*
D10*
D11*
X4133858Y-4133858D03*
X5708661Y-4133858D03*
X4133858Y-4724409D03*
X5708661Y-4724409D03*
D12*
X5225000Y-4835000D03*
X4825000Y-4835000D03*
X5225000Y-4050000D03*
X4825000Y-4050000D03*
D13*
X4225000Y-4425000D03*
D14*
X4832677Y-4636772D03*
X4911417Y-4636811D03*
X4832677Y-4457677D03*
X4911417Y-4457677D03*
D15*
X4901575Y-4547244D03*
D14*
X4970472Y-4636772D03*
X5049213Y-4636811D03*
X4970472Y-4457677D03*
X5049213Y-4457677D03*
D15*
X5039370Y-4547244D03*
D14*
X4911417Y-4241142D03*
X4832677Y-4241142D03*
X4911417Y-4380906D03*
X4832677Y-4380906D03*
X5049213Y-4241142D03*
X4970472Y-4241142D03*
X5049213Y-4380906D03*
X4970472Y-4380906D03*
D16*
X5300000Y-4523425D03*
X5300000Y-4326575D03*
D17*
X4575000Y-4625000D03*
D18*
X4475000Y-4625000D03*
X4575000Y-4525000D03*
X4475000Y-4525000D03*
X4575000Y-4425000D03*
X4475000Y-4425000D03*
X4575000Y-4325000D03*
X4475000Y-4325000D03*
X4575000Y-4225000D03*
X4475000Y-4225000D03*
D19*
X5110000Y-4660000D03*
X4775000Y-4375000D03*
D20*
X5225000Y-4835000D02*
X5110000Y-4720000D01*
X5110000Y-4720000D02*
X5110000Y-4660000D01*
X4832677Y-4636772D02*
X4832677Y-4532677D01*
X4725000Y-4350000D02*
X4775000Y-4300000D01*
X4725000Y-4425000D02*
X4725000Y-4350000D01*
X4832677Y-4532677D02*
X4725000Y-4425000D01*
X4883770Y-4300000D02*
X4911417Y-4272353D01*
X4775000Y-4300000D02*
X4883770Y-4300000D01*
X4911417Y-4241142D02*
X4911417Y-4272353D01*
X5225000Y-4200000D02*
X5225000Y-4050000D01*
X5125000Y-4300000D02*
X5225000Y-4200000D01*
X4939064Y-4300000D02*
X5125000Y-4300000D01*
X4911417Y-4272353D02*
X4939064Y-4300000D01*
D21*
X4970472Y-4380906D02*
X5047244Y-4457677D01*
X5047244Y-4457677D02*
X5049213Y-4457677D01*
X4924567Y-4335000D02*
X4815000Y-4335000D01*
X4815000Y-4335000D02*
X4775000Y-4375000D01*
X4924567Y-4335000D02*
X4970472Y-4380906D01*
X4832677Y-4380906D02*
X4909449Y-4457677D01*
X4909449Y-4457677D02*
X4911417Y-4457677D01*
D20*
X4133858Y-4724409D02*
X4134449Y-4725000D01*
X4425000Y-4525000D02*
X4325000Y-4425000D01*
X4325000Y-4425000D02*
X4225000Y-4425000D01*
X4475000Y-4525000D02*
X4425000Y-4525000D01*
X4970472Y-4241142D02*
X4970472Y-4220472D01*
X4898819Y-4175000D02*
X4832677Y-4241142D01*
X4925000Y-4175000D02*
X4898819Y-4175000D01*
X4970472Y-4220472D02*
X4925000Y-4175000D01*
X4911417Y-4661417D02*
X4911417Y-4636811D01*
X5049213Y-4636811D02*
X4986024Y-4700000D01*
X4950000Y-4700000D02*
X4911417Y-4661417D01*
X4986024Y-4700000D02*
X4950000Y-4700000D01*
X4658858Y-4241142D02*
X4575000Y-4325000D01*
X4832677Y-4241142D02*
X4658858Y-4241142D01*
X4650000Y-4400000D02*
X4650000Y-4500000D01*
X4650000Y-4500000D02*
X4775000Y-4625000D01*
X4775000Y-4625000D02*
X4775000Y-4675000D01*
X4775000Y-4675000D02*
X4800000Y-4700000D01*
X4800000Y-4700000D02*
X4872835Y-4700000D01*
X4872835Y-4700000D02*
X4911417Y-4661417D01*
X4575000Y-4325000D02*
X4650000Y-4400000D01*
D21*
G36*
X5878543Y-4894291D02*
X5862690Y-4894291D01*
X5862690Y-4699001D01*
X5862690Y-4108450D01*
X5841242Y-4051440D01*
X5835542Y-4042910D01*
X5813565Y-4030369D01*
X5812151Y-4031783D01*
X5812151Y-4028954D01*
X5799610Y-4006978D01*
X5744131Y-3981831D01*
X5683253Y-3979830D01*
X5626243Y-4001278D01*
X5617713Y-4006978D01*
X5605172Y-4028954D01*
X5708661Y-4132444D01*
X5812151Y-4028954D01*
X5812151Y-4031783D01*
X5710076Y-4133858D01*
X5813565Y-4237348D01*
X5835542Y-4224806D01*
X5860688Y-4169328D01*
X5862690Y-4108450D01*
X5862690Y-4699001D01*
X5841242Y-4641991D01*
X5835542Y-4633461D01*
X5813565Y-4620920D01*
X5812151Y-4622334D01*
X5812151Y-4619506D01*
X5812151Y-4238762D01*
X5708661Y-4135272D01*
X5707247Y-4136687D01*
X5707247Y-4133858D01*
X5603758Y-4030369D01*
X5581781Y-4042910D01*
X5556635Y-4098388D01*
X5554633Y-4159266D01*
X5576081Y-4216276D01*
X5581781Y-4224806D01*
X5603758Y-4237348D01*
X5707247Y-4133858D01*
X5707247Y-4136687D01*
X5605172Y-4238762D01*
X5617713Y-4260739D01*
X5673191Y-4285885D01*
X5734070Y-4287887D01*
X5791080Y-4266439D01*
X5799610Y-4260739D01*
X5812151Y-4238762D01*
X5812151Y-4619506D01*
X5799610Y-4597529D01*
X5744131Y-4572383D01*
X5683253Y-4570381D01*
X5626243Y-4591829D01*
X5617713Y-4597529D01*
X5605172Y-4619506D01*
X5708661Y-4722995D01*
X5812151Y-4619506D01*
X5812151Y-4622334D01*
X5710076Y-4724409D01*
X5813565Y-4827899D01*
X5835542Y-4815358D01*
X5860688Y-4759879D01*
X5862690Y-4699001D01*
X5862690Y-4894291D01*
X5812151Y-4894291D01*
X5812151Y-4829313D01*
X5708661Y-4725824D01*
X5707247Y-4727238D01*
X5707247Y-4724409D01*
X5603758Y-4620920D01*
X5581781Y-4633461D01*
X5556635Y-4688939D01*
X5554633Y-4749818D01*
X5576081Y-4806828D01*
X5581781Y-4815358D01*
X5603758Y-4827899D01*
X5707247Y-4724409D01*
X5707247Y-4727238D01*
X5605172Y-4829313D01*
X5617713Y-4851290D01*
X5673191Y-4876436D01*
X5734070Y-4878438D01*
X5791080Y-4856990D01*
X5799610Y-4851290D01*
X5812151Y-4829313D01*
X5812151Y-4894291D01*
X5365011Y-4894291D01*
X5365011Y-4510553D01*
X5365011Y-4313702D01*
X5355136Y-4289803D01*
X5336868Y-4271503D01*
X5312986Y-4261586D01*
X5287127Y-4261564D01*
X5263229Y-4271438D01*
X5244928Y-4289707D01*
X5235011Y-4313589D01*
X5234989Y-4339447D01*
X5244864Y-4363346D01*
X5263132Y-4381647D01*
X5287014Y-4391564D01*
X5312873Y-4391586D01*
X5336771Y-4381711D01*
X5355072Y-4363442D01*
X5364989Y-4339561D01*
X5365011Y-4313702D01*
X5365011Y-4510553D01*
X5355136Y-4486654D01*
X5336868Y-4468353D01*
X5312986Y-4458436D01*
X5287127Y-4458414D01*
X5263229Y-4468289D01*
X5244928Y-4486558D01*
X5235011Y-4510439D01*
X5234989Y-4536298D01*
X5244864Y-4560197D01*
X5263132Y-4578497D01*
X5287014Y-4588414D01*
X5312873Y-4588436D01*
X5336771Y-4578562D01*
X5355072Y-4560293D01*
X5364989Y-4536411D01*
X5365011Y-4510553D01*
X5365011Y-4894291D01*
X5250014Y-4894291D01*
X5261404Y-4889585D01*
X5279521Y-4871499D01*
X5289339Y-4847856D01*
X5289361Y-4822256D01*
X5279585Y-4798596D01*
X5261499Y-4780479D01*
X5237856Y-4770661D01*
X5224289Y-4770649D01*
X5155000Y-4701360D01*
X5155000Y-4660000D01*
X5151575Y-4642779D01*
X5141820Y-4628180D01*
X5127221Y-4618425D01*
X5110000Y-4615000D01*
X5092779Y-4618425D01*
X5090816Y-4619737D01*
X5090787Y-4619590D01*
X5089894Y-4618254D01*
X5087117Y-4611532D01*
X5081933Y-4606339D01*
X5081032Y-4604991D01*
X5079696Y-4604098D01*
X5074558Y-4598951D01*
X5067781Y-4596137D01*
X5066433Y-4595236D01*
X5064857Y-4594923D01*
X5058140Y-4592134D01*
X5050803Y-4592127D01*
X5050488Y-4592065D01*
X5065206Y-4585983D01*
X5078064Y-4573147D01*
X5085031Y-4556368D01*
X5085047Y-4538200D01*
X5078109Y-4521408D01*
X5065273Y-4508550D01*
X5050374Y-4502363D01*
X5058062Y-4502370D01*
X5074492Y-4495581D01*
X5087073Y-4483022D01*
X5093890Y-4466605D01*
X5093905Y-4448828D01*
X5087117Y-4432398D01*
X5074558Y-4419817D01*
X5073309Y-4419298D01*
X5074492Y-4418810D01*
X5087073Y-4406251D01*
X5093890Y-4389833D01*
X5093905Y-4372056D01*
X5087117Y-4355627D01*
X5076509Y-4345000D01*
X5125000Y-4345000D01*
X5142221Y-4341575D01*
X5156820Y-4331820D01*
X5256820Y-4231820D01*
X5266575Y-4217221D01*
X5270000Y-4200000D01*
X5270000Y-4096004D01*
X5279521Y-4086499D01*
X5289339Y-4062856D01*
X5289361Y-4037256D01*
X5279585Y-4013596D01*
X5261499Y-3995479D01*
X5237856Y-3985661D01*
X5212256Y-3985639D01*
X5188596Y-3995415D01*
X5170479Y-4013501D01*
X5160661Y-4037144D01*
X5160639Y-4062744D01*
X5170415Y-4086404D01*
X5180000Y-4096006D01*
X5180000Y-4181360D01*
X5106360Y-4255000D01*
X5091842Y-4255000D01*
X5093890Y-4250069D01*
X5093905Y-4232292D01*
X5087117Y-4215863D01*
X5074558Y-4203282D01*
X5058140Y-4196464D01*
X5040363Y-4196449D01*
X5023934Y-4203238D01*
X5014014Y-4213140D01*
X5012047Y-4203252D01*
X5002292Y-4188653D01*
X4956820Y-4143180D01*
X4942221Y-4133425D01*
X4925000Y-4130000D01*
X4898819Y-4130000D01*
X4889361Y-4131881D01*
X4889361Y-4037256D01*
X4879585Y-4013596D01*
X4861499Y-3995479D01*
X4837856Y-3985661D01*
X4812256Y-3985639D01*
X4788596Y-3995415D01*
X4770479Y-4013501D01*
X4760661Y-4037144D01*
X4760639Y-4062744D01*
X4770415Y-4086404D01*
X4788501Y-4104521D01*
X4812144Y-4114339D01*
X4837744Y-4114361D01*
X4861404Y-4104585D01*
X4879521Y-4086499D01*
X4889339Y-4062856D01*
X4889361Y-4037256D01*
X4889361Y-4131881D01*
X4881598Y-4133425D01*
X4866999Y-4143180D01*
X4814038Y-4196142D01*
X4658858Y-4196142D01*
X4641638Y-4199567D01*
X4627817Y-4208802D01*
X4621654Y-4193886D01*
X4606196Y-4178400D01*
X4585988Y-4170010D01*
X4564108Y-4169990D01*
X4543886Y-4178346D01*
X4528400Y-4193804D01*
X4525002Y-4201989D01*
X4521654Y-4193886D01*
X4506196Y-4178400D01*
X4485988Y-4170010D01*
X4464108Y-4169990D01*
X4443886Y-4178346D01*
X4428400Y-4193804D01*
X4420010Y-4214012D01*
X4419990Y-4235892D01*
X4428346Y-4256114D01*
X4443804Y-4271600D01*
X4451989Y-4274998D01*
X4443886Y-4278346D01*
X4428400Y-4293804D01*
X4420010Y-4314012D01*
X4419990Y-4335892D01*
X4428346Y-4356114D01*
X4443804Y-4371600D01*
X4451989Y-4374998D01*
X4443886Y-4378346D01*
X4428400Y-4393804D01*
X4420010Y-4414012D01*
X4419990Y-4435892D01*
X4428346Y-4456114D01*
X4440756Y-4468546D01*
X4439524Y-4469022D01*
X4436859Y-4470802D01*
X4435038Y-4483624D01*
X4475000Y-4523586D01*
X4514962Y-4483624D01*
X4513141Y-4470802D01*
X4508865Y-4468908D01*
X4521600Y-4456196D01*
X4524998Y-4448011D01*
X4528346Y-4456114D01*
X4543804Y-4471600D01*
X4551989Y-4474998D01*
X4543886Y-4478346D01*
X4531454Y-4490756D01*
X4530978Y-4489524D01*
X4529198Y-4486859D01*
X4516376Y-4485038D01*
X4476414Y-4525000D01*
X4516376Y-4564962D01*
X4529198Y-4563141D01*
X4531092Y-4558865D01*
X4542208Y-4570000D01*
X4540027Y-4570000D01*
X4530839Y-4573806D01*
X4523806Y-4580839D01*
X4520000Y-4590027D01*
X4520000Y-4592229D01*
X4509244Y-4581454D01*
X4510476Y-4580978D01*
X4513141Y-4579198D01*
X4514962Y-4566376D01*
X4475000Y-4526414D01*
X4473586Y-4527828D01*
X4473586Y-4525000D01*
X4433624Y-4485038D01*
X4420802Y-4486859D01*
X4410332Y-4510503D01*
X4409706Y-4536354D01*
X4419022Y-4560476D01*
X4420802Y-4563141D01*
X4433624Y-4564962D01*
X4473586Y-4525000D01*
X4473586Y-4527828D01*
X4435038Y-4566376D01*
X4436859Y-4579198D01*
X4441135Y-4581092D01*
X4428400Y-4593804D01*
X4420010Y-4614012D01*
X4419990Y-4635892D01*
X4428346Y-4656114D01*
X4443804Y-4671600D01*
X4464012Y-4679990D01*
X4485892Y-4680010D01*
X4506114Y-4671654D01*
X4520000Y-4657792D01*
X4520000Y-4659973D01*
X4523806Y-4669161D01*
X4530839Y-4676194D01*
X4540027Y-4680000D01*
X4549973Y-4680000D01*
X4609973Y-4680000D01*
X4619161Y-4676194D01*
X4626194Y-4669161D01*
X4630000Y-4659973D01*
X4630000Y-4650027D01*
X4630000Y-4590027D01*
X4626194Y-4580839D01*
X4619161Y-4573806D01*
X4609973Y-4570000D01*
X4607771Y-4570000D01*
X4621600Y-4556196D01*
X4627748Y-4541388D01*
X4730000Y-4643640D01*
X4730000Y-4675000D01*
X4733425Y-4692221D01*
X4743180Y-4706820D01*
X4768180Y-4731820D01*
X4782779Y-4741575D01*
X4800000Y-4745000D01*
X4872835Y-4745000D01*
X4890055Y-4741575D01*
X4904654Y-4731820D01*
X4911417Y-4725057D01*
X4918180Y-4731820D01*
X4932779Y-4741575D01*
X4950000Y-4745000D01*
X4986024Y-4745000D01*
X5003244Y-4741575D01*
X5017843Y-4731820D01*
X5065000Y-4684663D01*
X5065000Y-4720000D01*
X5068425Y-4737221D01*
X5078180Y-4751820D01*
X5160651Y-4834290D01*
X5160639Y-4847744D01*
X5170415Y-4871404D01*
X5188501Y-4889521D01*
X5199988Y-4894291D01*
X4850014Y-4894291D01*
X4861404Y-4889585D01*
X4879521Y-4871499D01*
X4889339Y-4847856D01*
X4889361Y-4822256D01*
X4879585Y-4798596D01*
X4861499Y-4780479D01*
X4837856Y-4770661D01*
X4812256Y-4770639D01*
X4788596Y-4780415D01*
X4770479Y-4798501D01*
X4760661Y-4822144D01*
X4760639Y-4847744D01*
X4770415Y-4871404D01*
X4788501Y-4889521D01*
X4799988Y-4894291D01*
X4304000Y-4894291D01*
X4304000Y-4475962D01*
X4304000Y-4462038D01*
X4304000Y-4434750D01*
X4304000Y-4415250D01*
X4304000Y-4387962D01*
X4304000Y-4374038D01*
X4298672Y-4361174D01*
X4288826Y-4351328D01*
X4287887Y-4350939D01*
X4287887Y-4108450D01*
X4266439Y-4051440D01*
X4260739Y-4042910D01*
X4238762Y-4030369D01*
X4237348Y-4031783D01*
X4237348Y-4028954D01*
X4224806Y-4006978D01*
X4169328Y-3981831D01*
X4108450Y-3979830D01*
X4051440Y-4001278D01*
X4042910Y-4006978D01*
X4030369Y-4028954D01*
X4133858Y-4132444D01*
X4237348Y-4028954D01*
X4237348Y-4031783D01*
X4135272Y-4133858D01*
X4238762Y-4237348D01*
X4260739Y-4224806D01*
X4285885Y-4169328D01*
X4287887Y-4108450D01*
X4287887Y-4350939D01*
X4275962Y-4346000D01*
X4237348Y-4346000D01*
X4237348Y-4238762D01*
X4133858Y-4135272D01*
X4132444Y-4136687D01*
X4132444Y-4133858D01*
X4028954Y-4030369D01*
X4006978Y-4042910D01*
X3981831Y-4098388D01*
X3979830Y-4159266D01*
X4001278Y-4216276D01*
X4006978Y-4224806D01*
X4028954Y-4237348D01*
X4132444Y-4133858D01*
X4132444Y-4136687D01*
X4030369Y-4238762D01*
X4042910Y-4260739D01*
X4098388Y-4285885D01*
X4159266Y-4287887D01*
X4216276Y-4266439D01*
X4224806Y-4260739D01*
X4237348Y-4238762D01*
X4237348Y-4346000D01*
X4234750Y-4346000D01*
X4226000Y-4354750D01*
X4226000Y-4424000D01*
X4295250Y-4424000D01*
X4304000Y-4415250D01*
X4304000Y-4434750D01*
X4295250Y-4426000D01*
X4226000Y-4426000D01*
X4226000Y-4495250D01*
X4234750Y-4504000D01*
X4275962Y-4504000D01*
X4288826Y-4498672D01*
X4298672Y-4488826D01*
X4304000Y-4475962D01*
X4304000Y-4894291D01*
X4287887Y-4894291D01*
X4287887Y-4699001D01*
X4266439Y-4641991D01*
X4260739Y-4633461D01*
X4238762Y-4620920D01*
X4237348Y-4622334D01*
X4237348Y-4619506D01*
X4224806Y-4597529D01*
X4224000Y-4597163D01*
X4224000Y-4495250D01*
X4224000Y-4426000D01*
X4224000Y-4424000D01*
X4224000Y-4354750D01*
X4215250Y-4346000D01*
X4174038Y-4346000D01*
X4161174Y-4351328D01*
X4151328Y-4361174D01*
X4146000Y-4374038D01*
X4146000Y-4387962D01*
X4146000Y-4415250D01*
X4154750Y-4424000D01*
X4224000Y-4424000D01*
X4224000Y-4426000D01*
X4154750Y-4426000D01*
X4146000Y-4434750D01*
X4146000Y-4462038D01*
X4146000Y-4475962D01*
X4151328Y-4488826D01*
X4161174Y-4498672D01*
X4174038Y-4504000D01*
X4215250Y-4504000D01*
X4224000Y-4495250D01*
X4224000Y-4597163D01*
X4169328Y-4572383D01*
X4108450Y-4570381D01*
X4051440Y-4591829D01*
X4042910Y-4597529D01*
X4030369Y-4619506D01*
X4133858Y-4722995D01*
X4237348Y-4619506D01*
X4237348Y-4622334D01*
X4135272Y-4724409D01*
X4238762Y-4827899D01*
X4260739Y-4815358D01*
X4285885Y-4759879D01*
X4287887Y-4699001D01*
X4287887Y-4894291D01*
X4237348Y-4894291D01*
X4237348Y-4829313D01*
X4133858Y-4725824D01*
X4132444Y-4727238D01*
X4132444Y-4724409D01*
X4028954Y-4620920D01*
X4006978Y-4633461D01*
X3981831Y-4688939D01*
X3979830Y-4749818D01*
X4001278Y-4806828D01*
X4006978Y-4815358D01*
X4028954Y-4827899D01*
X4132444Y-4724409D01*
X4132444Y-4727238D01*
X4030369Y-4829313D01*
X4042910Y-4851290D01*
X4098388Y-4876436D01*
X4159266Y-4878438D01*
X4216276Y-4856990D01*
X4224806Y-4851290D01*
X4237348Y-4829313D01*
X4237348Y-4894291D01*
X3963976Y-4894291D01*
X3963976Y-3963976D01*
X5878543Y-3963976D01*
X5878543Y-4894291D01*
X5878543Y-4894291D01*
G37*
X5878543Y-4894291D02*
X5862690Y-4894291D01*
X5862690Y-4699001D01*
X5862690Y-4108450D01*
X5841242Y-4051440D01*
X5835542Y-4042910D01*
X5813565Y-4030369D01*
X5812151Y-4031783D01*
X5812151Y-4028954D01*
X5799610Y-4006978D01*
X5744131Y-3981831D01*
X5683253Y-3979830D01*
X5626243Y-4001278D01*
X5617713Y-4006978D01*
X5605172Y-4028954D01*
X5708661Y-4132444D01*
X5812151Y-4028954D01*
X5812151Y-4031783D01*
X5710076Y-4133858D01*
X5813565Y-4237348D01*
X5835542Y-4224806D01*
X5860688Y-4169328D01*
X5862690Y-4108450D01*
X5862690Y-4699001D01*
X5841242Y-4641991D01*
X5835542Y-4633461D01*
X5813565Y-4620920D01*
X5812151Y-4622334D01*
X5812151Y-4619506D01*
X5812151Y-4238762D01*
X5708661Y-4135272D01*
X5707247Y-4136687D01*
X5707247Y-4133858D01*
X5603758Y-4030369D01*
X5581781Y-4042910D01*
X5556635Y-4098388D01*
X5554633Y-4159266D01*
X5576081Y-4216276D01*
X5581781Y-4224806D01*
X5603758Y-4237348D01*
X5707247Y-4133858D01*
X5707247Y-4136687D01*
X5605172Y-4238762D01*
X5617713Y-4260739D01*
X5673191Y-4285885D01*
X5734070Y-4287887D01*
X5791080Y-4266439D01*
X5799610Y-4260739D01*
X5812151Y-4238762D01*
X5812151Y-4619506D01*
X5799610Y-4597529D01*
X5744131Y-4572383D01*
X5683253Y-4570381D01*
X5626243Y-4591829D01*
X5617713Y-4597529D01*
X5605172Y-4619506D01*
X5708661Y-4722995D01*
X5812151Y-4619506D01*
X5812151Y-4622334D01*
X5710076Y-4724409D01*
X5813565Y-4827899D01*
X5835542Y-4815358D01*
X5860688Y-4759879D01*
X5862690Y-4699001D01*
X5862690Y-4894291D01*
X5812151Y-4894291D01*
X5812151Y-4829313D01*
X5708661Y-4725824D01*
X5707247Y-4727238D01*
X5707247Y-4724409D01*
X5603758Y-4620920D01*
X5581781Y-4633461D01*
X5556635Y-4688939D01*
X5554633Y-4749818D01*
X5576081Y-4806828D01*
X5581781Y-4815358D01*
X5603758Y-4827899D01*
X5707247Y-4724409D01*
X5707247Y-4727238D01*
X5605172Y-4829313D01*
X5617713Y-4851290D01*
X5673191Y-4876436D01*
X5734070Y-4878438D01*
X5791080Y-4856990D01*
X5799610Y-4851290D01*
X5812151Y-4829313D01*
X5812151Y-4894291D01*
X5365011Y-4894291D01*
X5365011Y-4510553D01*
X5365011Y-4313702D01*
X5355136Y-4289803D01*
X5336868Y-4271503D01*
X5312986Y-4261586D01*
X5287127Y-4261564D01*
X5263229Y-4271438D01*
X5244928Y-4289707D01*
X5235011Y-4313589D01*
X5234989Y-4339447D01*
X5244864Y-4363346D01*
X5263132Y-4381647D01*
X5287014Y-4391564D01*
X5312873Y-4391586D01*
X5336771Y-4381711D01*
X5355072Y-4363442D01*
X5364989Y-4339561D01*
X5365011Y-4313702D01*
X5365011Y-4510553D01*
X5355136Y-4486654D01*
X5336868Y-4468353D01*
X5312986Y-4458436D01*
X5287127Y-4458414D01*
X5263229Y-4468289D01*
X5244928Y-4486558D01*
X5235011Y-4510439D01*
X5234989Y-4536298D01*
X5244864Y-4560197D01*
X5263132Y-4578497D01*
X5287014Y-4588414D01*
X5312873Y-4588436D01*
X5336771Y-4578562D01*
X5355072Y-4560293D01*
X5364989Y-4536411D01*
X5365011Y-4510553D01*
X5365011Y-4894291D01*
X5250014Y-4894291D01*
X5261404Y-4889585D01*
X5279521Y-4871499D01*
X5289339Y-4847856D01*
X5289361Y-4822256D01*
X5279585Y-4798596D01*
X5261499Y-4780479D01*
X5237856Y-4770661D01*
X5224289Y-4770649D01*
X5155000Y-4701360D01*
X5155000Y-4660000D01*
X5151575Y-4642779D01*
X5141820Y-4628180D01*
X5127221Y-4618425D01*
X5110000Y-4615000D01*
X5092779Y-4618425D01*
X5090816Y-4619737D01*
X5090787Y-4619590D01*
X5089894Y-4618254D01*
X5087117Y-4611532D01*
X5081933Y-4606339D01*
X5081032Y-4604991D01*
X5079696Y-4604098D01*
X5074558Y-4598951D01*
X5067781Y-4596137D01*
X5066433Y-4595236D01*
X5064857Y-4594923D01*
X5058140Y-4592134D01*
X5050803Y-4592127D01*
X5050488Y-4592065D01*
X5065206Y-4585983D01*
X5078064Y-4573147D01*
X5085031Y-4556368D01*
X5085047Y-4538200D01*
X5078109Y-4521408D01*
X5065273Y-4508550D01*
X5050374Y-4502363D01*
X5058062Y-4502370D01*
X5074492Y-4495581D01*
X5087073Y-4483022D01*
X5093890Y-4466605D01*
X5093905Y-4448828D01*
X5087117Y-4432398D01*
X5074558Y-4419817D01*
X5073309Y-4419298D01*
X5074492Y-4418810D01*
X5087073Y-4406251D01*
X5093890Y-4389833D01*
X5093905Y-4372056D01*
X5087117Y-4355627D01*
X5076509Y-4345000D01*
X5125000Y-4345000D01*
X5142221Y-4341575D01*
X5156820Y-4331820D01*
X5256820Y-4231820D01*
X5266575Y-4217221D01*
X5270000Y-4200000D01*
X5270000Y-4096004D01*
X5279521Y-4086499D01*
X5289339Y-4062856D01*
X5289361Y-4037256D01*
X5279585Y-4013596D01*
X5261499Y-3995479D01*
X5237856Y-3985661D01*
X5212256Y-3985639D01*
X5188596Y-3995415D01*
X5170479Y-4013501D01*
X5160661Y-4037144D01*
X5160639Y-4062744D01*
X5170415Y-4086404D01*
X5180000Y-4096006D01*
X5180000Y-4181360D01*
X5106360Y-4255000D01*
X5091842Y-4255000D01*
X5093890Y-4250069D01*
X5093905Y-4232292D01*
X5087117Y-4215863D01*
X5074558Y-4203282D01*
X5058140Y-4196464D01*
X5040363Y-4196449D01*
X5023934Y-4203238D01*
X5014014Y-4213140D01*
X5012047Y-4203252D01*
X5002292Y-4188653D01*
X4956820Y-4143180D01*
X4942221Y-4133425D01*
X4925000Y-4130000D01*
X4898819Y-4130000D01*
X4889361Y-4131881D01*
X4889361Y-4037256D01*
X4879585Y-4013596D01*
X4861499Y-3995479D01*
X4837856Y-3985661D01*
X4812256Y-3985639D01*
X4788596Y-3995415D01*
X4770479Y-4013501D01*
X4760661Y-4037144D01*
X4760639Y-4062744D01*
X4770415Y-4086404D01*
X4788501Y-4104521D01*
X4812144Y-4114339D01*
X4837744Y-4114361D01*
X4861404Y-4104585D01*
X4879521Y-4086499D01*
X4889339Y-4062856D01*
X4889361Y-4037256D01*
X4889361Y-4131881D01*
X4881598Y-4133425D01*
X4866999Y-4143180D01*
X4814038Y-4196142D01*
X4658858Y-4196142D01*
X4641638Y-4199567D01*
X4627817Y-4208802D01*
X4621654Y-4193886D01*
X4606196Y-4178400D01*
X4585988Y-4170010D01*
X4564108Y-4169990D01*
X4543886Y-4178346D01*
X4528400Y-4193804D01*
X4525002Y-4201989D01*
X4521654Y-4193886D01*
X4506196Y-4178400D01*
X4485988Y-4170010D01*
X4464108Y-4169990D01*
X4443886Y-4178346D01*
X4428400Y-4193804D01*
X4420010Y-4214012D01*
X4419990Y-4235892D01*
X4428346Y-4256114D01*
X4443804Y-4271600D01*
X4451989Y-4274998D01*
X4443886Y-4278346D01*
X4428400Y-4293804D01*
X4420010Y-4314012D01*
X4419990Y-4335892D01*
X4428346Y-4356114D01*
X4443804Y-4371600D01*
X4451989Y-4374998D01*
X4443886Y-4378346D01*
X4428400Y-4393804D01*
X4420010Y-4414012D01*
X4419990Y-4435892D01*
X4428346Y-4456114D01*
X4440756Y-4468546D01*
X4439524Y-4469022D01*
X4436859Y-4470802D01*
X4435038Y-4483624D01*
X4475000Y-4523586D01*
X4514962Y-4483624D01*
X4513141Y-4470802D01*
X4508865Y-4468908D01*
X4521600Y-4456196D01*
X4524998Y-4448011D01*
X4528346Y-4456114D01*
X4543804Y-4471600D01*
X4551989Y-4474998D01*
X4543886Y-4478346D01*
X4531454Y-4490756D01*
X4530978Y-4489524D01*
X4529198Y-4486859D01*
X4516376Y-4485038D01*
X4476414Y-4525000D01*
X4516376Y-4564962D01*
X4529198Y-4563141D01*
X4531092Y-4558865D01*
X4542208Y-4570000D01*
X4540027Y-4570000D01*
X4530839Y-4573806D01*
X4523806Y-4580839D01*
X4520000Y-4590027D01*
X4520000Y-4592229D01*
X4509244Y-4581454D01*
X4510476Y-4580978D01*
X4513141Y-4579198D01*
X4514962Y-4566376D01*
X4475000Y-4526414D01*
X4473586Y-4527828D01*
X4473586Y-4525000D01*
X4433624Y-4485038D01*
X4420802Y-4486859D01*
X4410332Y-4510503D01*
X4409706Y-4536354D01*
X4419022Y-4560476D01*
X4420802Y-4563141D01*
X4433624Y-4564962D01*
X4473586Y-4525000D01*
X4473586Y-4527828D01*
X4435038Y-4566376D01*
X4436859Y-4579198D01*
X4441135Y-4581092D01*
X4428400Y-4593804D01*
X4420010Y-4614012D01*
X4419990Y-4635892D01*
X4428346Y-4656114D01*
X4443804Y-4671600D01*
X4464012Y-4679990D01*
X4485892Y-4680010D01*
X4506114Y-4671654D01*
X4520000Y-4657792D01*
X4520000Y-4659973D01*
X4523806Y-4669161D01*
X4530839Y-4676194D01*
X4540027Y-4680000D01*
X4549973Y-4680000D01*
X4609973Y-4680000D01*
X4619161Y-4676194D01*
X4626194Y-4669161D01*
X4630000Y-4659973D01*
X4630000Y-4650027D01*
X4630000Y-4590027D01*
X4626194Y-4580839D01*
X4619161Y-4573806D01*
X4609973Y-4570000D01*
X4607771Y-4570000D01*
X4621600Y-4556196D01*
X4627748Y-4541388D01*
X4730000Y-4643640D01*
X4730000Y-4675000D01*
X4733425Y-4692221D01*
X4743180Y-4706820D01*
X4768180Y-4731820D01*
X4782779Y-4741575D01*
X4800000Y-4745000D01*
X4872835Y-4745000D01*
X4890055Y-4741575D01*
X4904654Y-4731820D01*
X4911417Y-4725057D01*
X4918180Y-4731820D01*
X4932779Y-4741575D01*
X4950000Y-4745000D01*
X4986024Y-4745000D01*
X5003244Y-4741575D01*
X5017843Y-4731820D01*
X5065000Y-4684663D01*
X5065000Y-4720000D01*
X5068425Y-4737221D01*
X5078180Y-4751820D01*
X5160651Y-4834290D01*
X5160639Y-4847744D01*
X5170415Y-4871404D01*
X5188501Y-4889521D01*
X5199988Y-4894291D01*
X4850014Y-4894291D01*
X4861404Y-4889585D01*
X4879521Y-4871499D01*
X4889339Y-4847856D01*
X4889361Y-4822256D01*
X4879585Y-4798596D01*
X4861499Y-4780479D01*
X4837856Y-4770661D01*
X4812256Y-4770639D01*
X4788596Y-4780415D01*
X4770479Y-4798501D01*
X4760661Y-4822144D01*
X4760639Y-4847744D01*
X4770415Y-4871404D01*
X4788501Y-4889521D01*
X4799988Y-4894291D01*
X4304000Y-4894291D01*
X4304000Y-4475962D01*
X4304000Y-4462038D01*
X4304000Y-4434750D01*
X4304000Y-4415250D01*
X4304000Y-4387962D01*
X4304000Y-4374038D01*
X4298672Y-4361174D01*
X4288826Y-4351328D01*
X4287887Y-4350939D01*
X4287887Y-4108450D01*
X4266439Y-4051440D01*
X4260739Y-4042910D01*
X4238762Y-4030369D01*
X4237348Y-4031783D01*
X4237348Y-4028954D01*
X4224806Y-4006978D01*
X4169328Y-3981831D01*
X4108450Y-3979830D01*
X4051440Y-4001278D01*
X4042910Y-4006978D01*
X4030369Y-4028954D01*
X4133858Y-4132444D01*
X4237348Y-4028954D01*
X4237348Y-4031783D01*
X4135272Y-4133858D01*
X4238762Y-4237348D01*
X4260739Y-4224806D01*
X4285885Y-4169328D01*
X4287887Y-4108450D01*
X4287887Y-4350939D01*
X4275962Y-4346000D01*
X4237348Y-4346000D01*
X4237348Y-4238762D01*
X4133858Y-4135272D01*
X4132444Y-4136687D01*
X4132444Y-4133858D01*
X4028954Y-4030369D01*
X4006978Y-4042910D01*
X3981831Y-4098388D01*
X3979830Y-4159266D01*
X4001278Y-4216276D01*
X4006978Y-4224806D01*
X4028954Y-4237348D01*
X4132444Y-4133858D01*
X4132444Y-4136687D01*
X4030369Y-4238762D01*
X4042910Y-4260739D01*
X4098388Y-4285885D01*
X4159266Y-4287887D01*
X4216276Y-4266439D01*
X4224806Y-4260739D01*
X4237348Y-4238762D01*
X4237348Y-4346000D01*
X4234750Y-4346000D01*
X4226000Y-4354750D01*
X4226000Y-4424000D01*
X4295250Y-4424000D01*
X4304000Y-4415250D01*
X4304000Y-4434750D01*
X4295250Y-4426000D01*
X4226000Y-4426000D01*
X4226000Y-4495250D01*
X4234750Y-4504000D01*
X4275962Y-4504000D01*
X4288826Y-4498672D01*
X4298672Y-4488826D01*
X4304000Y-4475962D01*
X4304000Y-4894291D01*
X4287887Y-4894291D01*
X4287887Y-4699001D01*
X4266439Y-4641991D01*
X4260739Y-4633461D01*
X4238762Y-4620920D01*
X4237348Y-4622334D01*
X4237348Y-4619506D01*
X4224806Y-4597529D01*
X4224000Y-4597163D01*
X4224000Y-4495250D01*
X4224000Y-4426000D01*
X4224000Y-4424000D01*
X4224000Y-4354750D01*
X4215250Y-4346000D01*
X4174038Y-4346000D01*
X4161174Y-4351328D01*
X4151328Y-4361174D01*
X4146000Y-4374038D01*
X4146000Y-4387962D01*
X4146000Y-4415250D01*
X4154750Y-4424000D01*
X4224000Y-4424000D01*
X4224000Y-4426000D01*
X4154750Y-4426000D01*
X4146000Y-4434750D01*
X4146000Y-4462038D01*
X4146000Y-4475962D01*
X4151328Y-4488826D01*
X4161174Y-4498672D01*
X4174038Y-4504000D01*
X4215250Y-4504000D01*
X4224000Y-4495250D01*
X4224000Y-4597163D01*
X4169328Y-4572383D01*
X4108450Y-4570381D01*
X4051440Y-4591829D01*
X4042910Y-4597529D01*
X4030369Y-4619506D01*
X4133858Y-4722995D01*
X4237348Y-4619506D01*
X4237348Y-4622334D01*
X4135272Y-4724409D01*
X4238762Y-4827899D01*
X4260739Y-4815358D01*
X4285885Y-4759879D01*
X4287887Y-4699001D01*
X4287887Y-4894291D01*
X4237348Y-4894291D01*
X4237348Y-4829313D01*
X4133858Y-4725824D01*
X4132444Y-4727238D01*
X4132444Y-4724409D01*
X4028954Y-4620920D01*
X4006978Y-4633461D01*
X3981831Y-4688939D01*
X3979830Y-4749818D01*
X4001278Y-4806828D01*
X4006978Y-4815358D01*
X4028954Y-4827899D01*
X4132444Y-4724409D01*
X4132444Y-4727238D01*
X4030369Y-4829313D01*
X4042910Y-4851290D01*
X4098388Y-4876436D01*
X4159266Y-4878438D01*
X4216276Y-4856990D01*
X4224806Y-4851290D01*
X4237348Y-4829313D01*
X4237348Y-4894291D01*
X3963976Y-4894291D01*
X3963976Y-3963976D01*
X5878543Y-3963976D01*
X5878543Y-4894291D01*
M02*
