%FSLAX36Y36*%
G04 Gerber Fmt 3.6, Leading zero omitted, Abs format (unit inch)*
G04 Created by KiCad (PCBNEW (2014-jul-16 BZR unknown)-product) date Thu 30 Oct 2014 11:01:01 AM PDT*
%MOIN*%
G01*
G04 APERTURE LIST*
%ADD10C,0.003937*%
%ADD11C,0.008000*%
%ADD12C,0.015748*%
%ADD13C,0.007874*%
%ADD14C,0.005906*%
%ADD15C,0.010000*%
G04 APERTURE END LIST*
D10*
D11*
X5075000Y-4425000D02*
X4800000Y-4425000D01*
X5494048Y-4553571D02*
X5455952Y-4553571D01*
X5494048Y-4353571D02*
X5455952Y-4353571D01*
X5475000Y-4372619D02*
X5475000Y-4334524D01*
X4246190Y-3983095D02*
X4227143Y-3983095D01*
X4225238Y-4002143D01*
X4227143Y-4000238D01*
X4230952Y-3998333D01*
X4240476Y-3998333D01*
X4244286Y-4000238D01*
X4246190Y-4002143D01*
X4248095Y-4005952D01*
X4248095Y-4015476D01*
X4246190Y-4019286D01*
X4244286Y-4021190D01*
X4240476Y-4023095D01*
X4230952Y-4023095D01*
X4227143Y-4021190D01*
X4225238Y-4019286D01*
X4259524Y-3983095D02*
X4272857Y-4023095D01*
X4286190Y-3983095D01*
X4183571Y-4505000D02*
X4179762Y-4503095D01*
X4174048Y-4503095D01*
X4168333Y-4505000D01*
X4164524Y-4508810D01*
X4162619Y-4512619D01*
X4160714Y-4520238D01*
X4160714Y-4525952D01*
X4162619Y-4533571D01*
X4164524Y-4537381D01*
X4168333Y-4541190D01*
X4174048Y-4543095D01*
X4177857Y-4543095D01*
X4183571Y-4541190D01*
X4185476Y-4539286D01*
X4185476Y-4525952D01*
X4177857Y-4525952D01*
X4202619Y-4543095D02*
X4202619Y-4503095D01*
X4225476Y-4543095D01*
X4225476Y-4503095D01*
X4244524Y-4543095D02*
X4244524Y-4503095D01*
X4254048Y-4503095D01*
X4259762Y-4505000D01*
X4263571Y-4508810D01*
X4265476Y-4512619D01*
X4267381Y-4520238D01*
X4267381Y-4525952D01*
X4265476Y-4533571D01*
X4263571Y-4537381D01*
X4259762Y-4541190D01*
X4254048Y-4543095D01*
X4244524Y-4543095D01*
X4786429Y-4768095D02*
X4763571Y-4768095D01*
X4775000Y-4768095D02*
X4775000Y-4728095D01*
X4771191Y-4733810D01*
X4767381Y-4737619D01*
X4763571Y-4739524D01*
D12*
X4793307Y-4311024D02*
X5088583Y-4311024D01*
D11*
X5564286Y-4389857D02*
X5561905Y-4392238D01*
X5554762Y-4394619D01*
X5550000Y-4394619D01*
X5542857Y-4392238D01*
X5538095Y-4387476D01*
X5535714Y-4382714D01*
X5533333Y-4373190D01*
X5533333Y-4366048D01*
X5535714Y-4356524D01*
X5538095Y-4351762D01*
X5542857Y-4347000D01*
X5550000Y-4344619D01*
X5554762Y-4344619D01*
X5561905Y-4347000D01*
X5564286Y-4349381D01*
X5592857Y-4394619D02*
X5588095Y-4392238D01*
X5585714Y-4389857D01*
X5583333Y-4385095D01*
X5583333Y-4370810D01*
X5585714Y-4366048D01*
X5588095Y-4363667D01*
X5592857Y-4361286D01*
X5600000Y-4361286D01*
X5604762Y-4363667D01*
X5607143Y-4366048D01*
X5609524Y-4370810D01*
X5609524Y-4385095D01*
X5607143Y-4389857D01*
X5604762Y-4392238D01*
X5600000Y-4394619D01*
X5592857Y-4394619D01*
X5630952Y-4361286D02*
X5630952Y-4411286D01*
X5630952Y-4363667D02*
X5635714Y-4361286D01*
X5645238Y-4361286D01*
X5650000Y-4363667D01*
X5652381Y-4366048D01*
X5654762Y-4370810D01*
X5654762Y-4385095D01*
X5652381Y-4389857D01*
X5650000Y-4392238D01*
X5645238Y-4394619D01*
X5635714Y-4394619D01*
X5630952Y-4392238D01*
X5671429Y-4361286D02*
X5683333Y-4394619D01*
X5695238Y-4361286D02*
X5683333Y-4394619D01*
X5678571Y-4406524D01*
X5676191Y-4408905D01*
X5671429Y-4411286D01*
X5714286Y-4394619D02*
X5714286Y-4361286D01*
X5714286Y-4370810D02*
X5716667Y-4366048D01*
X5719048Y-4363667D01*
X5723810Y-4361286D01*
X5728571Y-4361286D01*
X5745238Y-4394619D02*
X5745238Y-4361286D01*
X5745238Y-4344619D02*
X5742857Y-4347000D01*
X5745238Y-4349381D01*
X5747619Y-4347000D01*
X5745238Y-4344619D01*
X5745238Y-4349381D01*
X5790476Y-4361286D02*
X5790476Y-4401762D01*
X5788095Y-4406524D01*
X5785714Y-4408905D01*
X5780952Y-4411286D01*
X5773810Y-4411286D01*
X5769048Y-4408905D01*
X5790476Y-4392238D02*
X5785714Y-4394619D01*
X5776191Y-4394619D01*
X5771429Y-4392238D01*
X5769048Y-4389857D01*
X5766667Y-4385095D01*
X5766667Y-4370810D01*
X5769048Y-4366048D01*
X5771429Y-4363667D01*
X5776191Y-4361286D01*
X5785714Y-4361286D01*
X5790476Y-4363667D01*
X5814286Y-4394619D02*
X5814286Y-4344619D01*
X5835714Y-4394619D02*
X5835714Y-4368429D01*
X5833333Y-4363667D01*
X5828571Y-4361286D01*
X5821429Y-4361286D01*
X5816667Y-4363667D01*
X5814286Y-4366048D01*
X5852381Y-4361286D02*
X5871429Y-4361286D01*
X5859524Y-4344619D02*
X5859524Y-4387476D01*
X5861905Y-4392238D01*
X5866667Y-4394619D01*
X5871429Y-4394619D01*
X5553571Y-4427381D02*
X5555952Y-4425000D01*
X5560714Y-4422619D01*
X5572619Y-4422619D01*
X5577381Y-4425000D01*
X5579762Y-4427381D01*
X5582143Y-4432143D01*
X5582143Y-4436905D01*
X5579762Y-4444048D01*
X5551190Y-4472619D01*
X5582143Y-4472619D01*
X5613095Y-4422619D02*
X5617857Y-4422619D01*
X5622619Y-4425000D01*
X5625000Y-4427381D01*
X5627381Y-4432143D01*
X5629762Y-4441667D01*
X5629762Y-4453571D01*
X5627381Y-4463095D01*
X5625000Y-4467857D01*
X5622619Y-4470238D01*
X5617857Y-4472619D01*
X5613095Y-4472619D01*
X5608333Y-4470238D01*
X5605952Y-4467857D01*
X5603571Y-4463095D01*
X5601190Y-4453571D01*
X5601190Y-4441667D01*
X5603571Y-4432143D01*
X5605952Y-4427381D01*
X5608333Y-4425000D01*
X5613095Y-4422619D01*
X5677381Y-4472619D02*
X5648810Y-4472619D01*
X5663095Y-4472619D02*
X5663095Y-4422619D01*
X5658333Y-4429762D01*
X5653571Y-4434524D01*
X5648810Y-4436905D01*
X5720238Y-4439286D02*
X5720238Y-4472619D01*
X5708333Y-4420238D02*
X5696429Y-4455952D01*
X5727381Y-4455952D01*
X5784524Y-4472619D02*
X5784524Y-4422619D01*
X5784524Y-4441667D02*
X5789286Y-4439286D01*
X5798810Y-4439286D01*
X5803571Y-4441667D01*
X5805952Y-4444048D01*
X5808333Y-4448810D01*
X5808333Y-4463095D01*
X5805952Y-4467857D01*
X5803571Y-4470238D01*
X5798810Y-4472619D01*
X5789286Y-4472619D01*
X5784524Y-4470238D01*
X5825000Y-4439286D02*
X5836905Y-4472619D01*
X5848810Y-4439286D02*
X5836905Y-4472619D01*
X5832143Y-4484524D01*
X5829762Y-4486905D01*
X5825000Y-4489286D01*
X5572619Y-4503000D02*
X5567857Y-4500619D01*
X5560714Y-4500619D01*
X5553571Y-4503000D01*
X5548810Y-4507762D01*
X5546429Y-4512524D01*
X5544048Y-4522048D01*
X5544048Y-4529190D01*
X5546429Y-4538714D01*
X5548810Y-4543476D01*
X5553571Y-4548238D01*
X5560714Y-4550619D01*
X5565476Y-4550619D01*
X5572619Y-4548238D01*
X5575000Y-4545857D01*
X5575000Y-4529190D01*
X5565476Y-4529190D01*
X5596429Y-4550619D02*
X5596429Y-4517286D01*
X5596429Y-4526810D02*
X5598810Y-4522048D01*
X5601190Y-4519667D01*
X5605952Y-4517286D01*
X5610714Y-4517286D01*
X5648810Y-4550619D02*
X5648810Y-4524429D01*
X5646429Y-4519667D01*
X5641667Y-4517286D01*
X5632143Y-4517286D01*
X5627381Y-4519667D01*
X5648810Y-4548238D02*
X5644048Y-4550619D01*
X5632143Y-4550619D01*
X5627381Y-4548238D01*
X5625000Y-4543476D01*
X5625000Y-4538714D01*
X5627381Y-4533952D01*
X5632143Y-4531571D01*
X5644048Y-4531571D01*
X5648810Y-4529190D01*
X5672619Y-4550619D02*
X5672619Y-4517286D01*
X5672619Y-4522048D02*
X5675000Y-4519667D01*
X5679762Y-4517286D01*
X5686905Y-4517286D01*
X5691667Y-4519667D01*
X5694048Y-4524429D01*
X5694048Y-4550619D01*
X5694048Y-4524429D02*
X5696429Y-4519667D01*
X5701190Y-4517286D01*
X5708333Y-4517286D01*
X5713095Y-4519667D01*
X5715476Y-4524429D01*
X5715476Y-4550619D01*
X5746429Y-4550619D02*
X5741667Y-4548238D01*
X5739286Y-4543476D01*
X5739286Y-4500619D01*
X5765476Y-4550619D02*
X5765476Y-4517286D01*
X5765476Y-4500619D02*
X5763095Y-4503000D01*
X5765476Y-4505381D01*
X5767857Y-4503000D01*
X5765476Y-4500619D01*
X5765476Y-4505381D01*
X5810714Y-4548238D02*
X5805952Y-4550619D01*
X5796429Y-4550619D01*
X5791667Y-4548238D01*
X5789286Y-4545857D01*
X5786905Y-4541095D01*
X5786905Y-4526810D01*
X5789286Y-4522048D01*
X5791667Y-4519667D01*
X5796429Y-4517286D01*
X5805952Y-4517286D01*
X5810714Y-4519667D01*
X5832143Y-4550619D02*
X5832143Y-4500619D01*
X5853571Y-4550619D02*
X5853571Y-4524429D01*
X5851190Y-4519667D01*
X5846429Y-4517286D01*
X5839286Y-4517286D01*
X5834524Y-4519667D01*
X5832143Y-4522048D01*
X4814286Y-4172619D02*
X4797619Y-4148810D01*
X4785714Y-4172619D02*
X4785714Y-4122619D01*
X4804762Y-4122619D01*
X4809524Y-4125000D01*
X4811905Y-4127381D01*
X4814286Y-4132143D01*
X4814286Y-4139286D01*
X4811905Y-4144048D01*
X4809524Y-4146429D01*
X4804762Y-4148810D01*
X4785714Y-4148810D01*
X4854762Y-4170238D02*
X4850000Y-4172619D01*
X4840476Y-4172619D01*
X4835714Y-4170238D01*
X4833333Y-4165476D01*
X4833333Y-4146429D01*
X4835714Y-4141667D01*
X4840476Y-4139286D01*
X4850000Y-4139286D01*
X4854762Y-4141667D01*
X4857143Y-4146429D01*
X4857143Y-4151190D01*
X4833333Y-4155952D01*
X4873810Y-4139286D02*
X4885714Y-4172619D01*
X4897619Y-4139286D01*
X4916667Y-4167857D02*
X4919048Y-4170238D01*
X4916667Y-4172619D01*
X4914286Y-4170238D01*
X4916667Y-4167857D01*
X4916667Y-4172619D01*
X4978571Y-4146429D02*
X4995238Y-4146429D01*
X5002381Y-4172619D02*
X4978571Y-4172619D01*
X4978571Y-4122619D01*
X5002381Y-4122619D01*
X5057143Y-4122619D02*
X5088095Y-4122619D01*
X5071429Y-4141667D01*
X5078571Y-4141667D01*
X5083333Y-4144048D01*
X5085714Y-4146429D01*
X5088095Y-4151190D01*
X5088095Y-4163095D01*
X5085714Y-4167857D01*
X5083333Y-4170238D01*
X5078571Y-4172619D01*
X5064286Y-4172619D01*
X5059524Y-4170238D01*
X5057143Y-4167857D01*
X5119048Y-4122619D02*
X5123810Y-4122619D01*
X5128571Y-4125000D01*
X5130952Y-4127381D01*
X5133333Y-4132143D01*
X5135714Y-4141667D01*
X5135714Y-4153571D01*
X5133333Y-4163095D01*
X5130952Y-4167857D01*
X5128571Y-4170238D01*
X5123810Y-4172619D01*
X5119048Y-4172619D01*
X5114286Y-4170238D01*
X5111905Y-4167857D01*
X5109524Y-4163095D01*
X5107143Y-4153571D01*
X5107143Y-4141667D01*
X5109524Y-4132143D01*
X5111905Y-4127381D01*
X5114286Y-4125000D01*
X5119048Y-4122619D01*
X5166667Y-4122619D02*
X5176190Y-4122619D01*
X5180952Y-4125000D01*
X5185714Y-4129762D01*
X5188095Y-4139286D01*
X5188095Y-4155952D01*
X5185714Y-4165476D01*
X5180952Y-4170238D01*
X5176190Y-4172619D01*
X5166667Y-4172619D01*
X5161905Y-4170238D01*
X5157143Y-4165476D01*
X5154762Y-4155952D01*
X5154762Y-4139286D01*
X5157143Y-4129762D01*
X5161905Y-4125000D01*
X5166667Y-4122619D01*
X5238095Y-4167857D02*
X5235714Y-4170238D01*
X5228571Y-4172619D01*
X5223810Y-4172619D01*
X5216667Y-4170238D01*
X5211905Y-4165476D01*
X5209524Y-4160714D01*
X5207143Y-4151190D01*
X5207143Y-4144048D01*
X5209524Y-4134524D01*
X5211905Y-4129762D01*
X5216667Y-4125000D01*
X5223810Y-4122619D01*
X5228571Y-4122619D01*
X5235714Y-4125000D01*
X5238095Y-4127381D01*
X5252381Y-4122619D02*
X5280952Y-4122619D01*
X5266667Y-4172619D02*
X5266667Y-4122619D01*
X5295238Y-4127381D02*
X5297619Y-4125000D01*
X5302381Y-4122619D01*
X5314286Y-4122619D01*
X5319048Y-4125000D01*
X5321429Y-4127381D01*
X5323810Y-4132143D01*
X5323810Y-4136905D01*
X5321429Y-4144048D01*
X5292857Y-4172619D01*
X5323810Y-4172619D01*
X5354762Y-4122619D02*
X5359524Y-4122619D01*
X5364286Y-4125000D01*
X5366667Y-4127381D01*
X5369048Y-4132143D01*
X5371429Y-4141667D01*
X5371429Y-4153571D01*
X5369048Y-4163095D01*
X5366667Y-4167857D01*
X5364286Y-4170238D01*
X5359524Y-4172619D01*
X5354762Y-4172619D01*
X5350000Y-4170238D01*
X5347619Y-4167857D01*
X5345238Y-4163095D01*
X5342857Y-4153571D01*
X5342857Y-4141667D01*
X5345238Y-4132143D01*
X5347619Y-4127381D01*
X5350000Y-4125000D01*
X5354762Y-4122619D01*
X5419048Y-4172619D02*
X5390476Y-4172619D01*
X5404762Y-4172619D02*
X5404762Y-4122619D01*
X5400000Y-4129762D01*
X5395238Y-4134524D01*
X5390476Y-4136905D01*
X5461905Y-4139286D02*
X5461905Y-4172619D01*
X5450000Y-4120238D02*
X5438095Y-4155952D01*
X5469048Y-4155952D01*
X4822619Y-4722619D02*
X4822619Y-4672619D01*
X4834524Y-4672619D01*
X4841667Y-4675000D01*
X4846429Y-4679762D01*
X4848810Y-4684524D01*
X4851190Y-4694048D01*
X4851190Y-4701190D01*
X4848810Y-4710714D01*
X4846429Y-4715476D01*
X4841667Y-4720238D01*
X4834524Y-4722619D01*
X4822619Y-4722619D01*
X4894048Y-4689286D02*
X4894048Y-4722619D01*
X4872619Y-4689286D02*
X4872619Y-4715476D01*
X4875000Y-4720238D01*
X4879762Y-4722619D01*
X4886905Y-4722619D01*
X4891667Y-4720238D01*
X4894048Y-4717857D01*
X4939286Y-4722619D02*
X4939286Y-4696429D01*
X4936905Y-4691667D01*
X4932143Y-4689286D01*
X4922619Y-4689286D01*
X4917857Y-4691667D01*
X4939286Y-4720238D02*
X4934524Y-4722619D01*
X4922619Y-4722619D01*
X4917857Y-4720238D01*
X4915476Y-4715476D01*
X4915476Y-4710714D01*
X4917857Y-4705952D01*
X4922619Y-4703571D01*
X4934524Y-4703571D01*
X4939286Y-4701190D01*
X4970238Y-4722619D02*
X4965476Y-4720238D01*
X4963095Y-4715476D01*
X4963095Y-4672619D01*
X5025000Y-4720238D02*
X5032143Y-4722619D01*
X5044048Y-4722619D01*
X5048810Y-4720238D01*
X5051191Y-4717857D01*
X5053571Y-4713095D01*
X5053571Y-4708333D01*
X5051191Y-4703571D01*
X5048810Y-4701190D01*
X5044048Y-4698810D01*
X5034524Y-4696429D01*
X5029762Y-4694048D01*
X5027381Y-4691667D01*
X5025000Y-4686905D01*
X5025000Y-4682143D01*
X5027381Y-4677381D01*
X5029762Y-4675000D01*
X5034524Y-4672619D01*
X5046429Y-4672619D01*
X5053571Y-4675000D01*
X5082143Y-4722619D02*
X5077381Y-4720238D01*
X5075000Y-4715476D01*
X5075000Y-4672619D01*
X5108333Y-4722619D02*
X5103571Y-4720238D01*
X5101191Y-4717857D01*
X5098810Y-4713095D01*
X5098810Y-4698810D01*
X5101191Y-4694048D01*
X5103571Y-4691667D01*
X5108333Y-4689286D01*
X5115476Y-4689286D01*
X5120238Y-4691667D01*
X5122619Y-4694048D01*
X5125000Y-4698810D01*
X5125000Y-4713095D01*
X5122619Y-4717857D01*
X5120238Y-4720238D01*
X5115476Y-4722619D01*
X5108333Y-4722619D01*
X5139286Y-4689286D02*
X5158333Y-4689286D01*
X5146429Y-4672619D02*
X5146429Y-4715476D01*
X5148810Y-4720238D01*
X5153571Y-4722619D01*
X5158333Y-4722619D01*
X5213095Y-4696429D02*
X5229762Y-4696429D01*
X5236905Y-4722619D02*
X5213095Y-4722619D01*
X5213095Y-4672619D01*
X5236905Y-4672619D01*
X5258333Y-4689286D02*
X5258333Y-4722619D01*
X5258333Y-4694048D02*
X5260714Y-4691667D01*
X5265476Y-4689286D01*
X5272619Y-4689286D01*
X5277381Y-4691667D01*
X5279762Y-4696429D01*
X5279762Y-4722619D01*
X5325000Y-4720238D02*
X5320238Y-4722619D01*
X5310714Y-4722619D01*
X5305952Y-4720238D01*
X5303571Y-4717857D01*
X5301191Y-4713095D01*
X5301191Y-4698810D01*
X5303571Y-4694048D01*
X5305952Y-4691667D01*
X5310714Y-4689286D01*
X5320238Y-4689286D01*
X5325000Y-4691667D01*
X5353571Y-4722619D02*
X5348810Y-4720238D01*
X5346429Y-4717857D01*
X5344048Y-4713095D01*
X5344048Y-4698810D01*
X5346429Y-4694048D01*
X5348810Y-4691667D01*
X5353571Y-4689286D01*
X5360714Y-4689286D01*
X5365476Y-4691667D01*
X5367857Y-4694048D01*
X5370238Y-4698810D01*
X5370238Y-4713095D01*
X5367857Y-4717857D01*
X5365476Y-4720238D01*
X5360714Y-4722619D01*
X5353571Y-4722619D01*
X5413095Y-4722619D02*
X5413095Y-4672619D01*
X5413095Y-4720238D02*
X5408333Y-4722619D01*
X5398810Y-4722619D01*
X5394048Y-4720238D01*
X5391667Y-4717857D01*
X5389286Y-4713095D01*
X5389286Y-4698810D01*
X5391667Y-4694048D01*
X5394048Y-4691667D01*
X5398810Y-4689286D01*
X5408333Y-4689286D01*
X5413095Y-4691667D01*
X5455952Y-4720238D02*
X5451191Y-4722619D01*
X5441667Y-4722619D01*
X5436905Y-4720238D01*
X5434524Y-4715476D01*
X5434524Y-4696429D01*
X5436905Y-4691667D01*
X5441667Y-4689286D01*
X5451191Y-4689286D01*
X5455952Y-4691667D01*
X5458333Y-4696429D01*
X5458333Y-4701190D01*
X5434524Y-4705952D01*
X5479762Y-4722619D02*
X5479762Y-4689286D01*
X5479762Y-4698810D02*
X5482143Y-4694048D01*
X5484524Y-4691667D01*
X5489286Y-4689286D01*
X5494048Y-4689286D01*
X5508333Y-4720238D02*
X5513095Y-4722619D01*
X5522619Y-4722619D01*
X5527381Y-4720238D01*
X5529762Y-4715476D01*
X5529762Y-4713095D01*
X5527381Y-4708333D01*
X5522619Y-4705952D01*
X5515476Y-4705952D01*
X5510714Y-4703571D01*
X5508333Y-4698810D01*
X5508333Y-4696429D01*
X5510714Y-4691667D01*
X5515476Y-4689286D01*
X5522619Y-4689286D01*
X5527381Y-4691667D01*
D12*
X4793307Y-4547244D02*
X5088583Y-4547244D01*
X4940945Y-4232283D02*
X4940945Y-4665354D01*
D11*
X3937008Y-4921260D02*
X3937008Y-3937008D01*
X5905512Y-4921260D02*
X3937008Y-4921260D01*
X5905512Y-3937008D02*
X5905512Y-4921260D01*
X3937008Y-3937008D02*
X5905512Y-3937008D01*
D13*
X3937008Y-3937008D02*
X5905512Y-3937008D01*
D14*
X4925000Y-4835000D02*
X4875000Y-4835000D01*
X5125000Y-4835000D02*
X5175000Y-4835000D01*
X5125000Y-4885000D02*
X5125000Y-4785000D01*
X5125000Y-4785000D02*
X4925000Y-4785000D01*
X4925000Y-4785000D02*
X4925000Y-4885000D01*
X4925000Y-4885000D02*
X5125000Y-4885000D01*
X4925000Y-4050000D02*
X4875000Y-4050000D01*
X5125000Y-4050000D02*
X5175000Y-4050000D01*
X5125000Y-4100000D02*
X5125000Y-4000000D01*
X5125000Y-4000000D02*
X4925000Y-4000000D01*
X4925000Y-4000000D02*
X4925000Y-4100000D01*
X4925000Y-4100000D02*
X5125000Y-4100000D01*
D15*
X4175000Y-4375000D02*
X4175000Y-4475000D01*
X4175000Y-4475000D02*
X4275000Y-4475000D01*
X4275000Y-4475000D02*
X4275000Y-4375000D01*
X4275000Y-4375000D02*
X4175000Y-4375000D01*
D11*
X5134646Y-4621850D02*
X5429921Y-4621850D01*
X5429921Y-4621850D02*
X5429921Y-4228150D01*
X5429921Y-4228150D02*
X5134646Y-4228150D01*
X5134646Y-4228150D02*
X5134646Y-4621850D01*
D14*
X4745000Y-4625000D02*
X4715000Y-4645000D01*
X4745000Y-4625000D02*
X4715000Y-4605000D01*
D15*
X4715000Y-4335000D02*
X4695000Y-4335000D01*
X4695000Y-4335000D02*
X4695000Y-4515000D01*
X4695000Y-4515000D02*
X4715000Y-4515000D01*
X4335000Y-4825000D02*
X4335000Y-4025000D01*
X4335000Y-4025000D02*
X4715000Y-4025000D01*
X4715000Y-4025000D02*
X4715000Y-4825000D01*
X4715000Y-4825000D02*
X4335000Y-4825000D01*
D11*
X4103382Y-4151954D02*
X4103382Y-4111954D01*
X4103382Y-4131001D02*
X4126239Y-4131001D01*
X4126239Y-4151954D02*
X4126239Y-4111954D01*
X4166239Y-4151954D02*
X4143382Y-4151954D01*
X4154811Y-4151954D02*
X4154811Y-4111954D01*
X4151001Y-4117668D01*
X4147192Y-4121477D01*
X4143382Y-4123382D01*
X5678185Y-4151954D02*
X5678185Y-4111954D01*
X5678185Y-4131001D02*
X5701042Y-4131001D01*
X5701042Y-4151954D02*
X5701042Y-4111954D01*
X5718185Y-4115763D02*
X5720090Y-4113858D01*
X5723900Y-4111954D01*
X5733423Y-4111954D01*
X5737233Y-4113858D01*
X5739138Y-4115763D01*
X5741042Y-4119573D01*
X5741042Y-4123382D01*
X5739138Y-4129096D01*
X5716280Y-4151954D01*
X5741042Y-4151954D01*
X4103382Y-4742505D02*
X4103382Y-4702505D01*
X4103382Y-4721552D02*
X4126239Y-4721552D01*
X4126239Y-4742505D02*
X4126239Y-4702505D01*
X4141477Y-4702505D02*
X4166239Y-4702505D01*
X4152906Y-4717743D01*
X4158620Y-4717743D01*
X4162430Y-4719648D01*
X4164334Y-4721552D01*
X4166239Y-4725362D01*
X4166239Y-4734886D01*
X4164334Y-4738695D01*
X4162430Y-4740600D01*
X4158620Y-4742505D01*
X4147192Y-4742505D01*
X4143382Y-4740600D01*
X4141477Y-4738695D01*
X5678185Y-4742505D02*
X5678185Y-4702505D01*
X5678185Y-4721552D02*
X5701042Y-4721552D01*
X5701042Y-4742505D02*
X5701042Y-4702505D01*
X5737233Y-4715838D02*
X5737233Y-4742505D01*
X5727709Y-4700600D02*
X5718185Y-4729171D01*
X5742947Y-4729171D01*
X5318333Y-4853095D02*
X5305000Y-4834048D01*
X5295476Y-4853095D02*
X5295476Y-4813095D01*
X5310714Y-4813095D01*
X5314524Y-4815000D01*
X5316429Y-4816905D01*
X5318333Y-4820714D01*
X5318333Y-4826429D01*
X5316429Y-4830238D01*
X5314524Y-4832143D01*
X5310714Y-4834048D01*
X5295476Y-4834048D01*
X5356429Y-4853095D02*
X5333571Y-4853095D01*
X5345000Y-4853095D02*
X5345000Y-4813095D01*
X5341191Y-4818810D01*
X5337381Y-4822619D01*
X5333571Y-4824524D01*
X5318333Y-4068095D02*
X5305000Y-4049048D01*
X5295476Y-4068095D02*
X5295476Y-4028095D01*
X5310714Y-4028095D01*
X5314524Y-4030000D01*
X5316429Y-4031905D01*
X5318333Y-4035714D01*
X5318333Y-4041429D01*
X5316429Y-4045238D01*
X5314524Y-4047143D01*
X5310714Y-4049048D01*
X5295476Y-4049048D01*
X5333571Y-4031905D02*
X5335476Y-4030000D01*
X5339286Y-4028095D01*
X5348810Y-4028095D01*
X5352619Y-4030000D01*
X5354524Y-4031905D01*
X5356429Y-4035714D01*
X5356429Y-4039524D01*
X5354524Y-4045238D01*
X5331667Y-4068095D01*
X5356429Y-4068095D01*
X4049524Y-4403095D02*
X4072381Y-4403095D01*
X4060952Y-4443095D02*
X4060952Y-4403095D01*
X4085714Y-4443095D02*
X4085714Y-4403095D01*
X4100952Y-4403095D01*
X4104762Y-4405000D01*
X4106667Y-4406905D01*
X4108571Y-4410714D01*
X4108571Y-4416429D01*
X4106667Y-4420238D01*
X4104762Y-4422143D01*
X4100952Y-4424048D01*
X4085714Y-4424048D01*
X4146667Y-4443095D02*
X4123810Y-4443095D01*
X4135238Y-4443095D02*
X4135238Y-4403095D01*
X4131429Y-4408810D01*
X4127619Y-4412619D01*
X4123810Y-4414524D01*
X5444524Y-4268095D02*
X5444524Y-4228095D01*
X5467381Y-4268095D01*
X5467381Y-4228095D01*
X5484524Y-4231905D02*
X5486429Y-4230000D01*
X5490238Y-4228095D01*
X5499762Y-4228095D01*
X5503571Y-4230000D01*
X5505476Y-4231905D01*
X5507381Y-4235714D01*
X5507381Y-4239524D01*
X5505476Y-4245238D01*
X5482619Y-4268095D01*
X5507381Y-4268095D01*
X4244524Y-4318095D02*
X4244524Y-4278095D01*
X4267381Y-4318095D01*
X4267381Y-4278095D01*
X4307381Y-4318095D02*
X4284524Y-4318095D01*
X4295952Y-4318095D02*
X4295952Y-4278095D01*
X4292143Y-4283810D01*
X4288333Y-4287619D01*
X4284524Y-4289524D01*
M02*
