%FSLAX34Y34*%
G04 Gerber Fmt 3.4, Leading zero omitted, Abs format*
G04 (created by PCBNEW (2014-jan-25)-product) date Sun 13 Jul 2014 10:27:30 AM PDT*
%MOIN*%
G01*
G70*
G90*
G04 APERTURE LIST*
%ADD10C,0.003937*%
%ADD11C,0.015748*%
%ADD12C,0.005906*%
%ADD13C,0.008000*%
G04 APERTURE END LIST*
G54D10*
G54D11*
X50885Y-43110D02*
X50590Y-43110D01*
X47933Y-43110D02*
X48228Y-43110D01*
X50590Y-45472D02*
X50885Y-45472D01*
X48228Y-45472D02*
X47933Y-45472D01*
G54D12*
X49330Y-44015D02*
X49330Y-42204D01*
X49330Y-42204D02*
X48307Y-42204D01*
X48307Y-42204D02*
X48307Y-44015D01*
X48307Y-44015D02*
X49330Y-44015D01*
X50511Y-44015D02*
X50511Y-42204D01*
X50511Y-42204D02*
X49488Y-42204D01*
X49488Y-42204D02*
X49488Y-44015D01*
X49488Y-44015D02*
X50511Y-44015D01*
X49488Y-44370D02*
X49488Y-46574D01*
X49488Y-46574D02*
X50511Y-46574D01*
X50511Y-46574D02*
X50511Y-44370D01*
X50511Y-44370D02*
X49488Y-44370D01*
X48307Y-44370D02*
X48307Y-46574D01*
X48307Y-46574D02*
X49330Y-46574D01*
X49330Y-46574D02*
X49330Y-44370D01*
X49330Y-44370D02*
X48307Y-44370D01*
G54D13*
X48178Y-43442D02*
X48178Y-43766D01*
X48159Y-43804D01*
X48140Y-43823D01*
X48102Y-43842D01*
X48026Y-43842D01*
X47988Y-43823D01*
X47969Y-43804D01*
X47950Y-43766D01*
X47950Y-43442D01*
X47797Y-43442D02*
X47550Y-43442D01*
X47683Y-43594D01*
X47626Y-43594D01*
X47588Y-43613D01*
X47569Y-43632D01*
X47550Y-43670D01*
X47550Y-43766D01*
X47569Y-43804D01*
X47588Y-43823D01*
X47626Y-43842D01*
X47740Y-43842D01*
X47778Y-43823D01*
X47797Y-43804D01*
X49085Y-42080D02*
X49314Y-42080D01*
X49199Y-42080D02*
X49199Y-41680D01*
X49238Y-41738D01*
X49276Y-41776D01*
X49314Y-41795D01*
X51289Y-43442D02*
X51289Y-43766D01*
X51269Y-43804D01*
X51250Y-43823D01*
X51212Y-43842D01*
X51136Y-43842D01*
X51098Y-43823D01*
X51079Y-43804D01*
X51060Y-43766D01*
X51060Y-43442D01*
X50698Y-43575D02*
X50698Y-43842D01*
X50793Y-43423D02*
X50889Y-43709D01*
X50641Y-43709D01*
X50285Y-42080D02*
X50514Y-42080D01*
X50399Y-42080D02*
X50399Y-41680D01*
X50438Y-41738D01*
X50476Y-41776D01*
X50514Y-41795D01*
X51367Y-44584D02*
X51367Y-44907D01*
X51348Y-44946D01*
X51329Y-44965D01*
X51291Y-44984D01*
X51215Y-44984D01*
X51177Y-44965D01*
X51158Y-44946D01*
X51139Y-44907D01*
X51139Y-44584D01*
X50967Y-44622D02*
X50948Y-44603D01*
X50910Y-44584D01*
X50815Y-44584D01*
X50777Y-44603D01*
X50758Y-44622D01*
X50739Y-44660D01*
X50739Y-44698D01*
X50758Y-44755D01*
X50986Y-44984D01*
X50739Y-44984D01*
X49485Y-47080D02*
X49714Y-47080D01*
X49599Y-47080D02*
X49599Y-46680D01*
X49638Y-46738D01*
X49676Y-46776D01*
X49714Y-46795D01*
X48178Y-44584D02*
X48178Y-44907D01*
X48159Y-44946D01*
X48140Y-44965D01*
X48102Y-44984D01*
X48026Y-44984D01*
X47988Y-44965D01*
X47969Y-44946D01*
X47950Y-44907D01*
X47950Y-44584D01*
X47550Y-44984D02*
X47778Y-44984D01*
X47664Y-44984D02*
X47664Y-44584D01*
X47702Y-44641D01*
X47740Y-44679D01*
X47778Y-44698D01*
X48285Y-47080D02*
X48514Y-47080D01*
X48399Y-47080D02*
X48399Y-46680D01*
X48438Y-46738D01*
X48476Y-46776D01*
X48514Y-46795D01*
M02*
