%FSLAX34Y34*%
G04 Gerber Fmt 3.4, Leading zero omitted, Abs format*
G04 (created by PCBNEW (2014-jan-25)-product) date Sun 13 Jul 2014 10:27:30 AM PDT*
%MOIN*%
G01*
G70*
G90*
G04 APERTURE LIST*
%ADD10C,0.003937*%
%ADD11R,0.068000X0.068000*%
%ADD12O,0.068000X0.068000*%
%ADD13C,0.078700*%
%ADD14C,0.015748*%
%ADD15C,0.041339*%
%ADD16C,0.236220*%
%ADD17R,0.088000X0.088000*%
%ADD18C,0.010000*%
%ADD19C,0.040000*%
G04 APERTURE END LIST*
G54D10*
G54D11*
X43750Y-45750D03*
G54D12*
X43750Y-44750D03*
X43750Y-43750D03*
X43750Y-42750D03*
G54D13*
X53000Y-46250D03*
X53000Y-42250D03*
X45750Y-42300D03*
X45750Y-46300D03*
X54750Y-46250D03*
X54750Y-42250D03*
G54D14*
X49212Y-42411D03*
X48425Y-42411D03*
X49212Y-43809D03*
X48425Y-43809D03*
X50393Y-42411D03*
X49606Y-42411D03*
X50393Y-43809D03*
X49606Y-43809D03*
X49606Y-46367D03*
X50393Y-46368D03*
X49606Y-44576D03*
X50393Y-44576D03*
G54D15*
X50295Y-45472D03*
G54D14*
X48425Y-46367D03*
X49212Y-46368D03*
X48425Y-44576D03*
X49212Y-44576D03*
G54D15*
X49114Y-45472D03*
G54D16*
X57086Y-47244D03*
X41338Y-47244D03*
X57086Y-41338D03*
X41338Y-41338D03*
G54D13*
X47300Y-46350D03*
X47300Y-42350D03*
G54D17*
X43750Y-47250D03*
G54D18*
X50393Y-44291D02*
X51041Y-44291D01*
X50196Y-44291D02*
X50393Y-44291D01*
X51041Y-44291D02*
X53000Y-46250D01*
X50393Y-43809D02*
X50393Y-44291D01*
X49911Y-44576D02*
X50196Y-44291D01*
X49606Y-44576D02*
X49911Y-44576D01*
X49212Y-43809D02*
X49192Y-43809D01*
X48425Y-44576D02*
X48425Y-44138D01*
X48425Y-44138D02*
X48538Y-44138D01*
X48868Y-43809D02*
X48538Y-44138D01*
X49212Y-43809D02*
X48868Y-43809D01*
X46638Y-44138D02*
X45750Y-43250D01*
X45750Y-43250D02*
X45750Y-42300D01*
X48425Y-44138D02*
X46638Y-44138D01*
X49212Y-42411D02*
X49212Y-41787D01*
X49212Y-41787D02*
X49500Y-41500D01*
X49500Y-41500D02*
X50500Y-41500D01*
X50500Y-41500D02*
X54750Y-45750D01*
X54750Y-45750D02*
X54750Y-46250D01*
G54D19*
X43750Y-47250D02*
X44500Y-47250D01*
X43750Y-45750D02*
X43750Y-47250D01*
X43750Y-45750D02*
X44500Y-45750D01*
G54D18*
X43250Y-44250D02*
X43250Y-42000D01*
X43250Y-42000D02*
X44600Y-40650D01*
X44600Y-40650D02*
X51400Y-40650D01*
X51400Y-40650D02*
X53000Y-42250D01*
X43750Y-44750D02*
X43250Y-44250D01*
X45750Y-45750D02*
X43750Y-43750D01*
X45750Y-46300D02*
X45750Y-45750D01*
G54D19*
X53850Y-43150D02*
X52750Y-43150D01*
X52750Y-43150D02*
X50650Y-41050D01*
X54750Y-42250D02*
X53850Y-43150D01*
X43750Y-42750D02*
X43750Y-42050D01*
X43750Y-42050D02*
X44750Y-41050D01*
X47300Y-41050D02*
X44750Y-41050D01*
X50650Y-41050D02*
X47300Y-41050D01*
X47300Y-42350D02*
X47300Y-41050D01*
G54D18*
X49606Y-46367D02*
X49617Y-46367D01*
X47300Y-46850D02*
X47710Y-47260D01*
X47710Y-47260D02*
X49189Y-47260D01*
X49189Y-47260D02*
X49606Y-46843D01*
X49606Y-46843D02*
X49606Y-46367D01*
X47300Y-46350D02*
X47300Y-46850D01*
G36*
X58785Y-48942D02*
X58626Y-48942D01*
X58626Y-46990D01*
X58626Y-41084D01*
X58412Y-40514D01*
X58355Y-40429D01*
X58135Y-40303D01*
X58121Y-40317D01*
X58121Y-40289D01*
X57996Y-40069D01*
X57441Y-39818D01*
X56832Y-39798D01*
X56262Y-40012D01*
X56177Y-40069D01*
X56051Y-40289D01*
X57086Y-41324D01*
X58121Y-40289D01*
X58121Y-40317D01*
X57100Y-41338D01*
X58135Y-42373D01*
X58355Y-42248D01*
X58606Y-41693D01*
X58626Y-41084D01*
X58626Y-46990D01*
X58412Y-46419D01*
X58355Y-46334D01*
X58135Y-46209D01*
X58121Y-46223D01*
X58121Y-46195D01*
X58121Y-42387D01*
X57086Y-41352D01*
X57072Y-41366D01*
X57072Y-41338D01*
X56037Y-40303D01*
X55817Y-40429D01*
X55566Y-40983D01*
X55546Y-41592D01*
X55760Y-42162D01*
X55817Y-42248D01*
X56037Y-42373D01*
X57072Y-41338D01*
X57072Y-41366D01*
X56051Y-42387D01*
X56177Y-42607D01*
X56731Y-42858D01*
X57340Y-42878D01*
X57910Y-42664D01*
X57996Y-42607D01*
X58121Y-42387D01*
X58121Y-46195D01*
X57996Y-45975D01*
X57441Y-45723D01*
X56832Y-45703D01*
X56262Y-45918D01*
X56177Y-45975D01*
X56051Y-46195D01*
X57086Y-47229D01*
X58121Y-46195D01*
X58121Y-46223D01*
X57100Y-47244D01*
X58135Y-48278D01*
X58355Y-48153D01*
X58606Y-47598D01*
X58626Y-46990D01*
X58626Y-48942D01*
X58121Y-48942D01*
X58121Y-48293D01*
X57086Y-47258D01*
X57072Y-47272D01*
X57072Y-47244D01*
X56037Y-46209D01*
X55817Y-46334D01*
X55566Y-46889D01*
X55546Y-47498D01*
X55760Y-48068D01*
X55817Y-48153D01*
X56037Y-48278D01*
X57072Y-47244D01*
X57072Y-47272D01*
X56051Y-48293D01*
X56177Y-48512D01*
X56731Y-48764D01*
X57340Y-48784D01*
X57910Y-48569D01*
X57996Y-48512D01*
X58121Y-48293D01*
X58121Y-48942D01*
X55393Y-48942D01*
X55393Y-46122D01*
X55295Y-45885D01*
X55114Y-45704D01*
X55034Y-45671D01*
X55034Y-45671D01*
X55027Y-45635D01*
X54962Y-45537D01*
X54962Y-45537D01*
X53024Y-43600D01*
X53850Y-43600D01*
X54022Y-43565D01*
X54168Y-43468D01*
X54742Y-42893D01*
X54877Y-42893D01*
X55114Y-42795D01*
X55295Y-42614D01*
X55393Y-42378D01*
X55393Y-42122D01*
X55295Y-41885D01*
X55114Y-41704D01*
X54878Y-41606D01*
X54622Y-41606D01*
X54385Y-41704D01*
X54204Y-41885D01*
X54106Y-42121D01*
X54106Y-42257D01*
X53663Y-42700D01*
X53460Y-42700D01*
X53545Y-42614D01*
X53643Y-42378D01*
X53643Y-42122D01*
X53545Y-41885D01*
X53364Y-41704D01*
X53128Y-41606D01*
X52872Y-41606D01*
X52807Y-41633D01*
X51612Y-40437D01*
X51514Y-40372D01*
X51400Y-40350D01*
X44600Y-40350D01*
X44485Y-40372D01*
X44387Y-40437D01*
X43037Y-41787D01*
X42972Y-41885D01*
X42950Y-42000D01*
X42950Y-44250D01*
X42972Y-44364D01*
X43037Y-44462D01*
X43185Y-44609D01*
X43160Y-44738D01*
X43160Y-44761D01*
X43204Y-44987D01*
X43272Y-45088D01*
X43211Y-45113D01*
X43113Y-45211D01*
X43060Y-45340D01*
X43060Y-45652D01*
X43147Y-45740D01*
X43740Y-45740D01*
X43740Y-45732D01*
X43760Y-45732D01*
X43760Y-45740D01*
X44352Y-45740D01*
X44440Y-45652D01*
X44440Y-45340D01*
X44386Y-45211D01*
X44288Y-45113D01*
X44227Y-45088D01*
X44295Y-44987D01*
X44339Y-44763D01*
X45357Y-45782D01*
X45204Y-45935D01*
X45106Y-46171D01*
X45106Y-46427D01*
X45204Y-46664D01*
X45385Y-46845D01*
X45621Y-46943D01*
X45877Y-46943D01*
X46114Y-46845D01*
X46295Y-46664D01*
X46393Y-46428D01*
X46393Y-46172D01*
X46295Y-45935D01*
X46114Y-45754D01*
X46045Y-45725D01*
X46027Y-45635D01*
X46027Y-45635D01*
X45962Y-45537D01*
X44314Y-43890D01*
X44340Y-43761D01*
X44340Y-43738D01*
X44295Y-43512D01*
X44167Y-43321D01*
X44060Y-43250D01*
X44167Y-43178D01*
X44295Y-42987D01*
X44340Y-42761D01*
X44340Y-42738D01*
X44295Y-42512D01*
X44200Y-42370D01*
X44200Y-42236D01*
X44936Y-41500D01*
X46850Y-41500D01*
X46850Y-41889D01*
X46754Y-41985D01*
X46656Y-42221D01*
X46656Y-42477D01*
X46754Y-42714D01*
X46935Y-42895D01*
X47171Y-42993D01*
X47427Y-42993D01*
X47664Y-42895D01*
X47845Y-42714D01*
X47943Y-42478D01*
X47943Y-42222D01*
X47845Y-41985D01*
X47750Y-41889D01*
X47750Y-41500D01*
X49075Y-41500D01*
X49000Y-41575D01*
X48935Y-41672D01*
X48912Y-41787D01*
X48912Y-42276D01*
X48883Y-42345D01*
X48883Y-42476D01*
X48933Y-42597D01*
X49026Y-42689D01*
X49146Y-42740D01*
X49277Y-42740D01*
X49362Y-42704D01*
X49357Y-42770D01*
X49514Y-42838D01*
X49684Y-42841D01*
X49843Y-42778D01*
X49855Y-42770D01*
X49846Y-42665D01*
X49606Y-42425D01*
X49600Y-42431D01*
X49586Y-42416D01*
X49592Y-42411D01*
X49586Y-42405D01*
X49600Y-42391D01*
X49606Y-42397D01*
X49846Y-42157D01*
X49855Y-42051D01*
X49698Y-41984D01*
X49528Y-41981D01*
X49512Y-41987D01*
X49512Y-41911D01*
X49624Y-41800D01*
X50375Y-41800D01*
X54332Y-45757D01*
X54204Y-45885D01*
X54106Y-46121D01*
X54106Y-46377D01*
X54204Y-46614D01*
X54385Y-46795D01*
X54621Y-46893D01*
X54877Y-46893D01*
X55114Y-46795D01*
X55295Y-46614D01*
X55393Y-46378D01*
X55393Y-46122D01*
X55393Y-48942D01*
X53643Y-48942D01*
X53643Y-46122D01*
X53545Y-45885D01*
X53364Y-45704D01*
X53128Y-45606D01*
X52872Y-45606D01*
X52807Y-45633D01*
X51253Y-44079D01*
X51156Y-44014D01*
X51041Y-43991D01*
X50693Y-43991D01*
X50693Y-43943D01*
X50722Y-43874D01*
X50722Y-43743D01*
X50722Y-42346D01*
X50672Y-42225D01*
X50580Y-42132D01*
X50459Y-42082D01*
X50328Y-42082D01*
X50207Y-42132D01*
X50115Y-42224D01*
X50065Y-42345D01*
X50064Y-42476D01*
X50114Y-42597D01*
X50207Y-42689D01*
X50328Y-42740D01*
X50458Y-42740D01*
X50579Y-42690D01*
X50672Y-42597D01*
X50722Y-42477D01*
X50722Y-42346D01*
X50722Y-43743D01*
X50672Y-43623D01*
X50580Y-43530D01*
X50459Y-43480D01*
X50328Y-43480D01*
X50207Y-43530D01*
X50115Y-43622D01*
X50065Y-43743D01*
X50064Y-43874D01*
X50093Y-43943D01*
X50093Y-44011D01*
X50082Y-44014D01*
X50036Y-44044D01*
X50036Y-43730D01*
X50036Y-42333D01*
X49973Y-42174D01*
X49965Y-42162D01*
X49860Y-42171D01*
X49620Y-42411D01*
X49860Y-42651D01*
X49965Y-42660D01*
X50033Y-42503D01*
X50036Y-42333D01*
X50036Y-43730D01*
X49973Y-43572D01*
X49965Y-43560D01*
X49860Y-43568D01*
X49620Y-43809D01*
X49860Y-44049D01*
X49965Y-44057D01*
X50033Y-43901D01*
X50036Y-43730D01*
X50036Y-44044D01*
X49984Y-44079D01*
X49855Y-44208D01*
X49855Y-44168D01*
X49846Y-44063D01*
X49606Y-43823D01*
X49600Y-43828D01*
X49586Y-43814D01*
X49592Y-43809D01*
X49586Y-43803D01*
X49600Y-43789D01*
X49606Y-43794D01*
X49846Y-43554D01*
X49855Y-43449D01*
X49698Y-43381D01*
X49528Y-43378D01*
X49369Y-43441D01*
X49357Y-43449D01*
X49362Y-43515D01*
X49278Y-43480D01*
X49147Y-43480D01*
X49077Y-43509D01*
X48868Y-43509D01*
X48855Y-43511D01*
X48855Y-42333D01*
X48792Y-42174D01*
X48784Y-42162D01*
X48679Y-42171D01*
X48673Y-42176D01*
X48673Y-42051D01*
X48517Y-41984D01*
X48346Y-41981D01*
X48188Y-42044D01*
X48176Y-42051D01*
X48185Y-42157D01*
X48425Y-42397D01*
X48665Y-42157D01*
X48673Y-42051D01*
X48673Y-42176D01*
X48439Y-42411D01*
X48679Y-42651D01*
X48784Y-42660D01*
X48852Y-42503D01*
X48855Y-42333D01*
X48855Y-43511D01*
X48753Y-43531D01*
X48700Y-43567D01*
X48700Y-43567D01*
X48679Y-43568D01*
X48673Y-43574D01*
X48673Y-43449D01*
X48673Y-42770D01*
X48665Y-42665D01*
X48425Y-42425D01*
X48411Y-42439D01*
X48411Y-42411D01*
X48170Y-42171D01*
X48065Y-42162D01*
X47997Y-42319D01*
X47995Y-42489D01*
X48057Y-42648D01*
X48065Y-42660D01*
X48170Y-42651D01*
X48411Y-42411D01*
X48411Y-42439D01*
X48185Y-42665D01*
X48176Y-42770D01*
X48332Y-42838D01*
X48503Y-42841D01*
X48662Y-42778D01*
X48673Y-42770D01*
X48673Y-43449D01*
X48517Y-43381D01*
X48346Y-43378D01*
X48188Y-43441D01*
X48176Y-43449D01*
X48185Y-43554D01*
X48425Y-43794D01*
X48665Y-43554D01*
X48673Y-43449D01*
X48673Y-43574D01*
X48439Y-43809D01*
X48441Y-43811D01*
X48427Y-43825D01*
X48425Y-43823D01*
X48419Y-43828D01*
X48405Y-43814D01*
X48411Y-43809D01*
X48170Y-43568D01*
X48065Y-43560D01*
X47997Y-43716D01*
X47995Y-43838D01*
X46763Y-43838D01*
X46050Y-43125D01*
X46050Y-42872D01*
X46114Y-42845D01*
X46295Y-42664D01*
X46393Y-42428D01*
X46393Y-42172D01*
X46295Y-41935D01*
X46114Y-41754D01*
X45878Y-41656D01*
X45622Y-41656D01*
X45385Y-41754D01*
X45204Y-41935D01*
X45106Y-42171D01*
X45106Y-42427D01*
X45204Y-42664D01*
X45385Y-42845D01*
X45450Y-42872D01*
X45450Y-43250D01*
X45472Y-43364D01*
X45537Y-43462D01*
X46426Y-44350D01*
X46523Y-44415D01*
X46638Y-44438D01*
X48125Y-44438D01*
X48125Y-44442D01*
X48096Y-44511D01*
X48096Y-44641D01*
X48146Y-44762D01*
X48238Y-44855D01*
X48359Y-44905D01*
X48490Y-44905D01*
X48611Y-44855D01*
X48703Y-44763D01*
X48753Y-44642D01*
X48753Y-44511D01*
X48725Y-44441D01*
X48725Y-44367D01*
X48725Y-44367D01*
X48750Y-44350D01*
X48992Y-44109D01*
X49077Y-44109D01*
X49146Y-44137D01*
X49277Y-44137D01*
X49362Y-44102D01*
X49357Y-44168D01*
X49514Y-44236D01*
X49684Y-44239D01*
X49843Y-44176D01*
X49855Y-44168D01*
X49855Y-44208D01*
X49787Y-44276D01*
X49741Y-44276D01*
X49671Y-44248D01*
X49541Y-44247D01*
X49455Y-44283D01*
X49461Y-44217D01*
X49304Y-44149D01*
X49134Y-44146D01*
X48975Y-44209D01*
X48963Y-44217D01*
X48972Y-44322D01*
X49212Y-44562D01*
X49218Y-44557D01*
X49232Y-44571D01*
X49226Y-44576D01*
X49232Y-44582D01*
X49218Y-44596D01*
X49212Y-44590D01*
X49198Y-44605D01*
X49198Y-44576D01*
X48958Y-44336D01*
X48853Y-44327D01*
X48785Y-44484D01*
X48782Y-44655D01*
X48845Y-44813D01*
X48853Y-44825D01*
X48958Y-44816D01*
X49198Y-44576D01*
X49198Y-44605D01*
X48972Y-44830D01*
X48963Y-44936D01*
X49120Y-45004D01*
X49290Y-45006D01*
X49449Y-44944D01*
X49461Y-44936D01*
X49455Y-44870D01*
X49540Y-44905D01*
X49671Y-44905D01*
X49741Y-44876D01*
X49911Y-44876D01*
X49911Y-44876D01*
X50026Y-44853D01*
X50026Y-44853D01*
X50073Y-44822D01*
X50139Y-44816D01*
X50364Y-44591D01*
X50393Y-44591D01*
X50153Y-44830D01*
X50144Y-44936D01*
X50301Y-45004D01*
X50471Y-45006D01*
X50630Y-44944D01*
X50642Y-44936D01*
X50633Y-44830D01*
X50394Y-44591D01*
X50422Y-44591D01*
X50647Y-44816D01*
X50753Y-44825D01*
X50820Y-44669D01*
X50822Y-44591D01*
X50917Y-44591D01*
X52383Y-46057D01*
X52356Y-46121D01*
X52356Y-46377D01*
X52454Y-46614D01*
X52635Y-46795D01*
X52871Y-46893D01*
X53127Y-46893D01*
X53364Y-46795D01*
X53545Y-46614D01*
X53643Y-46378D01*
X53643Y-46122D01*
X53643Y-48942D01*
X50823Y-48942D01*
X50823Y-46289D01*
X50761Y-46131D01*
X50753Y-46119D01*
X50752Y-46119D01*
X50752Y-45381D01*
X50682Y-45214D01*
X50554Y-45085D01*
X50386Y-45015D01*
X50204Y-45015D01*
X50036Y-45085D01*
X49908Y-45213D01*
X49838Y-45381D01*
X49838Y-45562D01*
X49907Y-45730D01*
X50036Y-45859D01*
X50204Y-45929D01*
X50385Y-45929D01*
X50553Y-45859D01*
X50682Y-45731D01*
X50751Y-45563D01*
X50752Y-45381D01*
X50752Y-46119D01*
X50647Y-46128D01*
X50642Y-46133D01*
X50642Y-46008D01*
X50485Y-45940D01*
X50315Y-45938D01*
X50156Y-46000D01*
X50144Y-46008D01*
X50153Y-46113D01*
X50393Y-46353D01*
X50633Y-46113D01*
X50642Y-46008D01*
X50642Y-46133D01*
X50407Y-46368D01*
X50647Y-46608D01*
X50753Y-46616D01*
X50820Y-46460D01*
X50823Y-46289D01*
X50823Y-48942D01*
X50642Y-48942D01*
X50642Y-46727D01*
X50633Y-46622D01*
X50393Y-46382D01*
X50379Y-46396D01*
X50379Y-46368D01*
X50139Y-46128D01*
X50034Y-46119D01*
X49966Y-46275D01*
X49963Y-46446D01*
X50026Y-46604D01*
X50034Y-46616D01*
X50139Y-46608D01*
X50379Y-46368D01*
X50379Y-46396D01*
X50153Y-46622D01*
X50144Y-46727D01*
X50301Y-46795D01*
X50471Y-46798D01*
X50630Y-46735D01*
X50642Y-46727D01*
X50642Y-48942D01*
X49935Y-48942D01*
X49935Y-46302D01*
X49885Y-46181D01*
X49792Y-46089D01*
X49671Y-46039D01*
X49570Y-46038D01*
X49570Y-45381D01*
X49501Y-45214D01*
X49373Y-45085D01*
X49205Y-45015D01*
X49023Y-45015D01*
X48855Y-45085D01*
X48727Y-45213D01*
X48657Y-45381D01*
X48657Y-45562D01*
X48726Y-45730D01*
X48855Y-45859D01*
X49022Y-45929D01*
X49204Y-45929D01*
X49372Y-45859D01*
X49501Y-45731D01*
X49570Y-45563D01*
X49570Y-45381D01*
X49570Y-46038D01*
X49541Y-46038D01*
X49455Y-46074D01*
X49461Y-46008D01*
X49304Y-45940D01*
X49134Y-45938D01*
X48975Y-46000D01*
X48963Y-46008D01*
X48972Y-46113D01*
X49212Y-46353D01*
X49218Y-46348D01*
X49232Y-46362D01*
X49226Y-46368D01*
X49232Y-46373D01*
X49218Y-46387D01*
X49212Y-46382D01*
X49198Y-46396D01*
X49198Y-46368D01*
X48958Y-46128D01*
X48853Y-46119D01*
X48785Y-46275D01*
X48782Y-46446D01*
X48845Y-46604D01*
X48853Y-46616D01*
X48958Y-46608D01*
X49198Y-46368D01*
X49198Y-46396D01*
X48972Y-46622D01*
X48963Y-46727D01*
X49120Y-46795D01*
X49228Y-46797D01*
X49065Y-46960D01*
X48753Y-46960D01*
X48753Y-46302D01*
X48704Y-46181D01*
X48611Y-46089D01*
X48490Y-46039D01*
X48360Y-46038D01*
X48239Y-46088D01*
X48146Y-46181D01*
X48096Y-46302D01*
X48096Y-46432D01*
X48146Y-46553D01*
X48238Y-46646D01*
X48359Y-46696D01*
X48490Y-46696D01*
X48611Y-46646D01*
X48703Y-46554D01*
X48753Y-46433D01*
X48753Y-46302D01*
X48753Y-46960D01*
X47834Y-46960D01*
X47717Y-46842D01*
X47845Y-46714D01*
X47943Y-46478D01*
X47943Y-46222D01*
X47845Y-45985D01*
X47664Y-45804D01*
X47428Y-45706D01*
X47172Y-45706D01*
X46935Y-45804D01*
X46754Y-45985D01*
X46656Y-46221D01*
X46656Y-46477D01*
X46754Y-46714D01*
X46935Y-46895D01*
X47015Y-46928D01*
X47015Y-46928D01*
X47022Y-46964D01*
X47087Y-47062D01*
X47498Y-47472D01*
X47556Y-47511D01*
X47595Y-47537D01*
X47595Y-47537D01*
X47710Y-47560D01*
X49189Y-47560D01*
X49189Y-47560D01*
X49304Y-47537D01*
X49304Y-47537D01*
X49401Y-47472D01*
X49818Y-47055D01*
X49883Y-46958D01*
X49906Y-46843D01*
X49906Y-46843D01*
X49906Y-46502D01*
X49934Y-46433D01*
X49935Y-46302D01*
X49935Y-48942D01*
X44540Y-48942D01*
X44540Y-47759D01*
X44540Y-47620D01*
X44540Y-47347D01*
X44540Y-47152D01*
X44540Y-46879D01*
X44540Y-46740D01*
X44486Y-46611D01*
X44440Y-46565D01*
X44440Y-46159D01*
X44440Y-45847D01*
X44352Y-45760D01*
X43760Y-45760D01*
X43760Y-46352D01*
X43847Y-46440D01*
X44020Y-46440D01*
X44159Y-46440D01*
X44288Y-46386D01*
X44386Y-46288D01*
X44440Y-46159D01*
X44440Y-46565D01*
X44388Y-46513D01*
X44259Y-46460D01*
X43847Y-46460D01*
X43760Y-46547D01*
X43760Y-47240D01*
X44452Y-47240D01*
X44540Y-47152D01*
X44540Y-47347D01*
X44452Y-47260D01*
X43760Y-47260D01*
X43760Y-47952D01*
X43847Y-48040D01*
X44259Y-48040D01*
X44388Y-47986D01*
X44486Y-47888D01*
X44540Y-47759D01*
X44540Y-48942D01*
X43740Y-48942D01*
X43740Y-47952D01*
X43740Y-47260D01*
X43740Y-47240D01*
X43740Y-46547D01*
X43740Y-46352D01*
X43740Y-45760D01*
X43147Y-45760D01*
X43060Y-45847D01*
X43060Y-46159D01*
X43113Y-46288D01*
X43211Y-46386D01*
X43340Y-46440D01*
X43479Y-46440D01*
X43652Y-46440D01*
X43740Y-46352D01*
X43740Y-46547D01*
X43652Y-46460D01*
X43240Y-46460D01*
X43111Y-46513D01*
X43013Y-46611D01*
X42960Y-46740D01*
X42960Y-46879D01*
X42960Y-47152D01*
X43047Y-47240D01*
X43740Y-47240D01*
X43740Y-47260D01*
X43047Y-47260D01*
X42960Y-47347D01*
X42960Y-47620D01*
X42960Y-47759D01*
X43013Y-47888D01*
X43111Y-47986D01*
X43240Y-48040D01*
X43652Y-48040D01*
X43740Y-47952D01*
X43740Y-48942D01*
X42878Y-48942D01*
X42878Y-46990D01*
X42878Y-41084D01*
X42664Y-40514D01*
X42607Y-40429D01*
X42387Y-40303D01*
X42373Y-40317D01*
X42373Y-40289D01*
X42248Y-40069D01*
X41693Y-39818D01*
X41084Y-39798D01*
X40514Y-40012D01*
X40429Y-40069D01*
X40303Y-40289D01*
X41338Y-41324D01*
X42373Y-40289D01*
X42373Y-40317D01*
X41352Y-41338D01*
X42387Y-42373D01*
X42607Y-42248D01*
X42858Y-41693D01*
X42878Y-41084D01*
X42878Y-46990D01*
X42664Y-46419D01*
X42607Y-46334D01*
X42387Y-46209D01*
X42373Y-46223D01*
X42373Y-46195D01*
X42373Y-42387D01*
X41338Y-41352D01*
X41324Y-41366D01*
X41324Y-41338D01*
X40289Y-40303D01*
X40069Y-40429D01*
X39818Y-40983D01*
X39798Y-41592D01*
X40012Y-42162D01*
X40069Y-42248D01*
X40289Y-42373D01*
X41324Y-41338D01*
X41324Y-41366D01*
X40303Y-42387D01*
X40429Y-42607D01*
X40983Y-42858D01*
X41592Y-42878D01*
X42162Y-42664D01*
X42248Y-42607D01*
X42373Y-42387D01*
X42373Y-46195D01*
X42248Y-45975D01*
X41693Y-45723D01*
X41084Y-45703D01*
X40514Y-45918D01*
X40429Y-45975D01*
X40303Y-46195D01*
X41338Y-47229D01*
X42373Y-46195D01*
X42373Y-46223D01*
X41352Y-47244D01*
X42387Y-48278D01*
X42607Y-48153D01*
X42858Y-47598D01*
X42878Y-46990D01*
X42878Y-48942D01*
X42373Y-48942D01*
X42373Y-48293D01*
X41338Y-47258D01*
X41324Y-47272D01*
X41324Y-47244D01*
X40289Y-46209D01*
X40069Y-46334D01*
X39818Y-46889D01*
X39798Y-47498D01*
X40012Y-48068D01*
X40069Y-48153D01*
X40289Y-48278D01*
X41324Y-47244D01*
X41324Y-47272D01*
X40303Y-48293D01*
X40429Y-48512D01*
X40983Y-48764D01*
X41592Y-48784D01*
X42162Y-48569D01*
X42248Y-48512D01*
X42373Y-48293D01*
X42373Y-48942D01*
X39639Y-48942D01*
X39639Y-39639D01*
X58785Y-39639D01*
X58785Y-48942D01*
X58785Y-48942D01*
G37*
X58785Y-48942D02*
X58626Y-48942D01*
X58626Y-46990D01*
X58626Y-41084D01*
X58412Y-40514D01*
X58355Y-40429D01*
X58135Y-40303D01*
X58121Y-40317D01*
X58121Y-40289D01*
X57996Y-40069D01*
X57441Y-39818D01*
X56832Y-39798D01*
X56262Y-40012D01*
X56177Y-40069D01*
X56051Y-40289D01*
X57086Y-41324D01*
X58121Y-40289D01*
X58121Y-40317D01*
X57100Y-41338D01*
X58135Y-42373D01*
X58355Y-42248D01*
X58606Y-41693D01*
X58626Y-41084D01*
X58626Y-46990D01*
X58412Y-46419D01*
X58355Y-46334D01*
X58135Y-46209D01*
X58121Y-46223D01*
X58121Y-46195D01*
X58121Y-42387D01*
X57086Y-41352D01*
X57072Y-41366D01*
X57072Y-41338D01*
X56037Y-40303D01*
X55817Y-40429D01*
X55566Y-40983D01*
X55546Y-41592D01*
X55760Y-42162D01*
X55817Y-42248D01*
X56037Y-42373D01*
X57072Y-41338D01*
X57072Y-41366D01*
X56051Y-42387D01*
X56177Y-42607D01*
X56731Y-42858D01*
X57340Y-42878D01*
X57910Y-42664D01*
X57996Y-42607D01*
X58121Y-42387D01*
X58121Y-46195D01*
X57996Y-45975D01*
X57441Y-45723D01*
X56832Y-45703D01*
X56262Y-45918D01*
X56177Y-45975D01*
X56051Y-46195D01*
X57086Y-47229D01*
X58121Y-46195D01*
X58121Y-46223D01*
X57100Y-47244D01*
X58135Y-48278D01*
X58355Y-48153D01*
X58606Y-47598D01*
X58626Y-46990D01*
X58626Y-48942D01*
X58121Y-48942D01*
X58121Y-48293D01*
X57086Y-47258D01*
X57072Y-47272D01*
X57072Y-47244D01*
X56037Y-46209D01*
X55817Y-46334D01*
X55566Y-46889D01*
X55546Y-47498D01*
X55760Y-48068D01*
X55817Y-48153D01*
X56037Y-48278D01*
X57072Y-47244D01*
X57072Y-47272D01*
X56051Y-48293D01*
X56177Y-48512D01*
X56731Y-48764D01*
X57340Y-48784D01*
X57910Y-48569D01*
X57996Y-48512D01*
X58121Y-48293D01*
X58121Y-48942D01*
X55393Y-48942D01*
X55393Y-46122D01*
X55295Y-45885D01*
X55114Y-45704D01*
X55034Y-45671D01*
X55034Y-45671D01*
X55027Y-45635D01*
X54962Y-45537D01*
X54962Y-45537D01*
X53024Y-43600D01*
X53850Y-43600D01*
X54022Y-43565D01*
X54168Y-43468D01*
X54742Y-42893D01*
X54877Y-42893D01*
X55114Y-42795D01*
X55295Y-42614D01*
X55393Y-42378D01*
X55393Y-42122D01*
X55295Y-41885D01*
X55114Y-41704D01*
X54878Y-41606D01*
X54622Y-41606D01*
X54385Y-41704D01*
X54204Y-41885D01*
X54106Y-42121D01*
X54106Y-42257D01*
X53663Y-42700D01*
X53460Y-42700D01*
X53545Y-42614D01*
X53643Y-42378D01*
X53643Y-42122D01*
X53545Y-41885D01*
X53364Y-41704D01*
X53128Y-41606D01*
X52872Y-41606D01*
X52807Y-41633D01*
X51612Y-40437D01*
X51514Y-40372D01*
X51400Y-40350D01*
X44600Y-40350D01*
X44485Y-40372D01*
X44387Y-40437D01*
X43037Y-41787D01*
X42972Y-41885D01*
X42950Y-42000D01*
X42950Y-44250D01*
X42972Y-44364D01*
X43037Y-44462D01*
X43185Y-44609D01*
X43160Y-44738D01*
X43160Y-44761D01*
X43204Y-44987D01*
X43272Y-45088D01*
X43211Y-45113D01*
X43113Y-45211D01*
X43060Y-45340D01*
X43060Y-45652D01*
X43147Y-45740D01*
X43740Y-45740D01*
X43740Y-45732D01*
X43760Y-45732D01*
X43760Y-45740D01*
X44352Y-45740D01*
X44440Y-45652D01*
X44440Y-45340D01*
X44386Y-45211D01*
X44288Y-45113D01*
X44227Y-45088D01*
X44295Y-44987D01*
X44339Y-44763D01*
X45357Y-45782D01*
X45204Y-45935D01*
X45106Y-46171D01*
X45106Y-46427D01*
X45204Y-46664D01*
X45385Y-46845D01*
X45621Y-46943D01*
X45877Y-46943D01*
X46114Y-46845D01*
X46295Y-46664D01*
X46393Y-46428D01*
X46393Y-46172D01*
X46295Y-45935D01*
X46114Y-45754D01*
X46045Y-45725D01*
X46027Y-45635D01*
X46027Y-45635D01*
X45962Y-45537D01*
X44314Y-43890D01*
X44340Y-43761D01*
X44340Y-43738D01*
X44295Y-43512D01*
X44167Y-43321D01*
X44060Y-43250D01*
X44167Y-43178D01*
X44295Y-42987D01*
X44340Y-42761D01*
X44340Y-42738D01*
X44295Y-42512D01*
X44200Y-42370D01*
X44200Y-42236D01*
X44936Y-41500D01*
X46850Y-41500D01*
X46850Y-41889D01*
X46754Y-41985D01*
X46656Y-42221D01*
X46656Y-42477D01*
X46754Y-42714D01*
X46935Y-42895D01*
X47171Y-42993D01*
X47427Y-42993D01*
X47664Y-42895D01*
X47845Y-42714D01*
X47943Y-42478D01*
X47943Y-42222D01*
X47845Y-41985D01*
X47750Y-41889D01*
X47750Y-41500D01*
X49075Y-41500D01*
X49000Y-41575D01*
X48935Y-41672D01*
X48912Y-41787D01*
X48912Y-42276D01*
X48883Y-42345D01*
X48883Y-42476D01*
X48933Y-42597D01*
X49026Y-42689D01*
X49146Y-42740D01*
X49277Y-42740D01*
X49362Y-42704D01*
X49357Y-42770D01*
X49514Y-42838D01*
X49684Y-42841D01*
X49843Y-42778D01*
X49855Y-42770D01*
X49846Y-42665D01*
X49606Y-42425D01*
X49600Y-42431D01*
X49586Y-42416D01*
X49592Y-42411D01*
X49586Y-42405D01*
X49600Y-42391D01*
X49606Y-42397D01*
X49846Y-42157D01*
X49855Y-42051D01*
X49698Y-41984D01*
X49528Y-41981D01*
X49512Y-41987D01*
X49512Y-41911D01*
X49624Y-41800D01*
X50375Y-41800D01*
X54332Y-45757D01*
X54204Y-45885D01*
X54106Y-46121D01*
X54106Y-46377D01*
X54204Y-46614D01*
X54385Y-46795D01*
X54621Y-46893D01*
X54877Y-46893D01*
X55114Y-46795D01*
X55295Y-46614D01*
X55393Y-46378D01*
X55393Y-46122D01*
X55393Y-48942D01*
X53643Y-48942D01*
X53643Y-46122D01*
X53545Y-45885D01*
X53364Y-45704D01*
X53128Y-45606D01*
X52872Y-45606D01*
X52807Y-45633D01*
X51253Y-44079D01*
X51156Y-44014D01*
X51041Y-43991D01*
X50693Y-43991D01*
X50693Y-43943D01*
X50722Y-43874D01*
X50722Y-43743D01*
X50722Y-42346D01*
X50672Y-42225D01*
X50580Y-42132D01*
X50459Y-42082D01*
X50328Y-42082D01*
X50207Y-42132D01*
X50115Y-42224D01*
X50065Y-42345D01*
X50064Y-42476D01*
X50114Y-42597D01*
X50207Y-42689D01*
X50328Y-42740D01*
X50458Y-42740D01*
X50579Y-42690D01*
X50672Y-42597D01*
X50722Y-42477D01*
X50722Y-42346D01*
X50722Y-43743D01*
X50672Y-43623D01*
X50580Y-43530D01*
X50459Y-43480D01*
X50328Y-43480D01*
X50207Y-43530D01*
X50115Y-43622D01*
X50065Y-43743D01*
X50064Y-43874D01*
X50093Y-43943D01*
X50093Y-44011D01*
X50082Y-44014D01*
X50036Y-44044D01*
X50036Y-43730D01*
X50036Y-42333D01*
X49973Y-42174D01*
X49965Y-42162D01*
X49860Y-42171D01*
X49620Y-42411D01*
X49860Y-42651D01*
X49965Y-42660D01*
X50033Y-42503D01*
X50036Y-42333D01*
X50036Y-43730D01*
X49973Y-43572D01*
X49965Y-43560D01*
X49860Y-43568D01*
X49620Y-43809D01*
X49860Y-44049D01*
X49965Y-44057D01*
X50033Y-43901D01*
X50036Y-43730D01*
X50036Y-44044D01*
X49984Y-44079D01*
X49855Y-44208D01*
X49855Y-44168D01*
X49846Y-44063D01*
X49606Y-43823D01*
X49600Y-43828D01*
X49586Y-43814D01*
X49592Y-43809D01*
X49586Y-43803D01*
X49600Y-43789D01*
X49606Y-43794D01*
X49846Y-43554D01*
X49855Y-43449D01*
X49698Y-43381D01*
X49528Y-43378D01*
X49369Y-43441D01*
X49357Y-43449D01*
X49362Y-43515D01*
X49278Y-43480D01*
X49147Y-43480D01*
X49077Y-43509D01*
X48868Y-43509D01*
X48855Y-43511D01*
X48855Y-42333D01*
X48792Y-42174D01*
X48784Y-42162D01*
X48679Y-42171D01*
X48673Y-42176D01*
X48673Y-42051D01*
X48517Y-41984D01*
X48346Y-41981D01*
X48188Y-42044D01*
X48176Y-42051D01*
X48185Y-42157D01*
X48425Y-42397D01*
X48665Y-42157D01*
X48673Y-42051D01*
X48673Y-42176D01*
X48439Y-42411D01*
X48679Y-42651D01*
X48784Y-42660D01*
X48852Y-42503D01*
X48855Y-42333D01*
X48855Y-43511D01*
X48753Y-43531D01*
X48700Y-43567D01*
X48700Y-43567D01*
X48679Y-43568D01*
X48673Y-43574D01*
X48673Y-43449D01*
X48673Y-42770D01*
X48665Y-42665D01*
X48425Y-42425D01*
X48411Y-42439D01*
X48411Y-42411D01*
X48170Y-42171D01*
X48065Y-42162D01*
X47997Y-42319D01*
X47995Y-42489D01*
X48057Y-42648D01*
X48065Y-42660D01*
X48170Y-42651D01*
X48411Y-42411D01*
X48411Y-42439D01*
X48185Y-42665D01*
X48176Y-42770D01*
X48332Y-42838D01*
X48503Y-42841D01*
X48662Y-42778D01*
X48673Y-42770D01*
X48673Y-43449D01*
X48517Y-43381D01*
X48346Y-43378D01*
X48188Y-43441D01*
X48176Y-43449D01*
X48185Y-43554D01*
X48425Y-43794D01*
X48665Y-43554D01*
X48673Y-43449D01*
X48673Y-43574D01*
X48439Y-43809D01*
X48441Y-43811D01*
X48427Y-43825D01*
X48425Y-43823D01*
X48419Y-43828D01*
X48405Y-43814D01*
X48411Y-43809D01*
X48170Y-43568D01*
X48065Y-43560D01*
X47997Y-43716D01*
X47995Y-43838D01*
X46763Y-43838D01*
X46050Y-43125D01*
X46050Y-42872D01*
X46114Y-42845D01*
X46295Y-42664D01*
X46393Y-42428D01*
X46393Y-42172D01*
X46295Y-41935D01*
X46114Y-41754D01*
X45878Y-41656D01*
X45622Y-41656D01*
X45385Y-41754D01*
X45204Y-41935D01*
X45106Y-42171D01*
X45106Y-42427D01*
X45204Y-42664D01*
X45385Y-42845D01*
X45450Y-42872D01*
X45450Y-43250D01*
X45472Y-43364D01*
X45537Y-43462D01*
X46426Y-44350D01*
X46523Y-44415D01*
X46638Y-44438D01*
X48125Y-44438D01*
X48125Y-44442D01*
X48096Y-44511D01*
X48096Y-44641D01*
X48146Y-44762D01*
X48238Y-44855D01*
X48359Y-44905D01*
X48490Y-44905D01*
X48611Y-44855D01*
X48703Y-44763D01*
X48753Y-44642D01*
X48753Y-44511D01*
X48725Y-44441D01*
X48725Y-44367D01*
X48725Y-44367D01*
X48750Y-44350D01*
X48992Y-44109D01*
X49077Y-44109D01*
X49146Y-44137D01*
X49277Y-44137D01*
X49362Y-44102D01*
X49357Y-44168D01*
X49514Y-44236D01*
X49684Y-44239D01*
X49843Y-44176D01*
X49855Y-44168D01*
X49855Y-44208D01*
X49787Y-44276D01*
X49741Y-44276D01*
X49671Y-44248D01*
X49541Y-44247D01*
X49455Y-44283D01*
X49461Y-44217D01*
X49304Y-44149D01*
X49134Y-44146D01*
X48975Y-44209D01*
X48963Y-44217D01*
X48972Y-44322D01*
X49212Y-44562D01*
X49218Y-44557D01*
X49232Y-44571D01*
X49226Y-44576D01*
X49232Y-44582D01*
X49218Y-44596D01*
X49212Y-44590D01*
X49198Y-44605D01*
X49198Y-44576D01*
X48958Y-44336D01*
X48853Y-44327D01*
X48785Y-44484D01*
X48782Y-44655D01*
X48845Y-44813D01*
X48853Y-44825D01*
X48958Y-44816D01*
X49198Y-44576D01*
X49198Y-44605D01*
X48972Y-44830D01*
X48963Y-44936D01*
X49120Y-45004D01*
X49290Y-45006D01*
X49449Y-44944D01*
X49461Y-44936D01*
X49455Y-44870D01*
X49540Y-44905D01*
X49671Y-44905D01*
X49741Y-44876D01*
X49911Y-44876D01*
X49911Y-44876D01*
X50026Y-44853D01*
X50026Y-44853D01*
X50073Y-44822D01*
X50139Y-44816D01*
X50364Y-44591D01*
X50393Y-44591D01*
X50153Y-44830D01*
X50144Y-44936D01*
X50301Y-45004D01*
X50471Y-45006D01*
X50630Y-44944D01*
X50642Y-44936D01*
X50633Y-44830D01*
X50394Y-44591D01*
X50422Y-44591D01*
X50647Y-44816D01*
X50753Y-44825D01*
X50820Y-44669D01*
X50822Y-44591D01*
X50917Y-44591D01*
X52383Y-46057D01*
X52356Y-46121D01*
X52356Y-46377D01*
X52454Y-46614D01*
X52635Y-46795D01*
X52871Y-46893D01*
X53127Y-46893D01*
X53364Y-46795D01*
X53545Y-46614D01*
X53643Y-46378D01*
X53643Y-46122D01*
X53643Y-48942D01*
X50823Y-48942D01*
X50823Y-46289D01*
X50761Y-46131D01*
X50753Y-46119D01*
X50752Y-46119D01*
X50752Y-45381D01*
X50682Y-45214D01*
X50554Y-45085D01*
X50386Y-45015D01*
X50204Y-45015D01*
X50036Y-45085D01*
X49908Y-45213D01*
X49838Y-45381D01*
X49838Y-45562D01*
X49907Y-45730D01*
X50036Y-45859D01*
X50204Y-45929D01*
X50385Y-45929D01*
X50553Y-45859D01*
X50682Y-45731D01*
X50751Y-45563D01*
X50752Y-45381D01*
X50752Y-46119D01*
X50647Y-46128D01*
X50642Y-46133D01*
X50642Y-46008D01*
X50485Y-45940D01*
X50315Y-45938D01*
X50156Y-46000D01*
X50144Y-46008D01*
X50153Y-46113D01*
X50393Y-46353D01*
X50633Y-46113D01*
X50642Y-46008D01*
X50642Y-46133D01*
X50407Y-46368D01*
X50647Y-46608D01*
X50753Y-46616D01*
X50820Y-46460D01*
X50823Y-46289D01*
X50823Y-48942D01*
X50642Y-48942D01*
X50642Y-46727D01*
X50633Y-46622D01*
X50393Y-46382D01*
X50379Y-46396D01*
X50379Y-46368D01*
X50139Y-46128D01*
X50034Y-46119D01*
X49966Y-46275D01*
X49963Y-46446D01*
X50026Y-46604D01*
X50034Y-46616D01*
X50139Y-46608D01*
X50379Y-46368D01*
X50379Y-46396D01*
X50153Y-46622D01*
X50144Y-46727D01*
X50301Y-46795D01*
X50471Y-46798D01*
X50630Y-46735D01*
X50642Y-46727D01*
X50642Y-48942D01*
X49935Y-48942D01*
X49935Y-46302D01*
X49885Y-46181D01*
X49792Y-46089D01*
X49671Y-46039D01*
X49570Y-46038D01*
X49570Y-45381D01*
X49501Y-45214D01*
X49373Y-45085D01*
X49205Y-45015D01*
X49023Y-45015D01*
X48855Y-45085D01*
X48727Y-45213D01*
X48657Y-45381D01*
X48657Y-45562D01*
X48726Y-45730D01*
X48855Y-45859D01*
X49022Y-45929D01*
X49204Y-45929D01*
X49372Y-45859D01*
X49501Y-45731D01*
X49570Y-45563D01*
X49570Y-45381D01*
X49570Y-46038D01*
X49541Y-46038D01*
X49455Y-46074D01*
X49461Y-46008D01*
X49304Y-45940D01*
X49134Y-45938D01*
X48975Y-46000D01*
X48963Y-46008D01*
X48972Y-46113D01*
X49212Y-46353D01*
X49218Y-46348D01*
X49232Y-46362D01*
X49226Y-46368D01*
X49232Y-46373D01*
X49218Y-46387D01*
X49212Y-46382D01*
X49198Y-46396D01*
X49198Y-46368D01*
X48958Y-46128D01*
X48853Y-46119D01*
X48785Y-46275D01*
X48782Y-46446D01*
X48845Y-46604D01*
X48853Y-46616D01*
X48958Y-46608D01*
X49198Y-46368D01*
X49198Y-46396D01*
X48972Y-46622D01*
X48963Y-46727D01*
X49120Y-46795D01*
X49228Y-46797D01*
X49065Y-46960D01*
X48753Y-46960D01*
X48753Y-46302D01*
X48704Y-46181D01*
X48611Y-46089D01*
X48490Y-46039D01*
X48360Y-46038D01*
X48239Y-46088D01*
X48146Y-46181D01*
X48096Y-46302D01*
X48096Y-46432D01*
X48146Y-46553D01*
X48238Y-46646D01*
X48359Y-46696D01*
X48490Y-46696D01*
X48611Y-46646D01*
X48703Y-46554D01*
X48753Y-46433D01*
X48753Y-46302D01*
X48753Y-46960D01*
X47834Y-46960D01*
X47717Y-46842D01*
X47845Y-46714D01*
X47943Y-46478D01*
X47943Y-46222D01*
X47845Y-45985D01*
X47664Y-45804D01*
X47428Y-45706D01*
X47172Y-45706D01*
X46935Y-45804D01*
X46754Y-45985D01*
X46656Y-46221D01*
X46656Y-46477D01*
X46754Y-46714D01*
X46935Y-46895D01*
X47015Y-46928D01*
X47015Y-46928D01*
X47022Y-46964D01*
X47087Y-47062D01*
X47498Y-47472D01*
X47556Y-47511D01*
X47595Y-47537D01*
X47595Y-47537D01*
X47710Y-47560D01*
X49189Y-47560D01*
X49189Y-47560D01*
X49304Y-47537D01*
X49304Y-47537D01*
X49401Y-47472D01*
X49818Y-47055D01*
X49883Y-46958D01*
X49906Y-46843D01*
X49906Y-46843D01*
X49906Y-46502D01*
X49934Y-46433D01*
X49935Y-46302D01*
X49935Y-48942D01*
X44540Y-48942D01*
X44540Y-47759D01*
X44540Y-47620D01*
X44540Y-47347D01*
X44540Y-47152D01*
X44540Y-46879D01*
X44540Y-46740D01*
X44486Y-46611D01*
X44440Y-46565D01*
X44440Y-46159D01*
X44440Y-45847D01*
X44352Y-45760D01*
X43760Y-45760D01*
X43760Y-46352D01*
X43847Y-46440D01*
X44020Y-46440D01*
X44159Y-46440D01*
X44288Y-46386D01*
X44386Y-46288D01*
X44440Y-46159D01*
X44440Y-46565D01*
X44388Y-46513D01*
X44259Y-46460D01*
X43847Y-46460D01*
X43760Y-46547D01*
X43760Y-47240D01*
X44452Y-47240D01*
X44540Y-47152D01*
X44540Y-47347D01*
X44452Y-47260D01*
X43760Y-47260D01*
X43760Y-47952D01*
X43847Y-48040D01*
X44259Y-48040D01*
X44388Y-47986D01*
X44486Y-47888D01*
X44540Y-47759D01*
X44540Y-48942D01*
X43740Y-48942D01*
X43740Y-47952D01*
X43740Y-47260D01*
X43740Y-47240D01*
X43740Y-46547D01*
X43740Y-46352D01*
X43740Y-45760D01*
X43147Y-45760D01*
X43060Y-45847D01*
X43060Y-46159D01*
X43113Y-46288D01*
X43211Y-46386D01*
X43340Y-46440D01*
X43479Y-46440D01*
X43652Y-46440D01*
X43740Y-46352D01*
X43740Y-46547D01*
X43652Y-46460D01*
X43240Y-46460D01*
X43111Y-46513D01*
X43013Y-46611D01*
X42960Y-46740D01*
X42960Y-46879D01*
X42960Y-47152D01*
X43047Y-47240D01*
X43740Y-47240D01*
X43740Y-47260D01*
X43047Y-47260D01*
X42960Y-47347D01*
X42960Y-47620D01*
X42960Y-47759D01*
X43013Y-47888D01*
X43111Y-47986D01*
X43240Y-48040D01*
X43652Y-48040D01*
X43740Y-47952D01*
X43740Y-48942D01*
X42878Y-48942D01*
X42878Y-46990D01*
X42878Y-41084D01*
X42664Y-40514D01*
X42607Y-40429D01*
X42387Y-40303D01*
X42373Y-40317D01*
X42373Y-40289D01*
X42248Y-40069D01*
X41693Y-39818D01*
X41084Y-39798D01*
X40514Y-40012D01*
X40429Y-40069D01*
X40303Y-40289D01*
X41338Y-41324D01*
X42373Y-40289D01*
X42373Y-40317D01*
X41352Y-41338D01*
X42387Y-42373D01*
X42607Y-42248D01*
X42858Y-41693D01*
X42878Y-41084D01*
X42878Y-46990D01*
X42664Y-46419D01*
X42607Y-46334D01*
X42387Y-46209D01*
X42373Y-46223D01*
X42373Y-46195D01*
X42373Y-42387D01*
X41338Y-41352D01*
X41324Y-41366D01*
X41324Y-41338D01*
X40289Y-40303D01*
X40069Y-40429D01*
X39818Y-40983D01*
X39798Y-41592D01*
X40012Y-42162D01*
X40069Y-42248D01*
X40289Y-42373D01*
X41324Y-41338D01*
X41324Y-41366D01*
X40303Y-42387D01*
X40429Y-42607D01*
X40983Y-42858D01*
X41592Y-42878D01*
X42162Y-42664D01*
X42248Y-42607D01*
X42373Y-42387D01*
X42373Y-46195D01*
X42248Y-45975D01*
X41693Y-45723D01*
X41084Y-45703D01*
X40514Y-45918D01*
X40429Y-45975D01*
X40303Y-46195D01*
X41338Y-47229D01*
X42373Y-46195D01*
X42373Y-46223D01*
X41352Y-47244D01*
X42387Y-48278D01*
X42607Y-48153D01*
X42858Y-47598D01*
X42878Y-46990D01*
X42878Y-48942D01*
X42373Y-48942D01*
X42373Y-48293D01*
X41338Y-47258D01*
X41324Y-47272D01*
X41324Y-47244D01*
X40289Y-46209D01*
X40069Y-46334D01*
X39818Y-46889D01*
X39798Y-47498D01*
X40012Y-48068D01*
X40069Y-48153D01*
X40289Y-48278D01*
X41324Y-47244D01*
X41324Y-47272D01*
X40303Y-48293D01*
X40429Y-48512D01*
X40983Y-48764D01*
X41592Y-48784D01*
X42162Y-48569D01*
X42248Y-48512D01*
X42373Y-48293D01*
X42373Y-48942D01*
X39639Y-48942D01*
X39639Y-39639D01*
X58785Y-39639D01*
X58785Y-48942D01*
M02*
