M48
;DRILL file {kicad (2014-jan-25)-product} date Sun 13 Jul 2014 10:27:27 AM PDT
;FORMAT={2:4/ absolute / inch / suppress leading zeros}
FMAT,2
INCH,TZ
T1C0.008
T2C0.039
T3C0.040
T4C0.041
T5C0.125
%
G90
G05
M72
T1
X48425Y-42411
X48425Y-43809
X48425Y-44577
X48425Y-46368
X49213Y-42411
X49213Y-43809
X49213Y-44577
X49213Y-46368
X49606Y-42411
X49606Y-43809
X49606Y-44577
X49606Y-46368
X50394Y-42411
X50394Y-43809
X50394Y-44577
X50394Y-46368
T2
X45750Y-42300
X45750Y-46300
X47300Y-42350
X47300Y-46350
X53000Y-42250
X53000Y-46250
X54750Y-42250
X54750Y-46250
T3
X43750Y-42750
X43750Y-43750
X43750Y-44750
X43750Y-45750
X43750Y-47250
T4
X49114Y-45472
X50295Y-45472
T5
X41339Y-41339
X41339Y-47244
X57087Y-41339
X57087Y-47244
T0
M30
