M48
;DRILL file {kicad (2014-jan-25)-product} date Sat 12 Jul 2014 08:34:26 PM PDT
;FORMAT={-:-/ absolute / metric / decimal}
FMAT,2
METRIC,TZ
T1C0.200
T2C1.001
T3C1.016
T4C1.050
T5C3.175
%
G90
G05
M71
T1
X123.Y-107.725
X123.Y-111.275
X123.Y-113.225
X123.Y-117.774
X125.Y-107.725
X125.Y-111.275
X125.Y-113.225
X125.Y-117.775
X126.Y-107.725
X126.Y-111.275
X126.Y-113.225
X126.Y-117.774
X128.Y-107.725
X128.Y-111.275
X128.Y-113.225
X128.Y-117.775
T2
X116.205Y-107.442
X116.205Y-117.602
X120.142Y-107.569
X120.142Y-117.729
X134.62Y-107.315
X134.62Y-117.475
X139.065Y-107.315
X139.065Y-117.475
T3
X111.125Y-108.585
X111.125Y-111.125
X111.125Y-113.665
X111.125Y-116.205
X111.125Y-120.015
T4
X124.75Y-115.5
X127.75Y-115.5
T5
X105.Y-105.
X105.Y-120.
X145.Y-105.
X145.Y-120.
T0
M30
