%FSLAX36Y36*%
G04 Gerber Fmt 3.6, Leading zero omitted, Abs format (unit inch)*
G04 Created by KiCad (PCBNEW (2014-jul-16 BZR unknown)-product) date Sat 11 Oct 2014 11:47:49 AM PDT*
%MOIN*%
G01*
G04 APERTURE LIST*
%ADD10C,0.003937*%
%ADD11C,0.015748*%
%ADD12C,0.006000*%
%ADD13C,0.000100*%
%ADD14C,0.005906*%
%ADD15C,0.008000*%
G04 APERTURE END LIST*
D10*
D11*
X5088583Y-4311024D02*
X5059055Y-4311024D01*
X4793307Y-4311024D02*
X4822835Y-4311024D01*
X5059055Y-4547244D02*
X5088583Y-4547244D01*
X4822835Y-4547244D02*
X4793307Y-4547244D01*
D12*
X5705086Y-4529171D02*
X5705086Y-4499171D01*
X5692229Y-4529171D02*
X5692229Y-4513457D01*
X5693657Y-4510600D01*
X5696514Y-4509171D01*
X5700800Y-4509171D01*
X5703657Y-4510600D01*
X5705086Y-4512029D01*
X5665086Y-4529171D02*
X5665086Y-4513457D01*
X5666514Y-4510600D01*
X5669371Y-4509171D01*
X5675086Y-4509171D01*
X5677943Y-4510600D01*
X5665086Y-4527743D02*
X5667943Y-4529171D01*
X5675086Y-4529171D01*
X5677943Y-4527743D01*
X5679371Y-4524886D01*
X5679371Y-4522029D01*
X5677943Y-4519171D01*
X5675086Y-4517743D01*
X5667943Y-4517743D01*
X5665086Y-4516314D01*
X5650800Y-4529171D02*
X5650800Y-4509171D01*
X5650800Y-4514886D02*
X5649371Y-4512029D01*
X5647943Y-4510600D01*
X5645086Y-4509171D01*
X5642229Y-4509171D01*
X5619371Y-4529171D02*
X5619371Y-4499171D01*
X5619371Y-4527743D02*
X5622229Y-4529171D01*
X5627943Y-4529171D01*
X5630800Y-4527743D01*
X5632229Y-4526314D01*
X5633657Y-4523457D01*
X5633657Y-4514886D01*
X5632229Y-4512029D01*
X5630800Y-4510600D01*
X5627943Y-4509171D01*
X5622229Y-4509171D01*
X5619371Y-4510600D01*
X5607943Y-4509171D02*
X5602229Y-4529171D01*
X5596514Y-4514886D01*
X5590800Y-4529171D01*
X5585086Y-4509171D01*
X5560800Y-4529171D02*
X5560800Y-4513457D01*
X5562229Y-4510600D01*
X5565086Y-4509171D01*
X5570800Y-4509171D01*
X5573657Y-4510600D01*
X5560800Y-4527743D02*
X5563657Y-4529171D01*
X5570800Y-4529171D01*
X5573657Y-4527743D01*
X5575086Y-4524886D01*
X5575086Y-4522029D01*
X5573657Y-4519171D01*
X5570800Y-4517743D01*
X5563657Y-4517743D01*
X5560800Y-4516314D01*
X5546514Y-4529171D02*
X5546514Y-4509171D01*
X5546514Y-4514886D02*
X5545086Y-4512029D01*
X5543657Y-4510600D01*
X5540800Y-4509171D01*
X5537943Y-4509171D01*
X5516514Y-4527743D02*
X5519371Y-4529171D01*
X5525086Y-4529171D01*
X5527943Y-4527743D01*
X5529371Y-4524886D01*
X5529371Y-4513457D01*
X5527943Y-4510600D01*
X5525086Y-4509171D01*
X5519371Y-4509171D01*
X5516514Y-4510600D01*
X5515086Y-4513457D01*
X5515086Y-4516314D01*
X5529371Y-4519171D01*
X5727857Y-4488571D02*
X5730714Y-4487143D01*
X5732143Y-4485714D01*
X5733571Y-4482857D01*
X5733571Y-4474286D01*
X5732143Y-4471429D01*
X5730714Y-4470000D01*
X5727857Y-4468571D01*
X5723571Y-4468571D01*
X5720714Y-4470000D01*
X5719286Y-4471429D01*
X5717857Y-4474286D01*
X5717857Y-4482857D01*
X5719286Y-4485714D01*
X5720714Y-4487143D01*
X5723571Y-4488571D01*
X5727857Y-4488571D01*
X5705000Y-4468571D02*
X5705000Y-4498571D01*
X5705000Y-4470000D02*
X5702143Y-4468571D01*
X5696429Y-4468571D01*
X5693571Y-4470000D01*
X5692143Y-4471429D01*
X5690714Y-4474286D01*
X5690714Y-4482857D01*
X5692143Y-4485714D01*
X5693571Y-4487143D01*
X5696429Y-4488571D01*
X5702143Y-4488571D01*
X5705000Y-4487143D01*
X5666429Y-4487143D02*
X5669286Y-4488571D01*
X5675000Y-4488571D01*
X5677857Y-4487143D01*
X5679286Y-4484286D01*
X5679286Y-4472857D01*
X5677857Y-4470000D01*
X5675000Y-4468571D01*
X5669286Y-4468571D01*
X5666429Y-4470000D01*
X5665000Y-4472857D01*
X5665000Y-4475714D01*
X5679286Y-4478571D01*
X5652143Y-4468571D02*
X5652143Y-4488571D01*
X5652143Y-4471429D02*
X5650714Y-4470000D01*
X5647857Y-4468571D01*
X5643571Y-4468571D01*
X5640714Y-4470000D01*
X5639286Y-4472857D01*
X5639286Y-4488571D01*
X5603571Y-4487143D02*
X5600714Y-4488571D01*
X5595000Y-4488571D01*
X5592143Y-4487143D01*
X5590714Y-4484286D01*
X5590714Y-4482857D01*
X5592143Y-4480000D01*
X5595000Y-4478571D01*
X5599286Y-4478571D01*
X5602143Y-4477143D01*
X5603571Y-4474286D01*
X5603571Y-4472857D01*
X5602143Y-4470000D01*
X5599286Y-4468571D01*
X5595000Y-4468571D01*
X5592143Y-4470000D01*
X5573571Y-4488571D02*
X5576429Y-4487143D01*
X5577857Y-4485714D01*
X5579286Y-4482857D01*
X5579286Y-4474286D01*
X5577857Y-4471429D01*
X5576429Y-4470000D01*
X5573571Y-4468571D01*
X5569286Y-4468571D01*
X5566429Y-4470000D01*
X5565000Y-4471429D01*
X5563571Y-4474286D01*
X5563571Y-4482857D01*
X5565000Y-4485714D01*
X5566429Y-4487143D01*
X5569286Y-4488571D01*
X5573571Y-4488571D01*
X5537857Y-4468571D02*
X5537857Y-4488571D01*
X5550714Y-4468571D02*
X5550714Y-4484286D01*
X5549286Y-4487143D01*
X5546429Y-4488571D01*
X5542143Y-4488571D01*
X5539286Y-4487143D01*
X5537857Y-4485714D01*
X5523571Y-4488571D02*
X5523571Y-4468571D01*
X5523571Y-4474286D02*
X5522143Y-4471429D01*
X5520714Y-4470000D01*
X5517857Y-4468571D01*
X5515000Y-4468571D01*
X5492143Y-4487143D02*
X5495000Y-4488571D01*
X5500714Y-4488571D01*
X5503571Y-4487143D01*
X5505000Y-4485714D01*
X5506429Y-4482857D01*
X5506429Y-4474286D01*
X5505000Y-4471429D01*
X5503571Y-4470000D01*
X5500714Y-4468571D01*
X5495000Y-4468571D01*
X5492143Y-4470000D01*
X5467857Y-4487143D02*
X5470714Y-4488571D01*
X5476429Y-4488571D01*
X5479286Y-4487143D01*
X5480714Y-4484286D01*
X5480714Y-4472857D01*
X5479286Y-4470000D01*
X5476429Y-4468571D01*
X5470714Y-4468571D01*
X5467857Y-4470000D01*
X5466429Y-4472857D01*
X5466429Y-4475714D01*
X5480714Y-4478571D01*
D13*
G36*
X5539400Y-4439800D02*
X5540500Y-4439300D01*
X5542800Y-4437800D01*
X5546100Y-4435600D01*
X5550100Y-4432900D01*
X5554000Y-4430300D01*
X5557300Y-4428100D01*
X5559600Y-4426600D01*
X5560500Y-4426100D01*
X5561000Y-4426300D01*
X5562900Y-4427200D01*
X5565700Y-4428600D01*
X5567200Y-4429400D01*
X5569800Y-4430500D01*
X5571000Y-4430700D01*
X5571200Y-4430400D01*
X5572100Y-4428500D01*
X5573600Y-4425200D01*
X5575500Y-4420900D01*
X5577600Y-4415800D01*
X5579900Y-4410300D01*
X5582300Y-4404700D01*
X5584500Y-4399400D01*
X5586400Y-4394600D01*
X5588000Y-4390700D01*
X5589000Y-4388000D01*
X5589400Y-4386800D01*
X5589300Y-4386600D01*
X5588000Y-4385400D01*
X5585800Y-4383700D01*
X5581100Y-4379900D01*
X5576400Y-4374100D01*
X5573600Y-4367400D01*
X5572700Y-4360100D01*
X5573500Y-4353300D01*
X5576100Y-4346800D01*
X5580700Y-4340900D01*
X5586300Y-4336500D01*
X5592700Y-4333700D01*
X5600000Y-4332800D01*
X5606900Y-4333600D01*
X5613600Y-4336200D01*
X5619500Y-4340700D01*
X5622000Y-4343600D01*
X5625500Y-4349600D01*
X5627400Y-4355900D01*
X5627600Y-4357600D01*
X5627300Y-4364600D01*
X5625300Y-4371300D01*
X5621500Y-4377300D01*
X5616400Y-4382300D01*
X5615800Y-4382700D01*
X5613400Y-4384500D01*
X5611800Y-4385700D01*
X5610500Y-4386800D01*
X5619500Y-4408300D01*
X5620900Y-4411700D01*
X5623300Y-4417600D01*
X5625500Y-4422700D01*
X5627200Y-4426700D01*
X5628400Y-4429400D01*
X5628900Y-4430500D01*
X5629000Y-4430500D01*
X5629800Y-4430700D01*
X5631400Y-4430100D01*
X5634400Y-4428600D01*
X5636400Y-4427600D01*
X5638700Y-4426500D01*
X5639700Y-4426100D01*
X5640600Y-4426600D01*
X5642800Y-4428000D01*
X5646000Y-4430100D01*
X5649900Y-4432700D01*
X5653500Y-4435200D01*
X5656900Y-4437500D01*
X5659400Y-4439000D01*
X5660500Y-4439700D01*
X5660700Y-4439700D01*
X5661800Y-4439100D01*
X5663700Y-4437500D01*
X5666700Y-4434700D01*
X5670800Y-4430600D01*
X5671400Y-4430000D01*
X5674800Y-4426500D01*
X5677600Y-4423600D01*
X5679500Y-4421500D01*
X5680100Y-4420600D01*
X5680100Y-4420600D01*
X5679500Y-4419400D01*
X5678000Y-4417000D01*
X5675700Y-4413500D01*
X5673000Y-4409500D01*
X5665900Y-4399200D01*
X5669800Y-4389400D01*
X5671000Y-4386400D01*
X5672500Y-4382800D01*
X5673700Y-4380200D01*
X5674300Y-4379100D01*
X5675300Y-4378700D01*
X5678000Y-4378000D01*
X5681900Y-4377200D01*
X5686500Y-4376400D01*
X5690900Y-4375600D01*
X5694900Y-4374800D01*
X5697800Y-4374300D01*
X5699100Y-4374000D01*
X5699400Y-4373800D01*
X5699600Y-4373200D01*
X5699800Y-4371800D01*
X5699900Y-4369400D01*
X5699900Y-4365600D01*
X5699900Y-4360100D01*
X5699900Y-4359500D01*
X5699900Y-4354200D01*
X5699800Y-4350000D01*
X5699700Y-4347400D01*
X5699500Y-4346300D01*
X5699500Y-4346300D01*
X5698200Y-4346000D01*
X5695400Y-4345400D01*
X5691400Y-4344600D01*
X5686700Y-4343700D01*
X5686400Y-4343600D01*
X5681700Y-4342700D01*
X5677700Y-4341900D01*
X5674900Y-4341200D01*
X5673700Y-4340900D01*
X5673500Y-4340500D01*
X5672500Y-4338700D01*
X5671200Y-4335800D01*
X5669600Y-4332200D01*
X5668100Y-4328500D01*
X5666700Y-4325100D01*
X5665800Y-4322600D01*
X5665600Y-4321500D01*
X5665600Y-4321500D01*
X5666300Y-4320300D01*
X5667900Y-4317900D01*
X5670200Y-4314500D01*
X5673000Y-4310500D01*
X5673200Y-4310200D01*
X5675900Y-4306200D01*
X5678100Y-4302800D01*
X5679600Y-4300400D01*
X5680100Y-4299300D01*
X5680100Y-4299200D01*
X5679200Y-4298000D01*
X5677200Y-4295800D01*
X5674300Y-4292700D01*
X5670800Y-4289200D01*
X5669700Y-4288100D01*
X5665800Y-4284300D01*
X5663100Y-4281800D01*
X5661400Y-4280500D01*
X5660600Y-4280200D01*
X5660600Y-4280200D01*
X5659400Y-4280900D01*
X5656800Y-4282600D01*
X5653400Y-4284900D01*
X5649400Y-4287700D01*
X5649100Y-4287900D01*
X5645100Y-4290600D01*
X5641700Y-4292800D01*
X5639400Y-4294400D01*
X5638300Y-4295000D01*
X5638200Y-4295000D01*
X5636500Y-4294500D01*
X5633700Y-4293500D01*
X5630200Y-4292200D01*
X5626500Y-4290700D01*
X5623100Y-4289300D01*
X5620600Y-4288100D01*
X5619400Y-4287500D01*
X5619400Y-4287400D01*
X5619000Y-4286000D01*
X5618300Y-4283000D01*
X5617400Y-4278900D01*
X5616500Y-4274000D01*
X5616400Y-4273200D01*
X5615500Y-4268400D01*
X5614700Y-4264500D01*
X5614100Y-4261800D01*
X5613900Y-4260600D01*
X5613200Y-4260500D01*
X5610800Y-4260300D01*
X5607300Y-4260200D01*
X5603000Y-4260200D01*
X5598500Y-4260200D01*
X5594100Y-4260300D01*
X5590300Y-4260400D01*
X5587600Y-4260600D01*
X5586500Y-4260800D01*
X5586500Y-4260900D01*
X5586000Y-4262400D01*
X5585400Y-4265400D01*
X5584500Y-4269500D01*
X5583600Y-4274400D01*
X5583400Y-4275300D01*
X5582500Y-4280000D01*
X5581700Y-4283900D01*
X5581200Y-4286600D01*
X5580900Y-4287700D01*
X5580400Y-4287900D01*
X5578500Y-4288800D01*
X5575300Y-4290100D01*
X5571300Y-4291700D01*
X5562200Y-4295400D01*
X5551000Y-4287700D01*
X5549900Y-4287000D01*
X5545900Y-4284200D01*
X5542600Y-4282000D01*
X5540300Y-4280500D01*
X5539300Y-4280000D01*
X5539200Y-4280000D01*
X5538100Y-4281000D01*
X5535900Y-4283100D01*
X5532900Y-4286100D01*
X5529300Y-4289600D01*
X5526700Y-4292200D01*
X5523600Y-4295300D01*
X5521700Y-4297500D01*
X5520600Y-4298800D01*
X5520200Y-4299600D01*
X5520300Y-4300200D01*
X5521000Y-4301300D01*
X5522700Y-4303800D01*
X5525000Y-4307200D01*
X5527700Y-4311200D01*
X5530000Y-4314500D01*
X5532400Y-4318300D01*
X5534000Y-4321000D01*
X5534500Y-4322300D01*
X5534400Y-4322800D01*
X5533600Y-4325000D01*
X5532300Y-4328300D01*
X5530600Y-4332300D01*
X5526700Y-4341200D01*
X5520900Y-4342300D01*
X5517300Y-4343000D01*
X5512400Y-4343900D01*
X5507700Y-4344800D01*
X5500300Y-4346300D01*
X5500000Y-4373300D01*
X5501200Y-4373800D01*
X5502300Y-4374100D01*
X5505000Y-4374700D01*
X5508900Y-4375500D01*
X5513500Y-4376300D01*
X5517400Y-4377100D01*
X5521400Y-4377800D01*
X5524200Y-4378400D01*
X5525500Y-4378600D01*
X5525800Y-4379100D01*
X5526800Y-4381000D01*
X5528200Y-4384000D01*
X5529800Y-4387700D01*
X5531300Y-4391500D01*
X5532700Y-4395000D01*
X5533700Y-4397600D01*
X5534100Y-4399000D01*
X5533500Y-4400100D01*
X5532000Y-4402400D01*
X5529800Y-4405700D01*
X5527200Y-4409600D01*
X5524500Y-4413500D01*
X5522200Y-4416900D01*
X5520600Y-4419300D01*
X5520000Y-4420400D01*
X5520300Y-4421200D01*
X5521900Y-4423100D01*
X5524800Y-4426100D01*
X5529200Y-4430500D01*
X5530000Y-4431200D01*
X5533500Y-4434600D01*
X5536400Y-4437300D01*
X5538500Y-4439100D01*
X5539400Y-4439800D01*
X5539400Y-4439800D01*
G37*
X5539400Y-4439800D02*
X5540500Y-4439300D01*
X5542800Y-4437800D01*
X5546100Y-4435600D01*
X5550100Y-4432900D01*
X5554000Y-4430300D01*
X5557300Y-4428100D01*
X5559600Y-4426600D01*
X5560500Y-4426100D01*
X5561000Y-4426300D01*
X5562900Y-4427200D01*
X5565700Y-4428600D01*
X5567200Y-4429400D01*
X5569800Y-4430500D01*
X5571000Y-4430700D01*
X5571200Y-4430400D01*
X5572100Y-4428500D01*
X5573600Y-4425200D01*
X5575500Y-4420900D01*
X5577600Y-4415800D01*
X5579900Y-4410300D01*
X5582300Y-4404700D01*
X5584500Y-4399400D01*
X5586400Y-4394600D01*
X5588000Y-4390700D01*
X5589000Y-4388000D01*
X5589400Y-4386800D01*
X5589300Y-4386600D01*
X5588000Y-4385400D01*
X5585800Y-4383700D01*
X5581100Y-4379900D01*
X5576400Y-4374100D01*
X5573600Y-4367400D01*
X5572700Y-4360100D01*
X5573500Y-4353300D01*
X5576100Y-4346800D01*
X5580700Y-4340900D01*
X5586300Y-4336500D01*
X5592700Y-4333700D01*
X5600000Y-4332800D01*
X5606900Y-4333600D01*
X5613600Y-4336200D01*
X5619500Y-4340700D01*
X5622000Y-4343600D01*
X5625500Y-4349600D01*
X5627400Y-4355900D01*
X5627600Y-4357600D01*
X5627300Y-4364600D01*
X5625300Y-4371300D01*
X5621500Y-4377300D01*
X5616400Y-4382300D01*
X5615800Y-4382700D01*
X5613400Y-4384500D01*
X5611800Y-4385700D01*
X5610500Y-4386800D01*
X5619500Y-4408300D01*
X5620900Y-4411700D01*
X5623300Y-4417600D01*
X5625500Y-4422700D01*
X5627200Y-4426700D01*
X5628400Y-4429400D01*
X5628900Y-4430500D01*
X5629000Y-4430500D01*
X5629800Y-4430700D01*
X5631400Y-4430100D01*
X5634400Y-4428600D01*
X5636400Y-4427600D01*
X5638700Y-4426500D01*
X5639700Y-4426100D01*
X5640600Y-4426600D01*
X5642800Y-4428000D01*
X5646000Y-4430100D01*
X5649900Y-4432700D01*
X5653500Y-4435200D01*
X5656900Y-4437500D01*
X5659400Y-4439000D01*
X5660500Y-4439700D01*
X5660700Y-4439700D01*
X5661800Y-4439100D01*
X5663700Y-4437500D01*
X5666700Y-4434700D01*
X5670800Y-4430600D01*
X5671400Y-4430000D01*
X5674800Y-4426500D01*
X5677600Y-4423600D01*
X5679500Y-4421500D01*
X5680100Y-4420600D01*
X5680100Y-4420600D01*
X5679500Y-4419400D01*
X5678000Y-4417000D01*
X5675700Y-4413500D01*
X5673000Y-4409500D01*
X5665900Y-4399200D01*
X5669800Y-4389400D01*
X5671000Y-4386400D01*
X5672500Y-4382800D01*
X5673700Y-4380200D01*
X5674300Y-4379100D01*
X5675300Y-4378700D01*
X5678000Y-4378000D01*
X5681900Y-4377200D01*
X5686500Y-4376400D01*
X5690900Y-4375600D01*
X5694900Y-4374800D01*
X5697800Y-4374300D01*
X5699100Y-4374000D01*
X5699400Y-4373800D01*
X5699600Y-4373200D01*
X5699800Y-4371800D01*
X5699900Y-4369400D01*
X5699900Y-4365600D01*
X5699900Y-4360100D01*
X5699900Y-4359500D01*
X5699900Y-4354200D01*
X5699800Y-4350000D01*
X5699700Y-4347400D01*
X5699500Y-4346300D01*
X5699500Y-4346300D01*
X5698200Y-4346000D01*
X5695400Y-4345400D01*
X5691400Y-4344600D01*
X5686700Y-4343700D01*
X5686400Y-4343600D01*
X5681700Y-4342700D01*
X5677700Y-4341900D01*
X5674900Y-4341200D01*
X5673700Y-4340900D01*
X5673500Y-4340500D01*
X5672500Y-4338700D01*
X5671200Y-4335800D01*
X5669600Y-4332200D01*
X5668100Y-4328500D01*
X5666700Y-4325100D01*
X5665800Y-4322600D01*
X5665600Y-4321500D01*
X5665600Y-4321500D01*
X5666300Y-4320300D01*
X5667900Y-4317900D01*
X5670200Y-4314500D01*
X5673000Y-4310500D01*
X5673200Y-4310200D01*
X5675900Y-4306200D01*
X5678100Y-4302800D01*
X5679600Y-4300400D01*
X5680100Y-4299300D01*
X5680100Y-4299200D01*
X5679200Y-4298000D01*
X5677200Y-4295800D01*
X5674300Y-4292700D01*
X5670800Y-4289200D01*
X5669700Y-4288100D01*
X5665800Y-4284300D01*
X5663100Y-4281800D01*
X5661400Y-4280500D01*
X5660600Y-4280200D01*
X5660600Y-4280200D01*
X5659400Y-4280900D01*
X5656800Y-4282600D01*
X5653400Y-4284900D01*
X5649400Y-4287700D01*
X5649100Y-4287900D01*
X5645100Y-4290600D01*
X5641700Y-4292800D01*
X5639400Y-4294400D01*
X5638300Y-4295000D01*
X5638200Y-4295000D01*
X5636500Y-4294500D01*
X5633700Y-4293500D01*
X5630200Y-4292200D01*
X5626500Y-4290700D01*
X5623100Y-4289300D01*
X5620600Y-4288100D01*
X5619400Y-4287500D01*
X5619400Y-4287400D01*
X5619000Y-4286000D01*
X5618300Y-4283000D01*
X5617400Y-4278900D01*
X5616500Y-4274000D01*
X5616400Y-4273200D01*
X5615500Y-4268400D01*
X5614700Y-4264500D01*
X5614100Y-4261800D01*
X5613900Y-4260600D01*
X5613200Y-4260500D01*
X5610800Y-4260300D01*
X5607300Y-4260200D01*
X5603000Y-4260200D01*
X5598500Y-4260200D01*
X5594100Y-4260300D01*
X5590300Y-4260400D01*
X5587600Y-4260600D01*
X5586500Y-4260800D01*
X5586500Y-4260900D01*
X5586000Y-4262400D01*
X5585400Y-4265400D01*
X5584500Y-4269500D01*
X5583600Y-4274400D01*
X5583400Y-4275300D01*
X5582500Y-4280000D01*
X5581700Y-4283900D01*
X5581200Y-4286600D01*
X5580900Y-4287700D01*
X5580400Y-4287900D01*
X5578500Y-4288800D01*
X5575300Y-4290100D01*
X5571300Y-4291700D01*
X5562200Y-4295400D01*
X5551000Y-4287700D01*
X5549900Y-4287000D01*
X5545900Y-4284200D01*
X5542600Y-4282000D01*
X5540300Y-4280500D01*
X5539300Y-4280000D01*
X5539200Y-4280000D01*
X5538100Y-4281000D01*
X5535900Y-4283100D01*
X5532900Y-4286100D01*
X5529300Y-4289600D01*
X5526700Y-4292200D01*
X5523600Y-4295300D01*
X5521700Y-4297500D01*
X5520600Y-4298800D01*
X5520200Y-4299600D01*
X5520300Y-4300200D01*
X5521000Y-4301300D01*
X5522700Y-4303800D01*
X5525000Y-4307200D01*
X5527700Y-4311200D01*
X5530000Y-4314500D01*
X5532400Y-4318300D01*
X5534000Y-4321000D01*
X5534500Y-4322300D01*
X5534400Y-4322800D01*
X5533600Y-4325000D01*
X5532300Y-4328300D01*
X5530600Y-4332300D01*
X5526700Y-4341200D01*
X5520900Y-4342300D01*
X5517300Y-4343000D01*
X5512400Y-4343900D01*
X5507700Y-4344800D01*
X5500300Y-4346300D01*
X5500000Y-4373300D01*
X5501200Y-4373800D01*
X5502300Y-4374100D01*
X5505000Y-4374700D01*
X5508900Y-4375500D01*
X5513500Y-4376300D01*
X5517400Y-4377100D01*
X5521400Y-4377800D01*
X5524200Y-4378400D01*
X5525500Y-4378600D01*
X5525800Y-4379100D01*
X5526800Y-4381000D01*
X5528200Y-4384000D01*
X5529800Y-4387700D01*
X5531300Y-4391500D01*
X5532700Y-4395000D01*
X5533700Y-4397600D01*
X5534100Y-4399000D01*
X5533500Y-4400100D01*
X5532000Y-4402400D01*
X5529800Y-4405700D01*
X5527200Y-4409600D01*
X5524500Y-4413500D01*
X5522200Y-4416900D01*
X5520600Y-4419300D01*
X5520000Y-4420400D01*
X5520300Y-4421200D01*
X5521900Y-4423100D01*
X5524800Y-4426100D01*
X5529200Y-4430500D01*
X5530000Y-4431200D01*
X5533500Y-4434600D01*
X5536400Y-4437300D01*
X5538500Y-4439100D01*
X5539400Y-4439800D01*
D14*
X4820866Y-4437008D02*
X4820866Y-4657480D01*
X4820866Y-4657480D02*
X4923228Y-4657480D01*
X4923228Y-4657480D02*
X4923228Y-4437008D01*
X4923228Y-4437008D02*
X4820866Y-4437008D01*
X4958661Y-4437008D02*
X4958661Y-4657480D01*
X4958661Y-4657480D02*
X5061024Y-4657480D01*
X5061024Y-4657480D02*
X5061024Y-4437008D01*
X5061024Y-4437008D02*
X4958661Y-4437008D01*
X4923228Y-4401575D02*
X4923228Y-4220472D01*
X4923228Y-4220472D02*
X4820866Y-4220472D01*
X4820866Y-4220472D02*
X4820866Y-4401575D01*
X4820866Y-4401575D02*
X4923228Y-4401575D01*
X5061024Y-4401575D02*
X5061024Y-4220472D01*
X5061024Y-4220472D02*
X4958661Y-4220472D01*
X4958661Y-4220472D02*
X4958661Y-4401575D01*
X4958661Y-4401575D02*
X5061024Y-4401575D01*
D15*
X4760476Y-4523095D02*
X4760476Y-4555476D01*
X4758571Y-4559286D01*
X4756667Y-4561190D01*
X4752857Y-4563095D01*
X4745238Y-4563095D01*
X4741429Y-4561190D01*
X4739524Y-4559286D01*
X4737619Y-4555476D01*
X4737619Y-4523095D01*
X4697619Y-4563095D02*
X4720476Y-4563095D01*
X4709048Y-4563095D02*
X4709048Y-4523095D01*
X4712857Y-4528810D01*
X4716667Y-4532619D01*
X4720476Y-4534524D01*
X4818571Y-4718095D02*
X4841429Y-4718095D01*
X4830000Y-4718095D02*
X4830000Y-4678095D01*
X4833809Y-4683810D01*
X4837619Y-4687619D01*
X4841429Y-4689524D01*
X5175476Y-4523095D02*
X5175476Y-4555476D01*
X5173571Y-4559286D01*
X5171667Y-4561190D01*
X5167857Y-4563095D01*
X5160238Y-4563095D01*
X5156429Y-4561190D01*
X5154524Y-4559286D01*
X5152619Y-4555476D01*
X5152619Y-4523095D01*
X5135476Y-4526905D02*
X5133571Y-4525000D01*
X5129762Y-4523095D01*
X5120238Y-4523095D01*
X5116429Y-4525000D01*
X5114524Y-4526905D01*
X5112619Y-4530714D01*
X5112619Y-4534524D01*
X5114524Y-4540238D01*
X5137381Y-4563095D01*
X5112619Y-4563095D01*
X4958571Y-4718095D02*
X4981429Y-4718095D01*
X4970000Y-4718095D02*
X4970000Y-4678095D01*
X4973809Y-4683810D01*
X4977619Y-4687619D01*
X4981429Y-4689524D01*
X4760476Y-4293095D02*
X4760476Y-4325476D01*
X4758571Y-4329286D01*
X4756667Y-4331190D01*
X4752857Y-4333095D01*
X4745238Y-4333095D01*
X4741429Y-4331190D01*
X4739524Y-4329286D01*
X4737619Y-4325476D01*
X4737619Y-4293095D01*
X4722381Y-4293095D02*
X4697619Y-4293095D01*
X4710952Y-4308333D01*
X4705238Y-4308333D01*
X4701429Y-4310238D01*
X4699524Y-4312143D01*
X4697619Y-4315952D01*
X4697619Y-4325476D01*
X4699524Y-4329286D01*
X4701429Y-4331190D01*
X4705238Y-4333095D01*
X4716667Y-4333095D01*
X4720476Y-4331190D01*
X4722381Y-4329286D01*
X4903571Y-4198095D02*
X4926429Y-4198095D01*
X4915000Y-4198095D02*
X4915000Y-4158095D01*
X4918809Y-4163810D01*
X4922619Y-4167619D01*
X4926429Y-4169524D01*
X5175476Y-4288095D02*
X5175476Y-4320476D01*
X5173571Y-4324286D01*
X5171667Y-4326190D01*
X5167857Y-4328095D01*
X5160238Y-4328095D01*
X5156429Y-4326190D01*
X5154524Y-4324286D01*
X5152619Y-4320476D01*
X5152619Y-4288095D01*
X5116429Y-4301429D02*
X5116429Y-4328095D01*
X5125952Y-4286190D02*
X5135476Y-4314762D01*
X5110714Y-4314762D01*
X5038571Y-4198095D02*
X5061429Y-4198095D01*
X5050000Y-4198095D02*
X5050000Y-4158095D01*
X5053809Y-4163810D01*
X5057619Y-4167619D01*
X5061429Y-4169524D01*
M02*
