%FSLAX34Y34*%
G04 Gerber Fmt 3.4, Leading zero omitted, Abs format*
G04 (created by PCBNEW (2014-jan-25)-product) date Tue 29 Jul 2014 09:42:42 AM PDT*
%MOIN*%
G01*
G70*
G90*
G04 APERTURE LIST*
%ADD10C,0.003937*%
%ADD11C,0.236220*%
%ADD12R,0.068000X0.068000*%
%ADD13O,0.068000X0.068000*%
%ADD14C,0.078700*%
%ADD15R,0.088000X0.088000*%
%ADD16C,0.039370*%
%ADD17C,0.041339*%
%ADD18C,0.010000*%
%ADD19C,0.040000*%
G04 APERTURE END LIST*
G54D10*
G54D11*
X41338Y-41338D03*
X57086Y-41338D03*
X41338Y-47244D03*
X57086Y-47244D03*
G54D12*
X43750Y-45750D03*
G54D13*
X43750Y-44750D03*
X43750Y-43750D03*
X43750Y-42750D03*
G54D14*
X53000Y-46250D03*
X53000Y-42250D03*
X45750Y-42300D03*
X45750Y-46300D03*
X54750Y-46250D03*
X54750Y-42250D03*
X47300Y-46350D03*
X47300Y-42350D03*
G54D15*
X43750Y-47250D03*
G54D16*
X49704Y-46367D03*
X50492Y-46368D03*
X49704Y-44576D03*
X50492Y-44576D03*
G54D17*
X50393Y-45472D03*
G54D16*
X48326Y-46367D03*
X49114Y-46368D03*
X48326Y-44576D03*
X49114Y-44576D03*
G54D17*
X49015Y-45472D03*
G54D16*
X50492Y-42411D03*
X49704Y-42411D03*
X50492Y-43809D03*
X49704Y-43809D03*
X49114Y-42411D03*
X48326Y-42411D03*
X49114Y-43809D03*
X48326Y-43809D03*
G54D18*
X54750Y-46250D02*
X53250Y-47750D01*
X48326Y-46876D02*
X48326Y-46367D01*
X49200Y-47750D02*
X48326Y-46876D01*
X53250Y-47750D02*
X49200Y-47750D01*
G54D19*
X43750Y-45750D02*
X44500Y-45750D01*
X43750Y-45750D02*
X43750Y-47250D01*
X43750Y-47250D02*
X44500Y-47250D01*
G54D18*
X49704Y-46367D02*
X50437Y-47100D01*
X50437Y-47100D02*
X51050Y-47100D01*
X50393Y-42411D02*
X51350Y-43367D01*
X51350Y-43367D02*
X51350Y-46800D01*
X51350Y-46800D02*
X51050Y-47100D01*
G36*
X58785Y-48942D02*
X58626Y-48942D01*
X58626Y-46990D01*
X58626Y-41084D01*
X58412Y-40514D01*
X58355Y-40429D01*
X58135Y-40303D01*
X58121Y-40317D01*
X58121Y-40289D01*
X57996Y-40069D01*
X57441Y-39818D01*
X56832Y-39798D01*
X56262Y-40012D01*
X56177Y-40069D01*
X56051Y-40289D01*
X57086Y-41324D01*
X58121Y-40289D01*
X58121Y-40317D01*
X57100Y-41338D01*
X58135Y-42373D01*
X58355Y-42248D01*
X58606Y-41693D01*
X58626Y-41084D01*
X58626Y-46990D01*
X58412Y-46419D01*
X58355Y-46334D01*
X58135Y-46209D01*
X58121Y-46223D01*
X58121Y-46195D01*
X58121Y-42387D01*
X57086Y-41352D01*
X57072Y-41366D01*
X57072Y-41338D01*
X56037Y-40303D01*
X55817Y-40429D01*
X55566Y-40983D01*
X55546Y-41592D01*
X55760Y-42162D01*
X55817Y-42248D01*
X56037Y-42373D01*
X57072Y-41338D01*
X57072Y-41366D01*
X56051Y-42387D01*
X56177Y-42607D01*
X56731Y-42858D01*
X57340Y-42878D01*
X57910Y-42664D01*
X57996Y-42607D01*
X58121Y-42387D01*
X58121Y-46195D01*
X57996Y-45975D01*
X57441Y-45723D01*
X56832Y-45703D01*
X56262Y-45918D01*
X56177Y-45975D01*
X56051Y-46195D01*
X57086Y-47229D01*
X58121Y-46195D01*
X58121Y-46223D01*
X57100Y-47244D01*
X58135Y-48278D01*
X58355Y-48153D01*
X58606Y-47598D01*
X58626Y-46990D01*
X58626Y-48942D01*
X58121Y-48942D01*
X58121Y-48293D01*
X57086Y-47258D01*
X57072Y-47272D01*
X57072Y-47244D01*
X56037Y-46209D01*
X55817Y-46334D01*
X55566Y-46889D01*
X55546Y-47498D01*
X55760Y-48068D01*
X55817Y-48153D01*
X56037Y-48278D01*
X57072Y-47244D01*
X57072Y-47272D01*
X56051Y-48293D01*
X56177Y-48512D01*
X56731Y-48764D01*
X57340Y-48784D01*
X57910Y-48569D01*
X57996Y-48512D01*
X58121Y-48293D01*
X58121Y-48942D01*
X55393Y-48942D01*
X55393Y-46122D01*
X55393Y-42122D01*
X55295Y-41885D01*
X55114Y-41704D01*
X54878Y-41606D01*
X54622Y-41606D01*
X54385Y-41704D01*
X54204Y-41885D01*
X54106Y-42121D01*
X54106Y-42377D01*
X54204Y-42614D01*
X54385Y-42795D01*
X54621Y-42893D01*
X54877Y-42893D01*
X55114Y-42795D01*
X55295Y-42614D01*
X55393Y-42378D01*
X55393Y-42122D01*
X55393Y-46122D01*
X55295Y-45885D01*
X55114Y-45704D01*
X54878Y-45606D01*
X54622Y-45606D01*
X54385Y-45704D01*
X54204Y-45885D01*
X54106Y-46121D01*
X54106Y-46377D01*
X54133Y-46442D01*
X53643Y-46932D01*
X53643Y-46122D01*
X53643Y-42122D01*
X53545Y-41885D01*
X53364Y-41704D01*
X53128Y-41606D01*
X52872Y-41606D01*
X52635Y-41704D01*
X52454Y-41885D01*
X52356Y-42121D01*
X52356Y-42377D01*
X52454Y-42614D01*
X52635Y-42795D01*
X52871Y-42893D01*
X53127Y-42893D01*
X53364Y-42795D01*
X53545Y-42614D01*
X53643Y-42378D01*
X53643Y-42122D01*
X53643Y-46122D01*
X53545Y-45885D01*
X53364Y-45704D01*
X53128Y-45606D01*
X52872Y-45606D01*
X52635Y-45704D01*
X52454Y-45885D01*
X52356Y-46121D01*
X52356Y-46377D01*
X52454Y-46614D01*
X52635Y-46795D01*
X52871Y-46893D01*
X53127Y-46893D01*
X53364Y-46795D01*
X53545Y-46614D01*
X53643Y-46378D01*
X53643Y-46122D01*
X53643Y-46932D01*
X53125Y-47450D01*
X51650Y-47450D01*
X51650Y-46800D01*
X51650Y-43367D01*
X51627Y-43252D01*
X51627Y-43252D01*
X51601Y-43213D01*
X51562Y-43155D01*
X50929Y-42523D01*
X50938Y-42500D01*
X50939Y-42322D01*
X50871Y-42158D01*
X50745Y-42032D01*
X50581Y-41964D01*
X50403Y-41964D01*
X50239Y-42032D01*
X50168Y-42102D01*
X50161Y-42091D01*
X50044Y-42086D01*
X49718Y-42411D01*
X50044Y-42736D01*
X50161Y-42731D01*
X50167Y-42718D01*
X50238Y-42790D01*
X50402Y-42858D01*
X50416Y-42858D01*
X51050Y-43491D01*
X51050Y-46675D01*
X51041Y-46684D01*
X51041Y-46271D01*
X51041Y-44479D01*
X50962Y-44276D01*
X50949Y-44257D01*
X50939Y-44256D01*
X50939Y-43720D01*
X50871Y-43556D01*
X50745Y-43430D01*
X50581Y-43362D01*
X50403Y-43362D01*
X50239Y-43430D01*
X50168Y-43500D01*
X50161Y-43489D01*
X50044Y-43483D01*
X49718Y-43809D01*
X50044Y-44134D01*
X50161Y-44128D01*
X50167Y-44116D01*
X50172Y-44121D01*
X50166Y-44237D01*
X50492Y-44562D01*
X50817Y-44237D01*
X50811Y-44121D01*
X50870Y-44062D01*
X50938Y-43898D01*
X50939Y-43720D01*
X50939Y-44256D01*
X50831Y-44251D01*
X50506Y-44576D01*
X50831Y-44902D01*
X50949Y-44896D01*
X51036Y-44697D01*
X51041Y-44479D01*
X51041Y-46271D01*
X50962Y-46068D01*
X50949Y-46048D01*
X50850Y-46043D01*
X50850Y-45381D01*
X50781Y-45214D01*
X50663Y-45096D01*
X50791Y-45046D01*
X50811Y-45033D01*
X50817Y-44916D01*
X50492Y-44590D01*
X50166Y-44916D01*
X50172Y-45033D01*
X50214Y-45052D01*
X50135Y-45085D01*
X50006Y-45213D01*
X49937Y-45381D01*
X49936Y-45562D01*
X50006Y-45730D01*
X50134Y-45859D01*
X50210Y-45890D01*
X50192Y-45898D01*
X50172Y-45911D01*
X50166Y-46028D01*
X50492Y-46353D01*
X50817Y-46028D01*
X50811Y-45911D01*
X50665Y-45846D01*
X50780Y-45731D01*
X50850Y-45563D01*
X50850Y-45381D01*
X50850Y-46043D01*
X50831Y-46042D01*
X50506Y-46368D01*
X50831Y-46693D01*
X50949Y-46687D01*
X51036Y-46488D01*
X51041Y-46271D01*
X51041Y-46684D01*
X50925Y-46800D01*
X50812Y-46800D01*
X50817Y-46707D01*
X50492Y-46382D01*
X50486Y-46387D01*
X50472Y-46373D01*
X50477Y-46368D01*
X50152Y-46042D01*
X50035Y-46048D01*
X50029Y-46060D01*
X49958Y-45989D01*
X49793Y-45920D01*
X49616Y-45920D01*
X49501Y-45968D01*
X49500Y-45967D01*
X49498Y-45969D01*
X49451Y-45988D01*
X49438Y-46002D01*
X49433Y-45911D01*
X49287Y-45846D01*
X49402Y-45731D01*
X49472Y-45563D01*
X49472Y-45381D01*
X49403Y-45214D01*
X49285Y-45096D01*
X49413Y-45046D01*
X49433Y-45033D01*
X49438Y-44942D01*
X49451Y-44955D01*
X49498Y-44974D01*
X49500Y-44977D01*
X49501Y-44976D01*
X49615Y-45023D01*
X49793Y-45023D01*
X49957Y-44955D01*
X50027Y-44885D01*
X50035Y-44896D01*
X50152Y-44902D01*
X50477Y-44576D01*
X50152Y-44251D01*
X50035Y-44257D01*
X50029Y-44269D01*
X50024Y-44264D01*
X50029Y-44148D01*
X49704Y-43823D01*
X49699Y-43828D01*
X49685Y-43814D01*
X49690Y-43809D01*
X49685Y-43803D01*
X49699Y-43789D01*
X49704Y-43794D01*
X50029Y-43469D01*
X50029Y-42750D01*
X49704Y-42425D01*
X49699Y-42431D01*
X49685Y-42416D01*
X49690Y-42411D01*
X49685Y-42405D01*
X49699Y-42391D01*
X49704Y-42397D01*
X50029Y-42072D01*
X50024Y-41954D01*
X49825Y-41867D01*
X49607Y-41862D01*
X49404Y-41941D01*
X49385Y-41954D01*
X49380Y-42045D01*
X49367Y-42032D01*
X49320Y-42013D01*
X49318Y-42010D01*
X49317Y-42011D01*
X49203Y-41964D01*
X49025Y-41964D01*
X48861Y-42032D01*
X48790Y-42102D01*
X48783Y-42091D01*
X48666Y-42086D01*
X48652Y-42100D01*
X48652Y-42072D01*
X48646Y-41954D01*
X48447Y-41867D01*
X48229Y-41862D01*
X48026Y-41941D01*
X48007Y-41954D01*
X48001Y-42072D01*
X48326Y-42397D01*
X48652Y-42072D01*
X48652Y-42100D01*
X48340Y-42411D01*
X48666Y-42736D01*
X48783Y-42731D01*
X48789Y-42718D01*
X48860Y-42790D01*
X49024Y-42858D01*
X49202Y-42858D01*
X49317Y-42811D01*
X49318Y-42812D01*
X49320Y-42809D01*
X49366Y-42790D01*
X49380Y-42776D01*
X49385Y-42868D01*
X49584Y-42955D01*
X49801Y-42960D01*
X50004Y-42881D01*
X50024Y-42868D01*
X50029Y-42750D01*
X50029Y-43469D01*
X50024Y-43352D01*
X49825Y-43264D01*
X49607Y-43260D01*
X49404Y-43338D01*
X49385Y-43352D01*
X49380Y-43443D01*
X49367Y-43430D01*
X49320Y-43411D01*
X49318Y-43408D01*
X49317Y-43409D01*
X49203Y-43362D01*
X49025Y-43362D01*
X48861Y-43430D01*
X48790Y-43500D01*
X48783Y-43489D01*
X48666Y-43483D01*
X48652Y-43497D01*
X48652Y-43469D01*
X48652Y-42750D01*
X48326Y-42425D01*
X48312Y-42439D01*
X48312Y-42411D01*
X47987Y-42086D01*
X47889Y-42090D01*
X47845Y-41985D01*
X47664Y-41804D01*
X47428Y-41706D01*
X47172Y-41706D01*
X46935Y-41804D01*
X46754Y-41985D01*
X46656Y-42221D01*
X46656Y-42477D01*
X46754Y-42714D01*
X46935Y-42895D01*
X47171Y-42993D01*
X47427Y-42993D01*
X47664Y-42895D01*
X47845Y-42714D01*
X47851Y-42698D01*
X47856Y-42711D01*
X47869Y-42731D01*
X47987Y-42736D01*
X48312Y-42411D01*
X48312Y-42439D01*
X48001Y-42750D01*
X48007Y-42868D01*
X48206Y-42955D01*
X48423Y-42960D01*
X48626Y-42881D01*
X48646Y-42868D01*
X48652Y-42750D01*
X48652Y-43469D01*
X48646Y-43352D01*
X48447Y-43264D01*
X48229Y-43260D01*
X48026Y-43338D01*
X48007Y-43352D01*
X48001Y-43469D01*
X48326Y-43794D01*
X48652Y-43469D01*
X48652Y-43497D01*
X48340Y-43809D01*
X48666Y-44134D01*
X48783Y-44128D01*
X48789Y-44116D01*
X48794Y-44121D01*
X48788Y-44237D01*
X49114Y-44562D01*
X49119Y-44557D01*
X49133Y-44571D01*
X49128Y-44576D01*
X49133Y-44582D01*
X49119Y-44596D01*
X49114Y-44590D01*
X49100Y-44605D01*
X49100Y-44576D01*
X48774Y-44251D01*
X48657Y-44257D01*
X48651Y-44269D01*
X48646Y-44264D01*
X48652Y-44148D01*
X48326Y-43823D01*
X48312Y-43837D01*
X48312Y-43809D01*
X47987Y-43483D01*
X47869Y-43489D01*
X47782Y-43688D01*
X47777Y-43906D01*
X47856Y-44108D01*
X47869Y-44128D01*
X47987Y-44134D01*
X48312Y-43809D01*
X48312Y-43837D01*
X48001Y-44148D01*
X48007Y-44264D01*
X47948Y-44323D01*
X47879Y-44487D01*
X47879Y-44665D01*
X47947Y-44829D01*
X48073Y-44955D01*
X48237Y-45023D01*
X48415Y-45023D01*
X48579Y-44955D01*
X48650Y-44885D01*
X48657Y-44896D01*
X48774Y-44902D01*
X49100Y-44576D01*
X49100Y-44605D01*
X48788Y-44916D01*
X48794Y-45033D01*
X48836Y-45052D01*
X48757Y-45085D01*
X48628Y-45213D01*
X48559Y-45381D01*
X48558Y-45562D01*
X48628Y-45730D01*
X48756Y-45859D01*
X48832Y-45890D01*
X48814Y-45898D01*
X48794Y-45911D01*
X48788Y-46028D01*
X49114Y-46353D01*
X49119Y-46348D01*
X49133Y-46362D01*
X49128Y-46368D01*
X49133Y-46373D01*
X49119Y-46387D01*
X49114Y-46382D01*
X48788Y-46707D01*
X48794Y-46824D01*
X48993Y-46912D01*
X49211Y-46917D01*
X49413Y-46838D01*
X49433Y-46824D01*
X49438Y-46733D01*
X49451Y-46746D01*
X49497Y-46765D01*
X49500Y-46768D01*
X49502Y-46767D01*
X49615Y-46814D01*
X49727Y-46814D01*
X50224Y-47312D01*
X50224Y-47312D01*
X50322Y-47377D01*
X50437Y-47400D01*
X51050Y-47400D01*
X51050Y-47399D01*
X51164Y-47377D01*
X51164Y-47377D01*
X51262Y-47312D01*
X51562Y-47012D01*
X51562Y-47012D01*
X51601Y-46953D01*
X51627Y-46914D01*
X51627Y-46914D01*
X51650Y-46800D01*
X51650Y-47450D01*
X49324Y-47450D01*
X48626Y-46752D01*
X48626Y-46699D01*
X48649Y-46676D01*
X48657Y-46687D01*
X48774Y-46693D01*
X49100Y-46368D01*
X48774Y-46042D01*
X48657Y-46048D01*
X48651Y-46060D01*
X48580Y-45989D01*
X48416Y-45920D01*
X48238Y-45920D01*
X48073Y-45988D01*
X47948Y-46114D01*
X47923Y-46173D01*
X47845Y-45985D01*
X47664Y-45804D01*
X47428Y-45706D01*
X47172Y-45706D01*
X46935Y-45804D01*
X46754Y-45985D01*
X46656Y-46221D01*
X46656Y-46477D01*
X46754Y-46714D01*
X46935Y-46895D01*
X47171Y-46993D01*
X47427Y-46993D01*
X47664Y-46895D01*
X47845Y-46714D01*
X47916Y-46544D01*
X47947Y-46620D01*
X48026Y-46699D01*
X48026Y-46876D01*
X48049Y-46991D01*
X48114Y-47088D01*
X48987Y-47962D01*
X49046Y-48001D01*
X49085Y-48027D01*
X49085Y-48027D01*
X49200Y-48050D01*
X53250Y-48050D01*
X53250Y-48049D01*
X53364Y-48027D01*
X53364Y-48027D01*
X53462Y-47962D01*
X54557Y-46866D01*
X54621Y-46893D01*
X54877Y-46893D01*
X55114Y-46795D01*
X55295Y-46614D01*
X55393Y-46378D01*
X55393Y-46122D01*
X55393Y-48942D01*
X46393Y-48942D01*
X46393Y-46172D01*
X46393Y-42172D01*
X46295Y-41935D01*
X46114Y-41754D01*
X45878Y-41656D01*
X45622Y-41656D01*
X45385Y-41754D01*
X45204Y-41935D01*
X45106Y-42171D01*
X45106Y-42427D01*
X45204Y-42664D01*
X45385Y-42845D01*
X45621Y-42943D01*
X45877Y-42943D01*
X46114Y-42845D01*
X46295Y-42664D01*
X46393Y-42428D01*
X46393Y-42172D01*
X46393Y-46172D01*
X46295Y-45935D01*
X46114Y-45754D01*
X45878Y-45656D01*
X45622Y-45656D01*
X45385Y-45754D01*
X45204Y-45935D01*
X45106Y-46171D01*
X45106Y-46427D01*
X45204Y-46664D01*
X45385Y-46845D01*
X45621Y-46943D01*
X45877Y-46943D01*
X46114Y-46845D01*
X46295Y-46664D01*
X46393Y-46428D01*
X46393Y-46172D01*
X46393Y-48942D01*
X44540Y-48942D01*
X44540Y-47759D01*
X44540Y-47620D01*
X44540Y-47347D01*
X44540Y-47152D01*
X44540Y-46879D01*
X44540Y-46740D01*
X44486Y-46611D01*
X44440Y-46565D01*
X44440Y-46159D01*
X44440Y-45847D01*
X44440Y-45652D01*
X44440Y-45340D01*
X44386Y-45211D01*
X44288Y-45113D01*
X44227Y-45088D01*
X44295Y-44987D01*
X44340Y-44761D01*
X44340Y-44738D01*
X44295Y-44512D01*
X44167Y-44321D01*
X44060Y-44250D01*
X44167Y-44178D01*
X44295Y-43987D01*
X44340Y-43761D01*
X44340Y-43738D01*
X44295Y-43512D01*
X44167Y-43321D01*
X44060Y-43250D01*
X44167Y-43178D01*
X44295Y-42987D01*
X44340Y-42761D01*
X44340Y-42738D01*
X44295Y-42512D01*
X44167Y-42321D01*
X43975Y-42193D01*
X43750Y-42148D01*
X43524Y-42193D01*
X43332Y-42321D01*
X43204Y-42512D01*
X43160Y-42738D01*
X43160Y-42761D01*
X43204Y-42987D01*
X43332Y-43178D01*
X43439Y-43250D01*
X43332Y-43321D01*
X43204Y-43512D01*
X43160Y-43738D01*
X43160Y-43761D01*
X43204Y-43987D01*
X43332Y-44178D01*
X43439Y-44250D01*
X43332Y-44321D01*
X43204Y-44512D01*
X43160Y-44738D01*
X43160Y-44761D01*
X43204Y-44987D01*
X43272Y-45088D01*
X43211Y-45113D01*
X43113Y-45211D01*
X43060Y-45340D01*
X43060Y-45652D01*
X43147Y-45740D01*
X43740Y-45740D01*
X43740Y-45732D01*
X43760Y-45732D01*
X43760Y-45740D01*
X44352Y-45740D01*
X44440Y-45652D01*
X44440Y-45847D01*
X44352Y-45760D01*
X43760Y-45760D01*
X43760Y-46352D01*
X43847Y-46440D01*
X44020Y-46440D01*
X44159Y-46440D01*
X44288Y-46386D01*
X44386Y-46288D01*
X44440Y-46159D01*
X44440Y-46565D01*
X44388Y-46513D01*
X44259Y-46460D01*
X43847Y-46460D01*
X43760Y-46547D01*
X43760Y-47240D01*
X44452Y-47240D01*
X44540Y-47152D01*
X44540Y-47347D01*
X44452Y-47260D01*
X43760Y-47260D01*
X43760Y-47952D01*
X43847Y-48040D01*
X44259Y-48040D01*
X44388Y-47986D01*
X44486Y-47888D01*
X44540Y-47759D01*
X44540Y-48942D01*
X43740Y-48942D01*
X43740Y-47952D01*
X43740Y-47260D01*
X43740Y-47240D01*
X43740Y-46547D01*
X43740Y-46352D01*
X43740Y-45760D01*
X43147Y-45760D01*
X43060Y-45847D01*
X43060Y-46159D01*
X43113Y-46288D01*
X43211Y-46386D01*
X43340Y-46440D01*
X43479Y-46440D01*
X43652Y-46440D01*
X43740Y-46352D01*
X43740Y-46547D01*
X43652Y-46460D01*
X43240Y-46460D01*
X43111Y-46513D01*
X43013Y-46611D01*
X42960Y-46740D01*
X42960Y-46879D01*
X42960Y-47152D01*
X43047Y-47240D01*
X43740Y-47240D01*
X43740Y-47260D01*
X43047Y-47260D01*
X42960Y-47347D01*
X42960Y-47620D01*
X42960Y-47759D01*
X43013Y-47888D01*
X43111Y-47986D01*
X43240Y-48040D01*
X43652Y-48040D01*
X43740Y-47952D01*
X43740Y-48942D01*
X42878Y-48942D01*
X42878Y-46990D01*
X42878Y-41084D01*
X42664Y-40514D01*
X42607Y-40429D01*
X42387Y-40303D01*
X42373Y-40317D01*
X42373Y-40289D01*
X42248Y-40069D01*
X41693Y-39818D01*
X41084Y-39798D01*
X40514Y-40012D01*
X40429Y-40069D01*
X40303Y-40289D01*
X41338Y-41324D01*
X42373Y-40289D01*
X42373Y-40317D01*
X41352Y-41338D01*
X42387Y-42373D01*
X42607Y-42248D01*
X42858Y-41693D01*
X42878Y-41084D01*
X42878Y-46990D01*
X42664Y-46419D01*
X42607Y-46334D01*
X42387Y-46209D01*
X42373Y-46223D01*
X42373Y-46195D01*
X42373Y-42387D01*
X41338Y-41352D01*
X41324Y-41366D01*
X41324Y-41338D01*
X40289Y-40303D01*
X40069Y-40429D01*
X39818Y-40983D01*
X39798Y-41592D01*
X40012Y-42162D01*
X40069Y-42248D01*
X40289Y-42373D01*
X41324Y-41338D01*
X41324Y-41366D01*
X40303Y-42387D01*
X40429Y-42607D01*
X40983Y-42858D01*
X41592Y-42878D01*
X42162Y-42664D01*
X42248Y-42607D01*
X42373Y-42387D01*
X42373Y-46195D01*
X42248Y-45975D01*
X41693Y-45723D01*
X41084Y-45703D01*
X40514Y-45918D01*
X40429Y-45975D01*
X40303Y-46195D01*
X41338Y-47229D01*
X42373Y-46195D01*
X42373Y-46223D01*
X41352Y-47244D01*
X42387Y-48278D01*
X42607Y-48153D01*
X42858Y-47598D01*
X42878Y-46990D01*
X42878Y-48942D01*
X42373Y-48942D01*
X42373Y-48293D01*
X41338Y-47258D01*
X41324Y-47272D01*
X41324Y-47244D01*
X40289Y-46209D01*
X40069Y-46334D01*
X39818Y-46889D01*
X39798Y-47498D01*
X40012Y-48068D01*
X40069Y-48153D01*
X40289Y-48278D01*
X41324Y-47244D01*
X41324Y-47272D01*
X40303Y-48293D01*
X40429Y-48512D01*
X40983Y-48764D01*
X41592Y-48784D01*
X42162Y-48569D01*
X42248Y-48512D01*
X42373Y-48293D01*
X42373Y-48942D01*
X39639Y-48942D01*
X39639Y-39639D01*
X58785Y-39639D01*
X58785Y-48942D01*
X58785Y-48942D01*
G37*
X58785Y-48942D02*
X58626Y-48942D01*
X58626Y-46990D01*
X58626Y-41084D01*
X58412Y-40514D01*
X58355Y-40429D01*
X58135Y-40303D01*
X58121Y-40317D01*
X58121Y-40289D01*
X57996Y-40069D01*
X57441Y-39818D01*
X56832Y-39798D01*
X56262Y-40012D01*
X56177Y-40069D01*
X56051Y-40289D01*
X57086Y-41324D01*
X58121Y-40289D01*
X58121Y-40317D01*
X57100Y-41338D01*
X58135Y-42373D01*
X58355Y-42248D01*
X58606Y-41693D01*
X58626Y-41084D01*
X58626Y-46990D01*
X58412Y-46419D01*
X58355Y-46334D01*
X58135Y-46209D01*
X58121Y-46223D01*
X58121Y-46195D01*
X58121Y-42387D01*
X57086Y-41352D01*
X57072Y-41366D01*
X57072Y-41338D01*
X56037Y-40303D01*
X55817Y-40429D01*
X55566Y-40983D01*
X55546Y-41592D01*
X55760Y-42162D01*
X55817Y-42248D01*
X56037Y-42373D01*
X57072Y-41338D01*
X57072Y-41366D01*
X56051Y-42387D01*
X56177Y-42607D01*
X56731Y-42858D01*
X57340Y-42878D01*
X57910Y-42664D01*
X57996Y-42607D01*
X58121Y-42387D01*
X58121Y-46195D01*
X57996Y-45975D01*
X57441Y-45723D01*
X56832Y-45703D01*
X56262Y-45918D01*
X56177Y-45975D01*
X56051Y-46195D01*
X57086Y-47229D01*
X58121Y-46195D01*
X58121Y-46223D01*
X57100Y-47244D01*
X58135Y-48278D01*
X58355Y-48153D01*
X58606Y-47598D01*
X58626Y-46990D01*
X58626Y-48942D01*
X58121Y-48942D01*
X58121Y-48293D01*
X57086Y-47258D01*
X57072Y-47272D01*
X57072Y-47244D01*
X56037Y-46209D01*
X55817Y-46334D01*
X55566Y-46889D01*
X55546Y-47498D01*
X55760Y-48068D01*
X55817Y-48153D01*
X56037Y-48278D01*
X57072Y-47244D01*
X57072Y-47272D01*
X56051Y-48293D01*
X56177Y-48512D01*
X56731Y-48764D01*
X57340Y-48784D01*
X57910Y-48569D01*
X57996Y-48512D01*
X58121Y-48293D01*
X58121Y-48942D01*
X55393Y-48942D01*
X55393Y-46122D01*
X55393Y-42122D01*
X55295Y-41885D01*
X55114Y-41704D01*
X54878Y-41606D01*
X54622Y-41606D01*
X54385Y-41704D01*
X54204Y-41885D01*
X54106Y-42121D01*
X54106Y-42377D01*
X54204Y-42614D01*
X54385Y-42795D01*
X54621Y-42893D01*
X54877Y-42893D01*
X55114Y-42795D01*
X55295Y-42614D01*
X55393Y-42378D01*
X55393Y-42122D01*
X55393Y-46122D01*
X55295Y-45885D01*
X55114Y-45704D01*
X54878Y-45606D01*
X54622Y-45606D01*
X54385Y-45704D01*
X54204Y-45885D01*
X54106Y-46121D01*
X54106Y-46377D01*
X54133Y-46442D01*
X53643Y-46932D01*
X53643Y-46122D01*
X53643Y-42122D01*
X53545Y-41885D01*
X53364Y-41704D01*
X53128Y-41606D01*
X52872Y-41606D01*
X52635Y-41704D01*
X52454Y-41885D01*
X52356Y-42121D01*
X52356Y-42377D01*
X52454Y-42614D01*
X52635Y-42795D01*
X52871Y-42893D01*
X53127Y-42893D01*
X53364Y-42795D01*
X53545Y-42614D01*
X53643Y-42378D01*
X53643Y-42122D01*
X53643Y-46122D01*
X53545Y-45885D01*
X53364Y-45704D01*
X53128Y-45606D01*
X52872Y-45606D01*
X52635Y-45704D01*
X52454Y-45885D01*
X52356Y-46121D01*
X52356Y-46377D01*
X52454Y-46614D01*
X52635Y-46795D01*
X52871Y-46893D01*
X53127Y-46893D01*
X53364Y-46795D01*
X53545Y-46614D01*
X53643Y-46378D01*
X53643Y-46122D01*
X53643Y-46932D01*
X53125Y-47450D01*
X51650Y-47450D01*
X51650Y-46800D01*
X51650Y-43367D01*
X51627Y-43252D01*
X51627Y-43252D01*
X51601Y-43213D01*
X51562Y-43155D01*
X50929Y-42523D01*
X50938Y-42500D01*
X50939Y-42322D01*
X50871Y-42158D01*
X50745Y-42032D01*
X50581Y-41964D01*
X50403Y-41964D01*
X50239Y-42032D01*
X50168Y-42102D01*
X50161Y-42091D01*
X50044Y-42086D01*
X49718Y-42411D01*
X50044Y-42736D01*
X50161Y-42731D01*
X50167Y-42718D01*
X50238Y-42790D01*
X50402Y-42858D01*
X50416Y-42858D01*
X51050Y-43491D01*
X51050Y-46675D01*
X51041Y-46684D01*
X51041Y-46271D01*
X51041Y-44479D01*
X50962Y-44276D01*
X50949Y-44257D01*
X50939Y-44256D01*
X50939Y-43720D01*
X50871Y-43556D01*
X50745Y-43430D01*
X50581Y-43362D01*
X50403Y-43362D01*
X50239Y-43430D01*
X50168Y-43500D01*
X50161Y-43489D01*
X50044Y-43483D01*
X49718Y-43809D01*
X50044Y-44134D01*
X50161Y-44128D01*
X50167Y-44116D01*
X50172Y-44121D01*
X50166Y-44237D01*
X50492Y-44562D01*
X50817Y-44237D01*
X50811Y-44121D01*
X50870Y-44062D01*
X50938Y-43898D01*
X50939Y-43720D01*
X50939Y-44256D01*
X50831Y-44251D01*
X50506Y-44576D01*
X50831Y-44902D01*
X50949Y-44896D01*
X51036Y-44697D01*
X51041Y-44479D01*
X51041Y-46271D01*
X50962Y-46068D01*
X50949Y-46048D01*
X50850Y-46043D01*
X50850Y-45381D01*
X50781Y-45214D01*
X50663Y-45096D01*
X50791Y-45046D01*
X50811Y-45033D01*
X50817Y-44916D01*
X50492Y-44590D01*
X50166Y-44916D01*
X50172Y-45033D01*
X50214Y-45052D01*
X50135Y-45085D01*
X50006Y-45213D01*
X49937Y-45381D01*
X49936Y-45562D01*
X50006Y-45730D01*
X50134Y-45859D01*
X50210Y-45890D01*
X50192Y-45898D01*
X50172Y-45911D01*
X50166Y-46028D01*
X50492Y-46353D01*
X50817Y-46028D01*
X50811Y-45911D01*
X50665Y-45846D01*
X50780Y-45731D01*
X50850Y-45563D01*
X50850Y-45381D01*
X50850Y-46043D01*
X50831Y-46042D01*
X50506Y-46368D01*
X50831Y-46693D01*
X50949Y-46687D01*
X51036Y-46488D01*
X51041Y-46271D01*
X51041Y-46684D01*
X50925Y-46800D01*
X50812Y-46800D01*
X50817Y-46707D01*
X50492Y-46382D01*
X50486Y-46387D01*
X50472Y-46373D01*
X50477Y-46368D01*
X50152Y-46042D01*
X50035Y-46048D01*
X50029Y-46060D01*
X49958Y-45989D01*
X49793Y-45920D01*
X49616Y-45920D01*
X49501Y-45968D01*
X49500Y-45967D01*
X49498Y-45969D01*
X49451Y-45988D01*
X49438Y-46002D01*
X49433Y-45911D01*
X49287Y-45846D01*
X49402Y-45731D01*
X49472Y-45563D01*
X49472Y-45381D01*
X49403Y-45214D01*
X49285Y-45096D01*
X49413Y-45046D01*
X49433Y-45033D01*
X49438Y-44942D01*
X49451Y-44955D01*
X49498Y-44974D01*
X49500Y-44977D01*
X49501Y-44976D01*
X49615Y-45023D01*
X49793Y-45023D01*
X49957Y-44955D01*
X50027Y-44885D01*
X50035Y-44896D01*
X50152Y-44902D01*
X50477Y-44576D01*
X50152Y-44251D01*
X50035Y-44257D01*
X50029Y-44269D01*
X50024Y-44264D01*
X50029Y-44148D01*
X49704Y-43823D01*
X49699Y-43828D01*
X49685Y-43814D01*
X49690Y-43809D01*
X49685Y-43803D01*
X49699Y-43789D01*
X49704Y-43794D01*
X50029Y-43469D01*
X50029Y-42750D01*
X49704Y-42425D01*
X49699Y-42431D01*
X49685Y-42416D01*
X49690Y-42411D01*
X49685Y-42405D01*
X49699Y-42391D01*
X49704Y-42397D01*
X50029Y-42072D01*
X50024Y-41954D01*
X49825Y-41867D01*
X49607Y-41862D01*
X49404Y-41941D01*
X49385Y-41954D01*
X49380Y-42045D01*
X49367Y-42032D01*
X49320Y-42013D01*
X49318Y-42010D01*
X49317Y-42011D01*
X49203Y-41964D01*
X49025Y-41964D01*
X48861Y-42032D01*
X48790Y-42102D01*
X48783Y-42091D01*
X48666Y-42086D01*
X48652Y-42100D01*
X48652Y-42072D01*
X48646Y-41954D01*
X48447Y-41867D01*
X48229Y-41862D01*
X48026Y-41941D01*
X48007Y-41954D01*
X48001Y-42072D01*
X48326Y-42397D01*
X48652Y-42072D01*
X48652Y-42100D01*
X48340Y-42411D01*
X48666Y-42736D01*
X48783Y-42731D01*
X48789Y-42718D01*
X48860Y-42790D01*
X49024Y-42858D01*
X49202Y-42858D01*
X49317Y-42811D01*
X49318Y-42812D01*
X49320Y-42809D01*
X49366Y-42790D01*
X49380Y-42776D01*
X49385Y-42868D01*
X49584Y-42955D01*
X49801Y-42960D01*
X50004Y-42881D01*
X50024Y-42868D01*
X50029Y-42750D01*
X50029Y-43469D01*
X50024Y-43352D01*
X49825Y-43264D01*
X49607Y-43260D01*
X49404Y-43338D01*
X49385Y-43352D01*
X49380Y-43443D01*
X49367Y-43430D01*
X49320Y-43411D01*
X49318Y-43408D01*
X49317Y-43409D01*
X49203Y-43362D01*
X49025Y-43362D01*
X48861Y-43430D01*
X48790Y-43500D01*
X48783Y-43489D01*
X48666Y-43483D01*
X48652Y-43497D01*
X48652Y-43469D01*
X48652Y-42750D01*
X48326Y-42425D01*
X48312Y-42439D01*
X48312Y-42411D01*
X47987Y-42086D01*
X47889Y-42090D01*
X47845Y-41985D01*
X47664Y-41804D01*
X47428Y-41706D01*
X47172Y-41706D01*
X46935Y-41804D01*
X46754Y-41985D01*
X46656Y-42221D01*
X46656Y-42477D01*
X46754Y-42714D01*
X46935Y-42895D01*
X47171Y-42993D01*
X47427Y-42993D01*
X47664Y-42895D01*
X47845Y-42714D01*
X47851Y-42698D01*
X47856Y-42711D01*
X47869Y-42731D01*
X47987Y-42736D01*
X48312Y-42411D01*
X48312Y-42439D01*
X48001Y-42750D01*
X48007Y-42868D01*
X48206Y-42955D01*
X48423Y-42960D01*
X48626Y-42881D01*
X48646Y-42868D01*
X48652Y-42750D01*
X48652Y-43469D01*
X48646Y-43352D01*
X48447Y-43264D01*
X48229Y-43260D01*
X48026Y-43338D01*
X48007Y-43352D01*
X48001Y-43469D01*
X48326Y-43794D01*
X48652Y-43469D01*
X48652Y-43497D01*
X48340Y-43809D01*
X48666Y-44134D01*
X48783Y-44128D01*
X48789Y-44116D01*
X48794Y-44121D01*
X48788Y-44237D01*
X49114Y-44562D01*
X49119Y-44557D01*
X49133Y-44571D01*
X49128Y-44576D01*
X49133Y-44582D01*
X49119Y-44596D01*
X49114Y-44590D01*
X49100Y-44605D01*
X49100Y-44576D01*
X48774Y-44251D01*
X48657Y-44257D01*
X48651Y-44269D01*
X48646Y-44264D01*
X48652Y-44148D01*
X48326Y-43823D01*
X48312Y-43837D01*
X48312Y-43809D01*
X47987Y-43483D01*
X47869Y-43489D01*
X47782Y-43688D01*
X47777Y-43906D01*
X47856Y-44108D01*
X47869Y-44128D01*
X47987Y-44134D01*
X48312Y-43809D01*
X48312Y-43837D01*
X48001Y-44148D01*
X48007Y-44264D01*
X47948Y-44323D01*
X47879Y-44487D01*
X47879Y-44665D01*
X47947Y-44829D01*
X48073Y-44955D01*
X48237Y-45023D01*
X48415Y-45023D01*
X48579Y-44955D01*
X48650Y-44885D01*
X48657Y-44896D01*
X48774Y-44902D01*
X49100Y-44576D01*
X49100Y-44605D01*
X48788Y-44916D01*
X48794Y-45033D01*
X48836Y-45052D01*
X48757Y-45085D01*
X48628Y-45213D01*
X48559Y-45381D01*
X48558Y-45562D01*
X48628Y-45730D01*
X48756Y-45859D01*
X48832Y-45890D01*
X48814Y-45898D01*
X48794Y-45911D01*
X48788Y-46028D01*
X49114Y-46353D01*
X49119Y-46348D01*
X49133Y-46362D01*
X49128Y-46368D01*
X49133Y-46373D01*
X49119Y-46387D01*
X49114Y-46382D01*
X48788Y-46707D01*
X48794Y-46824D01*
X48993Y-46912D01*
X49211Y-46917D01*
X49413Y-46838D01*
X49433Y-46824D01*
X49438Y-46733D01*
X49451Y-46746D01*
X49497Y-46765D01*
X49500Y-46768D01*
X49502Y-46767D01*
X49615Y-46814D01*
X49727Y-46814D01*
X50224Y-47312D01*
X50224Y-47312D01*
X50322Y-47377D01*
X50437Y-47400D01*
X51050Y-47400D01*
X51050Y-47399D01*
X51164Y-47377D01*
X51164Y-47377D01*
X51262Y-47312D01*
X51562Y-47012D01*
X51562Y-47012D01*
X51601Y-46953D01*
X51627Y-46914D01*
X51627Y-46914D01*
X51650Y-46800D01*
X51650Y-47450D01*
X49324Y-47450D01*
X48626Y-46752D01*
X48626Y-46699D01*
X48649Y-46676D01*
X48657Y-46687D01*
X48774Y-46693D01*
X49100Y-46368D01*
X48774Y-46042D01*
X48657Y-46048D01*
X48651Y-46060D01*
X48580Y-45989D01*
X48416Y-45920D01*
X48238Y-45920D01*
X48073Y-45988D01*
X47948Y-46114D01*
X47923Y-46173D01*
X47845Y-45985D01*
X47664Y-45804D01*
X47428Y-45706D01*
X47172Y-45706D01*
X46935Y-45804D01*
X46754Y-45985D01*
X46656Y-46221D01*
X46656Y-46477D01*
X46754Y-46714D01*
X46935Y-46895D01*
X47171Y-46993D01*
X47427Y-46993D01*
X47664Y-46895D01*
X47845Y-46714D01*
X47916Y-46544D01*
X47947Y-46620D01*
X48026Y-46699D01*
X48026Y-46876D01*
X48049Y-46991D01*
X48114Y-47088D01*
X48987Y-47962D01*
X49046Y-48001D01*
X49085Y-48027D01*
X49085Y-48027D01*
X49200Y-48050D01*
X53250Y-48050D01*
X53250Y-48049D01*
X53364Y-48027D01*
X53364Y-48027D01*
X53462Y-47962D01*
X54557Y-46866D01*
X54621Y-46893D01*
X54877Y-46893D01*
X55114Y-46795D01*
X55295Y-46614D01*
X55393Y-46378D01*
X55393Y-46122D01*
X55393Y-48942D01*
X46393Y-48942D01*
X46393Y-46172D01*
X46393Y-42172D01*
X46295Y-41935D01*
X46114Y-41754D01*
X45878Y-41656D01*
X45622Y-41656D01*
X45385Y-41754D01*
X45204Y-41935D01*
X45106Y-42171D01*
X45106Y-42427D01*
X45204Y-42664D01*
X45385Y-42845D01*
X45621Y-42943D01*
X45877Y-42943D01*
X46114Y-42845D01*
X46295Y-42664D01*
X46393Y-42428D01*
X46393Y-42172D01*
X46393Y-46172D01*
X46295Y-45935D01*
X46114Y-45754D01*
X45878Y-45656D01*
X45622Y-45656D01*
X45385Y-45754D01*
X45204Y-45935D01*
X45106Y-46171D01*
X45106Y-46427D01*
X45204Y-46664D01*
X45385Y-46845D01*
X45621Y-46943D01*
X45877Y-46943D01*
X46114Y-46845D01*
X46295Y-46664D01*
X46393Y-46428D01*
X46393Y-46172D01*
X46393Y-48942D01*
X44540Y-48942D01*
X44540Y-47759D01*
X44540Y-47620D01*
X44540Y-47347D01*
X44540Y-47152D01*
X44540Y-46879D01*
X44540Y-46740D01*
X44486Y-46611D01*
X44440Y-46565D01*
X44440Y-46159D01*
X44440Y-45847D01*
X44440Y-45652D01*
X44440Y-45340D01*
X44386Y-45211D01*
X44288Y-45113D01*
X44227Y-45088D01*
X44295Y-44987D01*
X44340Y-44761D01*
X44340Y-44738D01*
X44295Y-44512D01*
X44167Y-44321D01*
X44060Y-44250D01*
X44167Y-44178D01*
X44295Y-43987D01*
X44340Y-43761D01*
X44340Y-43738D01*
X44295Y-43512D01*
X44167Y-43321D01*
X44060Y-43250D01*
X44167Y-43178D01*
X44295Y-42987D01*
X44340Y-42761D01*
X44340Y-42738D01*
X44295Y-42512D01*
X44167Y-42321D01*
X43975Y-42193D01*
X43750Y-42148D01*
X43524Y-42193D01*
X43332Y-42321D01*
X43204Y-42512D01*
X43160Y-42738D01*
X43160Y-42761D01*
X43204Y-42987D01*
X43332Y-43178D01*
X43439Y-43250D01*
X43332Y-43321D01*
X43204Y-43512D01*
X43160Y-43738D01*
X43160Y-43761D01*
X43204Y-43987D01*
X43332Y-44178D01*
X43439Y-44250D01*
X43332Y-44321D01*
X43204Y-44512D01*
X43160Y-44738D01*
X43160Y-44761D01*
X43204Y-44987D01*
X43272Y-45088D01*
X43211Y-45113D01*
X43113Y-45211D01*
X43060Y-45340D01*
X43060Y-45652D01*
X43147Y-45740D01*
X43740Y-45740D01*
X43740Y-45732D01*
X43760Y-45732D01*
X43760Y-45740D01*
X44352Y-45740D01*
X44440Y-45652D01*
X44440Y-45847D01*
X44352Y-45760D01*
X43760Y-45760D01*
X43760Y-46352D01*
X43847Y-46440D01*
X44020Y-46440D01*
X44159Y-46440D01*
X44288Y-46386D01*
X44386Y-46288D01*
X44440Y-46159D01*
X44440Y-46565D01*
X44388Y-46513D01*
X44259Y-46460D01*
X43847Y-46460D01*
X43760Y-46547D01*
X43760Y-47240D01*
X44452Y-47240D01*
X44540Y-47152D01*
X44540Y-47347D01*
X44452Y-47260D01*
X43760Y-47260D01*
X43760Y-47952D01*
X43847Y-48040D01*
X44259Y-48040D01*
X44388Y-47986D01*
X44486Y-47888D01*
X44540Y-47759D01*
X44540Y-48942D01*
X43740Y-48942D01*
X43740Y-47952D01*
X43740Y-47260D01*
X43740Y-47240D01*
X43740Y-46547D01*
X43740Y-46352D01*
X43740Y-45760D01*
X43147Y-45760D01*
X43060Y-45847D01*
X43060Y-46159D01*
X43113Y-46288D01*
X43211Y-46386D01*
X43340Y-46440D01*
X43479Y-46440D01*
X43652Y-46440D01*
X43740Y-46352D01*
X43740Y-46547D01*
X43652Y-46460D01*
X43240Y-46460D01*
X43111Y-46513D01*
X43013Y-46611D01*
X42960Y-46740D01*
X42960Y-46879D01*
X42960Y-47152D01*
X43047Y-47240D01*
X43740Y-47240D01*
X43740Y-47260D01*
X43047Y-47260D01*
X42960Y-47347D01*
X42960Y-47620D01*
X42960Y-47759D01*
X43013Y-47888D01*
X43111Y-47986D01*
X43240Y-48040D01*
X43652Y-48040D01*
X43740Y-47952D01*
X43740Y-48942D01*
X42878Y-48942D01*
X42878Y-46990D01*
X42878Y-41084D01*
X42664Y-40514D01*
X42607Y-40429D01*
X42387Y-40303D01*
X42373Y-40317D01*
X42373Y-40289D01*
X42248Y-40069D01*
X41693Y-39818D01*
X41084Y-39798D01*
X40514Y-40012D01*
X40429Y-40069D01*
X40303Y-40289D01*
X41338Y-41324D01*
X42373Y-40289D01*
X42373Y-40317D01*
X41352Y-41338D01*
X42387Y-42373D01*
X42607Y-42248D01*
X42858Y-41693D01*
X42878Y-41084D01*
X42878Y-46990D01*
X42664Y-46419D01*
X42607Y-46334D01*
X42387Y-46209D01*
X42373Y-46223D01*
X42373Y-46195D01*
X42373Y-42387D01*
X41338Y-41352D01*
X41324Y-41366D01*
X41324Y-41338D01*
X40289Y-40303D01*
X40069Y-40429D01*
X39818Y-40983D01*
X39798Y-41592D01*
X40012Y-42162D01*
X40069Y-42248D01*
X40289Y-42373D01*
X41324Y-41338D01*
X41324Y-41366D01*
X40303Y-42387D01*
X40429Y-42607D01*
X40983Y-42858D01*
X41592Y-42878D01*
X42162Y-42664D01*
X42248Y-42607D01*
X42373Y-42387D01*
X42373Y-46195D01*
X42248Y-45975D01*
X41693Y-45723D01*
X41084Y-45703D01*
X40514Y-45918D01*
X40429Y-45975D01*
X40303Y-46195D01*
X41338Y-47229D01*
X42373Y-46195D01*
X42373Y-46223D01*
X41352Y-47244D01*
X42387Y-48278D01*
X42607Y-48153D01*
X42858Y-47598D01*
X42878Y-46990D01*
X42878Y-48942D01*
X42373Y-48942D01*
X42373Y-48293D01*
X41338Y-47258D01*
X41324Y-47272D01*
X41324Y-47244D01*
X40289Y-46209D01*
X40069Y-46334D01*
X39818Y-46889D01*
X39798Y-47498D01*
X40012Y-48068D01*
X40069Y-48153D01*
X40289Y-48278D01*
X41324Y-47244D01*
X41324Y-47272D01*
X40303Y-48293D01*
X40429Y-48512D01*
X40983Y-48764D01*
X41592Y-48784D01*
X42162Y-48569D01*
X42248Y-48512D01*
X42373Y-48293D01*
X42373Y-48942D01*
X39639Y-48942D01*
X39639Y-39639D01*
X58785Y-39639D01*
X58785Y-48942D01*
M02*
