%FSLAX46Y46*%
G04 Gerber Fmt 4.6, Leading zero omitted, Abs format (unit mm)*
G04 Created by KiCad (PCBNEW (2014-jul-16 BZR unknown)-product) date Sun 05 Oct 2014 11:57:01 AM PDT*
%MOMM*%
G01*
G04 APERTURE LIST*
%ADD10C,0.100000*%
%ADD11C,0.203200*%
%ADD12C,0.400000*%
%ADD13C,0.200000*%
%ADD14C,0.254000*%
%ADD15C,0.150000*%
G04 APERTURE END LIST*
D10*
D11*
X139548809Y-115660714D02*
X138581190Y-115660714D01*
X139548809Y-110580714D02*
X138581190Y-110580714D01*
X139065000Y-111064524D02*
X139065000Y-110096905D01*
X107853238Y-101170619D02*
X107369429Y-101170619D01*
X107321048Y-101654429D01*
X107369429Y-101606048D01*
X107466191Y-101557667D01*
X107708095Y-101557667D01*
X107804857Y-101606048D01*
X107853238Y-101654429D01*
X107901619Y-101751190D01*
X107901619Y-101993095D01*
X107853238Y-102089857D01*
X107804857Y-102138238D01*
X107708095Y-102186619D01*
X107466191Y-102186619D01*
X107369429Y-102138238D01*
X107321048Y-102089857D01*
X108191905Y-101170619D02*
X108530572Y-102186619D01*
X108869238Y-101170619D01*
X109419571Y-121212429D02*
X109564714Y-121260810D01*
X109613095Y-121309190D01*
X109661476Y-121405952D01*
X109661476Y-121551095D01*
X109613095Y-121647857D01*
X109564714Y-121696238D01*
X109467952Y-121744619D01*
X109080905Y-121744619D01*
X109080905Y-120728619D01*
X109419571Y-120728619D01*
X109516333Y-120777000D01*
X109564714Y-120825381D01*
X109613095Y-120922143D01*
X109613095Y-121018905D01*
X109564714Y-121115667D01*
X109516333Y-121164048D01*
X109419571Y-121212429D01*
X109080905Y-121212429D01*
X126957667Y-121454333D02*
X127441476Y-121454333D01*
X126860905Y-121744619D02*
X127199572Y-120728619D01*
X127538238Y-121744619D01*
X106262714Y-114427000D02*
X106165952Y-114378619D01*
X106020809Y-114378619D01*
X105875667Y-114427000D01*
X105778905Y-114523762D01*
X105730524Y-114620524D01*
X105682143Y-114814048D01*
X105682143Y-114959190D01*
X105730524Y-115152714D01*
X105778905Y-115249476D01*
X105875667Y-115346238D01*
X106020809Y-115394619D01*
X106117571Y-115394619D01*
X106262714Y-115346238D01*
X106311095Y-115297857D01*
X106311095Y-114959190D01*
X106117571Y-114959190D01*
X106746524Y-115394619D02*
X106746524Y-114378619D01*
X107327095Y-115394619D01*
X107327095Y-114378619D01*
X107810905Y-115394619D02*
X107810905Y-114378619D01*
X108052810Y-114378619D01*
X108197952Y-114427000D01*
X108294714Y-114523762D01*
X108343095Y-114620524D01*
X108391476Y-114814048D01*
X108391476Y-114959190D01*
X108343095Y-115152714D01*
X108294714Y-115249476D01*
X108197952Y-115346238D01*
X108052810Y-115394619D01*
X107810905Y-115394619D01*
X121575286Y-121109619D02*
X120994715Y-121109619D01*
X121285001Y-121109619D02*
X121285001Y-120093619D01*
X121188239Y-120238762D01*
X121091477Y-120335524D01*
X120994715Y-120383905D01*
D12*
X121750000Y-109500000D02*
X129250000Y-109500000D01*
D11*
X141332857Y-111502371D02*
X141272381Y-111562848D01*
X141090952Y-111623324D01*
X140970000Y-111623324D01*
X140788572Y-111562848D01*
X140667619Y-111441895D01*
X140607143Y-111320943D01*
X140546667Y-111079038D01*
X140546667Y-110897610D01*
X140607143Y-110655705D01*
X140667619Y-110534752D01*
X140788572Y-110413800D01*
X140970000Y-110353324D01*
X141090952Y-110353324D01*
X141272381Y-110413800D01*
X141332857Y-110474276D01*
X142058572Y-111623324D02*
X141937619Y-111562848D01*
X141877143Y-111502371D01*
X141816667Y-111381419D01*
X141816667Y-111018562D01*
X141877143Y-110897610D01*
X141937619Y-110837133D01*
X142058572Y-110776657D01*
X142240000Y-110776657D01*
X142360952Y-110837133D01*
X142421429Y-110897610D01*
X142481905Y-111018562D01*
X142481905Y-111381419D01*
X142421429Y-111502371D01*
X142360952Y-111562848D01*
X142240000Y-111623324D01*
X142058572Y-111623324D01*
X143026191Y-110776657D02*
X143026191Y-112046657D01*
X143026191Y-110837133D02*
X143147143Y-110776657D01*
X143389048Y-110776657D01*
X143510000Y-110837133D01*
X143570477Y-110897610D01*
X143630953Y-111018562D01*
X143630953Y-111381419D01*
X143570477Y-111502371D01*
X143510000Y-111562848D01*
X143389048Y-111623324D01*
X143147143Y-111623324D01*
X143026191Y-111562848D01*
X144054287Y-110776657D02*
X144356668Y-111623324D01*
X144659048Y-110776657D02*
X144356668Y-111623324D01*
X144235715Y-111925705D01*
X144175239Y-111986181D01*
X144054287Y-112046657D01*
X145142858Y-111623324D02*
X145142858Y-110776657D01*
X145142858Y-111018562D02*
X145203334Y-110897610D01*
X145263810Y-110837133D01*
X145384763Y-110776657D01*
X145505715Y-110776657D01*
X145929048Y-111623324D02*
X145929048Y-110776657D01*
X145929048Y-110353324D02*
X145868572Y-110413800D01*
X145929048Y-110474276D01*
X145989524Y-110413800D01*
X145929048Y-110353324D01*
X145929048Y-110474276D01*
X147078096Y-110776657D02*
X147078096Y-111804752D01*
X147017619Y-111925705D01*
X146957143Y-111986181D01*
X146836191Y-112046657D01*
X146654762Y-112046657D01*
X146533810Y-111986181D01*
X147078096Y-111562848D02*
X146957143Y-111623324D01*
X146715239Y-111623324D01*
X146594286Y-111562848D01*
X146533810Y-111502371D01*
X146473334Y-111381419D01*
X146473334Y-111018562D01*
X146533810Y-110897610D01*
X146594286Y-110837133D01*
X146715239Y-110776657D01*
X146957143Y-110776657D01*
X147078096Y-110837133D01*
X147682858Y-111623324D02*
X147682858Y-110353324D01*
X148227144Y-111623324D02*
X148227144Y-110958086D01*
X148166667Y-110837133D01*
X148045715Y-110776657D01*
X147864287Y-110776657D01*
X147743334Y-110837133D01*
X147682858Y-110897610D01*
X148650477Y-110776657D02*
X149134287Y-110776657D01*
X148831906Y-110353324D02*
X148831906Y-111441895D01*
X148892382Y-111562848D01*
X149013335Y-111623324D01*
X149134287Y-111623324D01*
X141060714Y-112455476D02*
X141121190Y-112395000D01*
X141242142Y-112334524D01*
X141544523Y-112334524D01*
X141665476Y-112395000D01*
X141725952Y-112455476D01*
X141786428Y-112576429D01*
X141786428Y-112697381D01*
X141725952Y-112878810D01*
X141000238Y-113604524D01*
X141786428Y-113604524D01*
X142572619Y-112334524D02*
X142693571Y-112334524D01*
X142814523Y-112395000D01*
X142875000Y-112455476D01*
X142935476Y-112576429D01*
X142995952Y-112818333D01*
X142995952Y-113120714D01*
X142935476Y-113362619D01*
X142875000Y-113483571D01*
X142814523Y-113544048D01*
X142693571Y-113604524D01*
X142572619Y-113604524D01*
X142451666Y-113544048D01*
X142391190Y-113483571D01*
X142330714Y-113362619D01*
X142270238Y-113120714D01*
X142270238Y-112818333D01*
X142330714Y-112576429D01*
X142391190Y-112455476D01*
X142451666Y-112395000D01*
X142572619Y-112334524D01*
X144205476Y-113604524D02*
X143479762Y-113604524D01*
X143842619Y-113604524D02*
X143842619Y-112334524D01*
X143721667Y-112515952D01*
X143600714Y-112636905D01*
X143479762Y-112697381D01*
X145294048Y-112757857D02*
X145294048Y-113604524D01*
X144991667Y-112274048D02*
X144689286Y-113181190D01*
X145475476Y-113181190D01*
X146926905Y-113604524D02*
X146926905Y-112334524D01*
X146926905Y-112818333D02*
X147047857Y-112757857D01*
X147289762Y-112757857D01*
X147410714Y-112818333D01*
X147471191Y-112878810D01*
X147531667Y-112999762D01*
X147531667Y-113362619D01*
X147471191Y-113483571D01*
X147410714Y-113544048D01*
X147289762Y-113604524D01*
X147047857Y-113604524D01*
X146926905Y-113544048D01*
X147955001Y-112757857D02*
X148257382Y-113604524D01*
X148559762Y-112757857D02*
X148257382Y-113604524D01*
X148136429Y-113906905D01*
X148075953Y-113967381D01*
X147955001Y-114027857D01*
X141544524Y-114376200D02*
X141423572Y-114315724D01*
X141242143Y-114315724D01*
X141060715Y-114376200D01*
X140939762Y-114497152D01*
X140879286Y-114618105D01*
X140818810Y-114860010D01*
X140818810Y-115041438D01*
X140879286Y-115283343D01*
X140939762Y-115404295D01*
X141060715Y-115525248D01*
X141242143Y-115585724D01*
X141363095Y-115585724D01*
X141544524Y-115525248D01*
X141605000Y-115464771D01*
X141605000Y-115041438D01*
X141363095Y-115041438D01*
X142149286Y-115585724D02*
X142149286Y-114739057D01*
X142149286Y-114980962D02*
X142209762Y-114860010D01*
X142270238Y-114799533D01*
X142391191Y-114739057D01*
X142512143Y-114739057D01*
X143479762Y-115585724D02*
X143479762Y-114920486D01*
X143419285Y-114799533D01*
X143298333Y-114739057D01*
X143056428Y-114739057D01*
X142935476Y-114799533D01*
X143479762Y-115525248D02*
X143358809Y-115585724D01*
X143056428Y-115585724D01*
X142935476Y-115525248D01*
X142875000Y-115404295D01*
X142875000Y-115283343D01*
X142935476Y-115162390D01*
X143056428Y-115101914D01*
X143358809Y-115101914D01*
X143479762Y-115041438D01*
X144084524Y-115585724D02*
X144084524Y-114739057D01*
X144084524Y-114860010D02*
X144145000Y-114799533D01*
X144265953Y-114739057D01*
X144447381Y-114739057D01*
X144568333Y-114799533D01*
X144628810Y-114920486D01*
X144628810Y-115585724D01*
X144628810Y-114920486D02*
X144689286Y-114799533D01*
X144810238Y-114739057D01*
X144991667Y-114739057D01*
X145112619Y-114799533D01*
X145173095Y-114920486D01*
X145173095Y-115585724D01*
X145959286Y-115585724D02*
X145838333Y-115525248D01*
X145777857Y-115404295D01*
X145777857Y-114315724D01*
X146443095Y-115585724D02*
X146443095Y-114739057D01*
X146443095Y-114315724D02*
X146382619Y-114376200D01*
X146443095Y-114436676D01*
X146503571Y-114376200D01*
X146443095Y-114315724D01*
X146443095Y-114436676D01*
X147592143Y-115525248D02*
X147471190Y-115585724D01*
X147229286Y-115585724D01*
X147108333Y-115525248D01*
X147047857Y-115464771D01*
X146987381Y-115343819D01*
X146987381Y-114980962D01*
X147047857Y-114860010D01*
X147108333Y-114799533D01*
X147229286Y-114739057D01*
X147471190Y-114739057D01*
X147592143Y-114799533D01*
X148136428Y-115585724D02*
X148136428Y-114315724D01*
X148680714Y-115585724D02*
X148680714Y-114920486D01*
X148620237Y-114799533D01*
X148499285Y-114739057D01*
X148317857Y-114739057D01*
X148196904Y-114799533D01*
X148136428Y-114860010D01*
X122827143Y-105984524D02*
X122403810Y-105379762D01*
X122101429Y-105984524D02*
X122101429Y-104714524D01*
X122585238Y-104714524D01*
X122706191Y-104775000D01*
X122766667Y-104835476D01*
X122827143Y-104956429D01*
X122827143Y-105137857D01*
X122766667Y-105258810D01*
X122706191Y-105319286D01*
X122585238Y-105379762D01*
X122101429Y-105379762D01*
X123855238Y-105924048D02*
X123734286Y-105984524D01*
X123492381Y-105984524D01*
X123371429Y-105924048D01*
X123310953Y-105803095D01*
X123310953Y-105319286D01*
X123371429Y-105198333D01*
X123492381Y-105137857D01*
X123734286Y-105137857D01*
X123855238Y-105198333D01*
X123915715Y-105319286D01*
X123915715Y-105440238D01*
X123310953Y-105561190D01*
X124339048Y-105137857D02*
X124641429Y-105984524D01*
X124943809Y-105137857D01*
X125427619Y-105863571D02*
X125488095Y-105924048D01*
X125427619Y-105984524D01*
X125367143Y-105924048D01*
X125427619Y-105863571D01*
X125427619Y-105984524D01*
X127725714Y-105863571D02*
X127665238Y-105924048D01*
X127483809Y-105984524D01*
X127362857Y-105984524D01*
X127181429Y-105924048D01*
X127060476Y-105803095D01*
X127000000Y-105682143D01*
X126939524Y-105440238D01*
X126939524Y-105258810D01*
X127000000Y-105016905D01*
X127060476Y-104895952D01*
X127181429Y-104775000D01*
X127362857Y-104714524D01*
X127483809Y-104714524D01*
X127665238Y-104775000D01*
X127725714Y-104835476D01*
X129842381Y-104714524D02*
X129237619Y-104714524D01*
X129177143Y-105319286D01*
X129237619Y-105258810D01*
X129358571Y-105198333D01*
X129660952Y-105198333D01*
X129781905Y-105258810D01*
X129842381Y-105319286D01*
X129902857Y-105440238D01*
X129902857Y-105742619D01*
X129842381Y-105863571D01*
X129781905Y-105924048D01*
X129660952Y-105984524D01*
X129358571Y-105984524D01*
X129237619Y-105924048D01*
X129177143Y-105863571D01*
X130689048Y-104714524D02*
X130930952Y-104714524D01*
X131051905Y-104775000D01*
X131172857Y-104895952D01*
X131233333Y-105137857D01*
X131233333Y-105561190D01*
X131172857Y-105803095D01*
X131051905Y-105924048D01*
X130930952Y-105984524D01*
X130689048Y-105984524D01*
X130568095Y-105924048D01*
X130447143Y-105803095D01*
X130386667Y-105561190D01*
X130386667Y-105137857D01*
X130447143Y-104895952D01*
X130568095Y-104775000D01*
X130689048Y-104714524D01*
X132503333Y-105863571D02*
X132442857Y-105924048D01*
X132261428Y-105984524D01*
X132140476Y-105984524D01*
X131959048Y-105924048D01*
X131838095Y-105803095D01*
X131777619Y-105682143D01*
X131717143Y-105440238D01*
X131717143Y-105258810D01*
X131777619Y-105016905D01*
X131838095Y-104895952D01*
X131959048Y-104775000D01*
X132140476Y-104714524D01*
X132261428Y-104714524D01*
X132442857Y-104775000D01*
X132503333Y-104835476D01*
X132866190Y-104714524D02*
X133591905Y-104714524D01*
X133229048Y-105984524D02*
X133229048Y-104714524D01*
X133954762Y-104835476D02*
X134015238Y-104775000D01*
X134136190Y-104714524D01*
X134438571Y-104714524D01*
X134559524Y-104775000D01*
X134620000Y-104835476D01*
X134680476Y-104956429D01*
X134680476Y-105077381D01*
X134620000Y-105258810D01*
X133894286Y-105984524D01*
X134680476Y-105984524D01*
X135466667Y-104714524D02*
X135587619Y-104714524D01*
X135708571Y-104775000D01*
X135769048Y-104835476D01*
X135829524Y-104956429D01*
X135890000Y-105198333D01*
X135890000Y-105500714D01*
X135829524Y-105742619D01*
X135769048Y-105863571D01*
X135708571Y-105924048D01*
X135587619Y-105984524D01*
X135466667Y-105984524D01*
X135345714Y-105924048D01*
X135285238Y-105863571D01*
X135224762Y-105742619D01*
X135164286Y-105500714D01*
X135164286Y-105198333D01*
X135224762Y-104956429D01*
X135285238Y-104835476D01*
X135345714Y-104775000D01*
X135466667Y-104714524D01*
X137099524Y-105984524D02*
X136373810Y-105984524D01*
X136736667Y-105984524D02*
X136736667Y-104714524D01*
X136615715Y-104895952D01*
X136494762Y-105016905D01*
X136373810Y-105077381D01*
X138188096Y-105137857D02*
X138188096Y-105984524D01*
X137885715Y-104654048D02*
X137583334Y-105561190D01*
X138369524Y-105561190D01*
X122494524Y-119954524D02*
X122494524Y-118684524D01*
X122796905Y-118684524D01*
X122978333Y-118745000D01*
X123099286Y-118865952D01*
X123159762Y-118986905D01*
X123220238Y-119228810D01*
X123220238Y-119410238D01*
X123159762Y-119652143D01*
X123099286Y-119773095D01*
X122978333Y-119894048D01*
X122796905Y-119954524D01*
X122494524Y-119954524D01*
X124308810Y-119107857D02*
X124308810Y-119954524D01*
X123764524Y-119107857D02*
X123764524Y-119773095D01*
X123825000Y-119894048D01*
X123945953Y-119954524D01*
X124127381Y-119954524D01*
X124248333Y-119894048D01*
X124308810Y-119833571D01*
X125457858Y-119954524D02*
X125457858Y-119289286D01*
X125397381Y-119168333D01*
X125276429Y-119107857D01*
X125034524Y-119107857D01*
X124913572Y-119168333D01*
X125457858Y-119894048D02*
X125336905Y-119954524D01*
X125034524Y-119954524D01*
X124913572Y-119894048D01*
X124853096Y-119773095D01*
X124853096Y-119652143D01*
X124913572Y-119531190D01*
X125034524Y-119470714D01*
X125336905Y-119470714D01*
X125457858Y-119410238D01*
X126244049Y-119954524D02*
X126123096Y-119894048D01*
X126062620Y-119773095D01*
X126062620Y-118684524D01*
X127635001Y-119894048D02*
X127816429Y-119954524D01*
X128118810Y-119954524D01*
X128239763Y-119894048D01*
X128300239Y-119833571D01*
X128360715Y-119712619D01*
X128360715Y-119591667D01*
X128300239Y-119470714D01*
X128239763Y-119410238D01*
X128118810Y-119349762D01*
X127876906Y-119289286D01*
X127755953Y-119228810D01*
X127695477Y-119168333D01*
X127635001Y-119047381D01*
X127635001Y-118926429D01*
X127695477Y-118805476D01*
X127755953Y-118745000D01*
X127876906Y-118684524D01*
X128179286Y-118684524D01*
X128360715Y-118745000D01*
X129086430Y-119954524D02*
X128965477Y-119894048D01*
X128905001Y-119773095D01*
X128905001Y-118684524D01*
X129751668Y-119954524D02*
X129630715Y-119894048D01*
X129570239Y-119833571D01*
X129509763Y-119712619D01*
X129509763Y-119349762D01*
X129570239Y-119228810D01*
X129630715Y-119168333D01*
X129751668Y-119107857D01*
X129933096Y-119107857D01*
X130054048Y-119168333D01*
X130114525Y-119228810D01*
X130175001Y-119349762D01*
X130175001Y-119712619D01*
X130114525Y-119833571D01*
X130054048Y-119894048D01*
X129933096Y-119954524D01*
X129751668Y-119954524D01*
X130537858Y-119107857D02*
X131021668Y-119107857D01*
X130719287Y-118684524D02*
X130719287Y-119773095D01*
X130779763Y-119894048D01*
X130900716Y-119954524D01*
X131021668Y-119954524D01*
X132412620Y-119289286D02*
X132835953Y-119289286D01*
X133017382Y-119954524D02*
X132412620Y-119954524D01*
X132412620Y-118684524D01*
X133017382Y-118684524D01*
X133561668Y-119107857D02*
X133561668Y-119954524D01*
X133561668Y-119228810D02*
X133622144Y-119168333D01*
X133743097Y-119107857D01*
X133924525Y-119107857D01*
X134045477Y-119168333D01*
X134105954Y-119289286D01*
X134105954Y-119954524D01*
X135255002Y-119894048D02*
X135134049Y-119954524D01*
X134892145Y-119954524D01*
X134771192Y-119894048D01*
X134710716Y-119833571D01*
X134650240Y-119712619D01*
X134650240Y-119349762D01*
X134710716Y-119228810D01*
X134771192Y-119168333D01*
X134892145Y-119107857D01*
X135134049Y-119107857D01*
X135255002Y-119168333D01*
X135980716Y-119954524D02*
X135859763Y-119894048D01*
X135799287Y-119833571D01*
X135738811Y-119712619D01*
X135738811Y-119349762D01*
X135799287Y-119228810D01*
X135859763Y-119168333D01*
X135980716Y-119107857D01*
X136162144Y-119107857D01*
X136283096Y-119168333D01*
X136343573Y-119228810D01*
X136404049Y-119349762D01*
X136404049Y-119712619D01*
X136343573Y-119833571D01*
X136283096Y-119894048D01*
X136162144Y-119954524D01*
X135980716Y-119954524D01*
X137492621Y-119954524D02*
X137492621Y-118684524D01*
X137492621Y-119894048D02*
X137371668Y-119954524D01*
X137129764Y-119954524D01*
X137008811Y-119894048D01*
X136948335Y-119833571D01*
X136887859Y-119712619D01*
X136887859Y-119349762D01*
X136948335Y-119228810D01*
X137008811Y-119168333D01*
X137129764Y-119107857D01*
X137371668Y-119107857D01*
X137492621Y-119168333D01*
X138581192Y-119894048D02*
X138460240Y-119954524D01*
X138218335Y-119954524D01*
X138097383Y-119894048D01*
X138036907Y-119773095D01*
X138036907Y-119289286D01*
X138097383Y-119168333D01*
X138218335Y-119107857D01*
X138460240Y-119107857D01*
X138581192Y-119168333D01*
X138641669Y-119289286D01*
X138641669Y-119410238D01*
X138036907Y-119531190D01*
X139185954Y-119954524D02*
X139185954Y-119107857D01*
X139185954Y-119349762D02*
X139246430Y-119228810D01*
X139306906Y-119168333D01*
X139427859Y-119107857D01*
X139548811Y-119107857D01*
X139911668Y-119894048D02*
X140032620Y-119954524D01*
X140274525Y-119954524D01*
X140395477Y-119894048D01*
X140455953Y-119773095D01*
X140455953Y-119712619D01*
X140395477Y-119591667D01*
X140274525Y-119531190D01*
X140093096Y-119531190D01*
X139972144Y-119470714D01*
X139911668Y-119349762D01*
X139911668Y-119289286D01*
X139972144Y-119168333D01*
X140093096Y-119107857D01*
X140274525Y-119107857D01*
X140395477Y-119168333D01*
D12*
X121750000Y-115500000D02*
X129250000Y-115500000D01*
X125500000Y-107500000D02*
X125500000Y-118500000D01*
X122500000Y-112500000D02*
X128500000Y-112500000D01*
D11*
X100000000Y-125000000D02*
X100000000Y-100000000D01*
X150000000Y-125000000D02*
X100000000Y-125000000D01*
X150000000Y-100000000D02*
X150000000Y-125000000D01*
X100000000Y-100000000D02*
X150000000Y-100000000D01*
D13*
X100000000Y-100000000D02*
X150000000Y-100000000D01*
D14*
X120396000Y-110109000D02*
X119888000Y-110109000D01*
X119888000Y-110109000D02*
X119888000Y-114681000D01*
X119888000Y-114681000D02*
X120396000Y-114681000D01*
X110744000Y-121305000D02*
X110744000Y-103485000D01*
X110744000Y-103485000D02*
X120396000Y-103485000D01*
X120396000Y-103485000D02*
X120396000Y-121305000D01*
X120396000Y-121305000D02*
X110744000Y-121305000D01*
D15*
X132080000Y-123190000D02*
X130810000Y-123190000D01*
X137160000Y-123190000D02*
X138430000Y-123190000D01*
X137160000Y-124460000D02*
X137160000Y-121920000D01*
X137160000Y-121920000D02*
X132080000Y-121920000D01*
X132080000Y-121920000D02*
X132080000Y-124460000D01*
X132080000Y-124460000D02*
X137160000Y-124460000D01*
X113030000Y-123190000D02*
X111760000Y-123190000D01*
X118110000Y-123190000D02*
X119380000Y-123190000D01*
X118110000Y-124460000D02*
X118110000Y-121920000D01*
X118110000Y-121920000D02*
X113030000Y-121920000D01*
X113030000Y-121920000D02*
X113030000Y-124460000D01*
X113030000Y-124460000D02*
X118110000Y-124460000D01*
X113030000Y-101600000D02*
X111760000Y-101600000D01*
X118110000Y-101600000D02*
X119380000Y-101600000D01*
X118110000Y-102870000D02*
X118110000Y-100330000D01*
X118110000Y-100330000D02*
X113030000Y-100330000D01*
X113030000Y-100330000D02*
X113030000Y-102870000D01*
X113030000Y-102870000D02*
X118110000Y-102870000D01*
X131445000Y-101600000D02*
X130175000Y-101600000D01*
X136525000Y-101600000D02*
X137795000Y-101600000D01*
X136525000Y-102870000D02*
X136525000Y-100330000D01*
X136525000Y-100330000D02*
X131445000Y-100330000D01*
X131445000Y-100330000D02*
X131445000Y-102870000D01*
X131445000Y-102870000D02*
X136525000Y-102870000D01*
D14*
X106045000Y-111125000D02*
X106045000Y-113665000D01*
X106045000Y-113665000D02*
X108585000Y-113665000D01*
X108585000Y-113665000D02*
X108585000Y-111125000D01*
X108585000Y-111125000D02*
X106045000Y-111125000D01*
D11*
X130420000Y-118030000D02*
X137920000Y-118030000D01*
X137920000Y-118030000D02*
X137920000Y-108030000D01*
X137920000Y-108030000D02*
X130420000Y-108030000D01*
X130420000Y-108030000D02*
X130420000Y-118030000D01*
X104225905Y-105459619D02*
X104225905Y-104443619D01*
X104225905Y-104927429D02*
X104806476Y-104927429D01*
X104806476Y-105459619D02*
X104806476Y-104443619D01*
X105822476Y-105459619D02*
X105241905Y-105459619D01*
X105532191Y-105459619D02*
X105532191Y-104443619D01*
X105435429Y-104588762D01*
X105338667Y-104685524D01*
X105241905Y-104733905D01*
X144225905Y-105459619D02*
X144225905Y-104443619D01*
X144225905Y-104927429D02*
X144806476Y-104927429D01*
X144806476Y-105459619D02*
X144806476Y-104443619D01*
X145241905Y-104540381D02*
X145290286Y-104492000D01*
X145387048Y-104443619D01*
X145628952Y-104443619D01*
X145725714Y-104492000D01*
X145774095Y-104540381D01*
X145822476Y-104637143D01*
X145822476Y-104733905D01*
X145774095Y-104879048D01*
X145193524Y-105459619D01*
X145822476Y-105459619D01*
X104225905Y-120459619D02*
X104225905Y-119443619D01*
X104225905Y-119927429D02*
X104806476Y-119927429D01*
X104806476Y-120459619D02*
X104806476Y-119443619D01*
X105193524Y-119443619D02*
X105822476Y-119443619D01*
X105483810Y-119830667D01*
X105628952Y-119830667D01*
X105725714Y-119879048D01*
X105774095Y-119927429D01*
X105822476Y-120024190D01*
X105822476Y-120266095D01*
X105774095Y-120362857D01*
X105725714Y-120411238D01*
X105628952Y-120459619D01*
X105338667Y-120459619D01*
X105241905Y-120411238D01*
X105193524Y-120362857D01*
X144225905Y-120459619D02*
X144225905Y-119443619D01*
X144225905Y-119927429D02*
X144806476Y-119927429D01*
X144806476Y-120459619D02*
X144806476Y-119443619D01*
X145725714Y-119782286D02*
X145725714Y-120459619D01*
X145483810Y-119395238D02*
X145241905Y-120120952D01*
X145870857Y-120120952D01*
X108445905Y-108409619D02*
X108445905Y-107393619D01*
X109026476Y-108409619D01*
X109026476Y-107393619D01*
X110042476Y-108409619D02*
X109461905Y-108409619D01*
X109752191Y-108409619D02*
X109752191Y-107393619D01*
X109655429Y-107538762D01*
X109558667Y-107635524D01*
X109461905Y-107683905D01*
X126830667Y-123649619D02*
X126492001Y-123165810D01*
X126250096Y-123649619D02*
X126250096Y-122633619D01*
X126637143Y-122633619D01*
X126733905Y-122682000D01*
X126782286Y-122730381D01*
X126830667Y-122827143D01*
X126830667Y-122972286D01*
X126782286Y-123069048D01*
X126733905Y-123117429D01*
X126637143Y-123165810D01*
X126250096Y-123165810D01*
X127798286Y-123649619D02*
X127217715Y-123649619D01*
X127508001Y-123649619D02*
X127508001Y-122633619D01*
X127411239Y-122778762D01*
X127314477Y-122875524D01*
X127217715Y-122923905D01*
X123020667Y-123649619D02*
X122682001Y-123165810D01*
X122440096Y-123649619D02*
X122440096Y-122633619D01*
X122827143Y-122633619D01*
X122923905Y-122682000D01*
X122972286Y-122730381D01*
X123020667Y-122827143D01*
X123020667Y-122972286D01*
X122972286Y-123069048D01*
X122923905Y-123117429D01*
X122827143Y-123165810D01*
X122440096Y-123165810D01*
X123407715Y-122730381D02*
X123456096Y-122682000D01*
X123552858Y-122633619D01*
X123794762Y-122633619D01*
X123891524Y-122682000D01*
X123939905Y-122730381D01*
X123988286Y-122827143D01*
X123988286Y-122923905D01*
X123939905Y-123069048D01*
X123359334Y-123649619D01*
X123988286Y-123649619D01*
X123020667Y-102059619D02*
X122682001Y-101575810D01*
X122440096Y-102059619D02*
X122440096Y-101043619D01*
X122827143Y-101043619D01*
X122923905Y-101092000D01*
X122972286Y-101140381D01*
X123020667Y-101237143D01*
X123020667Y-101382286D01*
X122972286Y-101479048D01*
X122923905Y-101527429D01*
X122827143Y-101575810D01*
X122440096Y-101575810D01*
X123359334Y-101043619D02*
X123988286Y-101043619D01*
X123649620Y-101430667D01*
X123794762Y-101430667D01*
X123891524Y-101479048D01*
X123939905Y-101527429D01*
X123988286Y-101624190D01*
X123988286Y-101866095D01*
X123939905Y-101962857D01*
X123891524Y-102011238D01*
X123794762Y-102059619D01*
X123504477Y-102059619D01*
X123407715Y-102011238D01*
X123359334Y-101962857D01*
X126195667Y-102059619D02*
X125857001Y-101575810D01*
X125615096Y-102059619D02*
X125615096Y-101043619D01*
X126002143Y-101043619D01*
X126098905Y-101092000D01*
X126147286Y-101140381D01*
X126195667Y-101237143D01*
X126195667Y-101382286D01*
X126147286Y-101479048D01*
X126098905Y-101527429D01*
X126002143Y-101575810D01*
X125615096Y-101575810D01*
X127066524Y-101382286D02*
X127066524Y-102059619D01*
X126824620Y-100995238D02*
X126582715Y-101720952D01*
X127211667Y-101720952D01*
X106032905Y-109552619D02*
X106613476Y-109552619D01*
X106323191Y-110568619D02*
X106323191Y-109552619D01*
X106952143Y-110568619D02*
X106952143Y-109552619D01*
X107339190Y-109552619D01*
X107435952Y-109601000D01*
X107484333Y-109649381D01*
X107532714Y-109746143D01*
X107532714Y-109891286D01*
X107484333Y-109988048D01*
X107435952Y-110036429D01*
X107339190Y-110084810D01*
X106952143Y-110084810D01*
X108500333Y-110568619D02*
X107919762Y-110568619D01*
X108210048Y-110568619D02*
X108210048Y-109552619D01*
X108113286Y-109697762D01*
X108016524Y-109794524D01*
X107919762Y-109842905D01*
X138290905Y-109044619D02*
X138290905Y-108028619D01*
X138871476Y-109044619D01*
X138871476Y-108028619D01*
X139306905Y-108125381D02*
X139355286Y-108077000D01*
X139452048Y-108028619D01*
X139693952Y-108028619D01*
X139790714Y-108077000D01*
X139839095Y-108125381D01*
X139887476Y-108222143D01*
X139887476Y-108318905D01*
X139839095Y-108464048D01*
X139258524Y-109044619D01*
X139887476Y-109044619D01*
M02*
