%FSLAX36Y36*%
G04 Gerber Fmt 3.6, Leading zero omitted, Abs format (unit inch)*
G04 Created by KiCad (PCBNEW (2014-jul-16 BZR unknown)-product) date Sun 05 Oct 2014 02:29:47 PM PDT*
%MOIN*%
G01*
G04 APERTURE LIST*
%ADD10C,0.003937*%
%ADD11C,0.236220*%
%ADD12R,0.060000X0.060000*%
%ADD13C,0.060000*%
%ADD14C,0.078700*%
%ADD15R,0.088000X0.088000*%
%ADD16C,0.039370*%
%ADD17C,0.041339*%
%ADD18C,0.080000*%
%ADD19C,0.035000*%
%ADD20C,0.010000*%
%ADD21C,0.040000*%
G04 APERTURE END LIST*
D10*
D11*
X4133858Y-4133858D03*
X5708661Y-4133858D03*
X4133858Y-4724409D03*
X5708661Y-4724409D03*
D12*
X4600000Y-4575000D03*
D13*
X4500000Y-4575000D03*
X4600000Y-4475000D03*
X4500000Y-4475000D03*
X4600000Y-4375000D03*
X4500000Y-4375000D03*
X4600000Y-4275000D03*
X4500000Y-4275000D03*
D14*
X5500000Y-4850000D03*
X5100000Y-4850000D03*
X4750000Y-4850000D03*
X4350000Y-4850000D03*
X4750000Y-4000000D03*
X4350000Y-4000000D03*
X5475000Y-4000000D03*
X5075000Y-4000000D03*
D15*
X4225000Y-4425000D03*
D16*
X4832677Y-4636772D03*
X4911417Y-4636811D03*
X4832677Y-4457677D03*
X4911417Y-4457677D03*
D17*
X4901575Y-4547244D03*
D16*
X4970472Y-4636772D03*
X5049213Y-4636811D03*
X4970472Y-4457677D03*
X5049213Y-4457677D03*
D17*
X5039370Y-4547244D03*
D16*
X4911417Y-4241142D03*
X4832677Y-4241142D03*
X4911417Y-4380906D03*
X4832677Y-4380906D03*
X5049213Y-4241142D03*
X4970472Y-4241142D03*
X5049213Y-4380906D03*
X4970472Y-4380906D03*
D18*
X5300000Y-4548425D03*
X5300000Y-4351575D03*
D19*
X4625000Y-4675000D03*
X4775000Y-4425000D03*
X4575000Y-4750000D03*
X4625000Y-4150000D03*
X5125000Y-4750000D03*
X5175000Y-4700000D03*
X5450000Y-4625000D03*
D20*
X4832677Y-4457677D02*
X4625000Y-4665354D01*
X4625000Y-4665354D02*
X4625000Y-4675000D01*
X4911417Y-4241142D02*
X4845276Y-4175000D01*
X4845276Y-4175000D02*
X4775000Y-4175000D01*
X4775000Y-4425000D02*
X4775000Y-4175000D01*
X4750000Y-4150000D02*
X4750000Y-4000000D01*
X4775000Y-4175000D02*
X4750000Y-4150000D01*
D21*
X4133858Y-4133858D02*
X4608858Y-4133858D01*
X4608858Y-4133858D02*
X4625000Y-4150000D01*
X4133858Y-4724409D02*
X4134449Y-4725000D01*
X4134449Y-4725000D02*
X4325000Y-4725000D01*
X4325000Y-4725000D02*
X4350000Y-4750000D01*
X4350000Y-4750000D02*
X4575000Y-4750000D01*
X5125000Y-4750000D02*
X5450000Y-4750000D01*
X4575000Y-4750000D02*
X5125000Y-4750000D01*
X5450000Y-4750000D02*
X5475591Y-4724409D01*
X5475591Y-4724409D02*
X5708661Y-4724409D01*
D20*
X5049213Y-4241142D02*
X5233858Y-4241142D01*
X5233858Y-4241142D02*
X5475000Y-4000000D01*
X5450000Y-4625000D02*
X5475000Y-4600000D01*
X5475000Y-4600000D02*
X5475000Y-4000000D01*
X5033701Y-4700000D02*
X5175000Y-4700000D01*
X4970472Y-4636772D02*
X5033701Y-4700000D01*
D21*
X4600000Y-4475000D02*
X4500000Y-4475000D01*
X4600000Y-4375000D02*
X4500000Y-4375000D01*
D20*
G36*
X5878543Y-4894291D02*
X5862690Y-4894291D01*
X5862690Y-4699001D01*
X5862690Y-4108450D01*
X5841242Y-4051440D01*
X5835542Y-4042910D01*
X5813565Y-4030369D01*
X5812151Y-4031783D01*
X5812151Y-4028954D01*
X5799610Y-4006978D01*
X5744131Y-3981831D01*
X5683253Y-3979830D01*
X5626243Y-4001278D01*
X5617713Y-4006978D01*
X5605172Y-4028954D01*
X5708661Y-4132444D01*
X5812151Y-4028954D01*
X5812151Y-4031783D01*
X5710076Y-4133858D01*
X5813565Y-4237348D01*
X5835542Y-4224806D01*
X5860688Y-4169328D01*
X5862690Y-4108450D01*
X5862690Y-4699001D01*
X5841242Y-4641991D01*
X5835542Y-4633461D01*
X5813565Y-4620920D01*
X5812151Y-4622334D01*
X5812151Y-4619506D01*
X5812151Y-4238762D01*
X5708661Y-4135272D01*
X5707247Y-4136687D01*
X5707247Y-4133858D01*
X5603758Y-4030369D01*
X5581781Y-4042910D01*
X5556635Y-4098388D01*
X5554633Y-4159266D01*
X5576081Y-4216276D01*
X5581781Y-4224806D01*
X5603758Y-4237348D01*
X5707247Y-4133858D01*
X5707247Y-4136687D01*
X5605172Y-4238762D01*
X5617713Y-4260739D01*
X5673191Y-4285885D01*
X5734070Y-4287887D01*
X5791080Y-4266439D01*
X5799610Y-4260739D01*
X5812151Y-4238762D01*
X5812151Y-4619506D01*
X5799610Y-4597529D01*
X5744131Y-4572383D01*
X5683253Y-4570381D01*
X5626243Y-4591829D01*
X5617713Y-4597529D01*
X5605172Y-4619506D01*
X5708661Y-4722995D01*
X5812151Y-4619506D01*
X5812151Y-4622334D01*
X5710076Y-4724409D01*
X5813565Y-4827899D01*
X5835542Y-4815358D01*
X5860688Y-4759879D01*
X5862690Y-4699001D01*
X5862690Y-4894291D01*
X5812151Y-4894291D01*
X5812151Y-4829313D01*
X5708661Y-4725824D01*
X5707247Y-4727238D01*
X5707247Y-4724409D01*
X5603758Y-4620920D01*
X5581781Y-4633461D01*
X5556635Y-4688939D01*
X5554633Y-4749818D01*
X5576081Y-4806828D01*
X5581781Y-4815358D01*
X5603758Y-4827899D01*
X5707247Y-4724409D01*
X5707247Y-4727238D01*
X5605172Y-4829313D01*
X5617713Y-4851290D01*
X5673191Y-4876436D01*
X5734070Y-4878438D01*
X5791080Y-4856990D01*
X5799610Y-4851290D01*
X5812151Y-4829313D01*
X5812151Y-4894291D01*
X5546715Y-4894291D01*
X5554521Y-4886499D01*
X5564339Y-4862856D01*
X5564361Y-4837256D01*
X5554585Y-4813596D01*
X5536499Y-4795479D01*
X5512856Y-4785661D01*
X5487256Y-4785639D01*
X5463596Y-4795415D01*
X5445479Y-4813501D01*
X5435661Y-4837144D01*
X5435639Y-4862744D01*
X5445415Y-4886404D01*
X5453289Y-4894291D01*
X5365011Y-4894291D01*
X5365011Y-4535553D01*
X5365011Y-4338702D01*
X5355136Y-4314803D01*
X5336868Y-4296503D01*
X5312986Y-4286586D01*
X5287127Y-4286564D01*
X5263229Y-4296438D01*
X5244928Y-4314707D01*
X5235011Y-4338589D01*
X5234989Y-4364447D01*
X5244864Y-4388346D01*
X5263132Y-4406647D01*
X5287014Y-4416564D01*
X5312873Y-4416586D01*
X5336771Y-4406711D01*
X5355072Y-4388442D01*
X5364989Y-4364561D01*
X5365011Y-4338702D01*
X5365011Y-4535553D01*
X5355136Y-4511654D01*
X5336868Y-4493353D01*
X5312986Y-4483436D01*
X5287127Y-4483414D01*
X5263229Y-4493289D01*
X5244928Y-4511558D01*
X5235011Y-4535439D01*
X5234989Y-4561298D01*
X5244864Y-4585197D01*
X5263132Y-4603497D01*
X5287014Y-4613414D01*
X5312873Y-4613436D01*
X5336771Y-4603562D01*
X5355072Y-4585293D01*
X5364989Y-4561411D01*
X5365011Y-4535553D01*
X5365011Y-4894291D01*
X5217507Y-4894291D01*
X5217507Y-4691583D01*
X5211051Y-4675957D01*
X5199106Y-4663991D01*
X5183491Y-4657507D01*
X5166583Y-4657493D01*
X5150957Y-4663949D01*
X5144896Y-4670000D01*
X5104117Y-4670000D01*
X5083816Y-4670000D01*
X5083151Y-4669335D01*
X5094901Y-4668769D01*
X5103653Y-4648853D01*
X5104117Y-4627103D01*
X5104117Y-4447969D01*
X5096223Y-4427697D01*
X5094901Y-4425719D01*
X5093905Y-4425671D01*
X5093905Y-4372056D01*
X5087117Y-4355627D01*
X5074558Y-4343045D01*
X5058140Y-4336228D01*
X5040363Y-4336213D01*
X5023934Y-4343001D01*
X5016888Y-4350035D01*
X5016161Y-4348947D01*
X5004411Y-4348382D01*
X4971887Y-4380906D01*
X5004411Y-4413429D01*
X5016161Y-4412864D01*
X5016716Y-4411601D01*
X5017247Y-4412134D01*
X5016689Y-4423739D01*
X5049213Y-4456263D01*
X5081736Y-4423739D01*
X5081178Y-4412135D01*
X5087073Y-4406251D01*
X5093890Y-4389833D01*
X5093905Y-4372056D01*
X5093905Y-4425671D01*
X5083151Y-4425153D01*
X5050627Y-4457677D01*
X5083151Y-4490201D01*
X5094901Y-4489636D01*
X5103653Y-4469719D01*
X5104117Y-4447969D01*
X5104117Y-4627103D01*
X5096223Y-4606830D01*
X5094901Y-4604853D01*
X5085047Y-4604378D01*
X5085047Y-4538200D01*
X5078109Y-4521408D01*
X5066393Y-4509672D01*
X5079193Y-4504687D01*
X5081171Y-4503366D01*
X5081736Y-4491615D01*
X5049213Y-4459091D01*
X5016689Y-4491615D01*
X5017254Y-4503366D01*
X5021479Y-4505222D01*
X5013534Y-4508505D01*
X5000676Y-4521341D01*
X4993709Y-4538120D01*
X4993693Y-4556288D01*
X5000631Y-4573080D01*
X5013467Y-4585938D01*
X5021058Y-4589090D01*
X5019232Y-4589801D01*
X5017254Y-4591123D01*
X5016689Y-4602873D01*
X5049213Y-4635397D01*
X5081736Y-4602873D01*
X5081171Y-4591123D01*
X5066511Y-4584680D01*
X5078064Y-4573147D01*
X5085031Y-4556368D01*
X5085047Y-4538200D01*
X5085047Y-4604378D01*
X5083151Y-4604287D01*
X5050627Y-4636811D01*
X5051184Y-4637368D01*
X5049769Y-4638782D01*
X5049213Y-4638225D01*
X5048656Y-4638782D01*
X5047242Y-4637368D01*
X5047798Y-4636811D01*
X5015274Y-4604287D01*
X5003524Y-4604853D01*
X5002981Y-4606088D01*
X4995818Y-4598912D01*
X4979400Y-4592094D01*
X4961623Y-4592079D01*
X4950142Y-4596823D01*
X4950067Y-4596747D01*
X4949885Y-4596929D01*
X4945193Y-4598867D01*
X4943815Y-4600244D01*
X4943376Y-4591123D01*
X4928716Y-4584680D01*
X4940269Y-4573147D01*
X4947236Y-4556368D01*
X4947252Y-4538200D01*
X4940314Y-4521408D01*
X4928598Y-4509672D01*
X4941398Y-4504687D01*
X4943376Y-4503366D01*
X4943816Y-4494223D01*
X4945127Y-4495537D01*
X4949806Y-4497480D01*
X4950067Y-4497741D01*
X4950174Y-4497633D01*
X4961545Y-4502354D01*
X4979322Y-4502370D01*
X4995751Y-4495581D01*
X5002797Y-4488548D01*
X5003524Y-4489636D01*
X5015274Y-4490201D01*
X5047798Y-4457677D01*
X5015274Y-4425153D01*
X5003524Y-4425719D01*
X5002969Y-4426981D01*
X5002438Y-4426449D01*
X5002996Y-4414844D01*
X4970472Y-4382320D01*
X4969916Y-4382876D01*
X4968501Y-4381462D01*
X4969058Y-4380906D01*
X4968501Y-4380349D01*
X4969916Y-4378934D01*
X4970472Y-4379491D01*
X5002996Y-4346967D01*
X5002431Y-4335217D01*
X4982514Y-4326465D01*
X4960764Y-4326001D01*
X4940492Y-4333896D01*
X4938514Y-4335217D01*
X4938074Y-4344359D01*
X4936762Y-4343045D01*
X4932084Y-4341103D01*
X4931823Y-4340842D01*
X4931715Y-4340950D01*
X4920345Y-4336228D01*
X4902568Y-4336213D01*
X4886138Y-4343001D01*
X4879092Y-4350035D01*
X4878366Y-4348947D01*
X4866615Y-4348382D01*
X4834091Y-4380906D01*
X4866615Y-4413429D01*
X4878366Y-4412864D01*
X4878920Y-4411601D01*
X4879452Y-4412134D01*
X4878893Y-4423739D01*
X4911417Y-4456263D01*
X4911974Y-4455706D01*
X4913388Y-4457120D01*
X4912832Y-4457677D01*
X4913388Y-4458234D01*
X4911974Y-4459648D01*
X4911417Y-4459091D01*
X4878893Y-4491615D01*
X4879459Y-4503366D01*
X4883684Y-4505222D01*
X4875739Y-4508505D01*
X4862881Y-4521341D01*
X4855913Y-4538120D01*
X4855898Y-4556288D01*
X4862836Y-4573080D01*
X4875671Y-4585938D01*
X4883262Y-4589090D01*
X4881437Y-4589801D01*
X4879459Y-4591123D01*
X4878893Y-4602873D01*
X4911417Y-4635397D01*
X4911974Y-4634840D01*
X4913388Y-4636254D01*
X4912832Y-4636811D01*
X4913388Y-4637368D01*
X4911974Y-4638782D01*
X4911417Y-4638225D01*
X4910003Y-4639639D01*
X4910003Y-4636811D01*
X4877479Y-4604287D01*
X4865729Y-4604853D01*
X4865186Y-4606088D01*
X4858022Y-4598912D01*
X4841605Y-4592094D01*
X4823828Y-4592079D01*
X4807398Y-4598867D01*
X4794817Y-4611427D01*
X4788000Y-4627844D01*
X4787984Y-4645621D01*
X4794773Y-4662051D01*
X4807332Y-4674632D01*
X4823750Y-4681449D01*
X4841527Y-4681464D01*
X4857956Y-4674676D01*
X4864986Y-4667658D01*
X4865729Y-4668769D01*
X4877479Y-4669335D01*
X4910003Y-4636811D01*
X4910003Y-4639639D01*
X4878893Y-4670749D01*
X4879459Y-4682499D01*
X4899376Y-4691252D01*
X4921126Y-4691716D01*
X4941398Y-4683821D01*
X4943376Y-4682499D01*
X4943818Y-4673320D01*
X4945127Y-4674632D01*
X4949738Y-4676546D01*
X4950067Y-4676875D01*
X4950202Y-4676739D01*
X4961545Y-4681449D01*
X4972733Y-4681459D01*
X5012488Y-4721213D01*
X5022220Y-4727716D01*
X5022220Y-4727716D01*
X5033701Y-4730000D01*
X5144896Y-4730000D01*
X5150894Y-4736009D01*
X5166509Y-4742493D01*
X5183417Y-4742507D01*
X5199043Y-4736051D01*
X5211009Y-4724106D01*
X5217493Y-4708491D01*
X5217507Y-4691583D01*
X5217507Y-4894291D01*
X5146715Y-4894291D01*
X5154521Y-4886499D01*
X5164339Y-4862856D01*
X5164361Y-4837256D01*
X5154585Y-4813596D01*
X5136499Y-4795479D01*
X5112856Y-4785661D01*
X5087256Y-4785639D01*
X5063596Y-4795415D01*
X5045479Y-4813501D01*
X5035661Y-4837144D01*
X5035639Y-4862744D01*
X5045415Y-4886404D01*
X5053289Y-4894291D01*
X4796715Y-4894291D01*
X4804521Y-4886499D01*
X4814339Y-4862856D01*
X4814361Y-4837256D01*
X4804585Y-4813596D01*
X4786499Y-4795479D01*
X4762856Y-4785661D01*
X4737256Y-4785639D01*
X4713596Y-4795415D01*
X4695479Y-4813501D01*
X4685661Y-4837144D01*
X4685639Y-4862744D01*
X4695415Y-4886404D01*
X4703289Y-4894291D01*
X4539962Y-4894291D01*
X4539962Y-4616376D01*
X4500000Y-4576414D01*
X4498586Y-4577828D01*
X4498586Y-4575000D01*
X4458624Y-4535038D01*
X4445802Y-4536859D01*
X4435332Y-4560503D01*
X4434706Y-4586354D01*
X4444022Y-4610476D01*
X4445802Y-4613141D01*
X4458624Y-4614962D01*
X4498586Y-4575000D01*
X4498586Y-4577828D01*
X4460038Y-4616376D01*
X4461859Y-4629198D01*
X4485503Y-4639668D01*
X4511354Y-4640294D01*
X4535476Y-4630978D01*
X4538141Y-4629198D01*
X4539962Y-4616376D01*
X4539962Y-4894291D01*
X4396715Y-4894291D01*
X4404521Y-4886499D01*
X4414339Y-4862856D01*
X4414361Y-4837256D01*
X4404585Y-4813596D01*
X4386499Y-4795479D01*
X4362856Y-4785661D01*
X4337256Y-4785639D01*
X4313596Y-4795415D01*
X4304000Y-4804994D01*
X4304000Y-4475962D01*
X4304000Y-4462038D01*
X4304000Y-4434750D01*
X4304000Y-4415250D01*
X4304000Y-4387962D01*
X4304000Y-4374038D01*
X4298672Y-4361174D01*
X4288826Y-4351328D01*
X4287887Y-4350939D01*
X4287887Y-4108450D01*
X4266439Y-4051440D01*
X4260739Y-4042910D01*
X4238762Y-4030369D01*
X4237348Y-4031783D01*
X4237348Y-4028954D01*
X4224806Y-4006978D01*
X4169328Y-3981831D01*
X4108450Y-3979830D01*
X4051440Y-4001278D01*
X4042910Y-4006978D01*
X4030369Y-4028954D01*
X4133858Y-4132444D01*
X4237348Y-4028954D01*
X4237348Y-4031783D01*
X4135272Y-4133858D01*
X4238762Y-4237348D01*
X4260739Y-4224806D01*
X4285885Y-4169328D01*
X4287887Y-4108450D01*
X4287887Y-4350939D01*
X4275962Y-4346000D01*
X4237348Y-4346000D01*
X4237348Y-4238762D01*
X4133858Y-4135272D01*
X4132444Y-4136687D01*
X4132444Y-4133858D01*
X4028954Y-4030369D01*
X4006978Y-4042910D01*
X3981831Y-4098388D01*
X3979830Y-4159266D01*
X4001278Y-4216276D01*
X4006978Y-4224806D01*
X4028954Y-4237348D01*
X4132444Y-4133858D01*
X4132444Y-4136687D01*
X4030369Y-4238762D01*
X4042910Y-4260739D01*
X4098388Y-4285885D01*
X4159266Y-4287887D01*
X4216276Y-4266439D01*
X4224806Y-4260739D01*
X4237348Y-4238762D01*
X4237348Y-4346000D01*
X4234750Y-4346000D01*
X4226000Y-4354750D01*
X4226000Y-4424000D01*
X4295250Y-4424000D01*
X4304000Y-4415250D01*
X4304000Y-4434750D01*
X4295250Y-4426000D01*
X4226000Y-4426000D01*
X4226000Y-4495250D01*
X4234750Y-4504000D01*
X4275962Y-4504000D01*
X4288826Y-4498672D01*
X4298672Y-4488826D01*
X4304000Y-4475962D01*
X4304000Y-4804994D01*
X4295479Y-4813501D01*
X4287887Y-4831785D01*
X4287887Y-4699001D01*
X4266439Y-4641991D01*
X4260739Y-4633461D01*
X4238762Y-4620920D01*
X4237348Y-4622334D01*
X4237348Y-4619506D01*
X4224806Y-4597529D01*
X4224000Y-4597163D01*
X4224000Y-4495250D01*
X4224000Y-4426000D01*
X4224000Y-4424000D01*
X4224000Y-4354750D01*
X4215250Y-4346000D01*
X4174038Y-4346000D01*
X4161174Y-4351328D01*
X4151328Y-4361174D01*
X4146000Y-4374038D01*
X4146000Y-4387962D01*
X4146000Y-4415250D01*
X4154750Y-4424000D01*
X4224000Y-4424000D01*
X4224000Y-4426000D01*
X4154750Y-4426000D01*
X4146000Y-4434750D01*
X4146000Y-4462038D01*
X4146000Y-4475962D01*
X4151328Y-4488826D01*
X4161174Y-4498672D01*
X4174038Y-4504000D01*
X4215250Y-4504000D01*
X4224000Y-4495250D01*
X4224000Y-4597163D01*
X4169328Y-4572383D01*
X4108450Y-4570381D01*
X4051440Y-4591829D01*
X4042910Y-4597529D01*
X4030369Y-4619506D01*
X4133858Y-4722995D01*
X4237348Y-4619506D01*
X4237348Y-4622334D01*
X4135272Y-4724409D01*
X4238762Y-4827899D01*
X4260739Y-4815358D01*
X4285885Y-4759879D01*
X4287887Y-4699001D01*
X4287887Y-4831785D01*
X4285661Y-4837144D01*
X4285639Y-4862744D01*
X4295415Y-4886404D01*
X4303289Y-4894291D01*
X4237348Y-4894291D01*
X4237348Y-4829313D01*
X4133858Y-4725824D01*
X4132444Y-4727238D01*
X4132444Y-4724409D01*
X4028954Y-4620920D01*
X4006978Y-4633461D01*
X3981831Y-4688939D01*
X3979830Y-4749818D01*
X4001278Y-4806828D01*
X4006978Y-4815358D01*
X4028954Y-4827899D01*
X4132444Y-4724409D01*
X4132444Y-4727238D01*
X4030369Y-4829313D01*
X4042910Y-4851290D01*
X4098388Y-4876436D01*
X4159266Y-4878438D01*
X4216276Y-4856990D01*
X4224806Y-4851290D01*
X4237348Y-4829313D01*
X4237348Y-4894291D01*
X3963976Y-4894291D01*
X3963976Y-3963976D01*
X4295281Y-3963976D01*
X4285661Y-3987144D01*
X4285639Y-4012744D01*
X4295415Y-4036404D01*
X4313501Y-4054521D01*
X4337144Y-4064339D01*
X4362744Y-4064361D01*
X4386404Y-4054585D01*
X4404521Y-4036499D01*
X4414339Y-4012856D01*
X4414361Y-3987256D01*
X4404742Y-3963976D01*
X4695281Y-3963976D01*
X4685661Y-3987144D01*
X4685639Y-4012744D01*
X4695415Y-4036404D01*
X4713501Y-4054521D01*
X4720000Y-4057220D01*
X4720000Y-4150000D01*
X4722284Y-4161481D01*
X4728787Y-4171213D01*
X4745000Y-4187426D01*
X4745000Y-4394896D01*
X4738991Y-4400894D01*
X4732507Y-4416509D01*
X4732493Y-4433417D01*
X4738949Y-4449043D01*
X4750894Y-4461009D01*
X4766509Y-4467493D01*
X4780423Y-4467505D01*
X4655000Y-4592928D01*
X4655000Y-4540027D01*
X4651194Y-4530839D01*
X4644161Y-4523806D01*
X4634973Y-4520000D01*
X4632771Y-4520000D01*
X4646600Y-4506196D01*
X4654990Y-4485988D01*
X4655010Y-4464108D01*
X4646654Y-4443886D01*
X4631196Y-4428400D01*
X4623011Y-4425002D01*
X4631114Y-4421654D01*
X4646600Y-4406196D01*
X4654990Y-4385988D01*
X4655010Y-4364108D01*
X4646654Y-4343886D01*
X4631196Y-4328400D01*
X4623011Y-4325002D01*
X4631114Y-4321654D01*
X4646600Y-4306196D01*
X4654990Y-4285988D01*
X4655010Y-4264108D01*
X4646654Y-4243886D01*
X4631196Y-4228400D01*
X4610988Y-4220010D01*
X4589108Y-4219990D01*
X4568886Y-4228346D01*
X4553400Y-4243804D01*
X4550002Y-4251989D01*
X4546654Y-4243886D01*
X4531196Y-4228400D01*
X4510988Y-4220010D01*
X4489108Y-4219990D01*
X4468886Y-4228346D01*
X4453400Y-4243804D01*
X4445010Y-4264012D01*
X4444990Y-4285892D01*
X4453346Y-4306114D01*
X4468804Y-4321600D01*
X4476989Y-4324998D01*
X4468886Y-4328346D01*
X4453400Y-4343804D01*
X4445010Y-4364012D01*
X4444990Y-4385892D01*
X4453346Y-4406114D01*
X4468804Y-4421600D01*
X4476989Y-4424998D01*
X4468886Y-4428346D01*
X4453400Y-4443804D01*
X4445010Y-4464012D01*
X4444990Y-4485892D01*
X4453346Y-4506114D01*
X4465756Y-4518546D01*
X4464524Y-4519022D01*
X4461859Y-4520802D01*
X4460038Y-4533624D01*
X4500000Y-4573586D01*
X4539962Y-4533624D01*
X4538141Y-4520802D01*
X4536330Y-4520000D01*
X4565027Y-4520000D01*
X4555839Y-4523806D01*
X4548806Y-4530839D01*
X4546750Y-4535801D01*
X4541376Y-4535038D01*
X4501414Y-4575000D01*
X4541376Y-4614962D01*
X4546750Y-4614199D01*
X4548806Y-4619161D01*
X4555839Y-4626194D01*
X4565027Y-4630000D01*
X4574973Y-4630000D01*
X4617928Y-4630000D01*
X4614627Y-4633301D01*
X4600957Y-4638949D01*
X4588991Y-4650894D01*
X4582507Y-4666509D01*
X4582493Y-4683417D01*
X4588949Y-4699043D01*
X4600894Y-4711009D01*
X4616509Y-4717493D01*
X4633417Y-4717507D01*
X4649043Y-4711051D01*
X4661009Y-4699106D01*
X4667493Y-4683491D01*
X4667507Y-4666583D01*
X4667124Y-4665656D01*
X4830420Y-4502360D01*
X4841527Y-4502370D01*
X4857956Y-4495581D01*
X4865002Y-4488548D01*
X4865729Y-4489636D01*
X4877479Y-4490201D01*
X4910003Y-4457677D01*
X4877479Y-4425153D01*
X4865729Y-4425719D01*
X4865174Y-4426981D01*
X4864643Y-4426449D01*
X4865201Y-4414844D01*
X4832677Y-4382320D01*
X4832120Y-4382876D01*
X4830706Y-4381462D01*
X4831263Y-4380906D01*
X4830706Y-4380349D01*
X4832120Y-4378934D01*
X4832677Y-4379491D01*
X4865201Y-4346967D01*
X4864636Y-4335217D01*
X4844719Y-4326465D01*
X4822969Y-4326001D01*
X4805000Y-4332999D01*
X4805000Y-4288711D01*
X4820636Y-4295582D01*
X4842386Y-4296046D01*
X4862658Y-4288152D01*
X4864636Y-4286830D01*
X4865201Y-4275080D01*
X4832677Y-4242556D01*
X4832120Y-4243113D01*
X4830706Y-4241699D01*
X4831263Y-4241142D01*
X4830706Y-4240585D01*
X4832120Y-4239171D01*
X4832677Y-4239728D01*
X4833234Y-4239171D01*
X4834648Y-4240585D01*
X4834091Y-4241142D01*
X4866615Y-4273666D01*
X4878366Y-4273100D01*
X4878920Y-4271837D01*
X4886072Y-4279002D01*
X4902490Y-4285819D01*
X4920267Y-4285835D01*
X4931720Y-4281102D01*
X4931823Y-4281205D01*
X4932072Y-4280957D01*
X4936696Y-4279046D01*
X4938073Y-4277671D01*
X4938514Y-4286830D01*
X4958431Y-4295582D01*
X4980181Y-4296046D01*
X5000453Y-4288152D01*
X5002431Y-4286830D01*
X5002996Y-4275080D01*
X4970472Y-4242556D01*
X4969916Y-4243113D01*
X4968501Y-4241699D01*
X4969058Y-4241142D01*
X4968501Y-4240585D01*
X4969916Y-4239171D01*
X4970472Y-4239728D01*
X5002996Y-4207204D01*
X5002431Y-4195453D01*
X4982514Y-4186701D01*
X4960764Y-4186237D01*
X4940492Y-4194132D01*
X4938514Y-4195453D01*
X4938074Y-4204596D01*
X4936762Y-4203282D01*
X4932084Y-4201339D01*
X4931823Y-4201078D01*
X4931715Y-4201186D01*
X4920345Y-4196464D01*
X4909157Y-4196455D01*
X4866489Y-4153787D01*
X4856756Y-4147284D01*
X4845276Y-4145000D01*
X4787426Y-4145000D01*
X4780000Y-4137574D01*
X4780000Y-4057231D01*
X4786404Y-4054585D01*
X4804521Y-4036499D01*
X4814339Y-4012856D01*
X4814361Y-3987256D01*
X4804742Y-3963976D01*
X5020281Y-3963976D01*
X5010661Y-3987144D01*
X5010639Y-4012744D01*
X5020415Y-4036404D01*
X5038501Y-4054521D01*
X5062144Y-4064339D01*
X5087744Y-4064361D01*
X5111404Y-4054585D01*
X5129521Y-4036499D01*
X5139339Y-4012856D01*
X5139361Y-3987256D01*
X5129742Y-3963976D01*
X5420281Y-3963976D01*
X5410661Y-3987144D01*
X5410639Y-4012744D01*
X5413326Y-4019248D01*
X5221432Y-4211142D01*
X5082404Y-4211142D01*
X5074558Y-4203282D01*
X5058140Y-4196464D01*
X5040363Y-4196449D01*
X5023934Y-4203238D01*
X5016888Y-4210271D01*
X5016161Y-4209183D01*
X5004411Y-4208618D01*
X4971887Y-4241142D01*
X5004411Y-4273666D01*
X5016161Y-4273100D01*
X5016716Y-4271837D01*
X5023868Y-4279002D01*
X5040285Y-4285819D01*
X5058062Y-4285835D01*
X5074492Y-4279046D01*
X5082410Y-4271142D01*
X5233858Y-4271142D01*
X5233858Y-4271142D01*
X5245339Y-4268858D01*
X5245339Y-4268858D01*
X5255071Y-4262355D01*
X5445000Y-4072426D01*
X5445000Y-4582496D01*
X5441583Y-4582493D01*
X5425957Y-4588949D01*
X5413991Y-4600894D01*
X5407507Y-4616509D01*
X5407493Y-4633417D01*
X5413949Y-4649043D01*
X5425894Y-4661009D01*
X5441509Y-4667493D01*
X5458417Y-4667507D01*
X5474043Y-4661051D01*
X5486009Y-4649106D01*
X5492493Y-4633491D01*
X5492500Y-4624926D01*
X5496213Y-4621213D01*
X5496213Y-4621213D01*
X5500112Y-4615379D01*
X5502716Y-4611481D01*
X5502716Y-4611480D01*
X5505000Y-4600000D01*
X5505000Y-4057231D01*
X5511404Y-4054585D01*
X5529521Y-4036499D01*
X5539339Y-4012856D01*
X5539361Y-3987256D01*
X5529742Y-3963976D01*
X5878543Y-3963976D01*
X5878543Y-4894291D01*
X5878543Y-4894291D01*
G37*
X5878543Y-4894291D02*
X5862690Y-4894291D01*
X5862690Y-4699001D01*
X5862690Y-4108450D01*
X5841242Y-4051440D01*
X5835542Y-4042910D01*
X5813565Y-4030369D01*
X5812151Y-4031783D01*
X5812151Y-4028954D01*
X5799610Y-4006978D01*
X5744131Y-3981831D01*
X5683253Y-3979830D01*
X5626243Y-4001278D01*
X5617713Y-4006978D01*
X5605172Y-4028954D01*
X5708661Y-4132444D01*
X5812151Y-4028954D01*
X5812151Y-4031783D01*
X5710076Y-4133858D01*
X5813565Y-4237348D01*
X5835542Y-4224806D01*
X5860688Y-4169328D01*
X5862690Y-4108450D01*
X5862690Y-4699001D01*
X5841242Y-4641991D01*
X5835542Y-4633461D01*
X5813565Y-4620920D01*
X5812151Y-4622334D01*
X5812151Y-4619506D01*
X5812151Y-4238762D01*
X5708661Y-4135272D01*
X5707247Y-4136687D01*
X5707247Y-4133858D01*
X5603758Y-4030369D01*
X5581781Y-4042910D01*
X5556635Y-4098388D01*
X5554633Y-4159266D01*
X5576081Y-4216276D01*
X5581781Y-4224806D01*
X5603758Y-4237348D01*
X5707247Y-4133858D01*
X5707247Y-4136687D01*
X5605172Y-4238762D01*
X5617713Y-4260739D01*
X5673191Y-4285885D01*
X5734070Y-4287887D01*
X5791080Y-4266439D01*
X5799610Y-4260739D01*
X5812151Y-4238762D01*
X5812151Y-4619506D01*
X5799610Y-4597529D01*
X5744131Y-4572383D01*
X5683253Y-4570381D01*
X5626243Y-4591829D01*
X5617713Y-4597529D01*
X5605172Y-4619506D01*
X5708661Y-4722995D01*
X5812151Y-4619506D01*
X5812151Y-4622334D01*
X5710076Y-4724409D01*
X5813565Y-4827899D01*
X5835542Y-4815358D01*
X5860688Y-4759879D01*
X5862690Y-4699001D01*
X5862690Y-4894291D01*
X5812151Y-4894291D01*
X5812151Y-4829313D01*
X5708661Y-4725824D01*
X5707247Y-4727238D01*
X5707247Y-4724409D01*
X5603758Y-4620920D01*
X5581781Y-4633461D01*
X5556635Y-4688939D01*
X5554633Y-4749818D01*
X5576081Y-4806828D01*
X5581781Y-4815358D01*
X5603758Y-4827899D01*
X5707247Y-4724409D01*
X5707247Y-4727238D01*
X5605172Y-4829313D01*
X5617713Y-4851290D01*
X5673191Y-4876436D01*
X5734070Y-4878438D01*
X5791080Y-4856990D01*
X5799610Y-4851290D01*
X5812151Y-4829313D01*
X5812151Y-4894291D01*
X5546715Y-4894291D01*
X5554521Y-4886499D01*
X5564339Y-4862856D01*
X5564361Y-4837256D01*
X5554585Y-4813596D01*
X5536499Y-4795479D01*
X5512856Y-4785661D01*
X5487256Y-4785639D01*
X5463596Y-4795415D01*
X5445479Y-4813501D01*
X5435661Y-4837144D01*
X5435639Y-4862744D01*
X5445415Y-4886404D01*
X5453289Y-4894291D01*
X5365011Y-4894291D01*
X5365011Y-4535553D01*
X5365011Y-4338702D01*
X5355136Y-4314803D01*
X5336868Y-4296503D01*
X5312986Y-4286586D01*
X5287127Y-4286564D01*
X5263229Y-4296438D01*
X5244928Y-4314707D01*
X5235011Y-4338589D01*
X5234989Y-4364447D01*
X5244864Y-4388346D01*
X5263132Y-4406647D01*
X5287014Y-4416564D01*
X5312873Y-4416586D01*
X5336771Y-4406711D01*
X5355072Y-4388442D01*
X5364989Y-4364561D01*
X5365011Y-4338702D01*
X5365011Y-4535553D01*
X5355136Y-4511654D01*
X5336868Y-4493353D01*
X5312986Y-4483436D01*
X5287127Y-4483414D01*
X5263229Y-4493289D01*
X5244928Y-4511558D01*
X5235011Y-4535439D01*
X5234989Y-4561298D01*
X5244864Y-4585197D01*
X5263132Y-4603497D01*
X5287014Y-4613414D01*
X5312873Y-4613436D01*
X5336771Y-4603562D01*
X5355072Y-4585293D01*
X5364989Y-4561411D01*
X5365011Y-4535553D01*
X5365011Y-4894291D01*
X5217507Y-4894291D01*
X5217507Y-4691583D01*
X5211051Y-4675957D01*
X5199106Y-4663991D01*
X5183491Y-4657507D01*
X5166583Y-4657493D01*
X5150957Y-4663949D01*
X5144896Y-4670000D01*
X5104117Y-4670000D01*
X5083816Y-4670000D01*
X5083151Y-4669335D01*
X5094901Y-4668769D01*
X5103653Y-4648853D01*
X5104117Y-4627103D01*
X5104117Y-4447969D01*
X5096223Y-4427697D01*
X5094901Y-4425719D01*
X5093905Y-4425671D01*
X5093905Y-4372056D01*
X5087117Y-4355627D01*
X5074558Y-4343045D01*
X5058140Y-4336228D01*
X5040363Y-4336213D01*
X5023934Y-4343001D01*
X5016888Y-4350035D01*
X5016161Y-4348947D01*
X5004411Y-4348382D01*
X4971887Y-4380906D01*
X5004411Y-4413429D01*
X5016161Y-4412864D01*
X5016716Y-4411601D01*
X5017247Y-4412134D01*
X5016689Y-4423739D01*
X5049213Y-4456263D01*
X5081736Y-4423739D01*
X5081178Y-4412135D01*
X5087073Y-4406251D01*
X5093890Y-4389833D01*
X5093905Y-4372056D01*
X5093905Y-4425671D01*
X5083151Y-4425153D01*
X5050627Y-4457677D01*
X5083151Y-4490201D01*
X5094901Y-4489636D01*
X5103653Y-4469719D01*
X5104117Y-4447969D01*
X5104117Y-4627103D01*
X5096223Y-4606830D01*
X5094901Y-4604853D01*
X5085047Y-4604378D01*
X5085047Y-4538200D01*
X5078109Y-4521408D01*
X5066393Y-4509672D01*
X5079193Y-4504687D01*
X5081171Y-4503366D01*
X5081736Y-4491615D01*
X5049213Y-4459091D01*
X5016689Y-4491615D01*
X5017254Y-4503366D01*
X5021479Y-4505222D01*
X5013534Y-4508505D01*
X5000676Y-4521341D01*
X4993709Y-4538120D01*
X4993693Y-4556288D01*
X5000631Y-4573080D01*
X5013467Y-4585938D01*
X5021058Y-4589090D01*
X5019232Y-4589801D01*
X5017254Y-4591123D01*
X5016689Y-4602873D01*
X5049213Y-4635397D01*
X5081736Y-4602873D01*
X5081171Y-4591123D01*
X5066511Y-4584680D01*
X5078064Y-4573147D01*
X5085031Y-4556368D01*
X5085047Y-4538200D01*
X5085047Y-4604378D01*
X5083151Y-4604287D01*
X5050627Y-4636811D01*
X5051184Y-4637368D01*
X5049769Y-4638782D01*
X5049213Y-4638225D01*
X5048656Y-4638782D01*
X5047242Y-4637368D01*
X5047798Y-4636811D01*
X5015274Y-4604287D01*
X5003524Y-4604853D01*
X5002981Y-4606088D01*
X4995818Y-4598912D01*
X4979400Y-4592094D01*
X4961623Y-4592079D01*
X4950142Y-4596823D01*
X4950067Y-4596747D01*
X4949885Y-4596929D01*
X4945193Y-4598867D01*
X4943815Y-4600244D01*
X4943376Y-4591123D01*
X4928716Y-4584680D01*
X4940269Y-4573147D01*
X4947236Y-4556368D01*
X4947252Y-4538200D01*
X4940314Y-4521408D01*
X4928598Y-4509672D01*
X4941398Y-4504687D01*
X4943376Y-4503366D01*
X4943816Y-4494223D01*
X4945127Y-4495537D01*
X4949806Y-4497480D01*
X4950067Y-4497741D01*
X4950174Y-4497633D01*
X4961545Y-4502354D01*
X4979322Y-4502370D01*
X4995751Y-4495581D01*
X5002797Y-4488548D01*
X5003524Y-4489636D01*
X5015274Y-4490201D01*
X5047798Y-4457677D01*
X5015274Y-4425153D01*
X5003524Y-4425719D01*
X5002969Y-4426981D01*
X5002438Y-4426449D01*
X5002996Y-4414844D01*
X4970472Y-4382320D01*
X4969916Y-4382876D01*
X4968501Y-4381462D01*
X4969058Y-4380906D01*
X4968501Y-4380349D01*
X4969916Y-4378934D01*
X4970472Y-4379491D01*
X5002996Y-4346967D01*
X5002431Y-4335217D01*
X4982514Y-4326465D01*
X4960764Y-4326001D01*
X4940492Y-4333896D01*
X4938514Y-4335217D01*
X4938074Y-4344359D01*
X4936762Y-4343045D01*
X4932084Y-4341103D01*
X4931823Y-4340842D01*
X4931715Y-4340950D01*
X4920345Y-4336228D01*
X4902568Y-4336213D01*
X4886138Y-4343001D01*
X4879092Y-4350035D01*
X4878366Y-4348947D01*
X4866615Y-4348382D01*
X4834091Y-4380906D01*
X4866615Y-4413429D01*
X4878366Y-4412864D01*
X4878920Y-4411601D01*
X4879452Y-4412134D01*
X4878893Y-4423739D01*
X4911417Y-4456263D01*
X4911974Y-4455706D01*
X4913388Y-4457120D01*
X4912832Y-4457677D01*
X4913388Y-4458234D01*
X4911974Y-4459648D01*
X4911417Y-4459091D01*
X4878893Y-4491615D01*
X4879459Y-4503366D01*
X4883684Y-4505222D01*
X4875739Y-4508505D01*
X4862881Y-4521341D01*
X4855913Y-4538120D01*
X4855898Y-4556288D01*
X4862836Y-4573080D01*
X4875671Y-4585938D01*
X4883262Y-4589090D01*
X4881437Y-4589801D01*
X4879459Y-4591123D01*
X4878893Y-4602873D01*
X4911417Y-4635397D01*
X4911974Y-4634840D01*
X4913388Y-4636254D01*
X4912832Y-4636811D01*
X4913388Y-4637368D01*
X4911974Y-4638782D01*
X4911417Y-4638225D01*
X4910003Y-4639639D01*
X4910003Y-4636811D01*
X4877479Y-4604287D01*
X4865729Y-4604853D01*
X4865186Y-4606088D01*
X4858022Y-4598912D01*
X4841605Y-4592094D01*
X4823828Y-4592079D01*
X4807398Y-4598867D01*
X4794817Y-4611427D01*
X4788000Y-4627844D01*
X4787984Y-4645621D01*
X4794773Y-4662051D01*
X4807332Y-4674632D01*
X4823750Y-4681449D01*
X4841527Y-4681464D01*
X4857956Y-4674676D01*
X4864986Y-4667658D01*
X4865729Y-4668769D01*
X4877479Y-4669335D01*
X4910003Y-4636811D01*
X4910003Y-4639639D01*
X4878893Y-4670749D01*
X4879459Y-4682499D01*
X4899376Y-4691252D01*
X4921126Y-4691716D01*
X4941398Y-4683821D01*
X4943376Y-4682499D01*
X4943818Y-4673320D01*
X4945127Y-4674632D01*
X4949738Y-4676546D01*
X4950067Y-4676875D01*
X4950202Y-4676739D01*
X4961545Y-4681449D01*
X4972733Y-4681459D01*
X5012488Y-4721213D01*
X5022220Y-4727716D01*
X5022220Y-4727716D01*
X5033701Y-4730000D01*
X5144896Y-4730000D01*
X5150894Y-4736009D01*
X5166509Y-4742493D01*
X5183417Y-4742507D01*
X5199043Y-4736051D01*
X5211009Y-4724106D01*
X5217493Y-4708491D01*
X5217507Y-4691583D01*
X5217507Y-4894291D01*
X5146715Y-4894291D01*
X5154521Y-4886499D01*
X5164339Y-4862856D01*
X5164361Y-4837256D01*
X5154585Y-4813596D01*
X5136499Y-4795479D01*
X5112856Y-4785661D01*
X5087256Y-4785639D01*
X5063596Y-4795415D01*
X5045479Y-4813501D01*
X5035661Y-4837144D01*
X5035639Y-4862744D01*
X5045415Y-4886404D01*
X5053289Y-4894291D01*
X4796715Y-4894291D01*
X4804521Y-4886499D01*
X4814339Y-4862856D01*
X4814361Y-4837256D01*
X4804585Y-4813596D01*
X4786499Y-4795479D01*
X4762856Y-4785661D01*
X4737256Y-4785639D01*
X4713596Y-4795415D01*
X4695479Y-4813501D01*
X4685661Y-4837144D01*
X4685639Y-4862744D01*
X4695415Y-4886404D01*
X4703289Y-4894291D01*
X4539962Y-4894291D01*
X4539962Y-4616376D01*
X4500000Y-4576414D01*
X4498586Y-4577828D01*
X4498586Y-4575000D01*
X4458624Y-4535038D01*
X4445802Y-4536859D01*
X4435332Y-4560503D01*
X4434706Y-4586354D01*
X4444022Y-4610476D01*
X4445802Y-4613141D01*
X4458624Y-4614962D01*
X4498586Y-4575000D01*
X4498586Y-4577828D01*
X4460038Y-4616376D01*
X4461859Y-4629198D01*
X4485503Y-4639668D01*
X4511354Y-4640294D01*
X4535476Y-4630978D01*
X4538141Y-4629198D01*
X4539962Y-4616376D01*
X4539962Y-4894291D01*
X4396715Y-4894291D01*
X4404521Y-4886499D01*
X4414339Y-4862856D01*
X4414361Y-4837256D01*
X4404585Y-4813596D01*
X4386499Y-4795479D01*
X4362856Y-4785661D01*
X4337256Y-4785639D01*
X4313596Y-4795415D01*
X4304000Y-4804994D01*
X4304000Y-4475962D01*
X4304000Y-4462038D01*
X4304000Y-4434750D01*
X4304000Y-4415250D01*
X4304000Y-4387962D01*
X4304000Y-4374038D01*
X4298672Y-4361174D01*
X4288826Y-4351328D01*
X4287887Y-4350939D01*
X4287887Y-4108450D01*
X4266439Y-4051440D01*
X4260739Y-4042910D01*
X4238762Y-4030369D01*
X4237348Y-4031783D01*
X4237348Y-4028954D01*
X4224806Y-4006978D01*
X4169328Y-3981831D01*
X4108450Y-3979830D01*
X4051440Y-4001278D01*
X4042910Y-4006978D01*
X4030369Y-4028954D01*
X4133858Y-4132444D01*
X4237348Y-4028954D01*
X4237348Y-4031783D01*
X4135272Y-4133858D01*
X4238762Y-4237348D01*
X4260739Y-4224806D01*
X4285885Y-4169328D01*
X4287887Y-4108450D01*
X4287887Y-4350939D01*
X4275962Y-4346000D01*
X4237348Y-4346000D01*
X4237348Y-4238762D01*
X4133858Y-4135272D01*
X4132444Y-4136687D01*
X4132444Y-4133858D01*
X4028954Y-4030369D01*
X4006978Y-4042910D01*
X3981831Y-4098388D01*
X3979830Y-4159266D01*
X4001278Y-4216276D01*
X4006978Y-4224806D01*
X4028954Y-4237348D01*
X4132444Y-4133858D01*
X4132444Y-4136687D01*
X4030369Y-4238762D01*
X4042910Y-4260739D01*
X4098388Y-4285885D01*
X4159266Y-4287887D01*
X4216276Y-4266439D01*
X4224806Y-4260739D01*
X4237348Y-4238762D01*
X4237348Y-4346000D01*
X4234750Y-4346000D01*
X4226000Y-4354750D01*
X4226000Y-4424000D01*
X4295250Y-4424000D01*
X4304000Y-4415250D01*
X4304000Y-4434750D01*
X4295250Y-4426000D01*
X4226000Y-4426000D01*
X4226000Y-4495250D01*
X4234750Y-4504000D01*
X4275962Y-4504000D01*
X4288826Y-4498672D01*
X4298672Y-4488826D01*
X4304000Y-4475962D01*
X4304000Y-4804994D01*
X4295479Y-4813501D01*
X4287887Y-4831785D01*
X4287887Y-4699001D01*
X4266439Y-4641991D01*
X4260739Y-4633461D01*
X4238762Y-4620920D01*
X4237348Y-4622334D01*
X4237348Y-4619506D01*
X4224806Y-4597529D01*
X4224000Y-4597163D01*
X4224000Y-4495250D01*
X4224000Y-4426000D01*
X4224000Y-4424000D01*
X4224000Y-4354750D01*
X4215250Y-4346000D01*
X4174038Y-4346000D01*
X4161174Y-4351328D01*
X4151328Y-4361174D01*
X4146000Y-4374038D01*
X4146000Y-4387962D01*
X4146000Y-4415250D01*
X4154750Y-4424000D01*
X4224000Y-4424000D01*
X4224000Y-4426000D01*
X4154750Y-4426000D01*
X4146000Y-4434750D01*
X4146000Y-4462038D01*
X4146000Y-4475962D01*
X4151328Y-4488826D01*
X4161174Y-4498672D01*
X4174038Y-4504000D01*
X4215250Y-4504000D01*
X4224000Y-4495250D01*
X4224000Y-4597163D01*
X4169328Y-4572383D01*
X4108450Y-4570381D01*
X4051440Y-4591829D01*
X4042910Y-4597529D01*
X4030369Y-4619506D01*
X4133858Y-4722995D01*
X4237348Y-4619506D01*
X4237348Y-4622334D01*
X4135272Y-4724409D01*
X4238762Y-4827899D01*
X4260739Y-4815358D01*
X4285885Y-4759879D01*
X4287887Y-4699001D01*
X4287887Y-4831785D01*
X4285661Y-4837144D01*
X4285639Y-4862744D01*
X4295415Y-4886404D01*
X4303289Y-4894291D01*
X4237348Y-4894291D01*
X4237348Y-4829313D01*
X4133858Y-4725824D01*
X4132444Y-4727238D01*
X4132444Y-4724409D01*
X4028954Y-4620920D01*
X4006978Y-4633461D01*
X3981831Y-4688939D01*
X3979830Y-4749818D01*
X4001278Y-4806828D01*
X4006978Y-4815358D01*
X4028954Y-4827899D01*
X4132444Y-4724409D01*
X4132444Y-4727238D01*
X4030369Y-4829313D01*
X4042910Y-4851290D01*
X4098388Y-4876436D01*
X4159266Y-4878438D01*
X4216276Y-4856990D01*
X4224806Y-4851290D01*
X4237348Y-4829313D01*
X4237348Y-4894291D01*
X3963976Y-4894291D01*
X3963976Y-3963976D01*
X4295281Y-3963976D01*
X4285661Y-3987144D01*
X4285639Y-4012744D01*
X4295415Y-4036404D01*
X4313501Y-4054521D01*
X4337144Y-4064339D01*
X4362744Y-4064361D01*
X4386404Y-4054585D01*
X4404521Y-4036499D01*
X4414339Y-4012856D01*
X4414361Y-3987256D01*
X4404742Y-3963976D01*
X4695281Y-3963976D01*
X4685661Y-3987144D01*
X4685639Y-4012744D01*
X4695415Y-4036404D01*
X4713501Y-4054521D01*
X4720000Y-4057220D01*
X4720000Y-4150000D01*
X4722284Y-4161481D01*
X4728787Y-4171213D01*
X4745000Y-4187426D01*
X4745000Y-4394896D01*
X4738991Y-4400894D01*
X4732507Y-4416509D01*
X4732493Y-4433417D01*
X4738949Y-4449043D01*
X4750894Y-4461009D01*
X4766509Y-4467493D01*
X4780423Y-4467505D01*
X4655000Y-4592928D01*
X4655000Y-4540027D01*
X4651194Y-4530839D01*
X4644161Y-4523806D01*
X4634973Y-4520000D01*
X4632771Y-4520000D01*
X4646600Y-4506196D01*
X4654990Y-4485988D01*
X4655010Y-4464108D01*
X4646654Y-4443886D01*
X4631196Y-4428400D01*
X4623011Y-4425002D01*
X4631114Y-4421654D01*
X4646600Y-4406196D01*
X4654990Y-4385988D01*
X4655010Y-4364108D01*
X4646654Y-4343886D01*
X4631196Y-4328400D01*
X4623011Y-4325002D01*
X4631114Y-4321654D01*
X4646600Y-4306196D01*
X4654990Y-4285988D01*
X4655010Y-4264108D01*
X4646654Y-4243886D01*
X4631196Y-4228400D01*
X4610988Y-4220010D01*
X4589108Y-4219990D01*
X4568886Y-4228346D01*
X4553400Y-4243804D01*
X4550002Y-4251989D01*
X4546654Y-4243886D01*
X4531196Y-4228400D01*
X4510988Y-4220010D01*
X4489108Y-4219990D01*
X4468886Y-4228346D01*
X4453400Y-4243804D01*
X4445010Y-4264012D01*
X4444990Y-4285892D01*
X4453346Y-4306114D01*
X4468804Y-4321600D01*
X4476989Y-4324998D01*
X4468886Y-4328346D01*
X4453400Y-4343804D01*
X4445010Y-4364012D01*
X4444990Y-4385892D01*
X4453346Y-4406114D01*
X4468804Y-4421600D01*
X4476989Y-4424998D01*
X4468886Y-4428346D01*
X4453400Y-4443804D01*
X4445010Y-4464012D01*
X4444990Y-4485892D01*
X4453346Y-4506114D01*
X4465756Y-4518546D01*
X4464524Y-4519022D01*
X4461859Y-4520802D01*
X4460038Y-4533624D01*
X4500000Y-4573586D01*
X4539962Y-4533624D01*
X4538141Y-4520802D01*
X4536330Y-4520000D01*
X4565027Y-4520000D01*
X4555839Y-4523806D01*
X4548806Y-4530839D01*
X4546750Y-4535801D01*
X4541376Y-4535038D01*
X4501414Y-4575000D01*
X4541376Y-4614962D01*
X4546750Y-4614199D01*
X4548806Y-4619161D01*
X4555839Y-4626194D01*
X4565027Y-4630000D01*
X4574973Y-4630000D01*
X4617928Y-4630000D01*
X4614627Y-4633301D01*
X4600957Y-4638949D01*
X4588991Y-4650894D01*
X4582507Y-4666509D01*
X4582493Y-4683417D01*
X4588949Y-4699043D01*
X4600894Y-4711009D01*
X4616509Y-4717493D01*
X4633417Y-4717507D01*
X4649043Y-4711051D01*
X4661009Y-4699106D01*
X4667493Y-4683491D01*
X4667507Y-4666583D01*
X4667124Y-4665656D01*
X4830420Y-4502360D01*
X4841527Y-4502370D01*
X4857956Y-4495581D01*
X4865002Y-4488548D01*
X4865729Y-4489636D01*
X4877479Y-4490201D01*
X4910003Y-4457677D01*
X4877479Y-4425153D01*
X4865729Y-4425719D01*
X4865174Y-4426981D01*
X4864643Y-4426449D01*
X4865201Y-4414844D01*
X4832677Y-4382320D01*
X4832120Y-4382876D01*
X4830706Y-4381462D01*
X4831263Y-4380906D01*
X4830706Y-4380349D01*
X4832120Y-4378934D01*
X4832677Y-4379491D01*
X4865201Y-4346967D01*
X4864636Y-4335217D01*
X4844719Y-4326465D01*
X4822969Y-4326001D01*
X4805000Y-4332999D01*
X4805000Y-4288711D01*
X4820636Y-4295582D01*
X4842386Y-4296046D01*
X4862658Y-4288152D01*
X4864636Y-4286830D01*
X4865201Y-4275080D01*
X4832677Y-4242556D01*
X4832120Y-4243113D01*
X4830706Y-4241699D01*
X4831263Y-4241142D01*
X4830706Y-4240585D01*
X4832120Y-4239171D01*
X4832677Y-4239728D01*
X4833234Y-4239171D01*
X4834648Y-4240585D01*
X4834091Y-4241142D01*
X4866615Y-4273666D01*
X4878366Y-4273100D01*
X4878920Y-4271837D01*
X4886072Y-4279002D01*
X4902490Y-4285819D01*
X4920267Y-4285835D01*
X4931720Y-4281102D01*
X4931823Y-4281205D01*
X4932072Y-4280957D01*
X4936696Y-4279046D01*
X4938073Y-4277671D01*
X4938514Y-4286830D01*
X4958431Y-4295582D01*
X4980181Y-4296046D01*
X5000453Y-4288152D01*
X5002431Y-4286830D01*
X5002996Y-4275080D01*
X4970472Y-4242556D01*
X4969916Y-4243113D01*
X4968501Y-4241699D01*
X4969058Y-4241142D01*
X4968501Y-4240585D01*
X4969916Y-4239171D01*
X4970472Y-4239728D01*
X5002996Y-4207204D01*
X5002431Y-4195453D01*
X4982514Y-4186701D01*
X4960764Y-4186237D01*
X4940492Y-4194132D01*
X4938514Y-4195453D01*
X4938074Y-4204596D01*
X4936762Y-4203282D01*
X4932084Y-4201339D01*
X4931823Y-4201078D01*
X4931715Y-4201186D01*
X4920345Y-4196464D01*
X4909157Y-4196455D01*
X4866489Y-4153787D01*
X4856756Y-4147284D01*
X4845276Y-4145000D01*
X4787426Y-4145000D01*
X4780000Y-4137574D01*
X4780000Y-4057231D01*
X4786404Y-4054585D01*
X4804521Y-4036499D01*
X4814339Y-4012856D01*
X4814361Y-3987256D01*
X4804742Y-3963976D01*
X5020281Y-3963976D01*
X5010661Y-3987144D01*
X5010639Y-4012744D01*
X5020415Y-4036404D01*
X5038501Y-4054521D01*
X5062144Y-4064339D01*
X5087744Y-4064361D01*
X5111404Y-4054585D01*
X5129521Y-4036499D01*
X5139339Y-4012856D01*
X5139361Y-3987256D01*
X5129742Y-3963976D01*
X5420281Y-3963976D01*
X5410661Y-3987144D01*
X5410639Y-4012744D01*
X5413326Y-4019248D01*
X5221432Y-4211142D01*
X5082404Y-4211142D01*
X5074558Y-4203282D01*
X5058140Y-4196464D01*
X5040363Y-4196449D01*
X5023934Y-4203238D01*
X5016888Y-4210271D01*
X5016161Y-4209183D01*
X5004411Y-4208618D01*
X4971887Y-4241142D01*
X5004411Y-4273666D01*
X5016161Y-4273100D01*
X5016716Y-4271837D01*
X5023868Y-4279002D01*
X5040285Y-4285819D01*
X5058062Y-4285835D01*
X5074492Y-4279046D01*
X5082410Y-4271142D01*
X5233858Y-4271142D01*
X5233858Y-4271142D01*
X5245339Y-4268858D01*
X5245339Y-4268858D01*
X5255071Y-4262355D01*
X5445000Y-4072426D01*
X5445000Y-4582496D01*
X5441583Y-4582493D01*
X5425957Y-4588949D01*
X5413991Y-4600894D01*
X5407507Y-4616509D01*
X5407493Y-4633417D01*
X5413949Y-4649043D01*
X5425894Y-4661009D01*
X5441509Y-4667493D01*
X5458417Y-4667507D01*
X5474043Y-4661051D01*
X5486009Y-4649106D01*
X5492493Y-4633491D01*
X5492500Y-4624926D01*
X5496213Y-4621213D01*
X5496213Y-4621213D01*
X5500112Y-4615379D01*
X5502716Y-4611481D01*
X5502716Y-4611480D01*
X5505000Y-4600000D01*
X5505000Y-4057231D01*
X5511404Y-4054585D01*
X5529521Y-4036499D01*
X5539339Y-4012856D01*
X5539361Y-3987256D01*
X5529742Y-3963976D01*
X5878543Y-3963976D01*
X5878543Y-4894291D01*
M02*
