%FSLAX46Y46*%
G04 Gerber Fmt 4.6, Leading zero omitted, Abs format (unit mm)*
G04 Created by KiCad (PCBNEW (2014-jul-16 BZR unknown)-product) date Sun 05 Oct 2014 11:57:01 AM PDT*
%MOMM*%
G01*
G04 APERTURE LIST*
%ADD10C,0.100000*%
%ADD11C,6.000000*%
%ADD12R,1.524000X1.524000*%
%ADD13C,1.524000*%
%ADD14C,1.998980*%
%ADD15R,2.235200X2.235200*%
%ADD16C,1.000000*%
%ADD17C,1.050000*%
%ADD18C,2.032000*%
%ADD19C,0.889000*%
%ADD20C,0.254000*%
%ADD21C,1.016000*%
G04 APERTURE END LIST*
D10*
D11*
X105000000Y-105000000D03*
X145000000Y-105000000D03*
X105000000Y-120000000D03*
X145000000Y-120000000D03*
D12*
X116840000Y-116205000D03*
D13*
X114300000Y-116205000D03*
X116840000Y-113665000D03*
X114300000Y-113665000D03*
X116840000Y-111125000D03*
X114300000Y-111125000D03*
X116840000Y-108585000D03*
X114300000Y-108585000D03*
D14*
X139700000Y-123190000D03*
X129540000Y-123190000D03*
X120650000Y-123190000D03*
X110490000Y-123190000D03*
X120650000Y-101600000D03*
X110490000Y-101600000D03*
X139065000Y-101600000D03*
X128905000Y-101600000D03*
D15*
X107315000Y-112395000D03*
D16*
X122750000Y-117774000D03*
X124750000Y-117775000D03*
X122750000Y-113225000D03*
X124750000Y-113225000D03*
D17*
X124500000Y-115500000D03*
D16*
X126250000Y-117774000D03*
X128250000Y-117775000D03*
X126250000Y-113225000D03*
X128250000Y-113225000D03*
D17*
X128000000Y-115500000D03*
D16*
X124750000Y-107725000D03*
X122750000Y-107725000D03*
X124750000Y-111275000D03*
X122750000Y-111275000D03*
X128250000Y-107725000D03*
X126250000Y-107725000D03*
X128250000Y-111275000D03*
X126250000Y-111275000D03*
D18*
X134620000Y-115530000D03*
X134620000Y-110530000D03*
D19*
X117475000Y-118745000D03*
X121285000Y-112395000D03*
X130175000Y-120650000D03*
X117475000Y-105410000D03*
X116205000Y-120650000D03*
X138430000Y-117475000D03*
X131445000Y-119380000D03*
D20*
X126250000Y-113225000D02*
X126300000Y-113225000D01*
X126300000Y-113225000D02*
X128250000Y-111275000D01*
X130005000Y-113030000D02*
X135890000Y-113030000D01*
X135890000Y-113030000D02*
X139700000Y-116840000D01*
X139700000Y-116840000D02*
X139700000Y-123190000D01*
X128250000Y-111275000D02*
X130005000Y-113030000D01*
X124750000Y-111275000D02*
X122800000Y-113225000D01*
X122800000Y-113225000D02*
X122750000Y-113225000D01*
X120650000Y-121920000D02*
X117475000Y-118745000D01*
X120650000Y-123190000D02*
X120650000Y-121920000D01*
X121285000Y-116309000D02*
X121285000Y-112395000D01*
X122750000Y-117774000D02*
X121285000Y-116309000D01*
D21*
X110490000Y-112395000D02*
X107315000Y-112395000D01*
X114300000Y-116205000D02*
X110490000Y-112395000D01*
D20*
X123825000Y-123190000D02*
X129540000Y-123190000D01*
X116840000Y-116205000D02*
X123825000Y-123190000D01*
X115570000Y-109855000D02*
X115570000Y-118110000D01*
X115570000Y-118110000D02*
X110490000Y-123190000D01*
X116840000Y-108585000D02*
X115570000Y-109855000D01*
D21*
X127000000Y-103505000D02*
X119380000Y-103505000D01*
X119380000Y-103505000D02*
X117475000Y-101600000D01*
X114300000Y-101600000D02*
X110490000Y-101600000D01*
X117475000Y-101600000D02*
X114300000Y-101600000D01*
X128905000Y-101600000D02*
X127000000Y-103505000D01*
X114300000Y-108585000D02*
X114300000Y-101600000D01*
D20*
X136525000Y-119380000D02*
X138430000Y-117475000D01*
X131445000Y-119380000D02*
X136525000Y-119380000D01*
D21*
X134620000Y-115530000D02*
X132755000Y-115530000D01*
X132755000Y-115530000D02*
X128905000Y-119380000D01*
X128905000Y-119380000D02*
X121920000Y-119380000D01*
X121920000Y-119380000D02*
X119380000Y-116840000D01*
X119380000Y-116840000D02*
X119380000Y-114935000D01*
X119380000Y-114935000D02*
X118110000Y-113665000D01*
X118110000Y-113665000D02*
X116840000Y-113665000D01*
X129500000Y-105410000D02*
X122555000Y-105410000D01*
X122555000Y-105410000D02*
X116840000Y-111125000D01*
X134620000Y-110530000D02*
X129500000Y-105410000D01*
D20*
G36*
X114808000Y-117794370D02*
X110979084Y-121623285D01*
X110816547Y-121555794D01*
X110166306Y-121555226D01*
X109565345Y-121803538D01*
X109321600Y-122046858D01*
X109321600Y-113689433D01*
X109321600Y-113335767D01*
X109321600Y-112642650D01*
X109321600Y-112147350D01*
X109321600Y-111454233D01*
X109321600Y-111100567D01*
X109186258Y-110773822D01*
X108936178Y-110523742D01*
X108912318Y-110513858D01*
X108912318Y-104354633D01*
X108367539Y-102906579D01*
X108222770Y-102689917D01*
X107664558Y-102371363D01*
X107628637Y-102407284D01*
X107628637Y-102335442D01*
X107310083Y-101777230D01*
X105900937Y-101138518D01*
X104354633Y-101087682D01*
X102906579Y-101632461D01*
X102689917Y-101777230D01*
X102371363Y-102335442D01*
X105000000Y-104964079D01*
X107628637Y-102335442D01*
X107628637Y-102407284D01*
X105035921Y-105000000D01*
X107664558Y-107628637D01*
X108222770Y-107310083D01*
X108861482Y-105900937D01*
X108912318Y-104354633D01*
X108912318Y-110513858D01*
X108609433Y-110388400D01*
X107628637Y-110388400D01*
X107628637Y-107664558D01*
X105000000Y-105035921D01*
X104964079Y-105071842D01*
X104964079Y-105000000D01*
X102335442Y-102371363D01*
X101777230Y-102689917D01*
X101138518Y-104099063D01*
X101087682Y-105645367D01*
X101632461Y-107093421D01*
X101777230Y-107310083D01*
X102335442Y-107628637D01*
X104964079Y-105000000D01*
X104964079Y-105071842D01*
X102371363Y-107664558D01*
X102689917Y-108222770D01*
X104099063Y-108861482D01*
X105645367Y-108912318D01*
X107093421Y-108367539D01*
X107310083Y-108222770D01*
X107628637Y-107664558D01*
X107628637Y-110388400D01*
X107562650Y-110388400D01*
X107340400Y-110610650D01*
X107340400Y-112369600D01*
X109099350Y-112369600D01*
X109321600Y-112147350D01*
X109321600Y-112642650D01*
X109099350Y-112420400D01*
X107340400Y-112420400D01*
X107340400Y-114179350D01*
X107562650Y-114401600D01*
X108609433Y-114401600D01*
X108936178Y-114266258D01*
X109186258Y-114016178D01*
X109321600Y-113689433D01*
X109321600Y-122046858D01*
X109105154Y-122262927D01*
X108912318Y-122727327D01*
X108912318Y-119354633D01*
X108367539Y-117906579D01*
X108222770Y-117689917D01*
X107664558Y-117371363D01*
X107628637Y-117407284D01*
X107628637Y-117335442D01*
X107310083Y-116777230D01*
X107289600Y-116767945D01*
X107289600Y-114179350D01*
X107289600Y-112420400D01*
X107289600Y-112369600D01*
X107289600Y-110610650D01*
X107067350Y-110388400D01*
X106020567Y-110388400D01*
X105693822Y-110523742D01*
X105443742Y-110773822D01*
X105308400Y-111100567D01*
X105308400Y-111454233D01*
X105308400Y-112147350D01*
X105530650Y-112369600D01*
X107289600Y-112369600D01*
X107289600Y-112420400D01*
X105530650Y-112420400D01*
X105308400Y-112642650D01*
X105308400Y-113335767D01*
X105308400Y-113689433D01*
X105443742Y-114016178D01*
X105693822Y-114266258D01*
X106020567Y-114401600D01*
X107067350Y-114401600D01*
X107289600Y-114179350D01*
X107289600Y-116767945D01*
X105900937Y-116138518D01*
X104354633Y-116087682D01*
X102906579Y-116632461D01*
X102689917Y-116777230D01*
X102371363Y-117335442D01*
X105000000Y-119964079D01*
X107628637Y-117335442D01*
X107628637Y-117407284D01*
X105035921Y-120000000D01*
X107664558Y-122628637D01*
X108222770Y-122310083D01*
X108861482Y-120900937D01*
X108912318Y-119354633D01*
X108912318Y-122727327D01*
X108855794Y-122863453D01*
X108855226Y-123513694D01*
X109103538Y-124114655D01*
X109303533Y-124315000D01*
X107628637Y-124315000D01*
X107628637Y-122664558D01*
X105000000Y-120035921D01*
X104964079Y-120071842D01*
X104964079Y-120000000D01*
X102335442Y-117371363D01*
X101777230Y-117689917D01*
X101138518Y-119099063D01*
X101087682Y-120645367D01*
X101632461Y-122093421D01*
X101777230Y-122310083D01*
X102335442Y-122628637D01*
X104964079Y-120000000D01*
X104964079Y-120071842D01*
X102371363Y-122664558D01*
X102689917Y-123222770D01*
X104099063Y-123861482D01*
X105645367Y-123912318D01*
X107093421Y-123367539D01*
X107310083Y-123222770D01*
X107628637Y-122664558D01*
X107628637Y-124315000D01*
X100685000Y-124315000D01*
X100685000Y-100685000D01*
X109100140Y-100685000D01*
X108855794Y-101273453D01*
X108855226Y-101923694D01*
X109103538Y-102524655D01*
X109562927Y-102984846D01*
X110163453Y-103234206D01*
X110813694Y-103234774D01*
X111414655Y-102986462D01*
X111658542Y-102743000D01*
X113157000Y-102743000D01*
X113157000Y-107752071D01*
X113116371Y-107792630D01*
X112903243Y-108305900D01*
X112902758Y-108861661D01*
X113114990Y-109375303D01*
X113507630Y-109768629D01*
X113715512Y-109854949D01*
X113509697Y-109939990D01*
X113116371Y-110332630D01*
X112903243Y-110845900D01*
X112902758Y-111401661D01*
X113114990Y-111915303D01*
X113507630Y-112308629D01*
X113715512Y-112394949D01*
X113509697Y-112479990D01*
X113116371Y-112872630D01*
X112903243Y-113385900D01*
X112902758Y-113941661D01*
X113114990Y-114455303D01*
X113430197Y-114771061D01*
X113398898Y-114783148D01*
X113331216Y-114828371D01*
X113284967Y-115154046D01*
X114300000Y-116169079D01*
X114314142Y-116154936D01*
X114350063Y-116190857D01*
X114335921Y-116205000D01*
X114350063Y-116219142D01*
X114314142Y-116255063D01*
X114300000Y-116240921D01*
X114264079Y-116276842D01*
X114264079Y-116205000D01*
X113249046Y-115189967D01*
X112923371Y-115236216D01*
X112657423Y-115836774D01*
X112641543Y-116493391D01*
X112878148Y-117106102D01*
X112923371Y-117173784D01*
X113249046Y-117220033D01*
X114264079Y-116205000D01*
X114264079Y-116276842D01*
X113284967Y-117255954D01*
X113331216Y-117581629D01*
X113931774Y-117847577D01*
X114588391Y-117863457D01*
X114808000Y-117778652D01*
X114808000Y-117794370D01*
X114808000Y-117794370D01*
G37*
X114808000Y-117794370D02*
X110979084Y-121623285D01*
X110816547Y-121555794D01*
X110166306Y-121555226D01*
X109565345Y-121803538D01*
X109321600Y-122046858D01*
X109321600Y-113689433D01*
X109321600Y-113335767D01*
X109321600Y-112642650D01*
X109321600Y-112147350D01*
X109321600Y-111454233D01*
X109321600Y-111100567D01*
X109186258Y-110773822D01*
X108936178Y-110523742D01*
X108912318Y-110513858D01*
X108912318Y-104354633D01*
X108367539Y-102906579D01*
X108222770Y-102689917D01*
X107664558Y-102371363D01*
X107628637Y-102407284D01*
X107628637Y-102335442D01*
X107310083Y-101777230D01*
X105900937Y-101138518D01*
X104354633Y-101087682D01*
X102906579Y-101632461D01*
X102689917Y-101777230D01*
X102371363Y-102335442D01*
X105000000Y-104964079D01*
X107628637Y-102335442D01*
X107628637Y-102407284D01*
X105035921Y-105000000D01*
X107664558Y-107628637D01*
X108222770Y-107310083D01*
X108861482Y-105900937D01*
X108912318Y-104354633D01*
X108912318Y-110513858D01*
X108609433Y-110388400D01*
X107628637Y-110388400D01*
X107628637Y-107664558D01*
X105000000Y-105035921D01*
X104964079Y-105071842D01*
X104964079Y-105000000D01*
X102335442Y-102371363D01*
X101777230Y-102689917D01*
X101138518Y-104099063D01*
X101087682Y-105645367D01*
X101632461Y-107093421D01*
X101777230Y-107310083D01*
X102335442Y-107628637D01*
X104964079Y-105000000D01*
X104964079Y-105071842D01*
X102371363Y-107664558D01*
X102689917Y-108222770D01*
X104099063Y-108861482D01*
X105645367Y-108912318D01*
X107093421Y-108367539D01*
X107310083Y-108222770D01*
X107628637Y-107664558D01*
X107628637Y-110388400D01*
X107562650Y-110388400D01*
X107340400Y-110610650D01*
X107340400Y-112369600D01*
X109099350Y-112369600D01*
X109321600Y-112147350D01*
X109321600Y-112642650D01*
X109099350Y-112420400D01*
X107340400Y-112420400D01*
X107340400Y-114179350D01*
X107562650Y-114401600D01*
X108609433Y-114401600D01*
X108936178Y-114266258D01*
X109186258Y-114016178D01*
X109321600Y-113689433D01*
X109321600Y-122046858D01*
X109105154Y-122262927D01*
X108912318Y-122727327D01*
X108912318Y-119354633D01*
X108367539Y-117906579D01*
X108222770Y-117689917D01*
X107664558Y-117371363D01*
X107628637Y-117407284D01*
X107628637Y-117335442D01*
X107310083Y-116777230D01*
X107289600Y-116767945D01*
X107289600Y-114179350D01*
X107289600Y-112420400D01*
X107289600Y-112369600D01*
X107289600Y-110610650D01*
X107067350Y-110388400D01*
X106020567Y-110388400D01*
X105693822Y-110523742D01*
X105443742Y-110773822D01*
X105308400Y-111100567D01*
X105308400Y-111454233D01*
X105308400Y-112147350D01*
X105530650Y-112369600D01*
X107289600Y-112369600D01*
X107289600Y-112420400D01*
X105530650Y-112420400D01*
X105308400Y-112642650D01*
X105308400Y-113335767D01*
X105308400Y-113689433D01*
X105443742Y-114016178D01*
X105693822Y-114266258D01*
X106020567Y-114401600D01*
X107067350Y-114401600D01*
X107289600Y-114179350D01*
X107289600Y-116767945D01*
X105900937Y-116138518D01*
X104354633Y-116087682D01*
X102906579Y-116632461D01*
X102689917Y-116777230D01*
X102371363Y-117335442D01*
X105000000Y-119964079D01*
X107628637Y-117335442D01*
X107628637Y-117407284D01*
X105035921Y-120000000D01*
X107664558Y-122628637D01*
X108222770Y-122310083D01*
X108861482Y-120900937D01*
X108912318Y-119354633D01*
X108912318Y-122727327D01*
X108855794Y-122863453D01*
X108855226Y-123513694D01*
X109103538Y-124114655D01*
X109303533Y-124315000D01*
X107628637Y-124315000D01*
X107628637Y-122664558D01*
X105000000Y-120035921D01*
X104964079Y-120071842D01*
X104964079Y-120000000D01*
X102335442Y-117371363D01*
X101777230Y-117689917D01*
X101138518Y-119099063D01*
X101087682Y-120645367D01*
X101632461Y-122093421D01*
X101777230Y-122310083D01*
X102335442Y-122628637D01*
X104964079Y-120000000D01*
X104964079Y-120071842D01*
X102371363Y-122664558D01*
X102689917Y-123222770D01*
X104099063Y-123861482D01*
X105645367Y-123912318D01*
X107093421Y-123367539D01*
X107310083Y-123222770D01*
X107628637Y-122664558D01*
X107628637Y-124315000D01*
X100685000Y-124315000D01*
X100685000Y-100685000D01*
X109100140Y-100685000D01*
X108855794Y-101273453D01*
X108855226Y-101923694D01*
X109103538Y-102524655D01*
X109562927Y-102984846D01*
X110163453Y-103234206D01*
X110813694Y-103234774D01*
X111414655Y-102986462D01*
X111658542Y-102743000D01*
X113157000Y-102743000D01*
X113157000Y-107752071D01*
X113116371Y-107792630D01*
X112903243Y-108305900D01*
X112902758Y-108861661D01*
X113114990Y-109375303D01*
X113507630Y-109768629D01*
X113715512Y-109854949D01*
X113509697Y-109939990D01*
X113116371Y-110332630D01*
X112903243Y-110845900D01*
X112902758Y-111401661D01*
X113114990Y-111915303D01*
X113507630Y-112308629D01*
X113715512Y-112394949D01*
X113509697Y-112479990D01*
X113116371Y-112872630D01*
X112903243Y-113385900D01*
X112902758Y-113941661D01*
X113114990Y-114455303D01*
X113430197Y-114771061D01*
X113398898Y-114783148D01*
X113331216Y-114828371D01*
X113284967Y-115154046D01*
X114300000Y-116169079D01*
X114314142Y-116154936D01*
X114350063Y-116190857D01*
X114335921Y-116205000D01*
X114350063Y-116219142D01*
X114314142Y-116255063D01*
X114300000Y-116240921D01*
X114264079Y-116276842D01*
X114264079Y-116205000D01*
X113249046Y-115189967D01*
X112923371Y-115236216D01*
X112657423Y-115836774D01*
X112641543Y-116493391D01*
X112878148Y-117106102D01*
X112923371Y-117173784D01*
X113249046Y-117220033D01*
X114264079Y-116205000D01*
X114264079Y-116276842D01*
X113284967Y-117255954D01*
X113331216Y-117581629D01*
X113931774Y-117847577D01*
X114588391Y-117863457D01*
X114808000Y-117778652D01*
X114808000Y-117794370D01*
G36*
X119590509Y-121938139D02*
X119265154Y-122262927D01*
X119015794Y-122863453D01*
X119015226Y-123513694D01*
X119263538Y-124114655D01*
X119463533Y-124315000D01*
X111676573Y-124315000D01*
X111874846Y-124117073D01*
X112124206Y-123516547D01*
X112124774Y-122866306D01*
X112056517Y-122701112D01*
X116108815Y-118648815D01*
X116273996Y-118401605D01*
X116273996Y-118401604D01*
X116332000Y-118110000D01*
X116332000Y-117602000D01*
X117159369Y-117602000D01*
X117233949Y-117676579D01*
X116864311Y-117829311D01*
X116560378Y-118132714D01*
X116395687Y-118529332D01*
X116395313Y-118958784D01*
X116559311Y-119355689D01*
X116862714Y-119659622D01*
X117259332Y-119824313D01*
X117476872Y-119824502D01*
X119590509Y-121938139D01*
X119590509Y-121938139D01*
G37*
X119590509Y-121938139D02*
X119265154Y-122262927D01*
X119015794Y-122863453D01*
X119015226Y-123513694D01*
X119263538Y-124114655D01*
X119463533Y-124315000D01*
X111676573Y-124315000D01*
X111874846Y-124117073D01*
X112124206Y-123516547D01*
X112124774Y-122866306D01*
X112056517Y-122701112D01*
X116108815Y-118648815D01*
X116273996Y-118401605D01*
X116273996Y-118401604D01*
X116332000Y-118110000D01*
X116332000Y-117602000D01*
X117159369Y-117602000D01*
X117233949Y-117676579D01*
X116864311Y-117829311D01*
X116560378Y-118132714D01*
X116395687Y-118529332D01*
X116395313Y-118958784D01*
X116559311Y-119355689D01*
X116862714Y-119659622D01*
X117259332Y-119824313D01*
X117476872Y-119824502D01*
X119590509Y-121938139D01*
G36*
X121700554Y-104648000D02*
X118179634Y-108168919D01*
X118025010Y-107794697D01*
X117632370Y-107401371D01*
X117119100Y-107188243D01*
X116563339Y-107187758D01*
X116049697Y-107399990D01*
X115656371Y-107792630D01*
X115570050Y-108000512D01*
X115485010Y-107794697D01*
X115443000Y-107752613D01*
X115443000Y-102743000D01*
X117001554Y-102743000D01*
X118571777Y-104313223D01*
X118942593Y-104560994D01*
X119380000Y-104648000D01*
X121700554Y-104648000D01*
X121700554Y-104648000D01*
G37*
X121700554Y-104648000D02*
X118179634Y-108168919D01*
X118025010Y-107794697D01*
X117632370Y-107401371D01*
X117119100Y-107188243D01*
X116563339Y-107187758D01*
X116049697Y-107399990D01*
X115656371Y-107792630D01*
X115570050Y-108000512D01*
X115485010Y-107794697D01*
X115443000Y-107752613D01*
X115443000Y-102743000D01*
X117001554Y-102743000D01*
X118571777Y-104313223D01*
X118942593Y-104560994D01*
X119380000Y-104648000D01*
X121700554Y-104648000D01*
G36*
X124800063Y-117789142D02*
X124764142Y-117825063D01*
X124750000Y-117810921D01*
X124735857Y-117825063D01*
X124699936Y-117789142D01*
X124714079Y-117775000D01*
X123887972Y-116948893D01*
X123589515Y-116963255D01*
X123575726Y-116994633D01*
X123393765Y-116812355D01*
X122976756Y-116639197D01*
X122692579Y-116638949D01*
X122047000Y-115993370D01*
X122047000Y-114127306D01*
X122106235Y-114186645D01*
X122523244Y-114359803D01*
X122974775Y-114360197D01*
X123392086Y-114187767D01*
X123571051Y-114009113D01*
X123589515Y-114036745D01*
X123887972Y-114051107D01*
X124714079Y-113225000D01*
X124699936Y-113210857D01*
X124735857Y-113174936D01*
X124750000Y-113189079D01*
X124764142Y-113174936D01*
X124800063Y-113210857D01*
X124785921Y-113225000D01*
X124800063Y-113239142D01*
X124764142Y-113275063D01*
X124750000Y-113260921D01*
X123923893Y-114087028D01*
X123938255Y-114385485D01*
X124045571Y-114432643D01*
X123843771Y-114516026D01*
X123517173Y-114842055D01*
X123340202Y-115268249D01*
X123339799Y-115729726D01*
X123516026Y-116156229D01*
X123842055Y-116482827D01*
X124034864Y-116562888D01*
X123988493Y-116580947D01*
X123938255Y-116614515D01*
X123923893Y-116912972D01*
X124750000Y-117739079D01*
X124764142Y-117724936D01*
X124800063Y-117760857D01*
X124785921Y-117775000D01*
X124800063Y-117789142D01*
X124800063Y-117789142D01*
G37*
X124800063Y-117789142D02*
X124764142Y-117825063D01*
X124750000Y-117810921D01*
X124735857Y-117825063D01*
X124699936Y-117789142D01*
X124714079Y-117775000D01*
X123887972Y-116948893D01*
X123589515Y-116963255D01*
X123575726Y-116994633D01*
X123393765Y-116812355D01*
X122976756Y-116639197D01*
X122692579Y-116638949D01*
X122047000Y-115993370D01*
X122047000Y-114127306D01*
X122106235Y-114186645D01*
X122523244Y-114359803D01*
X122974775Y-114360197D01*
X123392086Y-114187767D01*
X123571051Y-114009113D01*
X123589515Y-114036745D01*
X123887972Y-114051107D01*
X124714079Y-113225000D01*
X124699936Y-113210857D01*
X124735857Y-113174936D01*
X124750000Y-113189079D01*
X124764142Y-113174936D01*
X124800063Y-113210857D01*
X124785921Y-113225000D01*
X124800063Y-113239142D01*
X124764142Y-113275063D01*
X124750000Y-113260921D01*
X123923893Y-114087028D01*
X123938255Y-114385485D01*
X124045571Y-114432643D01*
X123843771Y-114516026D01*
X123517173Y-114842055D01*
X123340202Y-115268249D01*
X123339799Y-115729726D01*
X123516026Y-116156229D01*
X123842055Y-116482827D01*
X124034864Y-116562888D01*
X123988493Y-116580947D01*
X123938255Y-116614515D01*
X123923893Y-116912972D01*
X124750000Y-117739079D01*
X124764142Y-117724936D01*
X124800063Y-117760857D01*
X124785921Y-117775000D01*
X124800063Y-117789142D01*
G36*
X138188948Y-116406579D02*
X137819311Y-116559311D01*
X137515378Y-116862714D01*
X137350687Y-117259332D01*
X137350497Y-117476872D01*
X136209370Y-118618000D01*
X132209641Y-118618000D01*
X132057286Y-118465378D01*
X131660668Y-118300687D01*
X131600811Y-118300634D01*
X133228446Y-116673000D01*
X133428174Y-116673000D01*
X133683563Y-116928834D01*
X134290155Y-117180713D01*
X134946963Y-117181286D01*
X135553995Y-116930466D01*
X136018834Y-116466437D01*
X136270713Y-115859845D01*
X136271286Y-115203037D01*
X136020466Y-114596005D01*
X135556437Y-114131166D01*
X134949845Y-113879287D01*
X134293037Y-113878714D01*
X133686005Y-114129534D01*
X133428089Y-114387000D01*
X132755000Y-114387000D01*
X132317593Y-114474006D01*
X131946777Y-114721777D01*
X129503194Y-117165359D01*
X129444053Y-117013493D01*
X129410485Y-116963255D01*
X129160201Y-116951211D01*
X129160201Y-115270274D01*
X128983974Y-114843771D01*
X128686387Y-114545665D01*
X129011507Y-114419053D01*
X129061745Y-114385485D01*
X129076107Y-114087028D01*
X128250000Y-113260921D01*
X127423893Y-114087028D01*
X127438255Y-114385485D01*
X127545571Y-114432643D01*
X127343771Y-114516026D01*
X127017173Y-114842055D01*
X126840202Y-115268249D01*
X126839799Y-115729726D01*
X127016026Y-116156229D01*
X127342055Y-116482827D01*
X127534864Y-116562888D01*
X127488493Y-116580947D01*
X127438255Y-116614515D01*
X127423893Y-116912972D01*
X128250000Y-117739079D01*
X129076107Y-116912972D01*
X129061745Y-116614515D01*
X128689377Y-116450883D01*
X128982827Y-116157945D01*
X129159798Y-115731751D01*
X129160201Y-115270274D01*
X129160201Y-116951211D01*
X129112028Y-116948893D01*
X128285921Y-117775000D01*
X128300063Y-117789142D01*
X128264142Y-117825063D01*
X128250000Y-117810921D01*
X128235857Y-117825063D01*
X128199936Y-117789142D01*
X128214079Y-117775000D01*
X127387972Y-116948893D01*
X127089515Y-116963255D01*
X127075726Y-116994633D01*
X126893765Y-116812355D01*
X126476756Y-116639197D01*
X126025225Y-116638803D01*
X125733605Y-116759297D01*
X125731692Y-116757384D01*
X125727082Y-116761993D01*
X125607914Y-116811233D01*
X125572893Y-116846192D01*
X125561745Y-116614515D01*
X125189377Y-116450883D01*
X125482827Y-116157945D01*
X125659798Y-115731751D01*
X125660201Y-115270274D01*
X125483974Y-114843771D01*
X125186387Y-114545665D01*
X125511507Y-114419053D01*
X125561745Y-114385485D01*
X125572919Y-114153271D01*
X125606235Y-114186645D01*
X125725062Y-114235986D01*
X125731692Y-114242616D01*
X125734431Y-114239876D01*
X126023244Y-114359803D01*
X126474775Y-114360197D01*
X126892086Y-114187767D01*
X127071051Y-114009113D01*
X127089515Y-114036745D01*
X127387972Y-114051107D01*
X128214079Y-113225000D01*
X128199936Y-113210857D01*
X128235857Y-113174936D01*
X128250000Y-113189079D01*
X128264142Y-113174936D01*
X128300063Y-113210857D01*
X128285921Y-113225000D01*
X129112028Y-114051107D01*
X129410485Y-114036745D01*
X129582080Y-113646254D01*
X129614376Y-113667834D01*
X129713395Y-113733996D01*
X129713396Y-113733996D01*
X130005000Y-113792000D01*
X135574369Y-113792000D01*
X138188948Y-116406579D01*
X138188948Y-116406579D01*
G37*
X138188948Y-116406579D02*
X137819311Y-116559311D01*
X137515378Y-116862714D01*
X137350687Y-117259332D01*
X137350497Y-117476872D01*
X136209370Y-118618000D01*
X132209641Y-118618000D01*
X132057286Y-118465378D01*
X131660668Y-118300687D01*
X131600811Y-118300634D01*
X133228446Y-116673000D01*
X133428174Y-116673000D01*
X133683563Y-116928834D01*
X134290155Y-117180713D01*
X134946963Y-117181286D01*
X135553995Y-116930466D01*
X136018834Y-116466437D01*
X136270713Y-115859845D01*
X136271286Y-115203037D01*
X136020466Y-114596005D01*
X135556437Y-114131166D01*
X134949845Y-113879287D01*
X134293037Y-113878714D01*
X133686005Y-114129534D01*
X133428089Y-114387000D01*
X132755000Y-114387000D01*
X132317593Y-114474006D01*
X131946777Y-114721777D01*
X129503194Y-117165359D01*
X129444053Y-117013493D01*
X129410485Y-116963255D01*
X129160201Y-116951211D01*
X129160201Y-115270274D01*
X128983974Y-114843771D01*
X128686387Y-114545665D01*
X129011507Y-114419053D01*
X129061745Y-114385485D01*
X129076107Y-114087028D01*
X128250000Y-113260921D01*
X127423893Y-114087028D01*
X127438255Y-114385485D01*
X127545571Y-114432643D01*
X127343771Y-114516026D01*
X127017173Y-114842055D01*
X126840202Y-115268249D01*
X126839799Y-115729726D01*
X127016026Y-116156229D01*
X127342055Y-116482827D01*
X127534864Y-116562888D01*
X127488493Y-116580947D01*
X127438255Y-116614515D01*
X127423893Y-116912972D01*
X128250000Y-117739079D01*
X129076107Y-116912972D01*
X129061745Y-116614515D01*
X128689377Y-116450883D01*
X128982827Y-116157945D01*
X129159798Y-115731751D01*
X129160201Y-115270274D01*
X129160201Y-116951211D01*
X129112028Y-116948893D01*
X128285921Y-117775000D01*
X128300063Y-117789142D01*
X128264142Y-117825063D01*
X128250000Y-117810921D01*
X128235857Y-117825063D01*
X128199936Y-117789142D01*
X128214079Y-117775000D01*
X127387972Y-116948893D01*
X127089515Y-116963255D01*
X127075726Y-116994633D01*
X126893765Y-116812355D01*
X126476756Y-116639197D01*
X126025225Y-116638803D01*
X125733605Y-116759297D01*
X125731692Y-116757384D01*
X125727082Y-116761993D01*
X125607914Y-116811233D01*
X125572893Y-116846192D01*
X125561745Y-116614515D01*
X125189377Y-116450883D01*
X125482827Y-116157945D01*
X125659798Y-115731751D01*
X125660201Y-115270274D01*
X125483974Y-114843771D01*
X125186387Y-114545665D01*
X125511507Y-114419053D01*
X125561745Y-114385485D01*
X125572919Y-114153271D01*
X125606235Y-114186645D01*
X125725062Y-114235986D01*
X125731692Y-114242616D01*
X125734431Y-114239876D01*
X126023244Y-114359803D01*
X126474775Y-114360197D01*
X126892086Y-114187767D01*
X127071051Y-114009113D01*
X127089515Y-114036745D01*
X127387972Y-114051107D01*
X128214079Y-113225000D01*
X128199936Y-113210857D01*
X128235857Y-113174936D01*
X128250000Y-113189079D01*
X128264142Y-113174936D01*
X128300063Y-113210857D01*
X128285921Y-113225000D01*
X129112028Y-114051107D01*
X129410485Y-114036745D01*
X129582080Y-113646254D01*
X129614376Y-113667834D01*
X129713395Y-113733996D01*
X129713396Y-113733996D01*
X130005000Y-113792000D01*
X135574369Y-113792000D01*
X138188948Y-116406579D01*
G36*
X138938000Y-121736330D02*
X138775345Y-121803538D01*
X138315154Y-122262927D01*
X138065794Y-122863453D01*
X138065226Y-123513694D01*
X138313538Y-124114655D01*
X138513533Y-124315000D01*
X130726573Y-124315000D01*
X130924846Y-124117073D01*
X131174206Y-123516547D01*
X131174774Y-122866306D01*
X130926462Y-122265345D01*
X130467073Y-121805154D01*
X129866547Y-121555794D01*
X129216306Y-121555226D01*
X128615345Y-121803538D01*
X128155154Y-122262927D01*
X128086609Y-122428000D01*
X124140630Y-122428000D01*
X122235630Y-120523000D01*
X128905000Y-120523000D01*
X129342407Y-120435994D01*
X129713223Y-120188223D01*
X130365363Y-119536082D01*
X130365313Y-119593784D01*
X130529311Y-119990689D01*
X130832714Y-120294622D01*
X131229332Y-120459313D01*
X131658784Y-120459687D01*
X132055689Y-120295689D01*
X132209646Y-120142000D01*
X136525000Y-120142000D01*
X136525000Y-120141999D01*
X136816604Y-120083996D01*
X136816605Y-120083996D01*
X137063815Y-119918815D01*
X138428130Y-118554499D01*
X138643784Y-118554687D01*
X138938000Y-118433119D01*
X138938000Y-121736330D01*
X138938000Y-121736330D01*
G37*
X138938000Y-121736330D02*
X138775345Y-121803538D01*
X138315154Y-122262927D01*
X138065794Y-122863453D01*
X138065226Y-123513694D01*
X138313538Y-124114655D01*
X138513533Y-124315000D01*
X130726573Y-124315000D01*
X130924846Y-124117073D01*
X131174206Y-123516547D01*
X131174774Y-122866306D01*
X130926462Y-122265345D01*
X130467073Y-121805154D01*
X129866547Y-121555794D01*
X129216306Y-121555226D01*
X128615345Y-121803538D01*
X128155154Y-122262927D01*
X128086609Y-122428000D01*
X124140630Y-122428000D01*
X122235630Y-120523000D01*
X128905000Y-120523000D01*
X129342407Y-120435994D01*
X129713223Y-120188223D01*
X130365363Y-119536082D01*
X130365313Y-119593784D01*
X130529311Y-119990689D01*
X130832714Y-120294622D01*
X131229332Y-120459313D01*
X131658784Y-120459687D01*
X132055689Y-120295689D01*
X132209646Y-120142000D01*
X136525000Y-120142000D01*
X136525000Y-120141999D01*
X136816604Y-120083996D01*
X136816605Y-120083996D01*
X137063815Y-119918815D01*
X138428130Y-118554499D01*
X138643784Y-118554687D01*
X138938000Y-118433119D01*
X138938000Y-121736330D01*
G36*
X149315000Y-124315000D02*
X148912318Y-124315000D01*
X148912318Y-119354633D01*
X148912318Y-104354633D01*
X148367539Y-102906579D01*
X148222770Y-102689917D01*
X147664558Y-102371363D01*
X147628637Y-102407284D01*
X147628637Y-102335442D01*
X147310083Y-101777230D01*
X145900937Y-101138518D01*
X144354633Y-101087682D01*
X142906579Y-101632461D01*
X142689917Y-101777230D01*
X142371363Y-102335442D01*
X145000000Y-104964079D01*
X147628637Y-102335442D01*
X147628637Y-102407284D01*
X145035921Y-105000000D01*
X147664558Y-107628637D01*
X148222770Y-107310083D01*
X148861482Y-105900937D01*
X148912318Y-104354633D01*
X148912318Y-119354633D01*
X148367539Y-117906579D01*
X148222770Y-117689917D01*
X147664558Y-117371363D01*
X147628637Y-117407284D01*
X147628637Y-117335442D01*
X147628637Y-107664558D01*
X145000000Y-105035921D01*
X144964079Y-105071842D01*
X144964079Y-105000000D01*
X142335442Y-102371363D01*
X141777230Y-102689917D01*
X141138518Y-104099063D01*
X141087682Y-105645367D01*
X141632461Y-107093421D01*
X141777230Y-107310083D01*
X142335442Y-107628637D01*
X144964079Y-105000000D01*
X144964079Y-105071842D01*
X142371363Y-107664558D01*
X142689917Y-108222770D01*
X144099063Y-108861482D01*
X145645367Y-108912318D01*
X147093421Y-108367539D01*
X147310083Y-108222770D01*
X147628637Y-107664558D01*
X147628637Y-117335442D01*
X147310083Y-116777230D01*
X145900937Y-116138518D01*
X144354633Y-116087682D01*
X142906579Y-116632461D01*
X142689917Y-116777230D01*
X142371363Y-117335442D01*
X145000000Y-119964079D01*
X147628637Y-117335442D01*
X147628637Y-117407284D01*
X145035921Y-120000000D01*
X147664558Y-122628637D01*
X148222770Y-122310083D01*
X148861482Y-120900937D01*
X148912318Y-119354633D01*
X148912318Y-124315000D01*
X147628637Y-124315000D01*
X147628637Y-122664558D01*
X145000000Y-120035921D01*
X144964079Y-120071842D01*
X144964079Y-120000000D01*
X142335442Y-117371363D01*
X141777230Y-117689917D01*
X141138518Y-119099063D01*
X141087682Y-120645367D01*
X141632461Y-122093421D01*
X141777230Y-122310083D01*
X142335442Y-122628637D01*
X144964079Y-120000000D01*
X144964079Y-120071842D01*
X142371363Y-122664558D01*
X142689917Y-123222770D01*
X144099063Y-123861482D01*
X145645367Y-123912318D01*
X147093421Y-123367539D01*
X147310083Y-123222770D01*
X147628637Y-122664558D01*
X147628637Y-124315000D01*
X140886573Y-124315000D01*
X141084846Y-124117073D01*
X141334206Y-123516547D01*
X141334774Y-122866306D01*
X141086462Y-122265345D01*
X140627073Y-121805154D01*
X140462000Y-121736609D01*
X140462000Y-116840000D01*
X140403996Y-116548396D01*
X140403996Y-116548395D01*
X140337834Y-116449376D01*
X140238816Y-116301185D01*
X136428815Y-112491185D01*
X136181605Y-112326004D01*
X135890000Y-112268000D01*
X130320630Y-112268000D01*
X129384950Y-111332320D01*
X129385197Y-111050225D01*
X129385197Y-107500225D01*
X129212767Y-107082914D01*
X128893765Y-106763355D01*
X128476756Y-106590197D01*
X128025225Y-106589803D01*
X127607914Y-106762233D01*
X127428948Y-106940886D01*
X127410485Y-106913255D01*
X127112028Y-106898893D01*
X126285921Y-107725000D01*
X127112028Y-108551107D01*
X127410485Y-108536745D01*
X127424579Y-108504671D01*
X127606235Y-108686645D01*
X128023244Y-108859803D01*
X128474775Y-108860197D01*
X128892086Y-108687767D01*
X129211645Y-108368765D01*
X129384803Y-107951756D01*
X129385197Y-107500225D01*
X129385197Y-111050225D01*
X129212767Y-110632914D01*
X128893765Y-110313355D01*
X128476756Y-110140197D01*
X128025225Y-110139803D01*
X127607914Y-110312233D01*
X127428948Y-110490886D01*
X127410485Y-110463255D01*
X127112028Y-110448893D01*
X126285921Y-111275000D01*
X126300063Y-111289142D01*
X126264142Y-111325063D01*
X126250000Y-111310921D01*
X126235857Y-111325063D01*
X126199936Y-111289142D01*
X126214079Y-111275000D01*
X126199936Y-111260857D01*
X126235857Y-111224936D01*
X126250000Y-111239079D01*
X127076107Y-110412972D01*
X127061745Y-110114515D01*
X126555856Y-109892210D01*
X126003404Y-109880423D01*
X125488493Y-110080947D01*
X125438255Y-110114515D01*
X125427080Y-110346728D01*
X125393765Y-110313355D01*
X125274937Y-110264013D01*
X125268308Y-110257384D01*
X125265568Y-110260123D01*
X124976756Y-110140197D01*
X124525225Y-110139803D01*
X124107914Y-110312233D01*
X123928948Y-110490886D01*
X123910485Y-110463255D01*
X123612028Y-110448893D01*
X123576107Y-110484814D01*
X123576107Y-110412972D01*
X123576107Y-108587028D01*
X122750000Y-107760921D01*
X121923893Y-108587028D01*
X121938255Y-108885485D01*
X122444144Y-109107790D01*
X122996596Y-109119577D01*
X123511507Y-108919053D01*
X123561745Y-108885485D01*
X123576107Y-108587028D01*
X123576107Y-110412972D01*
X123561745Y-110114515D01*
X123055856Y-109892210D01*
X122503404Y-109880423D01*
X121988493Y-110080947D01*
X121938255Y-110114515D01*
X121923893Y-110412972D01*
X122750000Y-111239079D01*
X123576107Y-110412972D01*
X123576107Y-110484814D01*
X122785921Y-111275000D01*
X122800063Y-111289142D01*
X122764142Y-111325063D01*
X122750000Y-111310921D01*
X122735857Y-111325063D01*
X122699936Y-111289142D01*
X122714079Y-111275000D01*
X121887972Y-110448893D01*
X121589515Y-110463255D01*
X121367210Y-110969144D01*
X121359818Y-111315564D01*
X121071216Y-111315313D01*
X120674311Y-111479311D01*
X120370378Y-111782714D01*
X120205687Y-112179332D01*
X120205313Y-112608784D01*
X120369311Y-113005689D01*
X120523000Y-113159646D01*
X120523000Y-114935000D01*
X120435994Y-114497593D01*
X120188223Y-114126777D01*
X118918223Y-112856777D01*
X118547407Y-112609006D01*
X118110000Y-112522000D01*
X117672928Y-112522000D01*
X117632370Y-112481371D01*
X117424487Y-112395050D01*
X117630303Y-112310010D01*
X118023629Y-111917370D01*
X118236757Y-111404100D01*
X118236808Y-111344637D01*
X121426734Y-108154711D01*
X121555947Y-108486507D01*
X121589515Y-108536745D01*
X121887972Y-108551107D01*
X122714079Y-107725000D01*
X122699936Y-107710857D01*
X122735857Y-107674936D01*
X122750000Y-107689079D01*
X123576107Y-106862972D01*
X123561745Y-106564515D01*
X123535540Y-106553000D01*
X125455488Y-106553000D01*
X125438255Y-106564515D01*
X125427080Y-106796728D01*
X125393765Y-106763355D01*
X125274937Y-106714013D01*
X125268308Y-106707384D01*
X125265568Y-106710123D01*
X124976756Y-106590197D01*
X124525225Y-106589803D01*
X124107914Y-106762233D01*
X123928948Y-106940886D01*
X123910485Y-106913255D01*
X123612028Y-106898893D01*
X122785921Y-107725000D01*
X123612028Y-108551107D01*
X123910485Y-108536745D01*
X123924579Y-108504671D01*
X124106235Y-108686645D01*
X124523244Y-108859803D01*
X124974775Y-108860197D01*
X125265686Y-108739994D01*
X125268308Y-108742616D01*
X125274621Y-108736302D01*
X125392086Y-108687767D01*
X125427060Y-108652853D01*
X125438255Y-108885485D01*
X125944144Y-109107790D01*
X126496596Y-109119577D01*
X127011507Y-108919053D01*
X127061745Y-108885485D01*
X127076107Y-108587028D01*
X126250000Y-107760921D01*
X126235857Y-107775063D01*
X126199936Y-107739142D01*
X126214079Y-107725000D01*
X126199936Y-107710857D01*
X126235857Y-107674936D01*
X126250000Y-107689079D01*
X127076107Y-106862972D01*
X127061745Y-106564515D01*
X127035540Y-106553000D01*
X129026554Y-106553000D01*
X132969029Y-110495475D01*
X132968714Y-110856963D01*
X133219534Y-111463995D01*
X133683563Y-111928834D01*
X134290155Y-112180713D01*
X134946963Y-112181286D01*
X135553995Y-111930466D01*
X136018834Y-111466437D01*
X136270713Y-110859845D01*
X136271286Y-110203037D01*
X136020466Y-109596005D01*
X135556437Y-109131166D01*
X134949845Y-108879287D01*
X134585415Y-108878969D01*
X130308223Y-104601777D01*
X129937407Y-104354006D01*
X129500000Y-104267000D01*
X127854446Y-104267000D01*
X128886970Y-103234475D01*
X129228694Y-103234774D01*
X129829655Y-102986462D01*
X130289846Y-102527073D01*
X130539206Y-101926547D01*
X130539774Y-101276306D01*
X130295451Y-100685000D01*
X137675140Y-100685000D01*
X137430794Y-101273453D01*
X137430226Y-101923694D01*
X137678538Y-102524655D01*
X138137927Y-102984846D01*
X138738453Y-103234206D01*
X139388694Y-103234774D01*
X139989655Y-102986462D01*
X140449846Y-102527073D01*
X140699206Y-101926547D01*
X140699774Y-101276306D01*
X140455451Y-100685000D01*
X149315000Y-100685000D01*
X149315000Y-124315000D01*
X149315000Y-124315000D01*
G37*
X149315000Y-124315000D02*
X148912318Y-124315000D01*
X148912318Y-119354633D01*
X148912318Y-104354633D01*
X148367539Y-102906579D01*
X148222770Y-102689917D01*
X147664558Y-102371363D01*
X147628637Y-102407284D01*
X147628637Y-102335442D01*
X147310083Y-101777230D01*
X145900937Y-101138518D01*
X144354633Y-101087682D01*
X142906579Y-101632461D01*
X142689917Y-101777230D01*
X142371363Y-102335442D01*
X145000000Y-104964079D01*
X147628637Y-102335442D01*
X147628637Y-102407284D01*
X145035921Y-105000000D01*
X147664558Y-107628637D01*
X148222770Y-107310083D01*
X148861482Y-105900937D01*
X148912318Y-104354633D01*
X148912318Y-119354633D01*
X148367539Y-117906579D01*
X148222770Y-117689917D01*
X147664558Y-117371363D01*
X147628637Y-117407284D01*
X147628637Y-117335442D01*
X147628637Y-107664558D01*
X145000000Y-105035921D01*
X144964079Y-105071842D01*
X144964079Y-105000000D01*
X142335442Y-102371363D01*
X141777230Y-102689917D01*
X141138518Y-104099063D01*
X141087682Y-105645367D01*
X141632461Y-107093421D01*
X141777230Y-107310083D01*
X142335442Y-107628637D01*
X144964079Y-105000000D01*
X144964079Y-105071842D01*
X142371363Y-107664558D01*
X142689917Y-108222770D01*
X144099063Y-108861482D01*
X145645367Y-108912318D01*
X147093421Y-108367539D01*
X147310083Y-108222770D01*
X147628637Y-107664558D01*
X147628637Y-117335442D01*
X147310083Y-116777230D01*
X145900937Y-116138518D01*
X144354633Y-116087682D01*
X142906579Y-116632461D01*
X142689917Y-116777230D01*
X142371363Y-117335442D01*
X145000000Y-119964079D01*
X147628637Y-117335442D01*
X147628637Y-117407284D01*
X145035921Y-120000000D01*
X147664558Y-122628637D01*
X148222770Y-122310083D01*
X148861482Y-120900937D01*
X148912318Y-119354633D01*
X148912318Y-124315000D01*
X147628637Y-124315000D01*
X147628637Y-122664558D01*
X145000000Y-120035921D01*
X144964079Y-120071842D01*
X144964079Y-120000000D01*
X142335442Y-117371363D01*
X141777230Y-117689917D01*
X141138518Y-119099063D01*
X141087682Y-120645367D01*
X141632461Y-122093421D01*
X141777230Y-122310083D01*
X142335442Y-122628637D01*
X144964079Y-120000000D01*
X144964079Y-120071842D01*
X142371363Y-122664558D01*
X142689917Y-123222770D01*
X144099063Y-123861482D01*
X145645367Y-123912318D01*
X147093421Y-123367539D01*
X147310083Y-123222770D01*
X147628637Y-122664558D01*
X147628637Y-124315000D01*
X140886573Y-124315000D01*
X141084846Y-124117073D01*
X141334206Y-123516547D01*
X141334774Y-122866306D01*
X141086462Y-122265345D01*
X140627073Y-121805154D01*
X140462000Y-121736609D01*
X140462000Y-116840000D01*
X140403996Y-116548396D01*
X140403996Y-116548395D01*
X140337834Y-116449376D01*
X140238816Y-116301185D01*
X136428815Y-112491185D01*
X136181605Y-112326004D01*
X135890000Y-112268000D01*
X130320630Y-112268000D01*
X129384950Y-111332320D01*
X129385197Y-111050225D01*
X129385197Y-107500225D01*
X129212767Y-107082914D01*
X128893765Y-106763355D01*
X128476756Y-106590197D01*
X128025225Y-106589803D01*
X127607914Y-106762233D01*
X127428948Y-106940886D01*
X127410485Y-106913255D01*
X127112028Y-106898893D01*
X126285921Y-107725000D01*
X127112028Y-108551107D01*
X127410485Y-108536745D01*
X127424579Y-108504671D01*
X127606235Y-108686645D01*
X128023244Y-108859803D01*
X128474775Y-108860197D01*
X128892086Y-108687767D01*
X129211645Y-108368765D01*
X129384803Y-107951756D01*
X129385197Y-107500225D01*
X129385197Y-111050225D01*
X129212767Y-110632914D01*
X128893765Y-110313355D01*
X128476756Y-110140197D01*
X128025225Y-110139803D01*
X127607914Y-110312233D01*
X127428948Y-110490886D01*
X127410485Y-110463255D01*
X127112028Y-110448893D01*
X126285921Y-111275000D01*
X126300063Y-111289142D01*
X126264142Y-111325063D01*
X126250000Y-111310921D01*
X126235857Y-111325063D01*
X126199936Y-111289142D01*
X126214079Y-111275000D01*
X126199936Y-111260857D01*
X126235857Y-111224936D01*
X126250000Y-111239079D01*
X127076107Y-110412972D01*
X127061745Y-110114515D01*
X126555856Y-109892210D01*
X126003404Y-109880423D01*
X125488493Y-110080947D01*
X125438255Y-110114515D01*
X125427080Y-110346728D01*
X125393765Y-110313355D01*
X125274937Y-110264013D01*
X125268308Y-110257384D01*
X125265568Y-110260123D01*
X124976756Y-110140197D01*
X124525225Y-110139803D01*
X124107914Y-110312233D01*
X123928948Y-110490886D01*
X123910485Y-110463255D01*
X123612028Y-110448893D01*
X123576107Y-110484814D01*
X123576107Y-110412972D01*
X123576107Y-108587028D01*
X122750000Y-107760921D01*
X121923893Y-108587028D01*
X121938255Y-108885485D01*
X122444144Y-109107790D01*
X122996596Y-109119577D01*
X123511507Y-108919053D01*
X123561745Y-108885485D01*
X123576107Y-108587028D01*
X123576107Y-110412972D01*
X123561745Y-110114515D01*
X123055856Y-109892210D01*
X122503404Y-109880423D01*
X121988493Y-110080947D01*
X121938255Y-110114515D01*
X121923893Y-110412972D01*
X122750000Y-111239079D01*
X123576107Y-110412972D01*
X123576107Y-110484814D01*
X122785921Y-111275000D01*
X122800063Y-111289142D01*
X122764142Y-111325063D01*
X122750000Y-111310921D01*
X122735857Y-111325063D01*
X122699936Y-111289142D01*
X122714079Y-111275000D01*
X121887972Y-110448893D01*
X121589515Y-110463255D01*
X121367210Y-110969144D01*
X121359818Y-111315564D01*
X121071216Y-111315313D01*
X120674311Y-111479311D01*
X120370378Y-111782714D01*
X120205687Y-112179332D01*
X120205313Y-112608784D01*
X120369311Y-113005689D01*
X120523000Y-113159646D01*
X120523000Y-114935000D01*
X120435994Y-114497593D01*
X120188223Y-114126777D01*
X118918223Y-112856777D01*
X118547407Y-112609006D01*
X118110000Y-112522000D01*
X117672928Y-112522000D01*
X117632370Y-112481371D01*
X117424487Y-112395050D01*
X117630303Y-112310010D01*
X118023629Y-111917370D01*
X118236757Y-111404100D01*
X118236808Y-111344637D01*
X121426734Y-108154711D01*
X121555947Y-108486507D01*
X121589515Y-108536745D01*
X121887972Y-108551107D01*
X122714079Y-107725000D01*
X122699936Y-107710857D01*
X122735857Y-107674936D01*
X122750000Y-107689079D01*
X123576107Y-106862972D01*
X123561745Y-106564515D01*
X123535540Y-106553000D01*
X125455488Y-106553000D01*
X125438255Y-106564515D01*
X125427080Y-106796728D01*
X125393765Y-106763355D01*
X125274937Y-106714013D01*
X125268308Y-106707384D01*
X125265568Y-106710123D01*
X124976756Y-106590197D01*
X124525225Y-106589803D01*
X124107914Y-106762233D01*
X123928948Y-106940886D01*
X123910485Y-106913255D01*
X123612028Y-106898893D01*
X122785921Y-107725000D01*
X123612028Y-108551107D01*
X123910485Y-108536745D01*
X123924579Y-108504671D01*
X124106235Y-108686645D01*
X124523244Y-108859803D01*
X124974775Y-108860197D01*
X125265686Y-108739994D01*
X125268308Y-108742616D01*
X125274621Y-108736302D01*
X125392086Y-108687767D01*
X125427060Y-108652853D01*
X125438255Y-108885485D01*
X125944144Y-109107790D01*
X126496596Y-109119577D01*
X127011507Y-108919053D01*
X127061745Y-108885485D01*
X127076107Y-108587028D01*
X126250000Y-107760921D01*
X126235857Y-107775063D01*
X126199936Y-107739142D01*
X126214079Y-107725000D01*
X126199936Y-107710857D01*
X126235857Y-107674936D01*
X126250000Y-107689079D01*
X127076107Y-106862972D01*
X127061745Y-106564515D01*
X127035540Y-106553000D01*
X129026554Y-106553000D01*
X132969029Y-110495475D01*
X132968714Y-110856963D01*
X133219534Y-111463995D01*
X133683563Y-111928834D01*
X134290155Y-112180713D01*
X134946963Y-112181286D01*
X135553995Y-111930466D01*
X136018834Y-111466437D01*
X136270713Y-110859845D01*
X136271286Y-110203037D01*
X136020466Y-109596005D01*
X135556437Y-109131166D01*
X134949845Y-108879287D01*
X134585415Y-108878969D01*
X130308223Y-104601777D01*
X129937407Y-104354006D01*
X129500000Y-104267000D01*
X127854446Y-104267000D01*
X128886970Y-103234475D01*
X129228694Y-103234774D01*
X129829655Y-102986462D01*
X130289846Y-102527073D01*
X130539206Y-101926547D01*
X130539774Y-101276306D01*
X130295451Y-100685000D01*
X137675140Y-100685000D01*
X137430794Y-101273453D01*
X137430226Y-101923694D01*
X137678538Y-102524655D01*
X138137927Y-102984846D01*
X138738453Y-103234206D01*
X139388694Y-103234774D01*
X139989655Y-102986462D01*
X140449846Y-102527073D01*
X140699206Y-101926547D01*
X140699774Y-101276306D01*
X140455451Y-100685000D01*
X149315000Y-100685000D01*
X149315000Y-124315000D01*
M02*
