M48
;DRILL file {kicad (2014-jul-16 BZR unknown)-product} date Sun 05 Oct 2014 02:29:45 PM PDT
;FORMAT={2:4/ absolute / inch / suppress leading zeros}
FMAT,2
INCH,TZ
T1C0.020
T2C0.025
T3C0.039
T4C0.040
T5C0.041
T6C0.125
%
G90
G05
M72
T1
X48327Y-42411
X48327Y-43809
X48327Y-44577
X48327Y-46368
X49114Y-42411
X49114Y-43809
X49114Y-44577
X49114Y-46368
X49705Y-42411
X49705Y-43809
X49705Y-44577
X49705Y-46368
X50492Y-42411
X50492Y-43809
X50492Y-44577
X50492Y-46368
T2
X45750Y-47500
X46250Y-41500
X46250Y-46750
X47750Y-44250
X51250Y-47500
X51750Y-47000
X54500Y-46250
T3
X43500Y-40000
X43500Y-48500
X47500Y-40000
X47500Y-48500
X50750Y-40000
X51000Y-48500
X54750Y-40000
X55000Y-48500
T4
X42250Y-44250
X45000Y-42750
X45000Y-43750
X45000Y-44750
X45000Y-45750
X46000Y-42750
X46000Y-43750
X46000Y-44750
X46000Y-45750
X53000Y-43516
X53000Y-45484
T5
X49016Y-45472
X50394Y-45472
T6
X41339Y-41339
X41339Y-47244
X57087Y-41339
X57087Y-47244
T0
M30
