M48
;DRILL file {kicad (2014-jul-16 BZR unknown)-product} date Sun 05 Oct 2014 11:56:58 AM PDT
;FORMAT={-:-/ absolute / inch / decimal}
FMAT,2
INCH,TZ
T1C0.020
T2C0.025
T3C0.039
T4C0.040
T5C0.041
T6C0.125
%
G90
G05
M72
T1
X4.8327Y-4.2411
X4.8327Y-4.3809
X4.8327Y-4.4577
X4.8327Y-4.6368
X4.9114Y-4.2411
X4.9114Y-4.3809
X4.9114Y-4.4577
X4.9114Y-4.6368
X4.9705Y-4.2411
X4.9705Y-4.3809
X4.9705Y-4.4577
X4.9705Y-4.6368
X5.0492Y-4.2411
X5.0492Y-4.3809
X5.0492Y-4.4577
X5.0492Y-4.6368
T2
X4.575Y-4.75
X4.625Y-4.15
X4.625Y-4.675
X4.775Y-4.425
X5.125Y-4.75
X5.175Y-4.7
X5.45Y-4.625
T3
X4.35Y-4.
X4.35Y-4.85
X4.75Y-4.
X4.75Y-4.85
X5.075Y-4.
X5.1Y-4.85
X5.475Y-4.
X5.5Y-4.85
T4
X4.225Y-4.425
X4.5Y-4.275
X4.5Y-4.375
X4.5Y-4.475
X4.5Y-4.575
X4.6Y-4.275
X4.6Y-4.375
X4.6Y-4.475
X4.6Y-4.575
X5.3Y-4.3516
X5.3Y-4.5484
T5
X4.9016Y-4.5472
X5.0394Y-4.5472
T6
X4.1339Y-4.1339
X4.1339Y-4.7244
X5.7087Y-4.1339
X5.7087Y-4.7244
T0
M30
