%FSLAX36Y36*%
G04 Gerber Fmt 3.6, Leading zero omitted, Abs format (unit inch)*
G04 Created by KiCad (PCBNEW (2014-jul-16 BZR unknown)-product) date Sun 05 Oct 2014 02:29:47 PM PDT*
%MOIN*%
G01*
G04 APERTURE LIST*
%ADD10C,0.003937*%
%ADD11C,0.236220*%
%ADD12R,0.060000X0.060000*%
%ADD13C,0.060000*%
%ADD14C,0.078700*%
%ADD15R,0.088000X0.088000*%
%ADD16C,0.039370*%
%ADD17C,0.041339*%
%ADD18C,0.080000*%
G04 APERTURE END LIST*
D10*
D11*
X4133858Y-4133858D03*
X5708661Y-4133858D03*
X4133858Y-4724409D03*
X5708661Y-4724409D03*
D12*
X4600000Y-4575000D03*
D13*
X4500000Y-4575000D03*
X4600000Y-4475000D03*
X4500000Y-4475000D03*
X4600000Y-4375000D03*
X4500000Y-4375000D03*
X4600000Y-4275000D03*
X4500000Y-4275000D03*
D14*
X5500000Y-4850000D03*
X5100000Y-4850000D03*
X4750000Y-4850000D03*
X4350000Y-4850000D03*
X4750000Y-4000000D03*
X4350000Y-4000000D03*
X5475000Y-4000000D03*
X5075000Y-4000000D03*
D15*
X4225000Y-4425000D03*
D16*
X4832677Y-4636772D03*
X4911417Y-4636811D03*
X4832677Y-4457677D03*
X4911417Y-4457677D03*
D17*
X4901575Y-4547244D03*
D16*
X4970472Y-4636772D03*
X5049213Y-4636811D03*
X4970472Y-4457677D03*
X5049213Y-4457677D03*
D17*
X5039370Y-4547244D03*
D16*
X4911417Y-4241142D03*
X4832677Y-4241142D03*
X4911417Y-4380906D03*
X4832677Y-4380906D03*
X5049213Y-4241142D03*
X4970472Y-4241142D03*
X5049213Y-4380906D03*
X4970472Y-4380906D03*
D18*
X5300000Y-4548425D03*
X5300000Y-4351575D03*
M02*
